<svg width="362" height="356" viewBox="0 0 362 356" fill="none" xmlns="http://www.w3.org/2000/svg">
<path d="M12.001 31.3431C16.2565 69.7495 23.3775 92.5881 30.862 122.109C33.5325 132.642 42.5807 167.177 53.2729 215.281C59.3829 242.77 64.0079 261.525 65.8149 270.817C68.9909 287.148 73.2888 311.436 74.7215 316.825C81.9173 343.89 89.6692 245.273 91.8291 230.988C96.1652 202.31 106.05 165.466 108.584 152.914C111.302 139.446 116.785 125.477 123.884 97.3889C127.179 84.3551 130.3 71.332 135.656 48.889C138.342 37.639 141.719 29.2474 142.799 18.908C143.062 16.3844 143.857 14.2783 145.279 15.3047C157.665 24.2445 153.138 43.4039 155.619 58.7258C158.041 73.6883 162.376 90.4069 166.311 110.391C169.712 127.665 171.657 138.907 175.934 154.603C180.277 170.541 182.349 195.191 184.851 209.144C187.438 223.569 188.765 236.591 190.197 245.155C191.729 254.307 195.18 262.252 197.682 274.719C200.164 287.087 202.322 300.017 204.097 309.661C205.167 320.012 207.305 326.427 208.727 330.693C209.443 332.842 210.149 334.959 210.876 337.14" stroke="black" stroke-width="24" stroke-linecap="round" stroke-linejoin="round"/>
<path d="M88.9851 198.142C91.1022 197.415 101.046 201.692 119.918 208.802C135.778 214.778 148.092 218.799 160.933 220.232C166.323 220.833 175.87 223.803 188.337 222.745C201.43 221.633 203.007 198.912 205.167 187.492C207.433 175.511 210.876 161.874 212.651 146.873C214.671 129.803 217.292 101.356 219.067 85.2107C220.982 67.7905 221.569 40.838 223.344 22.4687C223.587 19.9522 223.707 17.144 224.06 14.6313C224.413 12.1187 225.118 10.0016 225.482 15.2622C227.818 49.0713 227.984 61.923 230.465 77.972C232.572 91.6092 241.456 115.256 251.475 136.79C254.029 142.281 264.273 142.542 275.308 141.484C289.233 140.148 297.056 118.421 308.143 100.896C315.223 89.7063 328.405 62.1796 335.248 45.9916C339.784 35.2617 346.283 22.875 349.512 13.1772C350.73 9.51896 345.641 41.1159 338.52 74.2404C334.856 91.283 332.062 99.7307 326.759 122.73C314.726 174.911 304.968 211.657 304.615 217.345C303.839 229.86 297.141 242.279 294.286 255.474C291.722 267.323 288.587 280.044 285.733 292.191C283.196 302.984 280.034 311.437 278.954 320.001C277.895 324.267 276.462 328.566 275.04 332.832C274.324 334.981 273.618 337.098 270.753 343.556" stroke="black" stroke-width="24" stroke-linecap="round" stroke-linejoin="round"/>
</svg>
