<svg width="161" height="215" viewBox="0 0 161 215" fill="none" xmlns="http://www.w3.org/2000/svg">
<path d="M17.2828 72.2418C17.5277 70.3244 16.1718 68.5715 14.2544 68.3267C12.337 68.0818 10.5841 69.4377 10.3392 71.3551L13.811 71.7985L17.2828 72.2418ZM13.7984 71.8977L17.2255 72.6081L17.253 72.4754L17.2702 72.341L13.7984 71.8977ZM6.39542 139.174L2.92315 138.734L6.39542 139.174ZM16.7965 204.895L15.509 208.149L16.7965 204.895ZM28.206 166.362L24.7279 166.753L28.206 166.362ZM30.6166 135.123L27.1416 134.705L30.6166 135.123ZM32.4882 124.857L29.0895 124.021V124.021L32.4882 124.857ZM35.1071 114.745L31.7299 113.826L35.1071 114.745ZM42.0317 73.8169L38.5341 73.9463L42.0317 73.8169ZM37.348 66.6914L35.9053 69.8803L37.348 66.6914ZM27.6613 63.9317L27.1765 67.398L27.6613 63.9317ZM14.1658 67.5061L12.1609 64.6372L11.9463 64.7871L11.7565 64.9673L14.1658 67.5061ZM13.9109 67.748L14.1202 71.2417L15.3943 71.1654L16.3202 70.2867L13.9109 67.748ZM13.6017 64.2602C11.6721 64.3759 10.2017 66.0338 10.3173 67.9633C10.4329 69.8929 12.0909 71.3633 14.0204 71.2477L13.811 67.754L13.6017 64.2602ZM13.811 71.7985L10.3392 71.3551L10.3266 71.4543L13.7984 71.8977L17.2702 72.341L17.2828 72.2418L13.811 71.7985ZM13.7984 71.8977L10.3712 71.1873C8.95283 78.0299 8.26196 83.5344 8.46209 87.5168L11.9577 87.3411L15.4533 87.1654C15.2994 84.1041 15.8357 79.3129 17.2255 72.6081L13.7984 71.8977ZM11.9577 87.3411L8.46209 87.5168C8.62433 90.7451 8.3814 93.9164 7.73521 97.038L11.1625 97.7475L14.5899 98.457C15.3579 94.7471 15.645 90.9808 15.4533 87.1654L11.9577 87.3411ZM11.1625 97.7475L7.73521 97.038C7.01238 100.53 6.40742 104.038 5.92041 107.562L9.38745 108.041L12.8545 108.52C13.3201 105.151 13.8986 101.797 14.5899 98.457L11.1625 97.7475ZM9.38745 108.041L5.92041 107.562C5.4343 111.079 5.05664 114.605 4.78748 118.141L8.27738 118.407L11.7673 118.672C12.0256 115.28 12.388 111.895 12.8545 108.52L9.38745 108.041ZM8.27738 118.407L4.78748 118.141C4.52409 121.601 4.2542 125.06 3.97781 128.519L7.46669 128.797L10.9556 129.076C11.2327 125.609 11.5032 122.141 11.7673 118.672L8.27738 118.407ZM7.46669 128.797L3.97781 128.519C3.70537 131.928 3.35382 135.333 2.92315 138.734L6.39542 139.174L9.8677 139.613C10.3119 136.105 10.6745 132.593 10.9556 129.076L7.46669 128.797ZM6.39542 139.174L2.92315 138.734C2.4716 142.3 2.19285 145.878 2.08698 149.467L5.58546 149.571L9.08394 149.674C9.18316 146.31 9.44439 142.956 9.8677 139.613L6.39542 139.174ZM5.58546 149.571L2.08698 149.467C1.98235 153.015 1.98514 156.565 2.09531 160.118L5.59363 160.01L9.09195 159.901C8.98614 156.489 8.98348 153.08 9.08394 149.674L5.58546 149.571ZM5.59363 160.01L2.09531 160.118C2.19649 163.381 1.9915 166.635 1.47943 169.883L4.93673 170.428L8.39403 170.973C8.97382 167.296 9.20677 163.604 9.09195 159.901L5.59363 160.01ZM4.93673 170.428L1.47943 169.883C0.91925 173.436 0.500468 176.997 0.223225 180.566L3.71271 180.837L7.20219 181.108C7.46511 177.724 7.86234 174.346 8.39403 170.973L4.93673 170.428ZM3.71271 180.837L0.223225 180.566C-0.0603509 184.216 -0.0734706 187.902 0.18228 191.622L3.67404 191.382L7.16579 191.142C6.93295 187.755 6.94561 184.411 7.20219 181.108L3.71271 180.837ZM3.67404 191.382L0.18228 191.622C0.491174 196.114 2.40503 199.877 5.90658 202.626L8.06782 199.873L10.2291 197.12C8.36083 195.653 7.3455 193.755 7.16579 191.142L3.67404 191.382ZM8.06782 199.873L5.90658 202.626C8.85357 204.94 12.0568 206.784 15.509 208.149L16.7965 204.895L18.0841 201.64C15.2677 200.526 12.6518 199.022 10.2291 197.12L8.06782 199.873ZM16.7965 204.895L15.509 208.149C19.3753 209.679 23.2682 209.792 26.9074 208.101L25.4329 204.927L23.9584 201.753C22.3511 202.499 20.4864 202.591 18.0841 201.64L16.7965 204.895ZM25.4329 204.927L26.9074 208.101C28.8653 207.192 30.4343 205.766 31.4338 203.828C32.4065 201.942 32.7207 199.805 32.6201 197.61L29.1238 197.77L25.6274 197.93C25.6896 199.287 25.4701 200.12 25.2124 200.619C24.9817 201.067 24.6239 201.443 23.9584 201.753L25.4329 204.927ZM29.1238 197.77L32.6201 197.61C32.4643 194.21 32.5336 190.852 32.8269 187.533L29.3405 187.225L25.854 186.917C25.5328 190.553 25.4576 194.224 25.6274 197.93L29.1238 197.77ZM29.3405 187.225L32.8269 187.533C33.1531 183.84 33.1377 180.148 32.7808 176.459L29.2971 176.796L25.8133 177.133C26.1287 180.393 26.1423 183.654 25.854 186.917L29.3405 187.225ZM29.2971 176.796L32.7808 176.459C32.4429 172.966 32.0773 169.47 31.6841 165.971L28.206 166.362L24.7279 166.753C25.1171 170.216 25.4789 173.677 25.8133 177.133L29.2971 176.796ZM28.206 166.362L31.6841 165.971C31.3364 162.877 31.5021 159.8 32.1855 156.723L28.7688 155.964L25.352 155.205C24.5026 159.03 24.2931 162.884 24.7279 166.753L28.206 166.362ZM28.7688 155.964L32.1855 156.723C33.0047 153.035 33.4289 149.318 33.4555 145.576L29.9556 145.551L26.4557 145.526C26.4326 148.768 26.0655 151.993 25.352 155.205L28.7688 155.964ZM29.9556 145.551L33.4555 145.576C33.4795 142.216 33.6915 138.87 34.0916 135.54L30.6166 135.123L27.1416 134.705C26.7101 138.297 26.4815 141.904 26.4557 145.526L29.9556 145.551ZM30.6166 135.123L34.0916 135.54C34.4904 132.22 35.0888 128.938 35.8869 125.693L32.4882 124.857L29.0895 124.021C28.2236 127.542 27.5742 131.104 27.1416 134.705L30.6166 135.123ZM32.4882 124.857L35.8869 125.693C36.7121 122.338 37.5779 118.995 38.4843 115.664L35.1071 114.745L31.7299 113.826C30.8085 117.212 29.9283 120.61 29.0895 124.021L32.4882 124.857ZM35.1071 114.745L38.4843 115.664C39.445 112.134 40.1325 108.547 40.5466 104.905L37.069 104.509L33.5914 104.114C33.2174 107.403 32.597 110.64 31.7299 113.826L35.1071 114.745ZM37.069 104.509L40.5466 104.905C40.9278 101.553 41.4711 98.233 42.1764 94.9448L38.7543 94.2107L35.3321 93.4766C34.5786 96.9893 33.9984 100.535 33.5914 104.114L37.069 104.509ZM38.7543 94.2107L42.1764 94.9448C42.9017 91.5639 43.6573 88.1829 44.4433 84.8019L41.0343 84.0093L37.6252 83.2168C36.8301 86.6366 36.0658 90.0565 35.3321 93.4766L38.7543 94.2107ZM41.0343 84.0093L44.4433 84.8019C45.3022 81.1078 45.6667 77.4004 45.5293 73.6875L42.0317 73.8169L38.5341 73.9463C38.6479 77.0224 38.3475 80.11 37.6252 83.2168L41.0343 84.0093ZM42.0317 73.8169L45.5293 73.6875C45.4475 71.4769 44.8861 69.3849 43.6913 67.5672C42.4922 65.743 40.7961 64.4099 38.7906 63.5026L37.348 66.6914L35.9053 69.8803C36.8967 70.3288 37.4797 70.8612 37.8418 71.4121C38.2082 71.9696 38.4903 72.7624 38.5341 73.9463L42.0317 73.8169ZM37.348 66.6914L38.7906 63.5026C35.4709 62.0007 31.9172 60.9928 28.146 60.4654L27.6613 63.9317L27.1765 67.398C30.3272 67.8386 33.2313 68.6705 35.9053 69.8803L37.348 66.6914ZM27.6613 63.9317L28.146 60.4654C24.102 59.8999 20.3008 60.3829 16.9056 62.1137L18.4952 65.2319L20.0848 68.3501C21.9892 67.3793 24.2987 66.9955 27.1765 67.398L27.6613 63.9317ZM18.4952 65.2319L16.9056 62.1137C15.5765 62.7913 14.5384 63.3261 13.7979 63.715C13.1926 64.033 12.5101 64.3932 12.1609 64.6372L14.1658 67.5061L16.1707 70.3749C16.0463 70.4618 16.0054 70.4755 16.2554 70.3381C16.4373 70.2381 16.7004 70.0974 17.0531 69.9121C17.7558 69.543 18.7641 69.0234 20.0848 68.3501L18.4952 65.2319ZM14.1658 67.5061L11.7565 64.9673L11.5015 65.2093L13.9109 67.748L16.3202 70.2867L16.5751 70.0448L14.1658 67.5061ZM13.9109 67.748L13.7015 64.2543L13.6017 64.2602L13.811 67.754L14.0204 71.2477L14.1202 71.2417L13.9109 67.748Z" fill="black"/>
<path d="M36.5987 8.65937C37.9137 7.24265 37.8313 5.02811 36.4146 3.71305C34.9979 2.39799 32.7833 2.48041 31.4683 3.89713L34.0335 6.27825L36.5987 8.65937ZM33.9654 6.35154L34.1645 9.84588L35.5717 9.76572L36.5306 8.73266L33.9654 6.35154ZM28.2317 44.1647L28.0665 40.6686L28.2317 44.1647ZM37.7642 41.6929L36.2549 38.5351L37.7642 41.6929ZM49.6271 25.9104L53.0818 26.4718L49.6271 25.9104ZM49.3788 15.6277L45.9554 16.3558L49.3788 15.6277ZM44.129 7.43884L46.2083 4.62341L44.129 7.43884ZM34.1201 3.58832L30.7953 2.49465L30.6531 2.92684L30.6262 3.381L34.1201 3.58832ZM34.1 3.92621L31.4874 6.25525L37.0947 12.5452L37.5939 4.13353L34.1 3.92621ZM36.646 1.52252C35.3597 0.0796356 33.1473 -0.0473111 31.7044 1.23898C30.2615 2.52527 30.1346 4.73771 31.4209 6.1806L34.0335 3.85156L36.646 1.52252ZM34.0335 6.27825L31.4683 3.89713L31.4002 3.97043L33.9654 6.35154L36.5306 8.73266L36.5987 8.65937L34.0335 6.27825ZM33.9654 6.35154L33.7664 2.85721C29.9391 3.07522 26.596 3.68135 23.8902 4.8134C21.1517 5.95914 18.8665 7.73608 17.6016 10.3582L20.754 11.8789L23.9064 13.3996C24.2204 12.7486 24.9267 11.9677 26.5919 11.271C28.29 10.5606 30.7631 10.0396 34.1645 9.84588L33.9654 6.35154ZM20.754 11.8789L17.6016 10.3582C15.7874 14.1191 14.9253 18.0599 15.0589 22.1384L18.557 22.0239L22.0551 21.9093C21.9601 19.0075 22.5627 16.185 23.9064 13.3996L20.754 11.8789ZM18.557 22.0239L15.0589 22.1384C15.165 25.38 14.9281 28.6179 14.3462 31.8561L17.791 32.4751L21.2358 33.0942C21.9037 29.3777 22.1775 25.6481 22.0551 21.9093L18.557 22.0239ZM17.791 32.4751L14.3462 31.8561C13.5518 36.2766 14.5355 40.327 17.6178 43.4863L20.123 41.0422L22.6283 38.5981C21.3514 37.2893 20.7805 35.6282 21.2358 33.0942L17.791 32.4751ZM20.123 41.0422L17.6178 43.4863C20.5234 46.4646 24.2107 47.8586 28.3969 47.6608L28.2317 44.1647L28.0665 40.6686C25.8003 40.7757 24.0818 40.088 22.6283 38.5981L20.123 41.0422ZM28.2317 44.1647L28.3969 47.6608C32.1227 47.4847 35.755 46.5324 39.2734 44.8508L37.7642 41.6929L36.2549 38.5351C33.5157 39.8443 30.793 40.5398 28.0665 40.6686L28.2317 44.1647ZM37.7642 41.6929L39.2734 44.8508C42.912 43.1118 45.9697 40.6078 48.4142 37.3748L45.6224 35.2639L42.8306 33.153C41.0551 35.5012 38.874 37.2833 36.2549 38.5351L37.7642 41.6929ZM45.6224 35.2639L48.4142 37.3748C50.8673 34.1305 52.4304 30.481 53.0818 26.4718L49.6271 25.9104L46.1724 25.3491C45.7043 28.2299 44.5976 30.816 42.8306 33.153L45.6224 35.2639ZM49.6271 25.9104L53.0818 26.4718C53.711 22.5992 53.6179 18.7344 52.8023 14.8996L49.3788 15.6277L45.9554 16.3558C46.5904 19.3413 46.6627 22.3317 46.1724 25.3491L49.6271 25.9104ZM49.3788 15.6277L52.8023 14.8996C51.9012 10.6628 49.6791 7.1867 46.2083 4.62341L44.129 7.43884L42.0498 10.2543C44.1282 11.7892 45.406 13.7724 45.9554 16.3558L49.3788 15.6277ZM44.129 7.43884L46.2083 4.62341C43.2853 2.46469 40.4183 0.890013 37.7088 0.400804L37.0869 3.84511L36.465 7.28942C37.5958 7.4936 39.4236 8.31474 42.0498 10.2543L44.129 7.43884ZM37.0869 3.84511L37.7088 0.400804C36.7231 0.222834 35.8672 0.0910878 35.2069 0.0339317C34.9025 0.00758529 34.4741 -0.0189321 34.0384 0.0184896C33.8399 0.0355425 33.42 0.0817018 32.9439 0.26233C32.576 0.401898 31.3025 0.95266 30.7953 2.49465L34.1201 3.58832L37.4448 4.68198C36.952 6.1801 35.7221 6.69515 35.4268 6.80716C35.0234 6.96023 34.7052 6.987 34.6375 6.99281C34.4634 7.00776 34.4132 6.9914 34.6032 7.00786C34.9318 7.0363 35.5305 7.1207 36.465 7.28942L37.0869 3.84511ZM34.1201 3.58832L30.6262 3.381L30.6061 3.71889L34.1 3.92621L37.5939 4.13353L37.6139 3.79564L34.1201 3.58832ZM34.1 3.92621L36.7126 1.59717L36.646 1.52252L34.0335 3.85156L31.4209 6.1806L31.4874 6.25525L34.1 3.92621Z" fill="black"/>
<path d="M48.4672 199.342C46.5354 199.412 45.0261 201.035 45.0959 202.967C45.1657 204.898 46.7883 206.408 48.72 206.338L48.5936 202.84L48.4672 199.342ZM48.6935 202.836L49.1069 199.361L48.8378 199.329L48.5671 199.339L48.6935 202.836ZM64.2053 205.191L63.4668 208.612L64.2053 205.191ZM77.8694 193.827L74.5388 192.752L77.8694 193.827ZM80.0432 173.404L76.6091 172.727L80.0432 173.404ZM80.9583 162.995L77.4591 163.069L80.9583 162.995ZM81.5773 152.637L85.0428 153.127L81.5773 152.637ZM85.9078 121.648L89.3454 122.306L85.9078 121.648ZM117.228 109.113L115.813 112.314L117.228 109.113ZM123.464 116.389L126.832 115.438L123.464 116.389ZM122.698 147.656L119.305 146.799L122.698 147.656ZM122.15 158.1L118.684 158.589L122.15 158.1ZM122.305 168.599L118.828 168.2L122.305 168.599ZM120.851 178.93L117.399 178.353L120.851 178.93ZM118.668 189.196L115.279 188.321L118.668 189.196ZM118.393 199.5L121.823 198.806L118.393 199.5ZM122.551 206.715L120.636 209.645L122.551 206.715ZM130.753 210.272L131.756 206.919L130.753 210.272ZM141.123 211.305L140.799 207.82L141.123 211.305ZM153.215 200.916L149.738 200.517L153.215 200.916ZM154.538 180.135L158.036 180.03L154.538 180.135ZM156.524 159.367L153.027 159.507L156.524 159.367ZM156.978 138.507L153.485 138.283V138.283L156.978 138.507ZM157.211 117.653L153.718 117.435L157.211 117.653ZM149.997 77.2985L147.34 79.5765L149.997 77.2985ZM132.974 65.9026L134.497 62.7511L132.974 65.9026ZM112.675 61.8595L112.597 58.3604L112.675 61.8595ZM82.6995 67.9142L80.8123 64.9666L82.6995 67.9142ZM65.2981 92.9026L62.1594 91.3539L65.2981 92.9026ZM61.2001 102.436L57.916 101.226L61.2001 102.436ZM50.3288 202.939L53.5668 204.268L53.5739 204.251L53.5808 204.233L50.3288 202.939ZM49.4145 205.168L46.1765 203.839L45.9967 204.277L45.9398 204.747L49.4145 205.168ZM45.9278 204.846C45.6956 206.765 47.0631 208.509 48.9821 208.741C50.9011 208.974 52.645 207.606 52.8772 205.687L49.4025 205.267L45.9278 204.846ZM48.5936 202.84L48.72 206.338L48.82 206.334L48.6935 202.836L48.5671 199.339L48.4672 199.342L48.5936 202.84ZM48.6935 202.836L48.2802 206.312C55.0891 207.122 60.1285 207.891 63.4668 208.612L64.2053 205.191L64.9438 201.769C61.2761 200.978 55.9744 200.178 49.1069 199.361L48.6935 202.836ZM64.2053 205.191L63.4668 208.612C68.1334 209.619 72.3291 208.366 75.4975 204.816L72.8863 202.486L70.275 200.155C68.8748 201.724 67.2831 202.274 64.9438 201.769L64.2053 205.191ZM72.8863 202.486L75.4975 204.816C78.101 201.899 80.01 198.587 81.1999 194.903L77.8694 193.827L74.5388 192.752C73.6533 195.493 72.2402 197.953 70.275 200.155L72.8863 202.486ZM77.8694 193.827L81.1999 194.903C82.3676 191.288 82.871 187.536 82.7197 183.669L79.2224 183.806L75.725 183.943C75.8451 187.012 75.4466 189.941 74.5388 192.752L77.8694 193.827ZM79.2224 183.806L82.7197 183.669C82.5948 180.479 82.846 177.284 83.4772 174.08L80.0432 173.404L76.6091 172.727C75.8745 176.457 75.5785 180.197 75.725 183.943L79.2224 183.806ZM80.0432 173.404L83.4772 174.08C84.2079 170.371 84.5357 166.65 84.4575 162.922L80.9583 162.995L77.4591 163.069C77.5265 166.285 77.2443 169.503 76.6091 172.727L80.0432 173.404ZM80.9583 162.995L84.4575 162.922C84.3886 159.638 84.5838 156.373 85.0428 153.127L81.5773 152.637L78.1118 152.147C77.5999 155.767 77.3823 159.408 77.4591 163.069L80.9583 162.995ZM81.5773 152.637L85.0428 153.127C85.537 149.632 85.9389 146.121 86.2487 142.593L82.7621 142.287L79.2755 141.98C78.9765 145.386 78.5886 148.775 78.1118 152.147L81.5773 152.637ZM82.7621 142.287L86.2487 142.593C86.5453 139.215 86.9701 135.855 87.5229 132.515L84.0699 131.944L80.6169 131.372C80.0349 134.889 79.5878 138.425 79.2755 141.98L82.7621 142.287ZM84.0699 131.944L87.5229 132.515C88.0855 129.116 88.693 125.713 89.3454 122.306L85.9078 121.648L82.4703 120.989C81.8069 124.454 81.1891 127.915 80.6169 131.372L84.0699 131.944ZM85.9078 121.648L89.3454 122.306C89.9256 119.276 91.0109 116.436 92.6107 113.769L89.6093 111.969L86.6079 110.168C84.5881 113.535 83.2058 117.148 82.4703 120.989L85.9078 121.648ZM89.6093 111.969L92.6107 113.769C93.8849 111.645 95.558 110.566 97.8544 110.279L97.42 106.806L96.9856 103.333C92.4873 103.896 88.9532 106.259 86.6079 110.168L89.6093 111.969ZM97.42 106.806L97.8544 110.279C101.018 109.883 104.129 109.816 107.191 110.073L107.484 106.585L107.776 103.097C104.215 102.799 100.617 102.879 96.9856 103.333L97.42 106.806ZM107.484 106.585L107.191 110.073C110.097 110.317 112.967 111.056 115.813 112.314L117.228 109.113L118.643 105.911C115.12 104.354 111.493 103.409 107.776 103.097L107.484 106.585ZM117.228 109.113L115.813 112.314C118.014 113.287 119.397 114.868 120.095 117.341L123.464 116.389L126.832 115.438C125.585 111.023 122.812 107.754 118.643 105.911L117.228 109.113ZM123.464 116.389L120.095 117.341C120.923 120.27 121.058 123.199 120.508 126.168L123.95 126.806L127.391 127.443C128.138 123.412 127.95 119.396 126.832 115.438L123.464 116.389ZM123.95 126.806L120.508 126.168C119.801 129.986 119.631 133.809 120.003 137.629L123.486 137.29L126.97 136.951C126.663 133.793 126.802 130.627 127.391 127.443L123.95 126.806ZM123.486 137.29L120.003 137.629C120.303 140.714 120.072 143.764 119.305 146.799L122.698 147.656L126.092 148.514C127.054 144.704 127.349 140.844 126.97 136.951L123.486 137.29ZM122.698 147.656L119.305 146.799C118.328 150.667 118.123 154.605 118.684 158.589L122.15 158.1L125.616 157.612C125.179 154.514 125.34 151.49 126.092 148.514L122.698 147.656ZM122.15 158.1L118.684 158.589C119.143 161.843 119.189 165.045 118.828 168.2L122.305 168.599L125.782 168.997C126.213 165.235 126.155 161.438 125.616 157.612L122.15 158.1ZM122.305 168.599L118.828 168.2C118.438 171.599 117.962 174.983 117.399 178.353L120.851 178.93L124.303 179.507C124.886 176.018 125.379 172.515 125.782 168.997L122.305 168.599ZM120.851 178.93L117.399 178.353C116.842 181.68 116.136 185.003 115.279 188.321L118.668 189.196L122.057 190.071C122.964 186.559 123.712 183.038 124.303 179.507L120.851 178.93ZM118.668 189.196L115.279 188.321C114.265 192.248 114.158 196.219 114.962 200.194L118.393 199.5L121.823 198.806C121.23 195.872 121.307 192.973 122.057 190.071L118.668 189.196ZM118.393 199.5L114.962 200.194C115.767 204.174 117.497 207.592 120.636 209.645L122.551 206.715L124.466 203.786C123.458 203.126 122.416 201.735 121.823 198.806L118.393 199.5ZM122.551 206.715L120.636 209.645C123.084 211.245 126.159 212.551 129.75 213.625L130.753 210.272L131.756 206.919C128.559 205.962 126.166 204.896 124.466 203.786L122.551 206.715ZM130.753 210.272L129.75 213.625C133.573 214.769 137.48 215.158 141.447 214.79L141.123 211.305L140.799 207.82C137.728 208.105 134.722 207.806 131.756 206.919L130.753 210.272ZM141.123 211.305L141.447 214.79C145.392 214.423 148.88 213.326 151.63 211.237L149.512 208.451L147.394 205.664C145.996 206.726 143.892 207.532 140.799 207.82L141.123 211.305ZM149.512 208.451L151.63 211.237C154.691 208.911 156.226 205.382 156.693 201.314L153.215 200.916L149.738 200.517C149.414 203.344 148.48 204.839 147.394 205.664L149.512 208.451ZM153.215 200.916L156.693 201.314C157.092 197.833 157.44 194.346 157.739 190.853L154.251 190.555L150.764 190.257C150.472 193.683 150.13 197.103 149.738 200.517L153.215 200.916ZM154.251 190.555L157.739 190.853C158.046 187.258 158.145 183.651 158.036 180.03L154.538 180.135L151.039 180.241C151.14 183.593 151.048 186.932 150.764 190.257L154.251 190.555ZM154.538 180.135L158.036 180.03C157.94 176.844 158.25 173.68 158.97 170.531L155.557 169.752L152.145 168.972C151.295 172.695 150.925 176.454 151.039 180.241L154.538 180.135ZM155.557 169.752L158.97 170.531C159.822 166.796 160.174 163.025 160.022 159.226L156.524 159.367L153.027 159.507C153.155 162.682 152.862 165.835 152.145 168.972L155.557 169.752ZM156.524 159.367L160.022 159.226C159.885 155.823 159.87 152.426 159.978 149.037L156.48 148.926L152.981 148.815C152.869 152.373 152.884 155.937 153.027 159.507L156.524 159.367ZM156.48 148.926L159.978 149.037C160.087 145.601 160.251 142.165 160.471 138.73L156.978 138.507L153.485 138.283C153.261 141.793 153.093 145.304 152.981 148.815L156.48 148.926ZM156.978 138.507L160.471 138.73C160.701 135.136 160.743 131.539 160.595 127.939L157.098 128.083L153.601 128.226C153.738 131.581 153.7 134.933 153.485 138.283L156.978 138.507ZM157.098 128.083L160.595 127.939C160.458 124.583 160.494 121.227 160.704 117.872L157.211 117.653L153.718 117.435C153.493 121.031 153.454 124.628 153.601 128.226L157.098 128.083ZM157.211 117.653L160.704 117.872C160.935 114.194 160.845 110.53 160.434 106.881L156.956 107.272L153.478 107.664C153.843 110.905 153.923 114.162 153.718 117.435L157.211 117.653ZM156.956 107.272L160.434 106.881C160.028 103.276 159.379 99.7276 158.486 96.2361L155.095 97.1036L151.704 97.9711C152.517 101.147 153.108 104.378 153.478 107.664L156.956 107.272ZM155.095 97.1036L158.486 96.2361C157.698 93.1565 157.241 89.9397 157.121 86.5796L153.624 86.704L150.126 86.8284C150.262 90.6669 150.786 94.3831 151.704 97.9711L155.095 97.1036ZM153.624 86.704L157.121 86.5796C156.966 82.2083 155.473 78.3088 152.654 75.0205L149.997 77.2985L147.34 79.5765C149.1 81.6303 150.025 84.0012 150.126 86.8284L153.624 86.704ZM149.997 77.2985L152.654 75.0205C150.115 72.059 147.193 69.6158 143.893 67.7132L142.145 70.7454L140.397 73.7776C142.986 75.2703 145.299 77.1958 147.34 79.5765L149.997 77.2985ZM142.145 70.7454L143.893 67.7132C140.872 65.9716 137.74 64.3177 134.497 62.7511L132.974 65.9026L131.452 69.0541C134.547 70.5493 137.528 72.1239 140.397 73.7776L142.145 70.7454ZM132.974 65.9026L134.497 62.7511C131.046 61.0837 127.443 59.9085 123.697 59.2305L123.074 62.6745L122.45 66.1185C125.568 66.6828 128.566 67.6596 131.452 69.0541L132.974 65.9026ZM123.074 62.6745L123.697 59.2305C120.033 58.5673 116.332 58.2774 112.597 58.3604L112.675 61.8595L112.753 65.3587C116.02 65.2861 119.251 65.5394 122.45 66.1185L123.074 62.6745ZM112.675 61.8595L112.597 58.3604C108.967 58.4411 105.38 58.7215 101.836 59.2023L102.306 62.6705L102.777 66.1388C106.056 65.6939 109.381 65.4336 112.753 65.3587L112.675 61.8595ZM102.306 62.6705L101.836 59.2023C98.3788 59.6713 94.9303 60.2086 91.4907 60.814L92.0975 64.261L92.7042 67.708C96.0534 67.1185 99.411 66.5954 102.777 66.1388L102.306 62.6705ZM92.0975 64.261L91.4907 60.814C87.6459 61.4908 84.0773 62.8763 80.8123 64.9666L82.6995 67.9142L84.5866 70.8619C87.0635 69.2762 89.7602 68.2262 92.7042 67.708L92.0975 64.261ZM82.6995 67.9142L80.8123 64.9666C77.5562 67.0512 74.7904 69.7 72.5266 72.8889L75.3806 74.9149L78.2346 76.9409C79.9876 74.4715 82.101 72.4532 84.5866 70.8619L82.6995 67.9142ZM75.3806 74.9149L72.5266 72.8889C70.4295 75.8431 68.5499 78.9011 66.8894 82.0625L69.988 83.69L73.0866 85.3175C74.5995 82.437 76.3151 79.6449 78.2346 76.9409L75.3806 74.9149ZM69.988 83.69L66.8894 82.0625C65.2887 85.11 63.7121 88.2072 62.1594 91.3539L65.2981 92.9026L68.4368 94.4513C69.9639 91.3564 71.5138 88.3118 73.0866 85.3175L69.988 83.69ZM65.2981 92.9026L62.1594 91.3539C60.5657 94.5838 59.151 97.8747 57.916 101.226L61.2001 102.436L64.4842 103.647C65.6335 100.528 66.9508 97.4629 68.4368 94.4513L65.2981 92.9026ZM61.2001 102.436L57.916 101.226C56.6478 104.668 55.7182 108.185 55.1293 111.775L58.5831 112.342L62.037 112.908C62.5532 109.761 63.3683 106.675 64.4842 103.647L61.2001 102.436ZM58.5831 112.342L55.1293 111.775C54.5675 115.2 54.0847 118.668 53.6808 122.178L57.1578 122.578L60.6349 122.978C61.0262 119.577 61.4936 116.221 62.037 112.908L58.5831 112.342ZM57.1578 122.578L53.6808 122.178C53.2919 125.557 52.7928 128.918 52.1834 132.262L55.6267 132.889L59.07 133.517C59.7069 130.022 60.2285 126.509 60.6349 122.978L57.1578 122.578ZM55.6267 132.889L52.1834 132.262C51.5158 135.924 51.2383 139.636 51.3495 143.393L54.848 143.289L58.3464 143.186C58.2496 139.913 58.4913 136.692 59.07 133.517L55.6267 132.889ZM54.848 143.289L51.3495 143.393C51.4501 146.792 51.3826 150.165 51.1476 153.512L54.639 153.757L58.1304 154.002C58.382 150.42 58.4538 146.815 58.3464 143.186L54.848 143.289ZM54.639 153.757L51.1476 153.512C50.9149 156.826 50.4688 160.132 49.8085 163.43L53.2404 164.117L56.6723 164.804C57.3904 161.217 57.8767 157.616 58.1304 154.002L54.639 153.757ZM53.2404 164.117L49.8085 163.43C49.0852 167.043 48.6367 170.676 48.4641 174.327L51.9602 174.492L55.4563 174.657C55.6122 171.361 56.0172 168.077 56.6723 164.804L53.2404 164.117ZM51.9602 174.492L48.4641 174.327C48.2993 177.811 48.1502 181.295 48.0167 184.778L51.5141 184.912L55.0115 185.046C55.1443 181.583 55.2925 178.121 55.4563 174.657L51.9602 174.492ZM51.5141 184.912L48.0167 184.778C47.8821 188.289 47.8048 191.812 47.7848 195.347L51.2848 195.367L54.7847 195.386C54.8043 191.928 54.8799 188.481 55.0115 185.046L51.5141 184.912ZM51.2848 195.367L47.7848 195.347C47.7654 198.779 47.4367 200.741 47.0768 201.645L50.3288 202.939L53.5808 204.233C54.456 202.034 54.7646 198.948 54.7847 195.386L51.2848 195.367ZM50.3288 202.939L47.0907 201.611L46.1765 203.839L49.4145 205.168L52.6526 206.496L53.5668 204.268L50.3288 202.939ZM49.4145 205.168L45.9398 204.747L45.9278 204.846L49.4025 205.267L52.8772 205.687L52.8892 205.588L49.4145 205.168Z" fill="black"/>
</svg>
