<svg width="397" height="423" viewBox="0 0 397 423" fill="none" xmlns="http://www.w3.org/2000/svg">
<path d="M108.715 184.833C108.393 186.739 109.677 188.545 111.583 188.867C113.489 189.189 115.295 187.905 115.617 185.999L112.166 185.416L108.715 184.833ZM112.183 185.317L115.634 185.901L115.674 185.664L115.681 185.423L112.183 185.317ZM114.52 169.952L111.28 168.628L114.52 169.952ZM118.903 149.54L115.404 149.458V149.458L118.903 149.54ZM120.277 139.182L116.879 138.343L120.277 139.182ZM123.071 129.127L119.728 128.093L123.071 129.127ZM131.235 98.9088L128.048 97.4614L131.235 98.9088ZM135.1 89.1914L131.789 88.056L135.1 89.1914ZM148.713 49.7491L152.02 50.8943L148.713 49.7491ZM156.672 30.4576L153.455 29.0776L156.672 30.4576ZM160.443 20.733L163.749 21.8821L160.443 20.733ZM169.366 4.15348L167.531 1.17313L169.366 4.15348ZM175.598 6.43981L178.497 4.4794L175.598 6.43981ZM184.727 25.1546L187.757 23.403L184.727 25.1546ZM190.076 34.1511L193.062 32.3253L190.076 34.1511ZM207.791 71.9544L210.988 70.5307L207.791 71.9544ZM222.567 99.5494L225.756 98.1065L222.567 99.5494ZM227.182 108.923L230.27 107.275V107.275L227.182 108.923ZM232.941 117.649L235.673 115.461L232.941 117.649ZM238.241 126.627L241.478 125.295L238.241 126.627ZM244.006 139.809L245.587 136.686L244.006 139.809ZM239.978 134.611L242.995 132.836L239.978 134.611ZM235.505 125.22L232.226 126.445L235.505 125.22ZM232.648 115.17L229.216 115.856L232.648 115.17ZM229.554 105.207L232.77 103.826L229.554 105.207ZM222.778 85.4923L225.992 84.1068L222.778 85.4923ZM219.903 75.4948L223.362 74.9614L219.903 75.4948ZM216.634 65.5647L213.529 67.1804L216.634 65.5647ZM213.027 55.7222L216.443 54.96L213.027 55.7222ZM210.719 45.5603L214.13 44.7724L210.719 45.5603ZM208.781 35.2293L205.317 35.7347L208.781 35.2293ZM205.894 25.1528L202.691 26.563L205.894 25.1528ZM184.553 5.32621L184.128 8.80036L184.553 5.32621ZM164.048 22.4325L167.323 23.6677L164.048 22.4325ZM156.729 41.9626L160.01 43.1807L156.729 41.9626ZM154.295 52.1173L157.772 52.5227L154.295 52.1173ZM148.548 72.1854L145.072 71.7751L148.548 72.1854ZM142.271 102.894L138.966 101.74V101.74L142.271 102.894ZM139.262 112.887L142.654 113.748L139.262 112.887ZM132.636 132.745L129.221 131.978L132.636 132.745ZM124.376 165.542L127.847 165.092L124.376 165.542ZM126.146 136.551L122.662 136.215L126.146 136.551ZM126.995 115.675L123.55 115.053L126.995 115.675ZM131.852 84.7278L135.269 85.4892L131.852 84.7278ZM134.041 74.5167L137.469 75.2222L134.041 74.5167ZM149.734 26.8491L151.344 29.9563L149.734 26.8491ZM158.303 26.6357L159.687 23.4211L158.303 26.6357ZM190.412 52.1749L192.728 49.5505L190.412 52.1749ZM197.793 59.5458L200.414 57.2265L197.793 59.5458ZM204.946 67.1843L207.432 64.721L204.946 67.1843ZM211.885 75.0001L209.145 77.177L211.885 75.0001ZM260.162 129.507L262.73 127.129L260.162 129.507ZM271.589 146.258L275.045 145.703L271.589 146.258ZM273.232 152.064L271.084 154.826L271.136 154.867L271.19 154.906L273.232 152.064ZM273.993 152.61L276.983 150.791L276.613 150.183L276.036 149.768L273.993 152.61ZM271.055 154.515C272.06 156.166 274.213 156.69 275.864 155.686C277.516 154.681 278.04 152.528 277.035 150.876L274.045 152.696L271.055 154.515ZM112.166 185.416L115.617 185.999L115.634 185.901L112.183 185.317L108.732 184.734L108.715 184.833L112.166 185.416ZM112.183 185.317L115.681 185.423C115.889 178.577 116.658 173.974 117.76 171.276L114.52 169.952L111.28 168.628C109.687 172.528 108.898 178.168 108.684 185.211L112.183 185.317ZM114.52 169.952L117.76 171.276C119.182 167.797 120.289 164.261 121.079 160.669L117.661 159.917L114.243 159.165C113.541 162.356 112.554 165.51 111.28 168.628L114.52 169.952ZM117.661 159.917L121.079 160.669C121.874 157.054 122.315 153.37 122.402 149.621L118.903 149.54L115.404 149.458C115.327 152.764 114.939 155.998 114.243 159.165L117.661 159.917ZM118.903 149.54L122.402 149.621C122.478 146.346 122.903 143.148 123.675 140.021L120.277 139.182L116.879 138.343C115.983 141.973 115.492 145.679 115.404 149.458L118.903 149.54ZM120.277 139.182L123.675 140.021C124.493 136.709 125.406 133.422 126.415 130.162L123.071 129.127L119.728 128.093C118.679 131.482 117.729 134.899 116.879 138.343L120.277 139.182ZM123.071 129.127L126.415 130.162C127.46 126.785 128.426 123.39 129.314 119.975L125.927 119.094L122.54 118.213C121.678 121.525 120.741 124.818 119.728 128.093L123.071 129.127ZM125.927 119.094L129.314 119.975C130.213 116.52 130.974 113.021 131.597 109.479L128.15 108.873L124.703 108.266C124.112 111.625 123.391 114.941 122.54 118.213L125.927 119.094ZM128.15 108.873L131.597 109.479C132.153 106.318 133.094 103.28 134.422 100.356L131.235 98.9088L128.048 97.4614C126.477 100.921 125.361 104.525 124.703 108.266L128.15 108.873ZM131.235 98.9088L134.422 100.356C135.917 97.0634 137.247 93.7202 138.411 90.3268L135.1 89.1914L131.789 88.056C130.699 91.2358 129.452 94.3708 128.048 97.4614L131.235 98.9088ZM135.1 89.1914L138.411 90.3268C139.521 87.09 140.704 83.8768 141.961 80.6873L138.705 79.4041L135.448 78.121C134.153 81.408 132.934 84.7197 131.789 88.056L135.1 89.1914ZM138.705 79.4041L141.961 80.6873C143.324 77.2274 144.331 73.6454 144.981 69.9454L141.533 69.3399L138.086 68.7343C137.517 71.9768 136.637 75.1043 135.448 78.121L138.705 79.4041ZM141.533 69.3399L144.981 69.9454C145.535 66.7887 146.501 63.7854 147.88 60.9262L144.727 59.4063L141.574 57.8864C139.914 61.3296 138.751 64.9487 138.086 68.7343L141.533 69.3399ZM144.727 59.4063L147.88 60.9262C149.457 57.6538 150.837 54.3097 152.02 50.8943L148.713 49.7491L145.405 48.604C144.312 51.7624 143.035 54.8563 141.574 57.8864L144.727 59.4063ZM148.713 49.7491L152.02 50.8943C153.127 47.6955 154.361 44.5451 155.722 41.4428L152.516 40.0373L149.311 38.6317C147.876 41.9048 146.574 45.2289 145.405 48.604L148.713 49.7491ZM152.516 40.0373L155.722 41.4428C157.123 38.2466 158.512 35.0449 159.888 31.8377L156.672 30.4576L153.455 29.0776C152.086 32.2678 150.705 35.4525 149.311 38.6317L152.516 40.0373ZM156.672 30.4576L159.888 31.8377C161.293 28.5631 162.58 25.2445 163.749 21.8821L160.443 20.733L157.137 19.5839C156.022 22.7902 154.795 25.9546 153.455 29.0776L156.672 30.4576ZM160.443 20.733L163.749 21.8821C164.871 18.6538 166.071 15.4647 167.349 12.3148L164.106 10.9985L160.863 9.6822C159.54 12.943 158.298 16.2436 157.137 19.5839L160.443 20.733ZM164.106 10.9985L167.349 12.3148C168.463 9.57047 169.813 7.98874 171.201 7.13383L169.366 4.15348L167.531 1.17313C164.509 3.03419 162.351 6.01582 160.863 9.6822L164.106 10.9985ZM169.366 4.15348L171.201 7.13383C171.42 6.99889 171.508 6.995 171.479 6.99911C171.465 7.00101 171.44 7.00241 171.41 6.99916C171.381 6.99596 171.367 6.99036 171.373 6.99239C171.428 7.01277 171.917 7.24425 172.698 8.40022L175.598 6.43981L178.497 4.4794C177.33 2.75317 175.805 1.16249 173.784 0.42076C171.56 -0.395132 169.372 0.0395786 167.531 1.17313L169.366 4.15348ZM175.598 6.43981L172.698 8.40022C174.485 11.0434 175.927 13.8719 177.026 16.892L180.315 15.6954L183.604 14.4987C182.31 10.9425 180.607 7.60062 178.497 4.4794L175.598 6.43981ZM180.315 15.6954L177.026 16.892C178.292 20.3716 179.849 23.7104 181.696 26.9062L184.727 25.1546L187.757 23.403C186.115 20.5627 184.731 17.5954 183.604 14.4987L180.315 15.6954ZM184.727 25.1546L181.696 26.9062C183.455 29.9492 185.253 32.9728 187.09 35.977L190.076 34.1511L193.062 32.3253C191.255 29.3701 189.487 26.396 187.757 23.403L184.727 25.1546ZM190.076 34.1511L187.09 35.977C188.793 38.7614 190.208 41.6845 191.337 44.7493L194.621 43.5396L197.905 42.3299C196.618 38.8361 195.004 35.5003 193.062 32.3253L190.076 34.1511ZM194.621 43.5396L191.337 44.7493C192.637 48.2783 194.32 51.618 196.383 54.764L199.31 52.8443L202.236 50.9245C200.464 48.2229 199.021 45.3596 197.905 42.3299L194.621 43.5396ZM199.31 52.8443L196.383 54.764C198.144 57.4482 199.556 60.3105 200.62 63.357L203.925 62.2023L207.229 61.0475C205.976 57.4644 204.311 54.088 202.236 50.9245L199.31 52.8443ZM203.925 62.2023L200.62 63.357C201.811 66.7624 203.135 70.1029 204.594 73.3782L207.791 71.9544L210.988 70.5307C209.609 67.4328 208.355 64.2719 207.229 61.0475L203.925 62.2023ZM207.791 71.9544L204.594 73.3782C206.08 76.7165 207.796 79.9321 209.74 83.0238L212.703 81.1607L215.666 79.2976C213.899 76.4875 212.34 73.5656 210.988 70.5307L207.791 71.9544ZM212.703 81.1607L209.74 83.0238C211.552 85.906 213.26 88.8435 214.862 91.8362L217.948 90.1839L221.033 88.5316C219.353 85.3951 217.564 82.3171 215.666 79.2976L212.703 81.1607ZM217.948 90.1839L214.862 91.8362C216.467 94.8319 217.972 97.8839 219.378 100.992L222.567 99.5494L225.756 98.1065C224.286 94.8568 222.711 91.6651 221.033 88.5316L217.948 90.1839ZM222.567 99.5494L219.378 100.992C220.848 104.24 222.42 107.433 224.094 110.57L227.182 108.923L230.27 107.275C228.668 104.273 227.163 101.216 225.756 98.1065L222.567 99.5494ZM227.182 108.923L224.094 110.57C225.835 113.833 227.875 116.923 230.21 119.838L232.941 117.649L235.673 115.461C233.605 112.88 231.805 110.152 230.27 107.275L227.182 108.923ZM232.941 117.649L230.21 119.838C232.204 122.327 233.8 125.031 235.004 127.959L238.241 126.627L241.478 125.295C240.018 121.748 238.081 118.467 235.673 115.461L232.941 117.649ZM238.241 126.627L235.004 127.959C236.393 131.332 237.982 134.59 239.773 137.73L242.813 135.996L245.853 134.262C244.212 131.384 242.754 128.396 241.478 125.295L238.241 126.627ZM242.813 135.996L239.773 137.73C240.643 139.255 240.986 140.022 241.058 140.25C241.069 140.287 241.018 140.142 240.997 139.883C240.985 139.733 240.911 138.853 241.515 137.924C242.334 136.667 243.645 136.362 244.479 136.407C245.124 136.442 245.544 136.665 245.587 136.686L244.006 139.809L242.424 142.931C242.698 143.07 243.307 143.354 244.1 143.397C245.081 143.45 246.499 143.1 247.383 141.742C248.053 140.712 248.003 139.677 247.974 139.318C247.936 138.85 247.826 138.441 247.739 138.161C247.413 137.118 246.7 135.745 245.853 134.262L242.813 135.996ZM244.006 139.809L245.587 136.686C245.792 136.79 245.823 136.856 245.675 136.711C245.545 136.585 245.345 136.365 245.075 136.016C244.531 135.315 243.84 134.273 242.995 132.836L239.978 134.611L236.961 136.385C237.88 137.948 238.742 139.272 239.541 140.303C240.251 141.22 241.218 142.321 242.424 142.931L244.006 139.809ZM239.978 134.611L242.995 132.836C241.334 130.013 239.931 127.067 238.784 123.996L235.505 125.22L232.226 126.445C233.515 129.897 235.094 133.211 236.961 136.385L239.978 134.611ZM235.505 125.22L238.784 123.996C237.632 120.911 236.73 117.741 236.08 114.485L232.648 115.17L229.216 115.856C229.939 119.476 230.942 123.007 232.226 126.445L235.505 125.22ZM232.648 115.17L236.08 114.485C235.346 110.809 234.243 107.255 232.77 103.826L229.554 105.207L226.338 106.588C227.618 109.567 228.577 112.655 229.216 115.856L232.648 115.17ZM229.554 105.207L232.77 103.826C231.463 100.783 230.393 97.6647 229.558 94.4695L226.172 95.3541L222.785 96.2387C223.709 99.7739 224.893 103.224 226.338 106.588L229.554 105.207ZM226.172 95.3541L229.558 94.4695C228.634 90.9324 227.445 87.4777 225.992 84.1068L222.778 85.4923L219.564 86.8778C220.877 89.9256 221.951 93.0455 222.785 96.2387L226.172 95.3541ZM222.778 85.4923L225.992 84.1068C224.726 81.1701 223.85 78.1239 223.362 74.9614L219.903 75.4948L216.444 76.0281C217.022 79.777 218.063 83.3958 219.564 86.8778L222.778 85.4923ZM219.903 75.4948L223.362 74.9614C222.77 71.1203 221.558 67.4454 219.739 63.9491L216.634 65.5647L213.529 67.1804C215.003 70.0127 215.971 72.9578 216.444 76.0281L219.903 75.4948ZM216.634 65.5647L219.739 63.9491C218.229 61.0478 217.133 58.0533 216.443 54.96L213.027 55.7222L209.611 56.4844C210.437 60.1859 211.746 63.753 213.529 67.1804L216.634 65.5647ZM213.027 55.7222L216.443 54.96C215.683 51.5541 214.912 48.1583 214.13 44.7724L210.719 45.5603L207.309 46.3482C208.088 49.7168 208.855 53.0956 209.611 56.4844L213.027 55.7222ZM210.719 45.5603L214.13 44.7724C213.371 41.4907 212.743 38.1414 212.244 34.724L208.781 35.2293L205.317 35.7347C205.843 39.3374 206.507 42.8754 207.309 46.3482L210.719 45.5603ZM208.781 35.2293L212.244 34.724C211.687 30.9058 210.638 27.2422 209.098 23.7425L205.894 25.1528L202.691 26.563C203.975 29.4786 204.85 32.5327 205.317 35.7347L208.781 35.2293ZM205.894 25.1528L209.098 23.7425C207.634 20.418 205.984 17.163 204.149 13.9778L201.117 15.725L198.084 17.4722C199.795 20.442 201.33 23.4722 202.691 26.563L205.894 25.1528ZM201.117 15.725L204.149 13.9778C202.066 10.3608 199.191 7.50319 195.568 5.45631L193.846 8.5036L192.124 11.5509C194.65 12.9775 196.622 14.9342 198.084 17.4722L201.117 15.725ZM193.846 8.5036L195.568 5.45631C192.143 3.52118 188.608 2.29577 184.977 1.85206L184.553 5.32621L184.128 8.80036C186.741 9.11968 189.402 10.0125 192.124 11.5509L193.846 8.5036ZM184.553 5.32621L184.977 1.85206C181.255 1.39717 177.554 1.88798 173.919 3.26251L175.157 6.53625L176.395 9.80999C179.044 8.8081 181.607 8.49222 184.128 8.80036L184.553 5.32621ZM175.157 6.53625L173.919 3.26251C169.924 4.77337 166.924 7.54415 165.019 11.4083L168.159 12.9554L171.298 14.5025C172.441 12.1842 174.106 10.6755 176.395 9.80999L175.157 6.53625ZM168.159 12.9554L165.019 11.4083C163.446 14.6013 162.031 17.8644 160.774 21.1974L164.048 22.4325L167.323 23.6677C168.5 20.5468 169.825 17.4919 171.298 14.5025L168.159 12.9554ZM164.048 22.4325L160.774 21.1974C159.556 24.426 158.335 27.6716 157.11 30.9343L160.387 32.1644L163.663 33.3944C164.887 30.1351 166.107 26.8929 167.323 23.6677L164.048 22.4325ZM160.387 32.1644L157.11 30.9343C155.884 34.1993 154.663 37.4693 153.448 40.7444L156.729 41.9626L160.01 43.1807C161.223 39.9135 162.441 36.6514 163.663 33.3944L160.387 32.1644ZM156.729 41.9626L153.448 40.7444C152.135 44.2802 151.259 47.9381 150.819 51.7118L154.295 52.1173L157.772 52.5227C158.147 49.2991 158.894 46.1872 160.01 43.1807L156.729 41.9626ZM154.295 52.1173L150.819 51.7118C150.455 54.8328 149.603 57.8145 148.258 60.6708L151.424 62.1621L154.59 63.6533C156.257 60.1139 157.319 56.399 157.772 52.5227L154.295 52.1173ZM151.424 62.1621L148.258 60.6708C146.592 64.2074 145.528 67.9132 145.072 71.7751L148.548 72.1854L152.024 72.5958C152.391 69.4889 153.244 66.5125 154.59 63.6533L151.424 62.1621ZM148.548 72.1854L145.072 71.7751C144.685 75.0516 144.011 78.2506 143.051 81.3748L146.396 82.4032L149.742 83.4316C150.827 79.9009 151.588 76.2881 152.024 72.5958L148.548 72.1854ZM146.396 82.4032L143.051 81.3748C141.953 84.9474 141.25 88.6194 140.942 92.3859L144.43 92.6714L147.919 92.9568C148.186 89.6874 148.795 86.5139 149.742 83.4316L146.396 82.4032ZM144.43 92.6714L140.942 92.3859C140.678 95.6108 140.019 98.7262 138.966 101.74L142.271 102.894L145.575 104.049C146.826 100.468 147.607 96.768 147.919 92.9568L144.43 92.6714ZM142.271 102.894L138.966 101.74C137.781 105.133 136.749 108.562 135.869 112.026L139.262 112.887L142.654 113.748C143.483 110.483 144.456 107.25 145.575 104.049L142.271 102.894ZM139.262 112.887L135.869 112.026C135.062 115.207 133.995 118.333 132.667 121.404L135.88 122.793L139.093 124.182C140.566 120.775 141.754 117.296 142.654 113.748L139.262 112.887ZM135.88 122.793L132.667 121.404C131.182 124.841 130.032 128.367 129.221 131.978L132.636 132.745L136.051 133.512C136.765 130.333 137.778 127.224 139.093 124.182L135.88 122.793ZM132.636 132.745L129.221 131.978C128.454 135.394 127.72 138.815 127.018 142.24L130.447 142.942L133.876 143.645C134.569 140.263 135.294 136.885 136.051 133.512L132.636 132.745ZM130.447 142.942L127.018 142.24C126.292 145.788 125.787 149.392 125.504 153.05L128.994 153.32L132.484 153.59C132.744 150.218 133.209 146.903 133.876 143.645L130.447 142.942ZM128.994 153.32L125.504 153.05C125.259 156.224 124.561 159.299 123.408 162.285L126.673 163.546L129.938 164.807C131.336 161.189 132.185 157.446 132.484 153.59L128.994 153.32ZM126.673 163.546L123.408 162.285C123.111 163.054 122.875 163.587 122.7 163.928C122.462 164.389 122.492 164.188 122.846 163.88C123.03 163.721 123.725 163.159 124.846 163.148C126.167 163.136 127.034 163.876 127.422 164.372C127.752 164.794 127.85 165.156 127.856 165.178C127.876 165.246 127.866 165.232 127.847 165.092L124.376 165.542L120.905 165.992C120.951 166.345 121.021 166.742 121.136 167.138C121.238 167.488 121.448 168.096 121.906 168.682C122.421 169.341 123.431 170.162 124.912 170.148C126.192 170.136 127.063 169.489 127.438 169.164C128.175 168.523 128.651 167.66 128.924 167.13C129.259 166.479 129.597 165.69 129.938 164.807L126.673 163.546ZM124.376 165.542L127.847 165.092C127.641 163.498 127.647 161.071 127.958 157.688L124.472 157.368L120.987 157.048C120.659 160.62 120.601 163.643 120.905 165.992L124.376 165.542ZM124.472 157.368L127.958 157.688C128.28 154.181 128.557 150.68 128.79 147.184L125.298 146.951L121.806 146.718C121.577 150.156 121.304 153.599 120.987 157.048L124.472 157.368ZM125.298 146.951L128.79 147.184C129.019 143.751 129.299 140.319 129.63 136.887L126.146 136.551L122.662 136.215C122.324 139.716 122.039 143.217 121.806 146.718L125.298 146.951ZM126.146 136.551L129.63 136.887C129.981 133.243 130.054 129.58 129.85 125.9L126.355 126.094L122.861 126.288C123.046 129.618 122.979 132.927 122.662 136.215L126.146 136.551ZM126.355 126.094L129.85 125.9C129.67 122.667 129.867 119.467 130.439 116.297L126.995 115.675L123.55 115.053C122.88 118.764 122.651 122.511 122.861 126.288L126.355 126.094ZM126.995 115.675L130.439 116.297C131.069 112.807 131.623 109.314 132.102 105.818L128.634 105.343L125.166 104.869C124.702 108.266 124.163 111.661 123.55 115.053L126.995 115.675ZM128.634 105.343L132.102 105.818C132.574 102.366 133.04 98.9141 133.498 95.4612L130.029 95.0003L126.559 94.5394C126.102 97.9833 125.637 101.426 125.166 104.869L128.634 105.343ZM130.029 95.0003L133.498 95.4612C133.943 92.1138 134.533 88.7899 135.269 85.4892L131.852 84.7278L128.436 83.9664C127.656 87.4655 127.031 90.9899 126.559 94.5394L130.029 95.0003ZM131.852 84.7278L135.269 85.4892C136.031 82.0708 136.764 78.6485 137.469 75.2222L134.041 74.5167L130.613 73.8112C129.915 77.2 129.19 80.5851 128.436 83.9664L131.852 84.7278ZM134.041 74.5167L137.469 75.2222C138.162 71.8565 138.916 68.5033 139.732 65.1625L136.332 64.3321L132.932 63.5016C132.096 66.9252 131.323 70.3618 130.613 73.8112L134.041 74.5167ZM136.332 64.3321L139.732 65.1625C140.569 61.736 141.333 58.3169 142.025 54.905L138.595 54.2098L135.164 53.5146C134.491 56.8347 133.747 60.1637 132.932 63.5016L136.332 64.3321ZM138.595 54.2098L142.025 54.905C142.659 51.7778 143.62 48.696 144.915 45.6573L141.695 44.2853L138.475 42.9133C137 46.3753 135.895 49.91 135.164 53.5146L138.595 54.2098ZM141.695 44.2853L144.915 45.6573C146.404 42.1628 147.481 38.5441 148.143 34.8062L144.697 34.1956L141.25 33.585C140.681 36.7993 139.756 39.9071 138.475 42.9133L141.695 44.2853ZM144.697 34.1956L148.143 34.8062C148.6 32.2283 149.716 30.8004 151.344 29.9563L149.734 26.8491L148.123 23.7418C144.267 25.7409 142.025 29.2107 141.25 33.585L144.697 34.1956ZM149.734 26.8491L151.344 29.9563C153.105 29.0435 154.859 28.9635 156.919 29.8503L158.303 26.6357L159.687 23.4211C155.805 21.7492 151.846 21.8115 148.123 23.7418L149.734 26.8491ZM158.303 26.6357L156.919 29.8503C159.699 31.0477 162.473 32.5342 165.241 34.3175L167.137 31.3754L169.033 28.4332C165.963 26.4555 162.848 24.7823 159.687 23.4211L158.303 26.6357ZM167.137 31.3754L165.241 34.3175C167.889 36.0237 170.26 38.0602 172.36 40.4339L174.981 38.1149L177.603 35.796C175.08 32.9446 172.222 30.488 169.033 28.4332L167.137 31.3754ZM174.981 38.1149L172.36 40.4339C174.789 43.1805 177.415 45.7257 180.235 48.0685L182.471 45.3763L184.708 42.684C182.163 40.5701 179.795 38.2744 177.603 35.796L174.981 38.1149ZM182.471 45.3763L180.235 48.0685C182.891 50.2747 185.511 52.5183 188.096 54.7994L190.412 52.1749L192.728 49.5505C190.09 47.2234 187.417 44.9345 184.708 42.684L182.471 45.3763ZM190.412 52.1749L188.096 54.7994C190.6 57.0081 192.958 59.3632 195.172 61.8652L197.793 59.5458L200.414 57.2265C198.009 54.5089 195.447 51.95 192.728 49.5505L190.412 52.1749ZM197.793 59.5458L195.172 61.8652C197.525 64.5244 199.954 67.1185 202.459 69.6476L204.946 67.1843L207.432 64.721C205.019 62.2851 202.68 59.7869 200.414 57.2265L197.793 59.5458ZM204.946 67.1843L202.459 69.6476C204.829 72.0396 207.057 74.5493 209.145 77.177L211.885 75.0001L214.626 72.8232C212.379 69.9948 209.981 67.294 207.432 64.721L204.946 67.1843ZM211.885 75.0001L209.145 77.177C211.317 79.9121 213.49 82.6257 215.663 85.3176L218.386 83.1192L221.11 80.9208C218.948 78.2433 216.787 75.5442 214.626 72.8232L211.885 75.0001ZM218.386 83.1192L215.663 85.3176C217.812 87.9806 219.941 90.6824 222.048 93.423L224.823 91.2897L227.597 89.1564C225.457 86.3724 223.294 83.6272 221.11 80.9208L218.386 83.1192ZM224.823 91.2897L222.048 93.423C224.248 96.284 226.592 99.0182 229.081 101.625L231.612 99.208L234.144 96.791C231.827 94.3648 229.645 91.8201 227.597 89.1564L224.823 91.2897ZM231.612 99.208L229.081 101.625C231.441 104.097 233.734 106.63 235.961 109.226L238.617 106.947L241.274 104.668C238.966 101.978 236.589 99.3524 234.144 96.791L231.612 99.208ZM238.617 106.947L235.961 109.226C238.118 111.74 240.1 114.418 241.907 117.264L244.861 115.388L247.816 113.511C245.832 110.388 243.652 107.439 241.274 104.668L238.617 106.947ZM244.861 115.388L241.907 117.264C244.071 120.672 246.858 123.49 250.243 125.696L252.153 122.763L254.064 119.831C251.517 118.171 249.443 116.073 247.816 113.511L244.861 115.388ZM252.153 122.763L250.243 125.696C252.971 127.473 255.419 129.536 257.594 131.885L260.162 129.507L262.73 127.129C260.159 124.352 257.268 121.918 254.064 119.831L252.153 122.763ZM260.162 129.507L257.594 131.885C259.961 134.44 262.313 137.003 264.651 139.573L267.24 137.218L269.829 134.862C267.477 132.277 265.111 129.699 262.73 127.129L260.162 129.507ZM267.24 137.218L264.651 139.573C266.537 141.646 267.687 144.034 268.133 146.813L271.589 146.258L275.045 145.703C274.383 141.584 272.633 137.944 269.829 134.862L267.24 137.218ZM271.589 146.258L268.133 146.813C268.419 148.59 268.719 150.09 269.048 151.25C269.211 151.825 269.405 152.407 269.648 152.933C269.845 153.359 270.268 154.192 271.084 154.826L273.232 152.064L275.381 149.301C275.694 149.544 275.864 149.779 275.924 149.868C275.993 149.969 276.015 150.024 276.002 149.995C275.972 149.931 275.894 149.735 275.783 149.343C275.563 148.567 275.313 147.375 275.045 145.703L271.589 146.258ZM273.232 152.064L271.19 154.906L271.95 155.452L273.993 152.61L276.036 149.768L275.275 149.222L273.232 152.064ZM273.993 152.61L271.003 154.43L271.055 154.515L274.045 152.696L277.035 150.876L276.983 150.791L273.993 152.61Z" fill="black"/>
<path d="M17.8103 202.857C16.0295 203.609 15.1955 205.662 15.9474 207.443C16.6993 209.224 18.7524 210.058 20.5332 209.306L19.1717 206.082L17.8103 202.857ZM19.2639 206.043L20.6253 209.267L20.6407 209.261L20.6561 209.254L19.2639 206.043ZM53.1079 192.572L51.4474 189.491L53.1079 192.572ZM68.5195 182.368L69.7828 185.632L68.5195 182.368ZM48.7094 189.022L47.9956 185.595L48.7094 189.022ZM38.5485 191.48L39.4808 194.854L38.5485 191.48ZM9.29493 202.683L7.95041 199.452L9.29493 202.683ZM6.31409 216.532L3.71729 218.879L6.31409 216.532ZM14.0192 223.427L16.0663 220.588L14.0192 223.427ZM21.5655 230.668L24.3104 228.496L21.5655 230.668ZM29.3293 237.74L27.4261 240.677L29.3293 237.74ZM38.7455 242.394L37.5699 245.691L38.7455 242.394ZM57.5881 251.424L59.6949 248.629L57.5881 251.424ZM85.2019 266.021L83.8018 269.229L85.2019 266.021ZM94.5494 270.482L92.936 273.588L94.5494 270.482ZM105.247 276.731L108.099 278.76L109.482 276.817L108.179 274.819L105.247 276.731ZM105.189 276.641L106.834 273.552L102.258 278.553L105.189 276.641ZM103.633 279.778C105.34 280.686 107.459 280.039 108.367 278.333C109.275 276.626 108.628 274.507 106.922 273.599L105.278 276.688L103.633 279.778ZM19.1717 206.082L20.5332 209.306L20.6253 209.267L19.2639 206.043L17.9024 202.818L17.8103 202.857L19.1717 206.082ZM19.2639 206.043L20.6561 209.254C26.9513 206.525 31.6461 204.676 34.802 203.661L33.7304 200.329L32.6589 196.997C29.1662 198.12 24.2166 200.081 17.8717 202.831L19.2639 206.043ZM33.7304 200.329L34.802 203.661C38.1792 202.575 41.5249 201.41 44.8392 200.167L43.6099 196.89L42.3806 193.613C39.1708 194.817 35.9303 195.945 32.6589 196.997L33.7304 200.329ZM43.6099 196.89L44.8392 200.167C48.2493 198.888 51.5594 197.383 54.7685 195.653L53.1079 192.572L51.4474 189.491C48.5163 191.071 45.4944 192.445 42.3806 193.613L43.6099 196.89ZM53.1079 192.572L54.7685 195.653C57.9028 193.964 60.9962 192.17 64.0487 190.272L62.2005 187.3L60.3523 184.328C57.4214 186.15 54.4531 187.871 51.4474 189.491L53.1079 192.572ZM62.2005 187.3L64.0487 190.272C66.6665 188.644 69.4882 187.554 72.5359 186.995L71.9041 183.552L71.2724 180.11C67.3652 180.827 63.7178 182.235 60.3523 184.328L62.2005 187.3ZM71.9041 183.552L72.5359 186.995C76.251 186.313 79.8335 185.261 83.2785 183.837L81.9414 180.602L80.6044 177.368C77.6212 178.601 74.5121 179.515 71.2724 180.11L71.9041 183.552ZM81.9414 180.602L83.2785 183.837C86.5074 182.502 89.7356 181.142 92.9631 179.756L91.582 176.54L90.201 173.324C87.0026 174.697 83.8037 176.045 80.6044 177.368L81.9414 180.602ZM91.582 176.54L92.9631 179.756C95.884 178.501 98.3171 177.963 100.316 177.956L100.303 174.456L100.291 170.956C97.0871 170.968 93.7059 171.818 90.201 173.324L91.582 176.54ZM100.303 174.456L100.316 177.956C100.956 177.954 101.134 177.985 101.064 177.972C101.027 177.965 100.895 177.94 100.714 177.877C100.577 177.829 100.143 177.67 99.6878 177.28C99.1692 176.834 98.4477 175.903 98.5036 174.544C98.5522 173.362 99.1718 172.62 99.4107 172.365C99.6862 172.071 99.9418 171.91 100.027 171.858C100.135 171.792 100.21 171.758 100.221 171.753C100.24 171.744 100.184 171.77 100.007 171.828C99.6635 171.943 99.1071 172.1 98.2957 172.301L99.1376 175.699L99.9795 179.096C100.857 178.878 101.616 178.67 102.214 178.472C102.509 178.374 102.83 178.257 103.133 178.118C103.311 178.037 103.961 177.745 104.515 177.155C104.802 176.849 105.447 176.058 105.498 174.831C105.556 173.426 104.812 172.454 104.249 171.97C103.749 171.54 103.247 171.347 103.018 171.267C102.745 171.172 102.499 171.118 102.324 171.086C101.7 170.972 100.951 170.954 100.291 170.956L100.303 174.456ZM99.1376 175.699L98.2957 172.301C94.91 173.14 91.5296 173.99 88.1544 174.849L89.018 178.241L89.8816 181.633C93.2423 180.777 96.6082 179.931 99.9795 179.096L99.1376 175.699ZM89.018 178.241L88.1544 174.849C84.9703 175.66 81.7116 176.215 78.3764 176.514L78.6892 180L79.0019 183.486C82.7027 183.154 86.33 182.537 89.8816 181.633L89.018 178.241ZM78.6892 180L78.3764 176.514C74.536 176.859 70.826 177.722 67.2562 179.103L68.5195 182.368L69.7828 185.632C72.7366 184.488 75.8063 183.773 79.0019 183.486L78.6892 180ZM68.5195 182.368L67.2562 179.103C64.0036 180.362 60.7519 181.605 57.5011 182.832L58.7367 186.106L59.9723 189.381C63.2417 188.147 66.5118 186.898 69.7828 185.632L68.5195 182.368ZM58.7367 186.106L57.5011 182.832C54.4114 183.997 51.2435 184.919 47.9956 185.595L48.7094 189.022L49.4232 192.448C53.0249 191.698 56.5418 190.675 59.9723 189.381L58.7367 186.106ZM48.7094 189.022L47.9956 185.595C44.498 186.324 41.0381 187.161 37.6162 188.107L38.5485 191.48L39.4808 194.854C42.7573 193.948 46.0714 193.146 49.4232 192.448L48.7094 189.022ZM38.5485 191.48L37.6162 188.107C34.1358 189.068 30.7165 190.231 27.359 191.595L28.6761 194.838L29.9932 198.081C33.1005 196.818 36.2628 195.743 39.4808 194.854L38.5485 191.48ZM28.6761 194.838L27.359 191.595C24.1337 192.905 20.9063 194.204 17.6767 195.491L18.9725 198.742L20.2682 201.993C23.512 200.701 26.7537 199.396 29.9932 198.081L28.6761 194.838ZM18.9725 198.742L17.6767 195.491C14.4237 196.787 11.1816 198.108 7.95041 199.452L9.29493 202.683L10.6395 205.915C13.8382 204.584 17.0478 203.277 20.2682 201.993L18.9725 198.742ZM9.29493 202.683L7.95041 199.452C3.99958 201.096 1.06752 203.871 0.227475 207.99L3.65689 208.689L7.08631 209.389C7.33373 208.176 8.16036 206.946 10.6395 205.915L9.29493 202.683ZM3.65689 208.689L0.227475 207.99C-0.597315 212.035 0.878392 215.737 3.71729 218.879L6.31409 216.532L8.91089 214.185C7.1194 212.203 6.82364 210.677 7.08631 209.389L3.65689 208.689ZM6.31409 216.532L3.71729 218.879C6.19908 221.625 8.95199 224.088 11.9721 226.266L14.0192 223.427L16.0663 220.588C13.4433 218.697 11.0595 216.563 8.91089 214.185L6.31409 216.532ZM14.0192 223.427L11.9721 226.266C14.5252 228.107 16.8072 230.294 18.8206 232.839L21.5655 230.668L24.3104 228.496C21.9053 225.456 19.1564 222.816 16.0663 220.588L14.0192 223.427ZM21.5655 230.668L18.8206 232.839C21.265 235.929 24.1366 238.546 27.4261 240.677L29.3293 237.74L31.2324 234.802C28.5887 233.09 26.2845 230.992 24.3104 228.496L21.5655 230.668ZM29.3293 237.74L27.4261 240.677C30.6191 242.746 34.0019 244.418 37.5699 245.691L38.7455 242.394L39.9212 239.098C36.8673 238.008 33.9725 236.578 31.2324 234.802L29.3293 237.74ZM38.7455 242.394L37.5699 245.691C40.8181 246.849 44.0226 248.096 47.1837 249.433L48.5465 246.209L49.9093 242.985C46.6243 241.597 43.2949 240.301 39.9212 239.098L38.7455 242.394ZM48.5465 246.209L47.1837 249.433C50.141 250.683 52.9051 252.277 55.4813 254.219L57.5881 251.424L59.6949 248.629C56.6616 246.343 53.398 244.46 49.9093 242.985L48.5465 246.209ZM57.5881 251.424L55.4813 254.219C58.3166 256.356 61.1906 258.45 64.1033 260.5L66.1176 257.637L68.1319 254.775C65.2814 252.769 62.4691 250.72 59.6949 248.629L57.5881 251.424ZM66.1176 257.637L64.1033 260.5C67.2682 262.727 70.6899 264.443 74.3586 265.64L75.4448 262.313L76.531 258.986C73.5265 258.005 70.73 256.603 68.1319 254.775L66.1176 257.637ZM75.4448 262.313L74.3586 265.64C77.5904 266.695 80.7379 267.892 83.8018 269.229L85.2019 266.021L86.602 262.813C83.3297 261.385 79.9725 260.109 76.531 258.986L75.4448 262.313ZM85.2019 266.021L83.8018 269.229C86.8978 270.58 89.9425 272.033 92.936 273.588L94.5494 270.482L96.1627 267.376C93.0292 265.749 89.8422 264.228 86.602 262.813L85.2019 266.021ZM94.5494 270.482L92.936 273.588C95.9412 275.149 98.3842 276.541 100.289 277.765L102.181 274.821L104.074 271.877C101.929 270.499 99.2846 268.998 96.1627 267.376L94.5494 270.482ZM102.181 274.821L100.289 277.765C101.304 278.418 102.083 278.913 102.616 279.245C102.878 279.408 103.105 279.548 103.28 279.65C103.358 279.696 103.478 279.764 103.603 279.828C103.648 279.851 103.8 279.928 103.995 280.002C104.067 280.029 104.331 280.129 104.684 280.186C104.848 280.213 105.245 280.268 105.745 280.196C106.221 280.127 107.317 279.858 108.099 278.76L105.247 276.731L102.396 274.701C103.177 273.604 104.273 273.335 104.747 273.267C105.245 273.195 105.639 273.25 105.801 273.276C106.149 273.332 106.406 273.43 106.469 273.454C106.646 273.521 106.772 273.586 106.783 273.592C106.841 273.622 106.861 273.635 106.809 273.604C106.723 273.554 106.565 273.458 106.316 273.303C105.827 272.999 105.083 272.525 104.074 271.877L102.181 274.821ZM105.247 276.731L108.179 274.819L108.121 274.729L105.189 276.641L102.258 278.553L102.316 278.643L105.247 276.731ZM105.189 276.641L103.545 279.731L103.633 279.778L105.278 276.688L106.922 273.599L106.834 273.552L105.189 276.641Z" fill="black"/>
<path d="M271.117 135.633C269.303 136.299 268.371 138.31 269.037 140.124C269.703 141.939 271.714 142.87 273.528 142.205L272.323 138.919L271.117 135.633ZM272.417 138.884L273.622 142.17L273.695 142.143L273.767 142.113L272.417 138.884ZM286.862 133.109L285.665 129.82L286.862 133.109ZM296.552 129.255L295.164 126.042L296.552 129.255ZM306.196 125.273L304.912 122.016L306.196 125.273ZM364.987 103.82L366.435 107.006L364.987 103.82ZM379.428 96.6989L379.541 100.197L379.428 96.6989ZM365.143 101.882L363.155 99.0015L365.143 101.882ZM325.969 116.014L324.796 112.716L325.969 116.014ZM315.767 118.098L315.981 121.592L315.767 118.098ZM308.448 118.476L309.987 121.62L308.448 118.476ZM328.482 112.497L329.621 115.807L328.482 112.497ZM358.265 102.955L359.309 106.296L358.265 102.955ZM387.926 135.454L385.027 133.493L387.926 135.454ZM379.062 154.371L375.7 153.396L379.062 154.371ZM376.263 164.459L379.646 165.355L376.263 164.459ZM368.852 183.969L372.18 185.053L368.852 183.969ZM361.163 203.336L357.909 202.047L361.163 203.336ZM356.811 212.808L353.713 211.179L356.811 212.808ZM351.019 221.463L348.33 219.222L351.019 221.463ZM345.218 223.115L347.662 220.61L345.218 223.115ZM345.171 215.955L348.301 217.522L345.171 215.955ZM350.2 206.651L353.224 208.413L350.2 206.651ZM358.595 187.561L355.602 185.748L358.595 187.561ZM362.962 178.061L359.637 176.967L362.962 178.061ZM373.276 159.93L370.304 158.083L373.276 159.93ZM379.005 151.177L381.888 153.161L379.005 151.177ZM382.259 144.608L385.732 145.041L385.735 145.011L385.739 144.982L382.259 144.608ZM382.49 142.451L379.419 140.772L379.085 141.384L379.01 142.077L382.49 142.451ZM385.609 144.042C386.537 142.346 385.913 140.219 384.217 139.292C382.521 138.365 380.395 138.988 379.467 140.684L382.538 142.363L385.609 144.042ZM272.323 138.919L273.528 142.205L273.622 142.17L272.417 138.884L271.211 135.598L271.117 135.633L272.323 138.919ZM272.417 138.884L273.767 142.113C280.121 139.456 284.875 137.557 288.06 136.398L286.862 133.109L285.665 129.82C282.321 131.037 277.444 132.989 271.067 135.655L272.417 138.884ZM286.862 133.109L288.06 136.398C291.388 135.186 294.682 133.876 297.94 132.468L296.552 129.255L295.164 126.042C292.031 127.396 288.865 128.655 285.665 129.82L286.862 133.109ZM296.552 129.255L297.94 132.468C301.1 131.103 304.28 129.79 307.479 128.529L306.196 125.273L304.912 122.016C301.643 123.305 298.394 124.647 295.164 126.042L296.552 129.255ZM306.196 125.273L307.479 128.529C310.7 127.26 313.927 126.011 317.162 124.783L315.919 121.511L314.677 118.239C311.415 119.477 308.16 120.736 304.912 122.016L306.196 125.273ZM315.919 121.511L317.162 124.783C320.152 123.648 323.287 122.858 326.573 122.417L326.108 118.948L325.643 115.479C321.841 115.989 318.183 116.908 314.677 118.239L315.919 121.511ZM326.108 118.948L326.573 122.417C330.416 121.902 334.093 120.909 337.593 119.433L336.233 116.208L334.874 112.983C331.962 114.211 328.888 115.044 325.643 115.479L326.108 118.948ZM336.233 116.208L337.593 119.433C340.801 118.081 344.007 116.724 347.211 115.364L345.843 112.143L344.476 108.921C341.278 110.279 338.077 111.633 334.874 112.983L336.233 116.208ZM345.843 112.143L347.211 115.364C350.417 114.003 353.621 112.634 356.823 111.257L355.44 108.042L354.057 104.826C350.865 106.199 347.671 107.564 344.476 108.921L345.843 112.143ZM355.44 108.042L356.823 111.257C360.041 109.872 363.245 108.455 366.435 107.006L364.987 103.82L363.54 100.633C360.393 102.063 357.232 103.461 354.057 104.826L355.44 108.042ZM364.987 103.82L366.435 107.006C369.676 105.534 372.859 103.955 375.985 102.269L374.323 99.1881L372.662 96.1077C369.676 97.7181 366.636 99.2266 363.54 100.633L364.987 103.82ZM374.323 99.1881L375.985 102.269C377.499 101.452 378.639 100.859 379.425 100.476C379.823 100.281 380.087 100.162 380.242 100.099C380.322 100.066 380.329 100.066 380.285 100.08C380.261 100.088 380.195 100.108 380.098 100.129C380.017 100.147 379.814 100.188 379.541 100.197L379.428 96.6989L379.316 93.2007C378.769 93.2183 378.322 93.3593 378.184 93.4027C377.968 93.4706 377.761 93.5504 377.585 93.6228C377.228 93.7693 376.81 93.9628 376.357 94.1837C375.442 94.63 374.203 95.2762 372.662 96.1077L374.323 99.1881ZM379.428 96.6989L379.541 100.197C379.498 100.198 379.401 100.201 379.273 100.194C379.217 100.191 378.847 100.177 378.401 100.034C378.204 99.9702 377.624 99.7712 377.067 99.2429C376.353 98.5659 375.783 97.4162 376.035 96.0656C376.227 95.0287 376.82 94.4093 377.018 94.2151C377.272 93.964 377.509 93.8092 377.621 93.7396C377.854 93.5949 378.049 93.5132 378.105 93.4898C378.188 93.4553 378.253 93.4325 378.283 93.422C378.345 93.4008 378.382 93.3907 378.372 93.3934C378.32 93.4084 378.131 93.4564 377.736 93.5466C376.989 93.7174 375.756 93.9826 374.021 94.3452L374.737 97.7712L375.452 101.197C377.192 100.834 378.48 100.557 379.296 100.371C379.683 100.282 380.038 100.197 380.289 100.126C380.355 100.107 380.453 100.078 380.561 100.041C380.567 100.039 380.933 99.9234 381.317 99.6844C381.433 99.6123 381.673 99.4551 381.93 99.2019C382.129 99.0055 382.723 98.3841 382.917 97.3454C383.168 95.9929 382.598 94.8417 381.883 94.1632C381.324 93.6334 380.742 93.4332 380.541 93.3687C380.088 93.2232 379.708 93.2074 379.637 93.2037C379.495 93.1963 379.38 93.1987 379.316 93.2007L379.428 96.6989ZM374.737 97.7712L374.021 94.3452C370.09 95.1664 366.459 96.722 363.155 99.0015L365.143 101.882L367.13 104.763C369.667 103.013 372.433 101.828 375.452 101.197L374.737 97.7712ZM365.143 101.882L363.155 99.0015C360.472 100.853 357.638 102.326 354.648 103.427L355.858 106.711L357.068 109.995C360.617 108.688 363.973 106.942 367.13 104.763L365.143 101.882ZM355.858 106.711L354.648 103.427C351.422 104.615 348.174 105.739 344.906 106.8L345.986 110.129L347.066 113.458C350.421 112.37 353.755 111.215 357.068 109.995L355.858 106.711ZM345.986 110.129L344.906 106.8C341.671 107.849 338.412 108.783 335.128 109.599L335.973 112.996L336.817 116.392C340.261 115.536 343.677 114.558 347.066 113.458L345.986 110.129ZM335.973 112.996L335.128 109.599C331.652 110.464 328.208 111.503 324.796 112.716L325.969 116.014L327.141 119.312C330.341 118.174 333.566 117.201 336.817 116.392L335.973 112.996ZM325.969 116.014L324.796 112.716C321.799 113.782 318.721 114.411 315.553 114.605L315.767 118.098L315.981 121.592C319.805 121.357 323.528 120.596 327.141 119.312L325.969 116.014ZM315.767 118.098L315.553 114.605C311.837 114.833 308.174 115.408 304.568 116.329L305.434 119.72L306.3 123.111C309.479 122.299 312.705 121.793 315.981 121.592L315.767 118.098ZM305.434 119.72L304.568 116.329C302.892 116.757 301.614 117.108 300.878 117.366C300.698 117.429 300.436 117.525 300.177 117.651C300.063 117.707 299.805 117.837 299.524 118.048C299.384 118.153 299.132 118.357 298.88 118.671C298.648 118.959 298.204 119.602 298.115 120.554C298.01 121.667 298.441 122.627 299.032 123.268C299.53 123.808 300.07 124.055 300.322 124.155C300.828 124.358 301.27 124.397 301.393 124.408C301.734 124.437 302.052 124.421 302.227 124.41L302.01 120.917L301.793 117.424C301.69 117.43 301.802 117.416 302.005 117.434C302.06 117.439 302.451 117.468 302.925 117.657C303.16 117.752 303.687 117.99 304.177 118.522C304.761 119.155 305.188 120.105 305.084 121.208C304.996 122.149 304.557 122.781 304.335 123.057C304.093 123.359 303.855 123.55 303.734 123.641C303.49 123.824 303.287 123.923 303.245 123.943C303.13 123.999 303.084 124.01 303.188 123.973C303.594 123.832 304.583 123.55 306.3 123.111L305.434 119.72ZM302.01 120.917L302.227 124.41C303.337 124.341 304.563 123.956 305.693 123.528C306.906 123.068 308.345 122.424 309.987 121.62L308.448 118.476L306.909 115.333C305.369 116.087 304.144 116.629 303.212 116.982C302.747 117.159 302.387 117.276 302.121 117.348C301.839 117.424 301.747 117.427 301.793 117.424L302.01 120.917ZM308.448 118.476L309.987 121.62C312.89 120.198 315.9 119.196 319.026 118.608L318.379 115.168L317.732 111.729C313.98 112.435 310.37 113.638 306.909 115.333L308.448 118.476ZM318.379 115.168L319.026 118.608C322.632 117.93 326.164 116.996 329.621 115.807L328.482 112.497L327.343 109.187C324.208 110.266 321.005 111.113 317.732 111.729L318.379 115.168ZM328.482 112.497L329.621 115.807C332.887 114.682 336.164 113.603 339.45 112.568L338.399 109.23L337.348 105.892C334.003 106.945 330.668 108.043 327.343 109.187L328.482 112.497ZM338.399 109.23L339.45 112.568C342.769 111.523 346.083 110.475 349.394 109.422L348.333 106.086L347.273 102.751C343.968 103.802 340.66 104.849 337.348 105.892L338.399 109.23ZM348.333 106.086L349.394 109.422C352.696 108.372 356.001 107.33 359.309 106.296L358.265 102.955L357.221 99.6144C353.902 100.652 350.586 101.697 347.273 102.751L348.333 106.086ZM358.265 102.955L359.309 106.296C362.534 105.288 365.803 104.407 369.116 103.653L368.34 100.24L367.563 96.8273C364.071 97.6221 360.623 98.5511 357.221 99.6144L358.265 102.955ZM368.34 100.24L369.116 103.653C372.449 102.894 375.793 102.24 379.149 101.691L378.584 98.2372L378.018 94.7831C374.52 95.3555 371.035 96.0369 367.563 96.8273L368.34 100.24ZM378.584 98.2372L379.149 101.691C382.12 101.205 384.505 101.421 386.427 102.136L387.647 98.8553L388.867 95.5748C385.558 94.3442 381.9 94.1479 378.018 94.7831L378.584 98.2372ZM387.647 98.8553L386.427 102.136C387.564 102.558 388.473 103.427 388.809 105.817L392.275 105.331L395.741 104.845C395.138 100.546 392.963 97.0978 388.867 95.5748L387.647 98.8553ZM392.275 105.331L388.809 105.817C389.245 108.93 389.369 112.065 389.181 115.228L392.674 115.436L396.168 115.645C396.384 112.022 396.242 108.421 395.741 104.845L392.275 105.331ZM392.674 115.436L389.181 115.228C388.984 118.525 388.648 121.884 388.173 125.305L391.639 125.786L395.106 126.268C395.606 122.674 395.96 119.132 396.168 115.645L392.674 115.436ZM391.639 125.786L388.173 125.305C387.759 128.281 386.716 130.998 385.027 133.493L387.926 135.454L390.825 137.416C393.112 134.036 394.545 130.307 395.106 126.268L391.639 125.786ZM387.926 135.454L385.027 133.493C382.938 136.581 381.115 139.79 379.562 143.119L382.733 144.599L385.905 146.079C387.299 143.091 388.939 140.203 390.825 137.416L387.926 135.454ZM382.733 144.599L379.562 143.119C378.011 146.441 376.724 149.867 375.7 153.396L379.062 154.371L382.423 155.346C383.347 152.163 384.507 149.074 385.905 146.079L382.733 144.599ZM379.062 154.371L375.7 153.396C374.719 156.778 373.779 160.167 372.88 163.563L376.263 164.459L379.646 165.355C380.532 162.013 381.457 158.676 382.423 155.346L379.062 154.371ZM376.263 164.459L372.88 163.563C372.041 166.728 370.924 169.798 369.527 172.774L372.696 174.261L375.864 175.748C377.439 172.392 378.7 168.927 379.646 165.355L376.263 164.459ZM372.696 174.261L369.527 172.774C367.981 176.071 366.646 179.441 365.524 182.885L368.852 183.969L372.18 185.053C373.212 181.886 374.44 178.784 375.864 175.748L372.696 174.261ZM368.852 183.969L365.524 182.885C364.482 186.086 363.29 189.228 361.95 192.313L365.16 193.708L368.371 195.102C369.799 191.814 371.069 188.464 372.18 185.053L368.852 183.969ZM365.16 193.708L361.95 192.313C360.551 195.534 359.204 198.779 357.909 202.047L361.163 203.336L364.417 204.625C365.684 201.428 367.002 198.254 368.371 195.102L365.16 193.708ZM361.163 203.336L357.909 202.047C356.675 205.163 355.276 208.207 353.713 211.179L356.811 212.808L359.909 214.437C361.588 211.245 363.091 207.974 364.417 204.625L361.163 203.336ZM356.811 212.808L353.713 211.179C352.208 214.042 350.414 216.722 348.33 219.222L351.019 221.463L353.707 223.704C356.105 220.828 358.173 217.738 359.909 214.437L356.811 212.808ZM351.019 221.463L348.33 219.222C347.883 219.758 347.52 220.103 347.25 220.313C346.977 220.525 346.87 220.542 346.929 220.526C347.023 220.499 347.232 220.474 347.473 220.543C347.69 220.607 347.749 220.695 347.662 220.61L345.218 223.115L342.774 225.62C344.344 227.152 346.495 227.928 348.846 227.258C350.827 226.694 352.431 225.235 353.707 223.704L351.019 221.463ZM345.218 223.115L347.662 220.61C347.555 220.505 347.488 220.423 347.486 220.112C347.483 219.676 347.638 218.846 348.301 217.522L345.171 215.955L342.041 214.389C341.109 216.252 340.474 218.208 340.486 220.158C340.5 222.234 341.254 224.138 342.774 225.62L345.218 223.115ZM345.171 215.955L348.301 217.522C349.864 214.4 351.505 211.364 353.224 208.413L350.2 206.651L347.176 204.889C345.38 207.971 343.669 211.137 342.041 214.389L345.171 215.955ZM350.2 206.651L353.224 208.413C355.12 205.159 356.615 201.718 357.708 198.098L354.358 197.086L351.007 196.075C350.071 199.174 348.795 202.11 347.176 204.889L350.2 206.651ZM354.358 197.086L357.708 198.098C358.638 195.018 359.931 192.112 361.589 189.375L358.595 187.561L355.602 185.748C353.638 188.99 352.106 192.435 351.007 196.075L354.358 197.086ZM358.595 187.561L361.589 189.375C363.538 186.157 365.104 182.748 366.286 179.154L362.962 178.061L359.637 176.967C358.619 180.061 357.274 182.987 355.602 185.748L358.595 187.561ZM362.962 178.061L366.286 179.154C367.285 176.119 368.675 173.295 370.461 170.672L367.567 168.702L364.674 166.733C362.519 169.9 360.839 173.314 359.637 176.967L362.962 178.061ZM367.567 168.702L370.461 170.672C372.458 167.737 374.387 164.773 376.249 161.778L373.276 159.93L370.304 158.083C368.494 160.994 366.617 163.878 364.674 166.733L367.567 168.702ZM373.276 159.93L376.249 161.778C378.056 158.871 379.936 155.999 381.888 153.161L379.005 151.177L376.121 149.193C374.108 152.12 372.169 155.083 370.304 158.083L373.276 159.93ZM379.005 151.177L381.888 153.161C383.874 150.274 385.43 147.463 385.732 145.041L382.259 144.608L378.785 144.176C378.714 144.747 378.101 146.315 376.121 149.193L379.005 151.177ZM382.259 144.608L385.739 144.982L385.97 142.825L382.49 142.451L379.01 142.077L378.779 144.234L382.259 144.608ZM382.49 142.451L385.561 144.13L385.609 144.042L382.538 142.363L379.467 140.684L379.419 140.772L382.49 142.451Z" fill="black"/>
<path d="M127.665 288.119C127.32 286.217 125.498 284.954 123.596 285.299C121.694 285.644 120.432 287.466 120.777 289.368L124.221 288.743L127.665 288.119ZM124.239 288.842L127.705 288.357L127.695 288.287L127.683 288.217L124.239 288.842ZM146.349 374.457L143.205 375.994L146.349 374.457ZM160.766 399.423L158.042 401.621L160.766 399.423ZM163.615 402.546L165.556 405.458L166.102 405.095L166.478 404.558L163.615 402.546ZM163.774 402.32L166.683 400.374L163.845 396.131L160.91 400.307L163.774 402.32ZM160.92 404.349C161.995 405.955 164.169 406.387 165.775 405.312C167.382 404.237 167.813 402.064 166.739 400.457L163.83 402.403L160.92 404.349ZM124.221 288.743L120.777 289.368L120.795 289.466L124.239 288.842L127.683 288.217L127.665 288.119L124.221 288.743ZM124.239 288.842L120.772 289.326C121.727 296.157 122.493 301.322 123.071 304.8L126.524 304.226L129.977 303.653C129.414 300.267 128.657 295.175 127.705 288.357L124.239 288.842ZM126.524 304.226L123.071 304.8C123.658 308.332 124.397 311.834 125.289 315.306L128.679 314.435L132.069 313.564C131.227 310.289 130.53 306.985 129.977 303.653L126.524 304.226ZM128.679 314.435L125.289 315.306C126.189 318.81 127.286 322.246 128.581 325.614L131.848 324.359L135.115 323.103C133.917 319.987 132.902 316.807 132.069 313.564L128.679 314.435ZM131.848 324.359L128.581 325.614C129.7 328.524 130.376 331.583 130.603 334.804L134.094 334.558L137.585 334.312C137.311 330.418 136.489 326.677 135.115 323.103L131.848 324.359ZM134.094 334.558L130.603 334.804C130.874 338.652 131.612 342.374 132.821 345.963L136.138 344.845L139.454 343.728C138.44 340.716 137.816 337.581 137.585 334.312L134.094 334.558ZM136.138 344.845L132.821 345.963C133.921 349.228 134.969 352.511 135.966 355.812L139.317 354.8L142.667 353.788C141.649 350.417 140.578 347.063 139.454 343.728L136.138 344.845ZM139.317 354.8L135.966 355.812C136.98 359.17 138.027 362.516 139.105 365.849L142.435 364.772L145.765 363.695C144.701 360.405 143.668 357.103 142.667 353.788L139.317 354.8ZM142.435 364.772L139.105 365.849C140.227 369.319 141.594 372.701 143.205 375.994L146.349 374.457L149.493 372.919C148.027 369.922 146.785 366.847 145.765 363.695L142.435 364.772ZM146.349 374.457L143.205 375.994C144.729 379.11 146.206 382.239 147.635 385.38L150.821 383.93L154.006 382.481C152.55 379.28 151.046 376.093 149.493 372.919L146.349 374.457ZM150.821 383.93L147.635 385.38C149.151 388.71 150.828 391.725 152.676 394.408L155.559 392.422L158.441 390.436C156.858 388.139 155.377 385.492 154.006 382.481L150.821 383.93ZM155.559 392.422L152.676 394.408C154.438 396.965 156.227 399.37 158.042 401.621L160.766 399.423L163.491 397.226C161.794 395.123 160.111 392.86 158.441 390.436L155.559 392.422ZM160.766 399.423L158.042 401.621C158.93 402.722 159.661 403.594 160.21 404.196C160.47 404.481 160.769 404.794 161.066 405.051C161.194 405.161 161.472 405.395 161.843 405.598C162.021 405.696 162.402 405.889 162.921 405.988C163.437 406.087 164.5 406.162 165.556 405.458L163.615 402.546L161.674 399.634C162.712 398.942 163.751 399.02 164.237 399.113C164.725 399.206 165.07 399.385 165.204 399.458C165.368 399.548 165.483 399.63 165.536 399.67C165.595 399.714 165.634 399.746 165.647 399.758C165.671 399.778 165.595 399.713 165.381 399.478C164.981 399.039 164.358 398.302 163.491 397.226L160.766 399.423ZM163.615 402.546L166.478 404.558L166.637 404.332L163.774 402.32L160.91 400.307L160.751 400.533L163.615 402.546ZM163.774 402.32L160.865 404.266L160.92 404.349L163.83 402.403L166.739 400.457L166.683 400.374L163.774 402.32Z" fill="black"/>
<path d="M125.986 283.274C125.818 281.348 124.122 279.922 122.196 280.09C120.27 280.257 118.845 281.954 119.012 283.88L122.499 283.577L125.986 283.274ZM122.507 283.676L126.007 283.699L126.008 283.536L125.994 283.373L122.507 283.676ZM128.663 329.994L131.934 328.749L128.663 329.994ZM141.769 369.558L144.995 368.2L141.769 369.558ZM145.289 379.383L148.643 378.382L145.289 379.383ZM158.642 407.618L155.526 409.213L158.642 407.618ZM164.121 416.434L161.312 418.522L164.121 416.434ZM175.653 412.67L172.41 411.354L175.653 412.67ZM184.63 393.872L181.422 392.47V392.47L184.63 393.872ZM203.225 356.486L206.174 358.37L203.225 356.486ZM207.94 347.167L211.206 348.426L207.94 347.167ZM224 308.732L220.889 307.127V307.127L224 308.732ZM226.511 315.507L223.012 315.419L226.511 315.507ZM209.273 375.478L206.105 373.991L209.273 375.478ZM203.945 384.508L201.109 382.457L203.945 384.508ZM199.394 393.886L202.76 394.844L199.394 393.886ZM194.798 403.186L191.995 401.09V401.09L194.798 403.186ZM189.311 412.123L186.174 410.57L189.311 412.123ZM182.248 417.639L185.234 419.464V419.464L182.248 417.639ZM183.362 414.654L181.797 417.785L182.02 417.896L182.256 417.974L183.362 414.654ZM182.855 414.4L184.42 411.27L182.558 410.339L180.851 411.531L182.855 414.4ZM180.769 411.588C179.184 412.694 178.797 414.876 179.903 416.461C181.01 418.046 183.192 418.434 184.776 417.327L182.773 414.458L180.769 411.588ZM122.499 283.577L119.012 283.88L119.021 283.979L122.507 283.676L125.994 283.373L125.986 283.274L122.499 283.577ZM122.507 283.676L119.008 283.653C118.962 290.62 119.292 296.091 120.086 299.894L123.512 299.179L126.939 298.464C126.302 295.414 125.962 290.551 126.007 283.699L122.507 283.676ZM123.512 299.179L120.086 299.894C120.781 303.22 121.324 306.552 121.716 309.893L125.192 309.485L128.668 309.076C128.252 305.528 127.675 301.99 126.939 298.464L123.512 299.179ZM125.192 309.485L121.716 309.893C122.117 313.312 122.483 316.747 122.812 320.2L126.296 319.868L129.781 319.535C129.446 316.032 129.075 312.546 128.668 309.076L125.192 309.485ZM126.296 319.868L122.812 320.2C123.174 323.991 124.035 327.673 125.392 331.239L128.663 329.994L131.934 328.749C130.8 325.768 130.083 322.7 129.781 319.535L126.296 319.868ZM128.663 329.994L125.392 331.239C126.589 334.383 127.589 337.572 128.395 340.806L131.791 339.961L135.187 339.115C134.314 335.607 133.229 332.152 131.934 328.749L128.663 329.994ZM131.791 339.961L128.395 340.806C129.235 344.183 130.085 347.563 130.945 350.945L134.337 350.083L137.73 349.22C136.872 345.849 136.025 342.481 135.187 339.115L131.791 339.961ZM134.337 350.083L130.945 350.945C131.849 354.499 133.024 357.961 134.469 361.331L137.686 359.951L140.902 358.571C139.6 355.537 138.543 352.42 137.73 349.22L134.337 350.083ZM137.686 359.951L134.469 361.331C135.84 364.525 137.198 367.721 138.543 370.916L141.769 369.558L144.995 368.2C143.643 364.99 142.279 361.78 140.902 358.571L137.686 359.951ZM141.769 369.558L138.543 370.916C139.842 374.002 140.973 377.157 141.935 380.383L145.289 379.383L148.643 378.382C147.609 374.915 146.393 371.521 144.995 368.2L141.769 369.558ZM145.289 379.383L141.935 380.383C142.943 383.762 144 387.13 145.107 390.488L148.431 389.392L151.755 388.296C150.669 385.001 149.631 381.697 148.643 378.382L145.289 379.383ZM148.431 389.392L145.107 390.488C146.316 394.156 148.06 397.572 150.331 400.724L153.171 398.679L156.011 396.633C154.155 394.056 152.739 391.28 151.755 388.296L148.431 389.392ZM153.171 398.679L150.331 400.724C152.293 403.448 154.024 406.277 155.526 409.213L158.642 407.618L161.758 406.023C160.092 402.769 158.176 399.639 156.011 396.633L153.171 398.679ZM158.642 407.618L155.526 409.213C157.198 412.479 159.127 415.583 161.312 418.522L164.121 416.434L166.93 414.346C164.977 411.719 163.253 408.946 161.758 406.023L158.642 407.618ZM164.121 416.434L161.312 418.522C162.543 420.179 164.049 421.638 165.918 422.411C167.94 423.248 170.044 423.137 171.972 422.212L170.457 419.057L168.943 415.901C168.861 415.941 168.804 415.959 168.771 415.968C168.738 415.976 168.722 415.977 168.717 415.977C168.713 415.977 168.707 415.977 168.694 415.975C168.68 415.972 168.648 415.965 168.595 415.943C168.351 415.842 167.767 415.473 166.93 414.346L164.121 416.434ZM170.457 419.057L171.972 422.212C175.205 420.661 177.408 417.655 178.896 413.987L175.653 412.67L172.41 411.354C171.283 414.132 170.022 415.384 168.943 415.901L170.457 419.057ZM175.653 412.67L178.896 413.987C180.158 410.879 181.58 407.848 183.164 404.895L180.08 403.241L176.995 401.587C175.294 404.76 173.765 408.016 172.41 411.354L175.653 412.67ZM180.08 403.241L183.164 404.895C184.851 401.749 186.409 398.542 187.837 395.273L184.63 393.872L181.422 392.47C180.069 395.567 178.594 398.606 176.995 401.587L180.08 403.241ZM184.63 393.872L187.837 395.273C189.152 392.262 190.71 389.355 192.511 386.552L189.566 384.66L186.621 382.768C184.622 385.881 182.888 389.115 181.422 392.47L184.63 393.872ZM189.566 384.66L192.511 386.552C194.612 383.281 196.155 379.751 197.135 375.977L193.747 375.098L190.359 374.218C189.565 377.278 188.32 380.123 186.621 382.768L189.566 384.66ZM193.747 375.098L197.135 375.977C197.941 372.871 199.147 369.955 200.752 367.221L197.733 365.449L194.715 363.677C192.779 366.975 191.327 370.491 190.359 374.218L193.747 375.098ZM197.733 365.449L200.752 367.221C202.5 364.244 204.307 361.293 206.174 358.37L203.225 356.486L200.275 354.602C198.361 357.599 196.508 360.624 194.715 363.677L197.733 365.449ZM203.225 356.486L206.174 358.37C208.19 355.214 209.868 351.898 211.206 348.426L207.94 347.167L204.674 345.909C203.506 348.941 202.04 351.838 200.275 354.602L203.225 356.486ZM207.94 347.167L211.206 348.426C212.529 344.992 213.566 341.451 214.318 337.805L210.89 337.098L207.462 336.39C206.786 339.666 205.857 342.838 204.674 345.909L207.94 347.167ZM210.89 337.098L214.318 337.805C214.991 334.54 215.931 331.389 217.136 328.351L213.883 327.061L210.63 325.77C209.272 329.193 208.217 332.734 207.462 336.39L210.89 337.098ZM213.883 327.061L217.136 328.351C218.329 325.344 219.827 322.464 221.635 319.708L218.708 317.788L215.782 315.869C213.718 319.015 212 322.316 210.63 325.77L213.883 327.061ZM218.708 317.788L221.635 319.708C223.636 316.657 225.462 313.533 227.111 310.336L224 308.732L220.889 307.127C219.354 310.104 217.652 313.018 215.782 315.869L218.708 317.788ZM224 308.732L227.111 310.336C227.478 309.623 227.757 309.148 227.952 308.86C228.049 308.716 228.094 308.666 228.087 308.674C228.082 308.68 228.048 308.718 227.985 308.773C227.925 308.827 227.81 308.923 227.639 309.027C227.341 309.207 226.51 309.625 225.386 309.391C224.191 309.141 223.55 308.346 223.297 307.918C223.064 307.524 223.012 307.218 223.01 307.209C223.001 307.162 223.011 307.196 223.018 307.348L226.515 307.205L230.012 307.062C229.99 306.53 229.925 305.374 229.322 304.355C228.954 303.732 228.174 302.822 226.817 302.539C225.531 302.27 224.513 302.735 224.006 303.043C223.093 303.598 222.477 304.46 222.153 304.94C221.74 305.55 221.318 306.296 220.889 307.127L224 308.732ZM226.515 307.205L223.018 307.348C223.098 309.307 223.098 311.987 223.012 315.419L226.511 315.507L230.01 315.594C230.098 312.096 230.101 309.242 230.012 307.062L226.515 307.205ZM226.511 315.507L223.012 315.419C222.931 318.669 222.552 321.893 221.875 325.094L225.3 325.818L228.724 326.543C229.489 322.925 229.918 319.275 230.01 315.594L226.511 315.507ZM225.3 325.818L221.875 325.094C221.169 328.433 220.36 331.747 219.448 335.037L222.82 335.972L226.193 336.908C227.144 333.478 227.988 330.023 228.724 326.543L225.3 325.818ZM222.82 335.972L219.448 335.037C218.542 338.304 217.504 341.526 216.334 344.701L219.618 345.91L222.903 347.12C224.139 343.764 225.236 340.36 226.193 336.908L222.82 335.972ZM219.618 345.91L216.334 344.701C215.137 347.952 213.918 351.195 212.68 354.428L215.948 355.68L219.217 356.932C220.466 353.67 221.695 350.4 222.903 347.12L219.618 345.91ZM215.948 355.68L212.68 354.428C211.386 357.805 210.293 361.257 209.399 364.783L212.791 365.643L216.184 366.504C217.011 363.241 218.022 360.051 219.217 356.932L215.948 355.68ZM212.791 365.643L209.399 364.783C208.592 367.962 207.495 371.03 206.105 373.991L209.273 375.478L212.442 376.965C214.021 373.601 215.269 370.113 216.184 366.504L212.791 365.643ZM209.273 375.478L206.105 373.991C204.714 376.953 203.05 379.774 201.109 382.457L203.945 384.508L206.781 386.56C208.975 383.527 210.863 380.328 212.442 376.965L209.273 375.478ZM203.945 384.508L201.109 382.457C198.802 385.646 197.106 389.142 196.028 392.928L199.394 393.886L202.76 394.844C203.615 391.843 204.952 389.087 206.781 386.56L203.945 384.508ZM199.394 393.886L196.028 392.928C195.178 395.914 193.836 398.628 191.995 401.09L194.798 403.186L197.602 405.281C199.957 402.131 201.678 398.645 202.76 394.844L199.394 393.886ZM194.798 403.186L191.995 401.09C189.769 404.067 187.829 407.228 186.174 410.57L189.311 412.123L192.447 413.676C193.914 410.714 195.632 407.916 197.602 405.281L194.798 403.186ZM189.311 412.123L186.174 410.57C184.797 413.351 183.361 414.854 182.055 415.581L183.757 418.639L185.458 421.697C188.436 420.041 190.703 417.199 192.447 413.676L189.311 412.123ZM183.757 418.639L182.055 415.581C181.84 415.7 181.672 415.786 181.547 415.844C181.416 415.905 181.365 415.922 181.377 415.918C181.386 415.915 181.428 415.902 181.498 415.887C181.566 415.872 181.689 415.85 181.855 415.841C182.126 415.827 182.896 415.828 183.707 416.366C184.654 416.994 185.04 417.933 185.132 418.634C185.208 419.219 185.09 419.632 185.066 419.718C185.012 419.905 184.994 419.857 185.234 419.464L182.248 417.639L179.262 415.813C178.934 416.35 178.553 417.041 178.341 417.776C178.237 418.135 178.091 418.775 178.191 419.539C178.305 420.419 178.766 421.489 179.839 422.2C180.775 422.821 181.723 422.858 182.222 422.832C182.755 422.804 183.216 422.68 183.538 422.576C184.187 422.365 184.85 422.036 185.458 421.697L183.757 418.639ZM182.248 417.639L185.234 419.464C185.824 418.499 186.349 417.55 186.657 416.723C186.793 416.361 187.029 415.663 187.013 414.847C187.005 414.408 186.921 413.708 186.499 412.983C186.031 412.178 185.298 411.61 184.469 411.334L183.362 414.654L182.256 417.974C181.525 417.731 180.867 417.222 180.449 416.504C180.078 415.867 180.02 415.28 180.015 414.981C180.004 414.447 180.15 414.138 180.1 414.274C180.037 414.442 179.808 414.92 179.262 415.813L182.248 417.639ZM183.362 414.654L184.928 411.524L184.42 411.27L182.855 414.4L181.29 417.531L181.797 417.785L183.362 414.654ZM182.855 414.4L180.851 411.531L180.769 411.588L182.773 414.458L184.776 417.327L184.858 417.27L182.855 414.4Z" fill="black"/>
<path d="M238.456 298.158C236.998 296.889 234.787 297.042 233.518 298.5C232.249 299.958 232.403 302.169 233.861 303.438L236.158 300.798L238.456 298.158ZM236.234 300.864L238.8 298.483L238.673 298.346L238.532 298.224L236.234 300.864ZM247.182 311.943L244.851 314.553L247.182 311.943ZM263.694 324.75L266.305 322.419L263.694 324.75ZM280.727 336.816L278.995 339.858L280.727 336.816ZM289.747 342.08L287.952 345.084L289.747 342.08ZM299.005 346.921L300.449 343.733L299.005 346.921ZM308.042 352.175L305.987 355.008L308.042 352.175ZM316.987 357.622L318.56 354.495L316.987 357.622ZM326.726 361.439L325.756 364.802L326.726 361.439ZM336.872 364.076L336.083 367.486L336.872 364.076ZM345.243 363.387L346.976 366.428L345.243 363.387ZM347.87 335.997L344.517 336.999L347.87 335.997ZM340.707 305.556L344.099 304.692L340.707 305.556ZM338.949 295.281L335.463 295.593L338.949 295.281ZM335.682 264.128L332.197 264.455L335.682 264.128ZM335.36 253.679L331.862 253.568L335.36 253.679ZM336.281 248.286L336.98 251.716L336.281 248.286ZM339.62 263.545L343.058 262.893L339.62 263.545ZM353.019 335.322L356.428 334.53L353.019 335.322ZM353.346 355.867L349.867 355.487L353.346 355.867ZM349.682 365.082L352.498 367.16L349.682 365.082ZM308.579 342.01L306.382 344.735L308.579 342.01ZM300.868 334.962L303.385 332.53L300.868 334.962ZM293.054 328L290.926 330.779L293.054 328ZM284.077 322.599L282.618 325.781L284.077 322.599ZM266.96 310.612L265.269 313.675L266.96 310.612ZM257.746 305.668L256.129 308.772L257.746 305.668ZM250.867 300.918L253.39 298.492L250.867 300.918ZM248.418 298.83L245.727 296.592L245.376 297.013L245.171 297.522L248.418 298.83ZM248.297 299.131L246.362 302.048L249.94 304.421L251.543 300.439L248.297 299.131ZM250.148 296.159C248.537 295.091 246.365 295.531 245.296 297.142C244.228 298.753 244.668 300.924 246.279 301.993L248.213 299.076L250.148 296.159ZM236.158 300.798L233.861 303.438L233.936 303.504L236.234 300.864L238.532 298.224L238.456 298.158L236.158 300.798ZM236.234 300.864L233.668 303.244C238.382 308.325 242.122 312.116 244.851 314.553L247.182 311.943L249.514 309.332C247.038 307.121 243.479 303.526 238.8 298.483L236.234 300.864ZM247.182 311.943L244.851 314.553C247.625 317.03 250.622 319.22 253.84 321.12L255.62 318.106L257.399 315.092C254.572 313.423 251.945 311.504 249.514 309.332L247.182 311.943ZM255.62 318.106L253.84 321.12C256.548 322.719 258.96 324.703 261.083 327.081L263.694 324.75L266.305 322.419C263.707 319.508 260.735 317.062 257.399 315.092L255.62 318.106ZM263.694 324.75L261.083 327.081C263.667 329.975 266.599 332.436 269.874 334.453L271.71 331.473L273.545 328.493C270.854 326.836 268.443 324.814 266.305 322.419L263.694 324.75ZM271.71 331.473L269.874 334.453C272.891 336.312 275.931 338.113 278.995 339.858L280.727 336.816L282.459 333.775C279.466 332.07 276.494 330.31 273.545 328.493L271.71 331.473ZM280.727 336.816L278.995 339.858C282.002 341.57 284.987 343.313 287.952 345.084L289.747 342.08L291.543 339.075C288.536 337.279 285.508 335.512 282.459 333.775L280.727 336.816ZM289.747 342.08L287.952 345.084C291.052 346.937 294.255 348.612 297.56 350.109L299.005 346.921L300.449 343.733C297.383 342.344 294.414 340.791 291.543 339.075L289.747 342.08ZM299.005 346.921L297.56 350.109C300.531 351.455 303.339 353.087 305.987 355.008L308.042 352.175L310.097 349.342C307.067 347.144 303.85 345.274 300.449 343.733L299.005 346.921ZM308.042 352.175L305.987 355.008C308.978 357.177 312.121 359.091 315.414 360.748L316.987 357.622L318.56 354.495C315.605 353.008 312.784 351.29 310.097 349.342L308.042 352.175ZM316.987 357.622L315.414 360.748C318.732 362.418 322.18 363.769 325.756 364.802L326.726 361.439L327.697 358.076C324.536 357.164 321.491 355.97 318.56 354.495L316.987 357.622ZM326.726 361.439L325.756 364.802C329.184 365.791 332.626 366.686 336.083 367.486L336.872 364.076L337.661 360.666C334.327 359.895 331.005 359.031 327.697 358.076L326.726 361.439ZM336.872 364.076L336.083 367.486C340.003 368.394 343.774 368.253 346.976 366.428L345.243 363.387L343.51 360.346C342.342 361.012 340.532 361.331 337.661 360.666L336.872 364.076ZM345.243 363.387L346.976 366.428C350.407 364.472 352.123 361.008 352.671 356.987L349.203 356.514L345.735 356.042C345.373 358.693 344.449 359.811 343.51 360.346L345.243 363.387ZM349.203 356.514L352.671 356.987C353.156 353.428 353.304 349.793 353.121 346.084L349.625 346.256L346.129 346.429C346.292 349.725 346.159 352.928 345.735 356.042L349.203 356.514ZM349.625 346.256L353.121 346.084C352.934 342.302 352.302 338.604 351.224 334.995L347.87 335.997L344.517 336.999C345.432 340.065 345.97 343.206 346.129 346.429L349.625 346.256ZM347.87 335.997L351.224 334.995C350.189 331.533 348.958 328.119 347.531 324.752L344.309 326.118L341.087 327.484C342.414 330.616 343.557 333.787 344.517 336.999L347.87 335.997ZM344.309 326.118L347.531 324.752C346.327 321.912 345.692 318.955 345.621 315.858L342.122 315.938L338.623 316.018C338.714 319.997 339.536 323.827 341.087 327.484L344.309 326.118ZM342.122 315.938L345.621 315.858C345.534 312.059 345.027 308.335 344.099 304.692L340.707 305.556L337.316 306.42C338.112 309.543 338.548 312.741 338.623 316.018L342.122 315.938ZM340.707 305.556L344.099 304.692C343.283 301.489 342.729 298.249 342.435 294.969L338.949 295.281L335.463 295.593C335.79 299.247 336.408 302.856 337.316 306.42L340.707 305.556ZM338.949 295.281L342.435 294.969C342.14 291.675 342.089 288.36 342.283 285.025L338.789 284.822L335.295 284.62C335.082 288.295 335.137 291.953 335.463 295.593L338.949 295.281ZM338.789 284.822L342.283 285.025C342.509 281.122 342.079 277.272 340.997 273.488L337.632 274.45L334.267 275.412C335.134 278.447 335.475 281.51 335.295 284.62L338.789 284.822ZM337.632 274.45L340.997 273.488C340.081 270.284 339.472 267.056 339.166 263.802L335.682 264.128L332.197 264.455C332.543 268.146 333.234 271.8 334.267 275.412L337.632 274.45ZM335.682 264.128L339.166 263.802C338.854 260.475 338.752 257.138 338.859 253.791L335.36 253.679L331.862 253.568C331.746 257.207 331.858 260.836 332.197 264.455L335.682 264.128ZM335.36 253.679L338.859 253.791C338.913 252.088 339.012 250.957 339.124 250.3C339.184 249.948 339.218 249.918 339.161 250.052C339.132 250.12 339.016 250.383 338.753 250.689C338.482 251.004 337.906 251.527 336.98 251.716L336.281 248.286L335.582 244.857C334.53 245.071 333.835 245.673 333.45 246.119C333.074 246.556 332.851 247.004 332.721 247.309C332.461 247.919 332.317 248.575 332.224 249.122C332.029 250.263 331.919 251.778 331.862 253.568L335.36 253.679ZM336.281 248.286L336.98 251.716C335.957 251.924 335.08 251.611 334.525 251.24C334.047 250.92 333.804 250.567 333.733 250.458C333.591 250.242 333.606 250.176 333.707 250.501C333.887 251.077 334.12 252.14 334.383 253.816L337.841 253.274L341.298 252.732C341.024 250.98 340.728 249.499 340.388 248.412C340.23 247.905 339.986 247.229 339.589 246.622C339.359 246.271 338.026 244.359 335.582 244.857L336.281 248.286ZM337.841 253.274L334.383 253.816C334.926 257.281 335.525 260.741 336.181 264.197L339.62 263.545L343.058 262.893C342.417 259.509 341.83 256.122 341.298 252.732L337.841 253.274ZM339.62 263.545L336.181 264.197C336.826 267.599 337.444 271.005 338.034 274.417L341.482 273.821L344.931 273.225C344.335 269.776 343.711 266.331 343.058 262.893L339.62 263.545ZM341.482 273.821L338.034 274.417C338.65 277.986 339.482 281.519 340.527 285.016L343.88 284.014L347.234 283.012C346.268 279.779 345.5 276.517 344.931 273.225L341.482 273.821ZM343.88 284.014L340.527 285.016C341.457 288.128 342.022 291.29 342.225 294.508L345.718 294.287L349.211 294.067C348.975 290.316 348.315 286.63 347.234 283.012L343.88 284.014ZM345.718 294.287L342.225 294.508C342.443 297.956 342.609 301.419 342.723 304.897L346.221 304.782L349.719 304.668C349.603 301.12 349.433 297.586 349.211 294.067L345.718 294.287ZM346.221 304.782L342.723 304.897C342.848 308.715 343.465 312.452 344.573 316.098L347.922 315.08L351.271 314.063C350.341 311.004 349.824 307.875 349.719 304.668L346.221 304.782ZM347.922 315.08L344.573 316.098C345.571 319.38 346.459 322.672 347.236 325.973L350.643 325.171L354.05 324.368C353.238 320.921 352.311 317.486 351.271 314.063L347.922 315.08ZM350.643 325.171L347.236 325.973C348.031 329.344 348.822 332.725 349.61 336.115L353.019 335.322L356.428 334.53C355.638 331.133 354.846 327.746 354.05 324.368L350.643 325.171ZM353.019 335.322L349.61 336.115C350.33 339.214 350.643 342.353 350.548 345.541L354.047 345.645L357.545 345.749C357.658 341.96 357.285 338.217 356.428 334.53L353.019 335.322ZM354.047 345.645L350.548 345.541C350.447 348.941 350.22 352.256 349.867 355.487L353.346 355.867L356.825 356.247C357.199 352.825 357.439 349.326 357.545 345.749L354.047 345.645ZM353.346 355.867L349.867 355.487C349.574 358.169 348.596 360.66 346.866 363.003L349.682 365.082L352.498 367.16C354.927 363.87 356.392 360.217 356.825 356.247L353.346 355.867ZM349.682 365.082L346.866 363.003C346.177 363.938 345.702 364.094 345.516 364.13C345.31 364.169 344.748 364.192 343.651 363.551L341.885 366.573L340.119 369.595C342.141 370.777 344.439 371.463 346.831 371.005C349.244 370.544 351.109 369.043 352.498 367.16L349.682 365.082ZM341.885 366.573L343.651 363.551C340.402 361.652 337.099 360.004 333.742 358.61L332.4 361.842L331.057 365.075C334.111 366.343 337.131 367.848 340.119 369.595L341.885 366.573ZM332.4 361.842L333.742 358.61C330.847 357.408 328.177 355.82 325.726 353.84L323.527 356.562L321.328 359.285C324.297 361.683 327.543 363.615 331.057 365.075L332.4 361.842ZM323.527 356.562L325.726 353.84C323.185 351.787 320.85 349.513 318.721 347.016L316.058 349.287L313.395 351.558C315.804 354.383 318.448 356.959 321.328 359.285L323.527 356.562ZM316.058 349.287L318.721 347.016C316.311 344.19 313.662 341.612 310.775 339.285L308.579 342.01L306.382 344.735C308.929 346.789 311.266 349.062 313.395 351.558L316.058 349.287ZM308.579 342.01L310.775 339.285C308.171 337.186 305.708 334.934 303.385 332.53L300.868 334.962L298.351 337.394C300.875 340.007 303.553 342.454 306.382 344.735L308.579 342.01ZM300.868 334.962L303.385 332.53C300.84 329.896 298.105 327.459 295.182 325.221L293.054 328L290.926 330.779C293.574 332.806 296.049 335.011 298.351 337.394L300.868 334.962ZM293.054 328L295.182 325.221C292.189 322.929 288.972 320.994 285.536 319.418L284.077 322.599L282.618 325.781C285.581 327.14 288.349 328.805 290.926 330.779L293.054 328ZM284.077 322.599L285.536 319.418C282.681 318.109 280.107 316.378 277.803 314.217L275.409 316.769L273.014 319.322C275.867 321.999 279.072 324.155 282.618 325.781L284.077 322.599ZM275.409 316.769L277.803 314.217C275.015 311.601 271.964 309.376 268.652 307.548L266.96 310.612L265.269 313.675C268.064 315.219 270.644 317.099 273.014 319.322L275.409 316.769ZM266.96 310.612L268.652 307.548C265.574 305.848 262.478 304.187 259.364 302.564L257.746 305.668L256.129 308.772C259.193 310.369 262.24 312.003 265.269 313.675L266.96 310.612ZM257.746 305.668L259.364 302.564C256.431 301.036 254.513 299.66 253.39 298.492L250.867 300.918L248.344 303.344C250.215 305.29 252.883 307.08 256.129 308.772L257.746 305.668ZM250.867 300.918L253.39 298.492C252.625 297.696 251.949 297.03 251.404 296.565C251.158 296.356 250.784 296.052 250.354 295.812C250.167 295.708 249.703 295.46 249.075 295.356C248.424 295.248 246.87 295.218 245.727 296.592L248.418 298.83L251.109 301.068C250.612 301.666 249.965 302.035 249.318 302.2C248.724 302.352 248.225 302.311 247.927 302.261C247.376 302.17 247.01 301.962 246.942 301.924C246.75 301.817 246.699 301.753 246.862 301.892C247.133 302.123 247.613 302.584 248.344 303.344L250.867 300.918ZM248.418 298.83L245.171 297.522L245.05 297.824L248.297 299.131L251.543 300.439L251.665 300.137L248.418 298.83ZM248.297 299.131L250.231 296.214L250.148 296.159L248.213 299.076L246.279 301.993L246.362 302.048L248.297 299.131Z" fill="black"/>
</svg>
