<svg width="548" height="540" viewBox="0 0 548 540" fill="none" xmlns="http://www.w3.org/2000/svg">
<path d="M95.1507 492.109C144.024 358.559 192.898 225.009 229.725 128.364C266.553 31.7186 289.853 -23.9747 311.802 24.0552C333.75 72.085 353.64 225.526 371.559 333.554C389.478 441.582 404.822 499.549 407.896 522.307C410.97 545.064 401.309 530.857 368.201 494.271C335.093 457.684 278.832 399.149 213.477 340.58C148.123 282.011 75.3808 225.181 35.3502 193.348C-4.68044 161.515 -9.79512 156.4 63.722 152.628C137.239 148.857 289.543 146.584 382.779 143.424C476.014 140.264 505.566 136.286 522.21 133.668C538.854 131.05 541.696 129.914 540.886 129.612C540.077 129.311 535.53 129.879 504.489 153.472C473.448 177.065 416.05 223.666 364.033 262.732C312.017 301.798 267.121 331.918 222.398 365.62C177.675 399.322 134.484 435.693 108.824 456.703C83.1647 477.712 76.3452 482.259 72.2637 485.453C68.1823 488.648 67.0457 490.353 64.1526 493.831" stroke="black" stroke-width="13" stroke-linecap="round"/>
</svg>
