<svg width="210" height="228" viewBox="0 0 210 228" fill="none" xmlns="http://www.w3.org/2000/svg">
<path d="M148.375 49.2521C151.257 50.2113 154.371 48.6525 155.33 45.7704C156.29 42.8882 154.731 39.7742 151.849 38.815L150.112 44.0335L148.375 49.2521ZM150.017 44.002L147.099 48.6644L147.657 49.013L148.28 49.2205L150.017 44.002ZM111.63 29.849L110.402 35.2101L111.63 29.849ZM79.709 35.5332L77.3662 30.5571L79.709 35.5332ZM64.9645 42.7926L62.4501 37.901L64.9645 42.7926ZM91.2266 100.638L90.7273 95.1611L91.2266 100.638ZM107.316 97.2747L109.053 102.493L107.316 97.2747ZM120.016 97.9323L116.944 102.495L120.016 97.9323ZM161.572 130.45L156.278 131.94L161.572 130.45ZM178.861 156.572L175.809 161.148L178.861 156.572ZM191.753 155.368L195.242 159.62L191.753 155.368ZM198.867 141.57L193.378 141.228L198.867 141.57ZM201.251 125.149L206.609 126.391L201.251 125.149ZM198.097 77.5133L193.472 80.4903L198.097 77.5133ZM187.241 65.8512L183.937 70.2484L187.241 65.8512ZM175.126 54.9208L171.097 58.6647L175.126 54.9208ZM164.514 42.7706L160.256 46.2528L164.514 42.7706ZM164.181 30.9513L159.912 27.4839L164.181 30.9513ZM174.539 19.3769L178.475 23.2182L174.539 19.3769ZM185.411 5.5703L188.888 1.3087L188.683 1.14109L188.462 0.99402L185.411 5.5703ZM186.213 6.22427L182.736 10.4859L186.985 13.9527L190.464 9.71355L186.213 6.22427ZM190.528 9.63625C192.455 7.28823 192.113 3.82258 189.765 1.89551C187.417 -0.0315661 183.952 0.309678 182.025 2.6577L186.276 6.14697L190.528 9.63625ZM150.112 44.0335L151.849 38.815L151.754 38.7834L150.017 44.002L148.28 49.2205L148.375 49.2521L150.112 44.0335ZM150.017 44.002L152.934 39.3395C143.475 33.4206 135.43 29.4795 129.049 28.097L127.884 33.4722L126.72 38.8475C131.157 39.8089 137.867 42.8877 147.099 48.6644L150.017 44.002ZM127.884 33.4722L129.049 28.097C123.661 26.9296 118.264 25.7266 112.858 24.4879L111.63 29.849L110.402 35.2101C115.85 36.4584 121.289 37.6709 126.72 38.8475L127.884 33.4722ZM111.63 29.849L112.858 24.4879C106.581 23.0495 100.262 23.118 93.9717 24.6795L95.2969 30.0175L96.6221 35.3554C101.255 34.2052 105.825 34.1614 110.402 35.2101L111.63 29.849ZM95.2969 30.0175L93.9717 24.6795C88.1713 26.1194 82.6336 28.0771 77.3662 30.5571L79.709 35.5332L82.0519 40.5092C86.6452 38.3466 91.4994 36.6271 96.6221 35.3554L95.2969 30.0175ZM79.709 35.5332L77.3662 30.5571C72.3776 32.9058 67.4056 35.3538 62.4501 37.901L64.9645 42.7926L67.4789 47.6842C72.3221 45.1947 77.1798 42.8031 82.0519 40.5092L79.709 35.5332ZM64.9645 42.7926L62.4501 37.901C57.0069 40.6989 52.2808 44.2567 48.3271 48.5891L52.3898 52.2965L56.4524 56.0039C59.4664 52.7012 63.1233 49.9231 67.4789 47.6842L64.9645 42.7926ZM52.3898 52.2965L48.3271 48.5891C46.2546 50.8602 44.2332 53.9389 44.3558 57.614C44.4921 61.699 47.1375 64.4413 49.8382 66.0813L52.6929 61.3801L55.5475 56.6789C55.0604 56.3831 54.9911 56.2382 55.0659 56.3423C55.11 56.4036 55.1836 56.524 55.2461 56.7014C55.3097 56.8818 55.3438 57.0704 55.3497 57.2472C55.3615 57.6028 55.2565 57.6979 55.3799 57.4483C55.5099 57.1852 55.8151 56.7024 56.4524 56.0039L52.3898 52.2965ZM52.6929 61.3801L49.8382 66.0813C54.1693 68.7112 59.2802 70.5848 65.0471 71.8096L66.1897 66.4296L67.3323 61.0496C62.4751 60.018 58.5881 58.5252 55.5475 56.6789L52.6929 61.3801ZM66.1897 66.4296L65.0471 71.8096C66.931 72.2097 67.4272 72.7763 67.5128 72.8902C67.5517 72.942 67.895 73.378 67.6841 74.9332L73.1343 75.672L78.5845 76.4108C79.0559 72.9327 78.583 69.3115 76.307 66.2824C74.0777 63.3155 70.7604 61.7776 67.3323 61.0496L66.1897 66.4296ZM73.1343 75.672L67.6841 74.9332C67.041 79.6777 66.0149 84.4238 64.6015 89.1737L69.8731 90.7423L75.1446 92.311C76.7149 87.034 77.863 81.7333 78.5845 76.4108L73.1343 75.672ZM69.8731 90.7423L64.6015 89.1737C63.6295 92.4402 63.3801 96.2325 65.3931 99.5971C67.408 102.965 70.8696 104.535 74.2095 105.215L75.3079 99.8263L76.4063 94.4371C74.6311 94.0752 74.6294 93.6099 74.8327 93.9496C75.0341 94.2862 74.6248 94.0578 75.1446 92.311L69.8731 90.7423ZM75.3079 99.8263L74.2095 105.215C79.8794 106.371 85.7252 106.663 91.7259 106.116L91.2266 100.638L90.7273 95.1611C85.7332 95.6164 80.9666 95.3665 76.4063 94.4371L75.3079 99.8263ZM91.2266 100.638L91.7259 106.116C97.644 105.576 103.423 104.368 109.053 102.493L107.316 97.2747L105.578 92.0565C100.751 93.6639 95.8039 94.6984 90.7273 95.1611L91.2266 100.638ZM107.316 97.2747L109.053 102.493C113.368 101.056 115.64 101.617 116.944 102.495L120.016 97.9323L123.087 93.3697C117.915 89.8884 111.72 90.0107 105.578 92.0565L107.316 97.2747ZM120.016 97.9323L116.944 102.495C118.429 103.494 119.963 105.619 120.645 110.259L126.086 109.459L131.528 108.659C130.592 102.289 128.079 96.7299 123.087 93.3697L120.016 97.9323ZM126.086 109.459L120.645 110.259C121.164 113.788 122.42 117.053 124.691 119.715C126.983 122.402 130.001 124.113 133.417 125.011L134.816 119.692L136.214 114.373C134.62 113.954 133.678 113.301 133.06 112.576C132.421 111.827 131.818 110.635 131.528 108.659L126.086 109.459ZM134.816 119.692L133.417 125.011C138.848 126.439 144.579 127.26 150.595 127.495L150.81 121.999L151.025 116.504C145.736 116.297 140.804 115.579 136.214 114.373L134.816 119.692ZM150.81 121.999L150.595 127.495C152.545 127.572 153.659 128.067 154.343 128.604C155.024 129.138 155.758 130.09 156.278 131.94L161.572 130.45L166.867 128.961C165.864 125.397 164.043 122.234 161.136 119.952C158.232 117.672 154.726 116.648 151.025 116.504L150.81 121.999ZM161.572 130.45L156.278 131.94C157.939 137.845 160.363 143.34 163.555 148.403L168.207 145.469L172.86 142.536C170.251 138.398 168.251 133.881 166.867 128.961L161.572 130.45ZM168.207 145.469L163.555 148.403C166.836 153.606 170.916 157.885 175.809 161.148L178.861 156.572L181.912 151.996C178.402 149.655 175.38 146.533 172.86 142.536L168.207 145.469ZM178.861 156.572L175.809 161.148C178.772 163.124 182.135 164.186 185.746 163.848C189.284 163.518 192.461 161.901 195.242 159.62L191.753 155.368L188.265 151.116C186.652 152.439 185.483 152.825 184.724 152.896C184.037 152.96 183.15 152.822 181.912 151.996L178.861 156.572ZM191.753 155.368L195.242 159.62C200.798 155.062 203.911 149.055 204.356 141.912L198.867 141.57L193.378 141.228C193.126 145.274 191.496 148.465 188.265 151.116L191.753 155.368ZM198.867 141.57L204.356 141.912C204.687 136.614 205.438 131.442 206.609 126.391L201.251 125.149L195.893 123.907C194.583 129.561 193.745 135.336 193.378 141.228L198.867 141.57ZM201.251 125.149L206.609 126.391C207.914 120.761 208.773 115.071 209.185 109.323L203.699 108.93L198.213 108.537C197.842 113.711 197.069 118.833 195.893 123.907L201.251 125.149ZM203.699 108.93L209.185 109.323C209.6 103.528 209.486 97.7245 208.843 91.9164L203.377 92.5212L197.91 93.1259C198.48 98.2759 198.58 103.412 198.213 108.537L203.699 108.93ZM203.377 92.5212L208.843 91.9164C208.146 85.6133 206.107 79.7952 202.722 74.5364L198.097 77.5133L193.472 80.4903C195.914 84.2838 197.395 88.471 197.91 93.1259L203.377 92.5212ZM198.097 77.5133L202.722 74.5364C199.454 69.4596 195.387 65.0921 190.545 61.4539L187.241 65.8512L183.937 70.2484C187.743 73.1074 190.913 76.5147 193.472 80.4903L198.097 77.5133ZM187.241 65.8512L190.545 61.4539C186.486 58.4049 182.69 54.9809 179.155 51.1768L175.126 54.9208L171.097 58.6647C175.067 62.9373 179.348 66.8002 183.937 70.2484L187.241 65.8512ZM175.126 54.9208L179.155 51.1768C175.477 47.2191 172.016 43.2562 168.771 39.2884L164.514 42.7706L160.256 46.2528C163.656 50.4086 167.27 54.5458 171.097 58.6647L175.126 54.9208ZM164.514 42.7706L168.771 39.2884C167.626 37.888 167.448 37.0205 167.437 36.6149C167.427 36.2622 167.517 35.5678 168.451 34.4187L164.181 30.9513L159.912 27.4839C157.745 30.1525 156.34 33.3369 156.441 36.924C156.541 40.4582 158.08 43.5915 160.256 46.2528L164.514 42.7706ZM164.181 30.9513L168.451 34.4187C171.436 30.7434 174.775 27.0097 178.475 23.2182L174.539 19.3769L170.603 15.5356C166.694 19.541 163.129 23.5235 159.912 27.4839L164.181 30.9513ZM174.539 19.3769L178.475 23.2182C182.436 19.1596 185.504 15.3169 187.308 11.7361L182.396 9.26141L177.484 6.78673C176.421 8.89632 174.251 11.7973 170.603 15.5356L174.539 19.3769ZM182.396 9.26141L187.308 11.7361C187.625 11.1063 187.892 10.6187 188.11 10.2542C188.218 10.0738 188.306 9.9367 188.375 9.83642C188.408 9.78698 188.435 9.74985 188.454 9.72355C188.464 9.71055 188.471 9.70084 188.477 9.69414C188.479 9.69082 188.481 9.68835 188.482 9.68668C188.484 9.685 188.484 9.6842 188.484 9.68423C188.484 9.68426 188.484 9.68519 188.482 9.68698C188.481 9.68876 188.478 9.69148 188.475 9.69507C188.469 9.70216 188.459 9.71332 188.446 9.728C188.419 9.75624 188.373 9.80429 188.307 9.86547C188.191 9.97193 187.92 10.206 187.492 10.4347C187.064 10.6636 186.319 10.9718 185.33 10.9996C184.261 11.0297 183.222 10.7212 182.36 10.1466L185.411 5.5703L188.462 0.99402C186.121 -0.566537 183.677 0.000950813 182.305 0.734757C181.151 1.35165 180.376 2.22199 179.965 2.72524C179.067 3.82488 178.239 5.28809 177.484 6.78673L182.396 9.26141ZM185.411 5.5703L181.934 9.8319L182.736 10.4859L186.213 6.22427L189.69 1.96267L188.888 1.3087L185.411 5.5703ZM186.213 6.22427L190.464 9.71355L190.528 9.63625L186.276 6.14697L182.025 2.6577L181.961 2.735L186.213 6.22427Z" fill="black"/>
<path d="M67.0364 65.7446C68.5651 63.1198 67.6766 59.7526 65.0517 58.2239C62.4269 56.6951 59.0598 57.5837 57.531 60.2085L62.2837 62.9766L67.0364 65.7446ZM62.2334 63.063L57.4807 60.2949L57.3127 60.5833L57.1809 60.8899L62.2334 63.063ZM50.6057 84.654L54.9162 88.0701L50.6057 84.654ZM41.6937 98.3799L36.8179 95.8351L41.6937 98.3799ZM28.5764 128.327L23.7146 125.755L28.5764 128.327ZM21.0182 142.963L16.1067 140.488L21.0182 142.963ZM11.9377 174.474L17.1656 176.183L11.9377 174.474ZM6.86815 190.041L1.63677 188.343L6.86815 190.041ZM6.50288 205.66L11.8007 204.182L6.50288 205.66ZM15.2808 217.428L12.4449 222.141L15.2808 217.428ZM30.0399 221.783L29.7832 227.277L30.0399 221.783ZM46.2484 220.608L45.2046 215.208L46.2484 220.608ZM77.5358 210.873L75.8378 205.642L77.5358 210.873ZM124.301 196.798L122.532 191.59L124.301 196.798ZM139.488 190.808L141.751 195.82L139.488 190.808ZM166.345 172.469L170.26 176.332L166.345 172.469ZM174.043 163.004L178.904 165.577L178.914 165.558L178.924 165.538L174.043 163.004ZM175.871 159.484L172.094 155.485L171.418 156.124L170.989 156.949L175.871 159.484ZM179.72 163.414C181.928 161.328 182.028 157.847 179.942 155.639C177.857 153.43 174.376 153.331 172.167 155.416L175.943 159.415L179.72 163.414ZM62.2837 62.9766L57.531 60.2085L57.4807 60.2949L62.2334 63.063L66.986 65.831L67.0364 65.7446L62.2837 62.9766ZM62.2334 63.063L57.1809 60.8899C52.8833 70.8819 49.2383 77.5244 46.2953 81.2378L50.6057 84.654L54.9162 88.0701C58.7996 83.1701 62.9064 75.4185 67.2859 65.2361L62.2334 63.063ZM50.6057 84.654L46.2953 81.2378C42.6678 85.815 39.5075 90.6818 36.8179 95.8351L41.6937 98.3799L46.5696 100.925C48.9362 96.3902 51.7172 92.1065 54.9162 88.0701L50.6057 84.654ZM41.6937 98.3799L36.8179 95.8351C34.1718 100.905 31.8941 106.126 29.986 111.496L35.1687 113.338L40.3513 115.179C42.0871 110.293 44.1595 105.542 46.5696 100.925L41.6937 98.3799ZM35.1687 113.338L29.986 111.496C28.2542 116.371 26.1644 121.123 23.7146 125.755L28.5764 128.327L33.4383 130.898C36.1342 125.801 38.4392 120.561 40.3513 115.179L35.1687 113.338ZM28.5764 128.327L23.7146 125.755C21.1249 130.651 18.589 135.562 16.1067 140.488L21.0182 142.963L25.9298 145.438C28.3794 140.577 30.8823 135.731 33.4383 130.898L28.5764 128.327ZM21.0182 142.963L16.1067 140.488C13.3934 145.872 11.5163 151.574 10.4746 157.577L15.8936 158.517L21.3126 159.458C22.1718 154.507 23.7112 149.84 25.9298 145.438L21.0182 142.963ZM15.8936 158.517L10.4746 157.577C9.56829 162.799 8.31268 167.861 6.70984 172.766L11.9377 174.474L17.1656 176.183C18.9364 170.765 20.3181 165.189 21.3126 159.458L15.8936 158.517ZM11.9377 174.474L6.70984 172.766C5.02183 177.931 3.33081 183.123 1.63677 188.343L6.86815 190.041L12.0995 191.739C13.7913 186.526 15.48 181.341 17.1656 176.183L11.9377 174.474ZM6.86815 190.041L1.63677 188.343C-0.384178 194.57 -0.539988 200.881 1.2051 207.137L6.50288 205.66L11.8007 204.182C10.647 200.046 10.7347 195.944 12.0995 191.739L6.86815 190.041ZM6.50288 205.66L1.2051 207.137C3.01111 213.612 6.77404 218.728 12.4449 222.141L15.2808 217.428L18.1167 212.716C14.9824 210.829 12.8934 208.1 11.8007 204.182L6.50288 205.66ZM15.2808 217.428L12.4449 222.141C17.6755 225.288 23.4908 226.983 29.7832 227.277L30.0399 221.783L30.2966 216.289C25.7153 216.075 21.6912 214.867 18.1167 212.716L15.2808 217.428ZM30.0399 221.783L29.7832 227.277C35.6578 227.552 41.4972 227.128 47.2923 226.008L46.2484 220.608L45.2046 215.208C40.262 216.163 35.2957 216.523 30.2966 216.289L30.0399 221.783ZM46.2484 220.608L47.2923 226.008C52.9494 224.914 58.4887 223.376 63.9076 221.393L62.018 216.228L60.1284 211.063C55.259 212.844 50.2853 214.226 45.2046 215.208L46.2484 220.608ZM62.018 216.228L63.9076 221.393C68.9884 219.535 74.0971 217.772 79.2338 216.104L77.5358 210.873L75.8378 205.642C70.5724 207.351 65.3359 209.158 60.1284 211.063L62.018 216.228ZM77.5358 210.873L79.2338 216.104C83.9037 214.589 88.7844 213.777 93.8964 213.68L93.7923 208.181L93.6882 202.682C87.5269 202.799 81.5699 203.781 75.8378 205.642L77.5358 210.873ZM93.7923 208.181L93.8964 213.68C100.482 213.555 106.628 211.806 112.234 208.439L109.403 203.724L106.571 199.009C102.637 201.371 98.3761 202.593 93.6882 202.682L93.7923 208.181ZM109.403 203.724L112.234 208.439C116.676 205.772 121.286 203.63 126.069 202.006L124.301 196.798L122.532 191.59C116.992 193.472 111.671 195.947 106.571 199.009L109.403 203.724ZM124.301 196.798L126.069 202.006C131.398 200.197 136.626 198.135 141.751 195.82L139.488 190.808L137.224 185.795C132.423 187.963 127.526 189.895 122.532 191.59L124.301 196.798ZM139.488 190.808L141.751 195.82C146.991 193.454 152.007 190.669 156.796 187.468L153.739 182.896L150.683 178.323C146.396 181.189 141.91 183.679 137.224 185.795L139.488 190.808ZM153.739 182.896L156.796 187.468C161.646 184.226 166.135 180.512 170.26 176.332L166.345 172.469L162.429 168.606C158.823 172.261 154.909 175.498 150.683 178.323L153.739 182.896ZM166.345 172.469L170.26 176.332C174.197 172.341 177.242 168.715 178.904 165.577L174.043 163.004L169.183 160.43C168.31 162.077 166.223 164.761 162.429 168.606L166.345 172.469ZM174.043 163.004L178.924 165.538L180.752 162.018L175.871 159.484L170.989 156.949L169.162 160.469L174.043 163.004ZM175.871 159.484L179.647 163.483L179.72 163.414L175.943 159.415L172.167 155.416L172.094 155.485L175.871 159.484Z" fill="black"/>
<path d="M58.7799 120.127C59.908 117.307 58.5362 114.106 55.7159 112.978C52.8956 111.85 49.6947 113.222 48.5666 116.042L53.6732 118.084L58.7799 120.127ZM53.6361 118.177L58.6253 120.492L58.6877 120.358L58.7427 120.22L53.6361 118.177ZM49.5315 126.232L46.4911 130.816L46.7648 130.997L47.0582 131.145L49.5315 126.232ZM50.2661 126.602L55.3728 128.645L57.2471 123.959L52.7394 121.69L50.2661 126.602ZM45.1224 124.652C43.9943 127.473 45.366 130.674 48.1864 131.802C51.0067 132.93 54.2075 131.558 55.3356 128.738L50.229 126.695L45.1224 124.652ZM53.6732 118.084L48.5666 116.042L48.5295 116.135L53.6361 118.177L58.7427 120.22L58.7799 120.127L53.6732 118.084ZM53.6361 118.177L48.6469 115.863C47.4366 118.471 46.5812 121.395 46.9247 124.337L52.3876 123.699L57.8505 123.061C57.8419 122.988 57.8189 122.23 58.6253 120.492L53.6361 118.177ZM52.3876 123.699L46.9247 124.337C46.9247 124.337 46.9247 124.336 46.9247 124.336C46.9247 124.336 46.9247 124.336 46.9246 124.336C46.9246 124.336 46.9246 124.335 46.9245 124.335C46.9244 124.333 46.9242 124.331 46.9239 124.329C46.9235 124.324 46.9228 124.316 46.9222 124.305C46.9209 124.284 46.9195 124.251 46.9197 124.206C46.92 124.119 46.9263 123.971 46.9589 123.776C47.0237 123.388 47.209 122.728 47.7281 122.045C48.9593 120.423 50.6344 120.353 51.0168 120.372L50.7428 125.865L50.4687 131.358C52.1237 131.441 54.7092 131.04 56.4887 128.697C58.0444 126.648 57.999 124.333 57.8505 123.061L52.3876 123.699ZM50.7428 125.865L51.0168 120.372C50.6138 120.352 50.1808 120.341 49.7577 120.356C49.4433 120.367 48.6998 120.4 47.8888 120.646C47.5191 120.758 46.5836 121.071 45.6825 121.887C44.5516 122.912 43.5962 124.67 43.9003 126.81C44.139 128.489 45.0547 129.538 45.4022 129.905C45.8312 130.358 46.2522 130.657 46.4911 130.816L49.5315 126.232L52.5718 121.649C52.6944 121.73 53.0264 121.958 53.3934 122.346C53.679 122.648 54.5599 123.637 54.7909 125.262C55.0873 127.347 54.1514 129.058 53.0672 130.04C52.2128 130.814 51.351 131.091 51.0823 131.172C50.7224 131.281 50.4479 131.319 50.3459 131.331C50.2233 131.346 50.1491 131.349 50.1448 131.349C50.1408 131.349 50.2354 131.346 50.4687 131.358L50.7428 125.865ZM49.5315 126.232L47.0582 131.145L47.7929 131.515L50.2661 126.602L52.7394 121.69L52.0047 121.32L49.5315 126.232ZM50.2661 126.602L45.1595 124.56L45.1224 124.652L50.229 126.695L55.3356 128.738L55.3728 128.645L50.2661 126.602Z" fill="black"/>
<path d="M81.2784 128.434C82.239 125.552 80.6816 122.438 77.7999 121.477C74.9183 120.517 71.8035 122.074 70.8429 124.956L76.0607 126.695L81.2784 128.434ZM76.0291 126.79L70.8113 125.05L70.6194 125.626L70.5576 126.23L76.0291 126.79ZM74.5723 136.934L70.5368 133.197L74.5723 136.934ZM73.1954 137.412L69.5735 141.551L69.8494 141.792L70.155 141.995L73.1954 137.412ZM72.6481 136.933L76.2699 132.794L70.0457 127.347L67.4303 135.193L72.6481 136.933ZM67.3987 135.288C66.4381 138.17 67.9955 141.285 70.8772 142.245C73.7589 143.206 76.8737 141.648 77.8342 138.767L72.6165 137.028L67.3987 135.288ZM76.0607 126.695L70.8429 124.956L70.8113 125.05L76.0291 126.79L81.2468 128.529L81.2784 128.434L76.0607 126.695ZM76.0291 126.79L70.5576 126.23C70.2596 129.143 70.0642 131.529 69.9846 133.344L75.4794 133.584L80.9741 133.825C81.0399 132.323 81.2109 130.18 81.5005 127.349L76.0291 126.79ZM75.4794 133.584L69.9846 133.344C69.9725 133.622 69.9524 133.834 69.9314 133.99C69.9101 134.148 69.8912 134.221 69.8894 134.228C69.8867 134.238 69.9123 134.137 69.996 133.968C70.0801 133.797 70.2451 133.512 70.5368 133.197L74.5723 136.934L78.6079 140.671C79.6974 139.494 80.2258 138.141 80.5069 137.103C80.7987 136.026 80.927 134.9 80.9741 133.825L75.4794 133.584ZM74.5723 136.934L70.5368 133.197C70.5487 133.184 71.0344 132.632 72.026 132.288C72.5793 132.096 73.3009 131.967 74.1242 132.061C74.957 132.157 75.6741 132.456 76.2357 132.828L73.1954 137.412L70.155 141.995C71.8582 143.125 73.8736 143.29 75.6321 142.68C77.0827 142.177 78.0639 141.258 78.6079 140.671L74.5723 136.934ZM73.1954 137.412L76.8172 133.272L76.2699 132.794L72.6481 136.933L69.0262 141.072L69.5735 141.551L73.1954 137.412ZM72.6481 136.933L67.4303 135.193L67.3987 135.288L72.6165 137.028L77.8342 138.767L77.8658 138.672L72.6481 136.933Z" fill="black"/>
<path d="M107.909 140.464C109.807 138.092 109.422 134.631 107.05 132.733C104.678 130.836 101.217 131.22 99.3198 133.592L103.615 137.028L107.909 140.464ZM103.552 137.106L107.608 140.821L107.732 140.685L107.847 140.542L103.552 137.106ZM97.6793 145.059L97.4506 139.563L97.6793 145.059ZM96.3097 145.386L93.4553 150.087L93.9171 150.367L94.4246 150.552L96.3097 145.386ZM96.7885 145.56L101.083 148.996L105.866 143.018L98.6737 140.393L96.7885 145.56ZM92.4313 142.203C90.5337 144.575 90.9183 148.036 93.2903 149.933C95.6622 151.831 99.1233 151.446 101.021 149.074L96.7261 145.638L92.4313 142.203ZM103.615 137.028L99.3198 133.592L99.2573 133.67L103.552 137.106L107.847 140.542L107.909 140.464L103.615 137.028ZM103.552 137.106L99.4963 133.391C97.3643 135.719 95.4976 138.353 94.7545 141.23L100.08 142.605L105.405 143.981C105.481 143.686 105.929 142.653 107.608 140.821L103.552 137.106ZM100.08 142.605L94.7545 141.23C94.6924 141.47 94.7394 141.074 95.241 140.562C95.5097 140.287 95.8667 140.025 96.3022 139.835C96.7338 139.647 97.1361 139.576 97.4506 139.563L97.6793 145.059L97.908 150.554C99.8382 150.473 101.68 149.709 103.104 148.254C104.405 146.924 105.057 145.326 105.405 143.981L100.08 142.605ZM97.6793 145.059L97.4506 139.563C96.8783 139.587 95.9743 139.635 95.1662 139.828C94.9357 139.883 94.5146 139.995 94.0339 140.213C93.7145 140.358 92.5007 140.919 91.6165 142.29C91.1009 143.09 90.7124 144.151 90.7317 145.383C90.7504 146.581 91.1479 147.541 91.549 148.197C92.2523 149.346 93.1821 149.921 93.4553 150.087L96.3097 145.386L99.1641 140.684C99.3679 140.808 100.251 141.343 100.931 142.454C101.32 143.09 101.712 144.032 101.73 145.211C101.749 146.425 101.366 147.468 100.862 148.251C100 149.587 98.8316 150.115 98.5804 150.229C98.1679 150.417 97.838 150.499 97.7216 150.527C97.37 150.611 97.2896 150.579 97.908 150.554L97.6793 145.059ZM96.3097 145.386L94.4246 150.552L94.9034 150.727L96.7885 145.56L98.6737 140.393L98.1949 140.219L96.3097 145.386ZM96.7885 145.56L92.4938 142.125L92.4313 142.203L96.7261 145.638L101.021 149.074L101.083 148.996L96.7885 145.56Z" fill="black"/>
<path d="M120.827 156.822C123.199 154.924 123.584 151.463 121.686 149.091C119.789 146.719 116.328 146.335 113.956 148.232L117.392 152.527L120.827 156.822ZM117.314 152.589L113.878 148.295L113.508 148.591L113.194 148.945L117.314 152.589ZM108.684 159.124L103.466 160.863L103.757 161.736L104.316 162.466L108.684 159.124ZM108.859 159.353L112.295 163.648L116.498 160.285L113.227 156.01L108.859 159.353ZM105.345 155.121C102.973 157.018 102.589 160.479 104.486 162.851C106.384 165.223 109.845 165.608 112.217 163.71L108.781 159.415L105.345 155.121ZM117.392 152.527L113.956 148.232L113.878 148.295L117.314 152.589L120.749 156.884L120.827 156.822L117.392 152.527ZM117.314 152.589L113.194 148.945C111.272 151.118 109.872 152.601 108.945 153.481L112.734 157.468L116.522 161.456C117.803 160.239 119.456 158.468 121.433 156.233L117.314 152.589ZM112.734 157.468L108.945 153.481C108.638 153.773 108.554 153.787 108.697 153.715C108.854 153.635 109.429 153.384 110.292 153.456L109.832 158.937L109.373 164.418C112.658 164.693 115.149 162.76 116.522 161.456L112.734 157.468ZM109.832 158.937L110.292 153.456C109.819 153.416 108.942 153.356 108.039 153.503C107.708 153.557 106.456 153.762 105.265 154.723C104.563 155.289 103.784 156.203 103.401 157.515C103.018 158.826 103.182 160.012 103.466 160.863L108.684 159.124L113.902 157.385C114.169 158.187 114.331 159.329 113.96 160.599C113.588 161.871 112.835 162.749 112.173 163.283C111.062 164.179 109.945 164.337 109.806 164.36C109.286 164.445 109.015 164.388 109.373 164.418L109.832 158.937ZM108.684 159.124L104.316 162.466L104.491 162.695L108.859 159.353L113.227 156.01L113.052 155.781L108.684 159.124ZM108.859 159.353L105.423 155.058L105.345 155.121L108.781 159.415L112.217 163.71L112.295 163.648L108.859 159.353Z" fill="black"/>
<path d="M130.129 180.372C133.143 179.995 135.281 177.246 134.904 174.232C134.527 171.218 131.778 169.08 128.764 169.457L129.446 174.914L130.129 180.372ZM129.347 174.926L128.149 180.294L129.082 180.502L130.029 180.384L129.347 174.926ZM121.051 174.78L118.965 169.691L121.051 174.78ZM115.646 176.494L110.222 177.407L110.501 179.066L111.66 180.285L115.646 176.494ZM115.769 176.624L116.451 182.081L127.265 180.73L119.754 172.833L115.769 176.624ZM114.987 171.179C111.973 171.555 109.835 174.304 110.212 177.318C110.589 180.332 113.338 182.47 116.352 182.094L115.669 176.636L114.987 171.179ZM129.446 174.914L128.764 169.457L128.665 169.469L129.347 174.926L130.029 180.384L130.129 180.372L129.446 174.914ZM129.347 174.926L130.545 169.559C126.604 168.679 122.409 168.279 118.965 169.691L121.051 174.78L123.137 179.869C123.114 179.879 123.446 179.747 124.375 179.764C125.277 179.78 126.517 179.93 128.149 180.294L129.347 174.926ZM121.051 174.78L118.965 169.691C117.229 170.403 116.344 170.649 116.062 170.697L116.99 176.118L117.918 181.539C119.461 181.275 121.283 180.629 123.137 179.869L121.051 174.78ZM116.99 176.118L116.062 170.697C115.563 170.783 114.995 170.891 114.488 171.033C114.283 171.09 113.777 171.236 113.227 171.516C112.983 171.64 112.353 171.974 111.731 172.61C111.121 173.233 109.805 174.929 110.222 177.407L115.646 176.494L121.069 175.581C121.482 178.036 120.177 179.707 119.592 180.305C118.994 180.915 118.404 181.223 118.215 181.32C117.957 181.451 117.752 181.527 117.66 181.559C117.554 181.597 117.48 181.618 117.451 181.626C117.392 181.643 117.504 181.61 117.918 181.539L116.99 176.118ZM115.646 176.494L111.66 180.285L111.784 180.414L115.769 176.624L119.754 172.833L119.631 172.704L115.646 176.494ZM115.769 176.624L115.086 171.166L114.987 171.179L115.669 176.636L116.352 182.094L116.451 182.081L115.769 176.624Z" fill="black"/>
<path d="M45.3962 154.249C45.3962 151.211 42.9338 148.749 39.8962 148.749C36.8587 148.749 34.3962 151.211 34.3962 154.249H39.8962H45.3962ZM39.8962 154.349H34.3962V155.077L34.5859 155.781L39.8962 154.349ZM40.2576 166.304L38.7908 171.605L39.5107 171.804H40.2576V166.304ZM39.8962 166.204L41.3631 160.903L34.3962 158.975V166.204H39.8962ZM34.3962 166.304C34.3962 169.341 36.8587 171.804 39.8962 171.804C42.9338 171.804 45.3962 169.341 45.3962 166.304H39.8962H34.3962ZM39.8962 154.249H34.3962V154.349H39.8962H45.3962V154.249H39.8962ZM39.8962 154.349L34.5859 155.781C34.9432 157.106 35.0958 158.087 35.1308 158.773C35.1668 159.479 35.0677 159.663 35.1139 159.541L40.2599 161.482L45.406 163.423C46.648 160.13 46.1253 156.325 45.2066 152.917L39.8962 154.349ZM40.2599 161.482L35.1139 159.541C34.402 161.428 33.527 164.637 35.1174 167.659L39.9847 165.098L44.8521 162.537C45.257 163.307 45.2278 163.913 45.2206 164.009C45.214 164.096 45.2166 163.925 45.406 163.423L40.2599 161.482ZM39.9847 165.098L35.1174 167.659C35.3071 168.02 35.1319 167.774 35.0058 167.217C34.9753 167.082 34.6565 165.824 35.2232 164.305C35.5687 163.38 36.2472 162.365 37.3808 161.644C38.4638 160.955 39.5385 160.804 40.2576 160.804V166.304V171.804C41.037 171.804 42.1616 171.64 43.284 170.926C44.4571 170.18 45.1647 169.128 45.5289 168.152C46.1331 166.533 45.8103 165.124 45.7344 164.788C45.5173 163.829 45.0852 162.98 44.8521 162.537L39.9847 165.098ZM40.2576 166.304L41.7244 161.003L41.3631 160.903L39.8962 166.204L38.4294 171.505L38.7908 171.605L40.2576 166.304ZM39.8962 166.204H34.3962V166.304H39.8962H45.3962V166.204H39.8962Z" fill="black"/>
<path d="M64.4507 166.748C66.5986 164.601 66.5986 161.118 64.4507 158.97C62.3028 156.822 58.8204 156.822 56.6725 158.97L60.5616 162.859L64.4507 166.748ZM60.4909 162.93L56.6018 159.041L55.6907 159.952L55.2791 161.173L60.4909 162.93ZM55.4329 168.063L50.1727 166.457L49.2078 169.616L51.5438 171.952L55.4329 168.063ZM55.466 167.955L60.7261 169.561L51.5769 164.066L55.466 167.955ZM51.5062 164.137C49.3583 166.285 49.3583 169.767 51.5062 171.915C53.6541 174.063 57.1365 174.063 59.2844 171.915L55.3953 168.026L51.5062 164.137ZM60.5616 162.859L56.6725 158.97L56.6018 159.041L60.4909 162.93L64.38 166.819L64.4507 166.748L60.5616 162.859ZM60.4909 162.93L55.2791 161.173C55.0958 161.717 55.0287 161.611 55.3311 161.306C55.5045 161.132 55.7822 160.911 56.1722 160.737C56.5681 160.56 56.9694 160.481 57.3249 160.471L57.4718 165.969L57.6187 171.467C62.4758 171.337 64.7765 167.435 65.7027 164.687L60.4909 162.93ZM57.4718 165.969L57.3249 160.471C56.3529 160.497 54.8094 160.635 53.3335 161.439C52.5203 161.882 51.6166 162.588 50.9331 163.675C50.2324 164.788 49.9587 165.991 49.9648 167.092L55.4648 167.062L60.9647 167.031C60.9689 167.787 60.7773 168.684 60.243 169.533C59.7258 170.355 59.0724 170.839 58.5938 171.1C57.7868 171.539 57.2487 171.477 57.6187 171.467L57.4718 165.969ZM55.4648 167.062L49.9648 167.092C49.9667 167.427 49.9643 167.598 49.9624 167.657C49.9605 167.72 49.9618 167.587 49.9854 167.383C49.9858 167.38 50.0305 166.899 50.222 166.322C50.2807 166.146 50.3913 165.841 50.58 165.485C50.7421 165.179 51.132 164.505 51.8761 163.873C52.7144 163.16 54.1671 162.393 56.0351 162.597C57.7366 162.784 58.8308 163.683 59.322 164.174L55.4329 168.063L51.5438 171.952C52.0366 172.445 53.1323 173.345 54.8353 173.532C56.7048 173.737 58.159 172.969 58.9988 172.255C60.2658 171.179 60.6452 169.838 60.6613 169.789C60.8581 169.197 60.9077 168.688 60.9126 168.647C60.9451 168.366 60.9536 168.111 60.9569 168.007C60.9656 167.732 60.9667 167.39 60.9647 167.031L55.4648 167.062ZM55.4329 168.063L60.6931 169.67L60.7261 169.561L55.466 167.955L50.2058 166.349L50.1727 166.457L55.4329 168.063ZM55.466 167.955L51.5769 164.066L51.5062 164.137L55.3953 168.026L59.2844 171.915L59.3551 171.844L55.466 167.955Z" fill="black"/>
<path d="M89.8294 177.487C92.2013 175.59 92.5859 172.129 90.6883 169.757C88.7908 167.385 85.3297 167 82.9577 168.898L86.3935 173.192L89.8294 177.487ZM86.3155 173.255L87.4614 178.634L88.7347 178.363L89.7513 177.55L86.3155 173.255ZM78.1748 180.571L73.3926 183.287L73.6078 183.666L73.88 184.006L78.1748 180.571ZM77.861 180.018L82.6432 177.302L79.459 171.697L74.4252 175.724L77.861 180.018ZM74.3471 175.786C71.9752 177.684 71.5906 181.145 73.4882 183.517C75.3857 185.889 78.8468 186.273 81.2188 184.376L77.783 180.081L74.3471 175.786ZM86.3935 173.192L82.9577 168.898L82.8796 168.96L86.3155 173.255L89.7513 177.55L89.8294 177.487L86.3935 173.192ZM86.3155 173.255L85.1696 167.876C81.3455 168.69 76.5565 170.903 75.7033 176.364L81.1374 177.213L86.5714 178.062C86.5387 178.272 86.4555 178.519 86.3118 178.751C86.1729 178.976 86.0379 179.09 86.0028 179.116C85.9768 179.136 86.053 179.073 86.3027 178.971C86.5517 178.869 86.927 178.748 87.4614 178.634L86.3155 173.255ZM81.1374 177.213L75.7033 176.364C75.585 177.121 75.477 177.362 75.5043 177.3C75.5247 177.255 75.6382 177.006 75.9091 176.685C76.191 176.351 76.6963 175.879 77.4758 175.549L79.6213 180.614L81.7667 185.678C83.998 184.733 85.0666 182.866 85.5509 181.78C86.0836 180.585 86.3821 179.274 86.5714 178.062L81.1374 177.213ZM79.6213 180.614L77.4758 175.549C77.5134 175.533 77.6448 175.48 77.8557 175.429C78.062 175.38 78.4229 175.315 78.8955 175.329C79.3806 175.343 80.019 175.443 80.7043 175.757C81.4099 176.081 82.0111 176.562 82.4695 177.135L78.1748 180.571L73.88 184.006C75.1792 185.63 76.9909 186.277 78.5691 186.324C79.9299 186.364 81.0648 185.975 81.7667 185.678L79.6213 180.614ZM78.1748 180.571L82.9569 177.854L82.6432 177.302L77.861 180.018L73.0789 182.735L73.3926 183.287L78.1748 180.571ZM77.861 180.018L74.4252 175.724L74.3471 175.786L77.783 180.081L81.2188 184.376L81.2969 184.313L77.861 180.018Z" fill="black"/>
<path d="M48.9517 194.303C51.0996 192.155 51.0996 188.672 48.9517 186.524C46.8038 184.377 43.3214 184.377 41.1735 186.524L45.0626 190.414L48.9517 194.303ZM44.9919 190.484L41.1028 186.595L40.3778 187.32L39.9628 188.258L44.9919 190.484ZM41.9306 193.481L41.2463 188.024L41.9306 193.481ZM39.7456 194.396L34.8449 191.9L39.7456 194.396ZM39.6466 195.33L35.7575 199.219L36.2976 199.759L36.9645 200.132L39.6466 195.33ZM39.967 195.509L43.856 199.398L48.9996 194.255L42.649 190.707L39.967 195.509ZM36.0072 191.691C33.8593 193.839 33.8593 197.321 36.0072 199.469C38.155 201.617 41.6374 201.617 43.7853 199.469L39.8962 195.58L36.0072 191.691ZM45.0626 190.414L41.1735 186.524L41.1028 186.595L44.9919 190.484L48.881 194.373L48.9517 194.303L45.0626 190.414ZM44.9919 190.484L39.9628 188.258C39.7291 188.785 39.6184 188.832 39.7665 188.687C39.8545 188.601 40.0282 188.454 40.2984 188.315C40.5763 188.172 40.9003 188.067 41.2463 188.024L41.9306 193.481L42.615 198.939C46.7471 198.42 48.9388 195.155 50.021 192.711L44.9919 190.484ZM41.9306 193.481L41.2463 188.024C40.3836 188.132 39.349 188.33 38.3422 188.752C37.3978 189.147 35.7993 190.026 34.8449 191.9L39.7456 194.396L44.6464 196.893C43.9245 198.31 42.8064 198.808 42.5903 198.898C42.3119 199.015 42.2535 198.984 42.615 198.939L41.9306 193.481ZM39.7456 194.396L34.8449 191.9C34.5925 192.395 34.1953 193.278 34.0772 194.392C33.9475 195.615 34.139 197.601 35.7575 199.219L39.6466 195.33L43.5357 191.441C44.9878 192.893 45.1125 194.64 45.0159 195.552C44.9307 196.355 44.6663 196.853 44.6464 196.893L39.7456 194.396ZM39.6466 195.33L36.9645 200.132L37.2849 200.311L39.967 195.509L42.649 190.707L42.3286 190.529L39.6466 195.33ZM39.967 195.509L36.0779 191.62L36.0072 191.691L39.8962 195.58L43.7853 199.469L43.856 199.398L39.967 195.509Z" fill="black"/>
</svg>
