<svg width="141" height="170" viewBox="0 0 141 170" fill="none" xmlns="http://www.w3.org/2000/svg">
<path d="M28.1389 55.7797C29.2766 52.9632 27.9156 49.7578 25.0992 48.6201C22.2827 47.4824 19.0772 48.8433 17.9395 51.6598L23.0392 53.7198L28.1389 55.7797ZM23.0018 53.8125L27.7245 56.6313L27.9423 56.2664L28.1014 55.8724L23.0018 53.8125ZM11.9278 75.6746L6.72616 73.8878L11.9278 75.6746ZM9.32582 99.6453L9.54018 94.1495L9.32582 99.6453ZM58.6622 83.717L56.5573 88.7983L58.6622 83.717ZM72.6261 88.1115L73.812 82.7409L72.6261 88.1115ZM126.063 67.0543L121.825 63.5485L126.063 67.0543ZM84.3017 38.722L85.0643 33.2751L84.3017 38.722ZM51.5537 37.8235L50.6245 43.2445L51.5537 37.8235ZM37.3615 34.8565L35.9779 40.1796L37.3615 34.8565ZM29.1009 25.3477L23.8044 26.8301L29.1009 25.3477ZM23.6579 11.5286L18.8342 14.171L23.6579 11.5286ZM20.877 5.57457L20.9879 0.0756884L20.4725 0.0652857L19.9641 0.15086L20.877 5.57457ZM21.3713 5.58454L21.2603 11.0834L31.5928 11.2919L25.9943 2.60508L21.3713 5.58454ZM25.9402 2.52102C24.2947 -0.0322285 20.8909 -0.768096 18.3376 0.877417C15.7844 2.52293 15.0485 5.9267 16.694 8.47995L21.3171 5.50049L25.9402 2.52102ZM23.0392 53.7198L17.9395 51.6598L17.9021 51.7525L23.0018 53.8125L28.1014 55.8724L28.1389 55.7797L23.0392 53.7198ZM23.0018 53.8125L18.279 50.9937C12.6375 60.4459 8.70303 68.1326 6.72616 73.8878L11.9278 75.6746L17.1295 77.4613C18.7219 72.8255 22.1701 65.9375 27.7245 56.6313L23.0018 53.8125ZM11.9278 75.6746L6.72616 73.8878C4.94698 79.0675 3.12013 84.3089 1.24559 89.6121L6.43117 91.4451L11.6168 93.2781C13.5019 87.9449 15.3395 82.6726 17.1295 77.4613L11.9278 75.6746ZM6.43117 91.4451L1.24559 89.6121C0.225576 92.4978 -0.587362 96.0682 0.558607 99.3146C1.20591 101.148 2.4258 102.711 4.15974 103.758C5.79071 104.742 7.55615 105.08 9.11145 105.141L9.32582 99.6453L9.54018 94.1495C9.19068 94.1358 9.40692 94.0765 9.84427 94.3405C10.0751 94.4798 10.3173 94.6808 10.5286 94.9439C10.738 95.2048 10.8627 95.4587 10.9313 95.653C11.0551 96.0036 10.9641 96.0577 11.0195 95.5701C11.0727 95.1025 11.2358 94.3559 11.6168 93.2781L6.43117 91.4451ZM9.32582 99.6453L9.11145 105.141C14.9712 105.37 20.2156 102.512 24.7388 98.1288L20.9114 94.179L17.084 90.2291C13.779 93.4317 11.2996 94.2181 9.54018 94.1495L9.32582 99.6453ZM20.9114 94.179L24.7388 98.1288C27.8245 95.1388 30.5348 94.2381 33.0296 94.396L33.3768 88.9069L33.7241 83.4179C27.4266 83.0195 21.8267 85.6336 17.084 90.2291L20.9114 94.179ZM33.3768 88.9069L33.0296 94.396C38.8101 94.7617 44.2175 93.0584 49.1009 89.6093L45.928 85.1168L42.755 80.6243C39.6958 82.785 36.7358 83.6084 33.7241 83.4179L33.3768 88.9069ZM45.928 85.1168L49.1009 89.6093C51.5194 87.9011 53.7703 87.6438 56.5573 88.7983L58.6622 83.717L60.7672 78.6358C54.5177 76.0469 48.279 76.7227 42.755 80.6243L45.928 85.1168ZM58.6622 83.717L56.5573 88.7983C61.3738 90.7935 66.336 92.355 71.4401 93.4821L72.6261 88.1115L73.812 82.7409C69.3342 81.7521 64.9872 80.3839 60.7672 78.6358L58.6622 83.717ZM72.6261 88.1115L71.4401 93.4821C74.8356 94.2319 78.2569 94.0218 81.4511 92.5518C84.5876 91.1083 87.0477 88.6618 88.9661 85.7121L84.3555 82.7134L79.7448 79.7148C78.6346 81.4218 77.6255 82.2033 76.8523 82.5592C76.1367 82.8885 75.2076 83.0491 73.812 82.7409L72.6261 88.1115ZM84.3555 82.7134L88.9661 85.7121C90.8982 82.7414 93.3175 81.5071 96.9876 81.7301L97.3212 76.2402L97.6547 70.7503C90.0945 70.291 83.8699 73.3722 79.7448 79.7148L84.3555 82.7134ZM97.3212 76.2402L96.9876 81.7301C103.222 82.1089 109.342 81.442 115.32 79.7282L113.804 74.4412L112.288 69.1542C107.519 70.5214 102.651 71.0539 97.6547 70.7503L97.3212 76.2402ZM113.804 74.4412L115.32 79.7282C121.469 77.9653 126.624 75.0053 130.301 70.5602L126.063 67.0543L121.825 63.5485C119.903 65.8716 116.885 67.8362 112.288 69.1542L113.804 74.4412ZM126.063 67.0543L130.301 70.5602C134.635 65.3212 135.041 58.7483 133.051 52.0468L127.778 53.6125L122.506 55.1782C123.828 59.631 123.09 62.0193 121.825 63.5485L126.063 67.0543ZM127.778 53.6125L133.051 52.0468C130.908 44.8331 126.151 39.6927 119.12 37.0452L117.182 42.1924L115.244 47.3396C119.028 48.7645 121.335 51.2375 122.506 55.1782L127.778 53.6125ZM117.182 42.1924L119.12 37.0452C113.047 34.7582 106.83 33.73 100.511 34.004L100.749 39.4989L100.987 44.9937C105.763 44.7866 110.502 45.554 115.244 47.3396L117.182 42.1924ZM100.749 39.4989L100.511 34.004C95.2925 34.2303 90.1452 33.9865 85.0643 33.2751L84.3017 38.722L83.539 44.1688C89.2929 44.9745 95.1104 45.2486 100.987 44.9937L100.749 39.4989ZM84.3017 38.722L85.0643 33.2751C79.2104 32.4554 73.3183 32.3411 67.3975 32.9295L67.9414 38.4026L68.4854 43.8756C73.5436 43.3729 78.5583 43.4714 83.539 44.1688L84.3017 38.722ZM67.9414 38.4026L67.3975 32.9295C62.399 33.4263 57.4319 33.2508 52.4828 32.4026L51.5537 37.8235L50.6245 43.2445C56.5469 44.2595 62.5049 44.47 68.4854 43.8756L67.9414 38.4026ZM51.5537 37.8235L52.4828 32.4026C47.154 31.4892 42.5816 30.5305 38.7451 29.5333L37.3615 34.8565L35.9779 40.1796C40.1928 41.2751 45.0819 42.2945 50.6245 43.2445L51.5537 37.8235ZM37.3615 34.8565L38.7451 29.5333C37.219 29.1367 35.5444 27.9637 34.3974 23.8654L29.1009 25.3477L23.8044 26.8301C25.6201 33.3173 29.4526 38.4835 35.9779 40.1796L37.3615 34.8565ZM29.1009 25.3477L34.3974 23.8654C32.8278 18.2574 30.8699 13.2461 28.4815 8.88621L23.6579 11.5286L18.8342 14.171C20.7406 17.6511 22.4113 21.8525 23.8044 26.8301L29.1009 25.3477ZM23.6579 11.5286L28.4815 8.88621C27.4191 6.94666 26.7208 5.59778 26.3354 4.77263C26.1232 4.31836 26.1002 4.22115 26.1369 4.33889C26.1519 4.3869 26.1864 4.50223 26.2212 4.66647C26.2513 4.80866 26.3134 5.13227 26.3228 5.56336C26.3302 5.90211 26.3271 6.88545 25.7877 8.00096C25.4898 8.61686 25.0049 9.31827 24.2477 9.91223C23.4759 10.5177 22.6138 10.8596 21.7899 10.9983L20.877 5.57457L19.9641 0.15086C18.0158 0.478784 16.5901 1.75361 15.8848 3.21205C15.3278 4.36398 15.3166 5.39885 15.3255 5.80425C15.3445 6.6742 15.5624 7.37824 15.6346 7.61006C15.8296 8.23632 16.1176 8.88954 16.3689 9.4276C16.9105 10.5871 17.7493 12.1906 18.8342 14.171L23.6579 11.5286ZM20.877 5.57457L20.766 11.0734L21.2603 11.0834L21.3713 5.58454L21.4822 0.0856638L20.9879 0.0756884L20.877 5.57457ZM21.3713 5.58454L25.9943 2.60508L25.9402 2.52102L21.3171 5.50049L16.694 8.47995L16.7482 8.56401L21.3713 5.58454Z" fill="black"/>
<path d="M24.3869 95.7952C22.896 93.1487 19.5419 92.2119 16.8954 93.7028C14.2489 95.1937 13.3121 98.5478 14.803 101.194L19.595 98.4947L24.3869 95.7952ZM19.6441 98.5819L24.6371 96.2755L24.5444 96.0749L24.436 95.8823L19.6441 98.5819ZM39.7495 133.978L43.6726 130.123L39.7495 133.978ZM50.3967 146.629L45.9291 149.837L50.3967 146.629ZM62.2484 157.909L59.2595 162.526L62.2484 157.909ZM77.6081 163.373L77.0025 168.84L77.6081 163.373ZM94.1471 163.893L93.8753 158.399L94.1471 163.893ZM124.42 156.986L121.328 152.438L124.42 156.986ZM135.063 128.031L140.552 128.367L135.063 128.031ZM122.982 70.6955L126.491 66.4604L126.442 66.4198L126.392 66.3803L122.982 70.6955ZM121.233 69.3131L116.041 71.128L116.568 72.6372L117.823 73.6284L121.233 69.3131ZM126.392 67.4039C125.39 64.5365 122.252 63.0245 119.385 64.0268C116.518 65.0291 115.006 68.1661 116.008 71.0336L121.2 69.2188L126.392 67.4039ZM19.595 98.4947L14.803 101.194L14.8521 101.281L19.6441 98.5819L24.436 95.8823L24.3869 95.7952L19.595 98.4947ZM19.6441 98.5819L14.651 100.888C19.2185 110.776 22.7767 118.235 25.3106 123.222L30.2139 120.73L35.1172 118.239C32.6796 113.442 29.1913 106.135 24.6371 96.2755L19.6441 98.5819ZM30.2139 120.73L25.3106 123.222C28.053 128.619 31.5631 133.494 35.8265 137.833L39.7495 133.978L43.6726 130.123C40.1931 126.582 37.3461 122.625 35.1172 118.239L30.2139 120.73ZM39.7495 133.978L35.8265 137.833C39.4997 141.571 42.8668 145.572 45.9291 149.837L50.3967 146.629L54.8644 143.421C51.4733 138.698 47.7422 134.265 43.6726 130.123L39.7495 133.978ZM50.3967 146.629L45.9291 149.837C49.5591 154.892 54.0124 159.129 59.2595 162.526L62.2484 157.909L65.2373 153.292C61.1357 150.637 57.6879 147.353 54.8644 143.421L50.3967 146.629ZM62.2484 157.909L59.2595 162.526C64.6557 166.019 70.5924 168.129 77.0025 168.84L77.6081 163.373L78.2137 157.906C73.493 157.383 69.1899 155.851 65.2373 153.292L62.2484 157.909ZM77.6081 163.373L77.0025 168.84C82.8521 169.488 88.6586 169.671 94.4189 169.386L94.1471 163.893L93.8753 158.399C88.7144 158.655 83.4949 158.491 78.2137 157.906L77.6081 163.373ZM94.1471 163.893L94.4189 169.386C100.009 169.109 105.434 168.643 110.693 167.985L110.01 162.528L109.327 157.07C104.357 157.692 99.2068 158.135 93.8753 158.399L94.1471 163.893ZM110.01 162.528L110.693 167.985C116.718 167.231 122.34 165.051 127.513 161.534L124.42 156.986L121.328 152.438C117.515 155.03 113.531 156.544 109.327 157.07L110.01 162.528ZM124.42 156.986L127.513 161.534C133.205 157.663 136.823 152.193 138.244 145.417L132.862 144.288L127.479 143.158C126.63 147.204 124.62 150.199 121.328 152.438L124.42 156.986ZM132.862 144.288L138.244 145.417C139.433 139.749 140.203 134.065 140.552 128.367L135.063 128.031L129.573 127.695C129.257 132.851 128.56 138.005 127.479 143.158L132.862 144.288ZM135.063 128.031L140.552 128.367C140.908 122.551 140.645 116.817 139.756 111.172L134.323 112.027L128.89 112.883C129.652 117.721 129.881 122.656 129.573 127.695L135.063 128.031ZM134.323 112.027L139.756 111.172C138.91 105.801 137.86 100.38 136.606 94.9111L131.245 96.1399L125.884 97.3688C127.083 102.599 128.085 107.771 128.89 112.883L134.323 112.027ZM131.245 96.1399L136.606 94.9111C135.356 89.4567 133.942 84.0218 132.366 78.6064L127.085 80.1437L121.804 81.681C123.322 86.8941 124.682 92.1233 125.884 97.3688L131.245 96.1399ZM127.085 80.1437L132.366 78.6064C131.562 75.8436 130.758 73.4808 129.944 71.6052C129.239 69.9817 128.176 67.8565 126.491 66.4604L122.982 70.6955L119.473 74.9307C119.124 74.6415 119.065 74.4664 119.229 74.7321C119.366 74.9535 119.578 75.3513 119.854 75.9867C120.407 77.2605 121.062 79.1295 121.804 81.681L127.085 80.1437ZM122.982 70.6955L126.392 66.3803L124.643 64.9979L121.233 69.3131L117.823 73.6284L119.572 75.0108L122.982 70.6955ZM121.233 69.3131L126.425 67.4983L126.392 67.4039L121.2 69.2188L116.008 71.0336L116.041 71.128L121.233 69.3131Z" fill="black"/>
<path d="M57.2345 106.368C55.8761 103.651 52.5724 102.55 49.8555 103.908C47.1386 105.267 46.0374 108.57 47.3958 111.287L52.3152 108.828L57.2345 106.368ZM52.3599 108.917L57.5645 107.139L57.4448 106.788L57.2793 106.457L52.3599 108.917ZM56.1578 117.13L51.7072 120.361L56.1578 117.13ZM58.8564 120.999L63.4884 118.034L58.8564 120.999ZM59.4426 122.446L60.7393 127.791L61.6759 127.564L62.4795 127.032L59.4426 122.446ZM59.1589 122.515L57.8623 117.17L51.1513 118.798L54.2396 124.975L59.1589 122.515ZM54.2843 125.064C55.6427 127.781 58.9464 128.882 61.6633 127.524C64.3802 126.165 65.4814 122.862 64.123 120.145L59.2037 122.605L54.2843 125.064ZM52.3152 108.828L47.3958 111.287L47.4406 111.377L52.3599 108.917L57.2793 106.457L57.2345 106.368L52.3152 108.828ZM52.3599 108.917L47.1553 110.695C48.4903 114.603 49.9678 117.966 51.7072 120.361L56.1578 117.13L60.6085 113.899C59.8501 112.854 58.7956 110.742 57.5645 107.139L52.3599 108.917ZM56.1578 117.13L51.7072 120.361C52.9451 122.066 53.7656 123.248 54.2244 123.965L58.8564 120.999L63.4884 118.034C62.8469 117.031 61.8683 115.634 60.6085 113.899L56.1578 117.13ZM58.8564 120.999L54.2244 123.965C54.4554 124.325 54.4169 124.315 54.3179 124.07C54.2872 123.994 54.0556 123.442 54.006 122.634C53.9601 121.887 54.0372 119.429 56.4058 117.861L59.4426 122.446L62.4795 127.032C64.9277 125.411 65.0402 122.853 64.9853 121.959C64.9266 121.004 64.6417 120.258 64.5132 119.94C64.2188 119.214 63.8076 118.532 63.4884 118.034L58.8564 120.999ZM59.4426 122.446L58.146 117.101L57.8623 117.17L59.1589 122.515L60.4556 127.86L60.7393 127.791L59.4426 122.446ZM59.1589 122.515L54.2396 124.975L54.2843 125.064L59.2037 122.605L64.123 120.145L64.0783 120.055L59.1589 122.515Z" fill="black"/>
<path d="M71.1142 104.428C68.6842 102.605 65.2367 103.098 63.4142 105.528C61.5917 107.958 62.0842 111.405 64.5142 113.228L67.8142 108.828L71.1142 104.428ZM67.8942 108.888L64.5942 113.288L65.5282 113.988L66.6661 114.249L67.8942 108.888ZM74.4507 114.33L78.8507 117.63L79.2383 117.113L79.4956 116.521L74.4507 114.33ZM74.6227 113.934L77.9227 109.534L72.3517 105.356L69.5778 111.743L74.6227 113.934ZM71.4027 118.394C73.8327 120.217 77.2801 119.724 79.1027 117.294C80.9252 114.864 80.4327 111.417 78.0027 109.594L74.7027 113.994L71.4027 118.394ZM67.8142 108.828L64.5142 113.228L64.5942 113.288L67.8942 108.888L71.1942 104.488L71.1142 104.428L67.8142 108.828ZM67.8942 108.888L66.6661 114.249C67.709 114.488 68.4825 114.715 69.0302 114.916C69.6139 115.129 69.7564 115.246 69.667 115.182L72.8634 110.706L76.0599 106.23C74.1755 104.884 71.5909 104.092 69.1223 103.526L67.8942 108.888ZM72.8634 110.706L69.667 115.182C69.6074 115.139 69.3363 114.928 69.0908 114.484C68.8285 114.008 68.7237 113.496 68.7334 113.063L74.232 113.186L79.7306 113.31C79.8008 110.184 78.1947 107.755 76.0599 106.23L72.8634 110.706ZM74.232 113.186L68.7334 113.063C68.7229 113.53 68.7087 114.412 68.868 115.245C68.9142 115.486 69.013 115.938 69.2319 116.459C69.3933 116.842 69.9461 118.083 71.3363 118.99C73.2224 120.221 75.3571 120.058 76.8674 119.297C78.0084 118.722 78.6427 117.907 78.8507 117.63L74.4507 114.33L70.0507 111.03C70.2168 110.809 70.8121 110.031 71.9171 109.474C72.5379 109.161 73.4192 108.869 74.4898 108.893C75.5954 108.918 76.5748 109.273 77.3489 109.779C78.709 110.667 79.2347 111.868 79.3719 112.195C79.5666 112.658 79.6443 113.033 79.6722 113.179C79.7586 113.631 79.719 113.829 79.7306 113.31L74.232 113.186ZM74.4507 114.33L79.4956 116.521L79.6675 116.125L74.6227 113.934L69.5778 111.743L69.4059 112.139L74.4507 114.33ZM74.6227 113.934L71.3227 118.334L71.4027 118.394L74.7027 113.994L78.0027 109.594L77.9227 109.534L74.6227 113.934Z" fill="black"/>
<path d="M100.287 94.3133C98.9288 91.5964 95.6251 90.4952 92.9082 91.8536C90.1914 93.212 89.0901 96.5157 90.4486 99.2326L95.3679 96.7729L100.287 94.3133ZM95.4126 96.8624L100.884 96.2989L100.781 95.3005L100.332 94.4027L95.4126 96.8624ZM98.4312 103.852L100.891 108.771L101.461 108.486L101.95 108.079L98.4312 103.852ZM98.7674 103.572L103.687 101.112L100.583 94.9041L95.2484 99.3451L98.7674 103.572ZM93.8928 106.121C95.2512 108.838 98.5549 109.939 101.272 108.581C103.989 107.222 105.09 103.919 103.732 101.202L98.8122 103.661L93.8928 106.121ZM95.3679 96.7729L90.4486 99.2326L90.4933 99.3221L95.4126 96.8624L100.332 94.4027L100.287 94.3133L95.3679 96.7729ZM95.4126 96.8624L89.9416 97.4259C90.1851 99.79 90.8463 102.996 93.2074 105.184L96.9461 101.15L100.685 97.1163C100.914 97.3286 101.044 97.5167 101.103 97.6159C101.162 97.7127 101.165 97.7422 101.138 97.6669C101.077 97.4968 100.964 97.0758 100.884 96.2989L95.4126 96.8624ZM96.9461 101.15L93.2074 105.184C93.3608 105.326 93.2453 105.256 93.0731 104.957C92.8903 104.64 92.5498 103.893 92.6109 102.838L98.1017 103.156L103.592 103.474C103.777 100.281 101.74 98.0948 100.685 97.1163L96.9461 101.15ZM98.1017 103.156L92.6109 102.838C92.5931 103.145 92.4771 104.626 93.1871 106.126C93.6376 107.078 94.6942 108.572 96.741 109.164C98.644 109.713 100.194 109.119 100.891 108.771L98.4312 103.852L95.9716 98.9325C96.5411 98.6478 97.9826 98.0724 99.7946 98.5959C101.75 99.1611 102.734 100.584 103.13 101.42C103.494 102.19 103.562 102.832 103.58 103.029C103.604 103.287 103.594 103.454 103.592 103.474L98.1017 103.156ZM98.4312 103.852L101.95 108.079L102.286 107.799L98.7674 103.572L95.2484 99.3451L94.9122 99.625L98.4312 103.852ZM98.7674 103.572L93.8481 106.032L93.8928 106.121L98.8122 103.661L103.732 101.202L103.687 101.112L98.7674 103.572Z" fill="black"/>
<path d="M119.418 91.286C118.29 88.4657 115.089 87.0939 112.269 88.222C109.448 89.3501 108.077 92.551 109.205 95.3713L114.311 93.3286L119.418 91.286ZM114.348 93.4215L109.242 95.4641L109.739 96.7071L110.752 97.5825L114.348 93.4215ZM117.6 101.957L118.216 107.422L120.026 107.218L121.356 105.975L117.6 101.957ZM117.718 101.846L122.825 99.8037L119.838 92.3364L113.963 97.8283L117.718 101.846ZM112.649 103.982C113.777 106.802 116.978 108.174 119.798 107.046C122.618 105.918 123.99 102.717 122.862 99.8965L117.756 101.939L112.649 103.982ZM114.311 93.3286L109.205 95.3713L109.242 95.4641L114.348 93.4215L119.455 91.3788L119.418 91.286L114.311 93.3286ZM114.348 93.4215L110.752 97.5825C112.477 99.074 113.247 100.05 113.515 100.519L118.292 97.7932L123.069 95.0672C121.891 93.0028 120.032 91.0642 117.945 89.2604L114.348 93.4215ZM118.292 97.7932L113.515 100.519C113.618 100.699 113.395 100.395 113.368 99.7179C113.354 99.3525 113.4 98.9111 113.559 98.4426C113.719 97.9725 113.958 97.5811 114.213 97.2795L118.411 100.834L122.608 104.388C123.837 102.937 124.432 101.142 124.36 99.2889C124.294 97.5981 123.689 96.1543 123.069 95.0672L118.292 97.7932ZM118.411 100.834L114.213 97.2795C113.88 97.6739 113.534 98.0945 113.266 98.4658C113.189 98.5722 112.861 99.0193 112.596 99.5957C112.516 99.7692 112.387 100.071 112.279 100.462C112.19 100.785 111.997 101.576 112.117 102.589C112.255 103.754 112.869 105.457 114.604 106.576C116.116 107.552 117.598 107.492 118.216 107.422L117.6 101.957L116.985 96.4912C117.59 96.4231 119.061 96.3615 120.567 97.3325C122.295 98.4471 122.904 100.143 123.041 101.297C123.16 102.299 122.968 103.077 122.884 103.383C122.781 103.757 122.659 104.04 122.59 104.19C122.452 104.492 122.32 104.7 122.282 104.759C122.229 104.843 122.191 104.895 122.185 104.904C122.173 104.92 122.198 104.886 122.281 104.782C122.359 104.685 122.467 104.555 122.608 104.388L118.411 100.834ZM117.6 101.957L121.356 105.975L121.474 105.864L117.718 101.846L113.963 97.8283L113.845 97.9387L117.6 101.957ZM117.718 101.846L112.612 103.889L112.649 103.982L117.756 101.939L122.862 99.8965L122.825 99.8037L117.718 101.846Z" fill="black"/>
<path d="M83.6337 124.387C80.8134 123.258 77.6126 124.63 76.4844 127.451C75.3563 130.271 76.7281 133.472 79.5484 134.6L81.5911 129.493L83.6337 124.387ZM81.6839 129.53L85.7092 125.782L84.87 124.881L83.7266 124.424L81.6839 129.53ZM90.2016 133.633H95.7016V133.286L95.658 132.942L90.2016 133.633ZM90.1088 132.9L92.1515 127.794L83.4783 124.324L84.6524 133.592L90.1088 132.9ZM88.159 138.044C90.9793 139.172 94.1801 137.8 95.3083 134.98C96.4364 132.16 95.0646 128.959 92.2443 127.831L90.2016 132.937L88.159 138.044ZM81.5911 129.493L79.5484 134.6L79.6413 134.637L81.6839 129.53L83.7266 124.424L83.6337 124.387L81.5911 129.493ZM81.6839 129.53L77.6586 133.278C79.5848 135.347 82.8255 138.102 87.0177 137.566L86.3201 132.11L85.6224 126.655C86.4429 126.55 86.909 126.827 86.8374 126.787C86.8051 126.769 86.686 126.697 86.4815 126.527C86.2788 126.358 86.0209 126.117 85.7092 125.782L81.6839 129.53ZM86.3201 132.11L87.0177 137.566C87.0984 137.556 86.804 137.61 86.3105 137.445C85.7498 137.258 85.2363 136.887 84.8846 136.426L89.259 133.092L93.6334 129.758C91.46 126.906 88.2423 126.32 85.6224 126.655L86.3201 132.11ZM89.259 133.092L84.8846 136.426C85.1048 136.715 85.3673 137.04 85.6599 137.352C85.8786 137.585 86.4257 138.155 87.2277 138.616C87.7081 138.891 90.9252 140.561 93.8265 137.944C94.9426 136.938 95.3524 135.768 95.5106 135.158C95.6791 134.509 95.7016 133.956 95.7016 133.633H90.2016H84.7016C84.7016 133.426 84.7144 132.969 84.8632 132.396C85.0018 131.861 85.3822 130.747 86.4589 129.776C87.7039 128.653 89.233 128.296 90.5189 128.402C91.6095 128.491 92.3799 128.89 92.7043 129.076C93.0761 129.289 93.3275 129.498 93.4418 129.597C93.5702 129.709 93.6523 129.794 93.6829 129.827C93.7398 129.888 93.7274 129.881 93.6334 129.758L89.259 133.092ZM90.2016 133.633L95.658 132.942L95.5652 132.209L90.1088 132.9L84.6524 133.592L84.7453 134.324L90.2016 133.633ZM90.1088 132.9L88.0662 138.007L88.159 138.044L90.2016 132.937L92.2443 127.831L92.1515 127.794L90.1088 132.9Z" fill="black"/>
<path d="M108.898 120.145C107.539 117.428 104.236 116.327 101.519 117.685C98.802 119.044 97.7007 122.347 99.0592 125.064L103.979 122.604L108.898 120.145ZM104.023 122.694L99.1039 125.154L100.105 127.155L102.219 127.889L104.023 122.694ZM107.247 128.676L112.727 128.198L107.247 128.676ZM107.371 129.502L108.284 134.925L112.567 134.204L112.859 129.871L107.371 129.502ZM107.378 129.404L112.297 126.944L103.251 108.85L101.89 129.034L107.378 129.404ZM102.503 131.953C103.862 134.67 107.166 135.771 109.882 134.412C112.599 133.054 113.701 129.75 112.342 127.033L107.423 129.493L102.503 131.953ZM103.979 122.604L99.0592 125.064L99.1039 125.154L104.023 122.694L108.943 120.234L108.898 120.145L103.979 122.604ZM104.023 122.694L102.219 127.889C102.667 128.045 102.952 128.175 103.114 128.26C103.286 128.351 103.236 128.349 103.083 128.207C102.923 128.059 102.576 127.687 102.322 127.05C102.05 126.365 101.988 125.624 102.111 124.95L107.522 125.935L112.933 126.921C113.466 123.994 112.155 121.616 110.559 120.138C109.157 118.839 107.39 118.041 105.828 117.498L104.023 122.694ZM107.522 125.935L102.111 124.95C101.876 126.239 101.65 127.794 101.768 129.154L107.247 128.676L112.727 128.198C112.738 128.325 112.734 128.385 112.735 128.352C112.736 128.325 112.739 128.251 112.752 128.121C112.779 127.857 112.834 127.465 112.933 126.921L107.522 125.935ZM107.247 128.676L101.768 129.154C101.795 129.457 101.829 129.804 101.876 130.117C101.894 130.237 101.944 130.564 102.049 130.938C102.086 131.072 102.229 131.586 102.556 132.172C102.709 132.447 103.101 133.103 103.836 133.718C104.653 134.401 106.228 135.271 108.284 134.925L107.371 129.502L106.459 124.078C108.511 123.732 110.081 124.601 110.894 125.281C111.625 125.892 112.012 126.543 112.161 126.81C112.478 127.379 112.612 127.868 112.64 127.968C112.691 128.149 112.719 128.288 112.73 128.347C112.744 128.416 112.751 128.464 112.754 128.482C112.759 128.52 112.749 128.451 112.727 128.198L107.247 128.676ZM107.371 129.502L112.859 129.871L112.866 129.773L107.378 129.404L101.89 129.034L101.884 129.132L107.371 129.502ZM107.378 129.404L102.459 131.863L102.503 131.953L107.423 129.493L112.342 127.033L112.297 126.944L107.378 129.404Z" fill="black"/>
<path d="M103.979 141.214C100.941 141.214 98.4785 143.677 98.4785 146.714C98.4785 149.752 100.941 152.214 103.979 152.214V146.714V141.214ZM104.079 146.714L106.808 141.939L105.54 141.214H104.079V146.714ZM110.867 146.402L116.105 148.08L116.367 147.262V146.402H110.867ZM110.767 146.714L105.529 145.036L103.23 152.214H110.767V146.714ZM110.867 152.214C113.905 152.214 116.367 149.752 116.367 146.714C116.367 143.677 113.905 141.214 110.867 141.214V146.714V152.214ZM103.979 146.714V152.214H104.079V146.714V141.214H103.979V146.714ZM104.079 146.714L101.349 151.489C102.68 152.25 104.451 152.986 106.485 152.96C108.777 152.93 110.799 151.938 112.245 150.291L108.112 146.663L103.978 143.034C104.19 142.792 104.528 142.5 105.003 142.277C105.483 142.051 105.955 141.966 106.344 141.961C107.034 141.952 107.247 142.191 106.808 141.939L104.079 146.714ZM108.112 146.663L112.245 150.291C112.553 149.94 112.415 150.199 111.848 150.493C111.523 150.662 110.848 150.95 109.909 150.97C108.871 150.993 107.823 150.676 106.954 150.047L110.178 145.592L113.403 141.136C110.875 139.307 108.189 140 106.786 140.727C105.53 141.378 104.588 142.339 103.978 143.034L108.112 146.663ZM110.178 145.592L106.954 150.047C107.012 150.089 106.792 149.944 106.504 149.605C106.351 149.426 106.096 149.095 105.866 148.615C105.633 148.129 105.367 147.368 105.367 146.402H110.867H116.367C116.367 144.346 115.301 142.971 114.886 142.482C114.368 141.873 113.804 141.426 113.403 141.136L110.178 145.592ZM110.867 146.402L105.629 144.724L105.529 145.036L110.767 146.714L116.005 148.392L116.105 148.08L110.867 146.402ZM110.767 146.714V152.214H110.867V146.714V141.214H110.767V146.714Z" fill="black"/>
</svg>
