<svg width="24" height="24" viewBox="0 0 24 24" fill="none" xmlns="http://www.w3.org/2000/svg">
<path d="M10.2513 20.2932C9.6336 20.884 9.80625 18.6277 9.77474 17.773C9.7649 17.5012 9.77474 17.2282 9.77474 16.9557C9.77474 15.6842 9.77474 14.4126 9.77474 13.1417C9.77474 11.0981 9.77474 9.05457 9.77474 7.01102C9.77474 6.51145 9.29028 5.63377 9.77474 5.51233C10.5487 5.31933 11.0365 7.0898 11.1369 7.28345C12.5522 10.0124 14.284 12.4892 16.1778 14.9122C16.6538 15.522 17.1442 16.122 17.6759 16.6833C18.0323 17.0594 19.365 17.8689 18.9021 17.6371C16.5901 16.4811 14.8682 14.7769 12.3632 13.8224C10.5586 13.1351 8.40865 13.1187 6.50558 13.2776C6.32965 13.292 4.88872 13.5139 5.00688 13.2776C5.22285 12.8456 5.57668 12.4806 5.96005 12.1879C6.79179 11.5544 7.68524 11.0062 8.54848 10.4167C9.54695 9.73468 10.4975 8.97581 11.5459 8.37318C12.6376 7.74626 13.8481 7.34582 14.9516 6.7386C16.2757 6.01059 17.3116 4.67336 18.6297 4.01428C18.8326 3.91253 18.3625 4.38191 18.2207 4.55915C17.9194 4.93596 17.5512 5.25828 17.2676 5.64887C16.8231 6.26004 16.4181 6.90074 16.0413 7.55589C15.373 8.71848 14.7875 9.92702 14.1343 11.0981C13.47 12.2883 12.6901 13.4154 12.0907 14.6397C11.6424 15.5555 11.0365 19.5435 10.2513 20.2932Z" stroke="#2F2F2F" stroke-width="1.31292" stroke-miterlimit="10" stroke-linecap="round" stroke-linejoin="round"/>
</svg>
