<svg width="600" height="600" viewBox="0 0 600 600" fill="none" xmlns="http://www.w3.org/2000/svg">
<circle cx="300" cy="300" r="300" fill="#FFE6F6"/>
<path d="M91 145.42C96.2762 191.935 105.105 219.596 114.385 255.35C117.696 268.107 128.915 309.933 142.172 368.193C149.747 401.485 155.482 424.2 157.722 435.454C161.66 455.233 166.989 484.649 168.765 491.176C177.687 523.955 187.298 404.517 189.976 387.216C195.352 352.483 207.608 307.861 210.75 292.658C214.12 276.347 220.918 259.429 229.72 225.41C233.805 209.625 237.674 193.852 244.316 166.67C247.645 153.045 251.833 142.882 253.172 130.36C253.498 127.303 254.484 124.752 256.247 125.996C271.603 136.823 265.991 160.027 269.067 178.584C272.07 196.706 277.445 216.954 282.324 241.157C286.541 262.079 288.952 275.694 294.255 294.704C299.639 314.007 302.209 343.861 305.311 360.76C308.518 378.231 310.163 394.002 311.939 404.374C313.838 415.459 318.117 425.081 321.219 440.18C324.297 455.159 326.973 470.819 329.173 482.5C330.499 495.035 333.15 502.805 334.914 507.972C335.802 510.575 336.677 513.139 337.578 515.78" stroke="#2D2D2D" stroke-width="24" stroke-linecap="round" stroke-linejoin="round"/>
<path d="M186.45 347.435C189.075 346.554 201.404 351.734 224.802 360.346C244.466 367.583 259.734 372.454 275.656 374.189C282.339 374.917 294.175 378.514 309.633 377.232C325.866 375.886 327.821 348.367 330.499 334.537C333.309 320.026 337.579 303.51 339.779 285.341C342.283 264.668 345.533 230.214 347.733 210.66C350.108 189.562 350.835 156.919 353.036 134.672C353.338 131.624 353.487 128.223 353.924 125.18C354.362 122.137 355.237 119.573 355.687 125.944C358.584 166.891 358.79 182.456 361.865 201.894C364.479 218.41 375.493 247.049 387.915 273.13C391.082 279.78 403.784 280.097 417.465 278.815C434.73 277.197 444.429 250.882 458.177 229.658C466.955 216.105 483.298 182.767 491.783 163.161C497.407 150.166 505.464 135.164 509.467 123.419C510.978 118.988 504.668 157.256 495.839 197.374C491.297 218.015 487.832 228.246 481.257 256.101C466.338 319.299 454.239 363.803 453.802 370.692C452.839 385.85 444.535 400.891 440.996 416.871C437.817 431.222 433.93 446.629 430.39 461.34C427.245 474.412 423.324 484.649 421.985 495.022C420.673 500.189 418.896 505.395 417.133 510.562C416.245 513.164 415.37 515.729 411.817 523.55" stroke="#2D2D2D" stroke-width="24" stroke-linecap="round" stroke-linejoin="round"/>
</svg>
