<svg width="24" height="24" viewBox="0 0 24 24" fill="none" xmlns="http://www.w3.org/2000/svg">
<path d="M14.3486 4.02413C12.3721 5.10283 12.4309 8.0992 11.4721 10.1367C11.0986 10.9309 8.11612 11.925 8.11612 12.7736C8.11612 13.3192 10.6339 14.7721 10.9927 15.2905C11.3743 15.8413 11.8331 16.453 12.0714 17.0883C12.1567 17.3163 11.9486 17.8075 12.1912 17.8075C12.2868 17.8075 12.5375 17.0097 12.5508 16.9685C13.164 15.1288 14.0045 13.4728 15.1884 11.9346C16.1237 10.7176 17.2112 9.52201 18.4245 8.57861C18.7112 8.35581 19.137 7.83081 19.5031 7.73963C19.7995 7.66536 20.0722 7.97933 19.9825 7.97933C19.3766 7.97933 15.0538 3.63956 14.3486 4.02413Z" stroke="#2F2F2F" stroke-width="1.47062" stroke-miterlimit="10" stroke-linecap="round" stroke-linejoin="round"/>
<path d="M9.91406 14.6912C9.11845 17.0795 6.93754 18.7752 5 20.3245" stroke="#2F2F2F" stroke-width="1.47062" stroke-miterlimit="10" stroke-linecap="round" stroke-linejoin="round"/>
</svg>
