<svg width="438" height="372" viewBox="0 0 438 372" fill="none" xmlns="http://www.w3.org/2000/svg">
<path d="M16.1029 362.477C14.3796 357.91 13.2422 348.725 11.226 310.502C9.78432 283.172 10.933 233.091 10.6487 205.888C10.2621 168.906 8.0723 155.162 7.20203 139.368C6.83541 132.715 5.76306 100.258 6.04741 54.0297C6.19986 29.245 9.20969 19.0206 10.9244 10.9469C11.3037 9.16109 12.0704 7.50886 75.4883 6.62997C138.906 5.75108 265.156 5.75108 330.763 6.88847C396.369 8.02586 397.507 10.3006 398.661 12.3255C404.254 22.1343 410.707 46.3868 415.326 82.3179C417.939 102.645 419.358 125.763 420.789 140.109C421.65 155.645 422.805 170.534 425.666 216.805C426.252 247.601 426.252 303.333 426.252 360.754" stroke="black" stroke-width="12" stroke-linecap="round" stroke-linejoin="round"/>
<path d="M21.2729 365.924C46.5195 351.586 68.216 340.143 90.6966 326.916C116.071 311.988 122.914 308.503 132.961 300.757C148.389 288.862 164.859 269.453 172.037 259.69C176.868 253.119 182.093 245.912 187.84 236.994C192.432 229.23 198.188 221.2 201.919 212.868C202.79 210.843 203.358 209.137 205.668 203.932" stroke="black" stroke-width="12" stroke-linecap="round" stroke-linejoin="round"/>
<path d="M205.667 200.486C210.251 202.192 214.836 210.205 222.582 220.554C228.805 228.867 236.653 236.055 253.851 253.84C264.627 264.982 273.98 272.831 282.898 280.878C289.483 286.821 296.969 291.787 303.871 296.974C310.764 302.155 317.648 307.883 324.55 312.2C330.782 316.097 336.605 320.532 343.507 324.547C350.416 328.567 357.285 330.872 364.187 334.603C370.673 338.109 377.964 340.626 385.719 343.797C396.665 348.272 403.814 350.966 412.146 352.706C415.877 354.412 420.479 355.584 425.64 355.868C427.958 356.153 429.664 356.721 431.422 357.307" stroke="black" stroke-width="12" stroke-linecap="round" stroke-linejoin="round"/>
</svg>
