<svg width="233" height="288" viewBox="0 0 233 288" fill="none" xmlns="http://www.w3.org/2000/svg">
<path d="M57.8545 176.482C59.1712 177.897 61.3858 177.977 62.801 176.66C64.2162 175.343 64.2961 173.129 62.9794 171.714L60.417 174.098L57.8545 176.482ZM60.3488 174.025L57.6495 176.252L57.7156 176.333L57.7864 176.409L60.3488 174.025ZM49.7486 162.641L47.4882 165.313L49.7486 162.641ZM38.3829 145.709L41.6402 144.428L38.3829 145.709ZM32.2301 115.264L28.76 115.72L32.2301 115.264ZM52.8059 43.6611L55.0024 40.9361L54.7692 40.7481L54.5074 40.6025L52.8059 43.6611ZM53.2628 44.0293L51.0663 46.7543L54.0682 49.174L56.187 45.9527L53.2628 44.0293ZM56.2419 45.8691C57.3042 44.2541 56.856 42.0838 55.2411 41.0216C53.6261 39.9594 51.4558 40.4075 50.3936 42.0225L53.3178 43.9458L56.2419 45.8691ZM60.417 174.098L62.9794 171.714L62.9113 171.64L60.3488 174.025L57.7864 176.409L57.8545 176.482L60.417 174.098ZM60.3488 174.025L63.0481 171.797C58.6122 166.422 54.9175 162.429 52.009 159.969L49.7486 162.641L47.4882 165.313C49.9016 167.355 53.2737 170.951 57.6495 176.252L60.3488 174.025ZM49.7486 162.641L52.009 159.969C49.6196 157.948 47.6146 155.639 45.9822 153.036L43.017 154.896L40.0519 156.755C42.0729 159.978 44.5557 162.833 47.4882 165.313L49.7486 162.641ZM43.017 154.896L45.9822 153.036C44.2709 150.307 42.8239 147.439 41.6402 144.428L38.3829 145.709L35.1256 146.99C36.4672 150.402 38.1096 153.658 40.0519 156.755L43.017 154.896ZM38.3829 145.709L41.6402 144.428C40.416 141.315 39.3285 138.137 38.3779 134.895L35.0193 135.88L31.6608 136.865C32.6695 140.305 33.8244 143.68 35.1256 146.99L38.3829 145.709ZM35.0193 135.88L38.3779 134.895C37.472 131.806 36.9202 128.652 36.7222 125.428L33.2287 125.642L29.7353 125.857C29.9654 129.602 30.6073 133.273 31.6608 136.865L35.0193 135.88ZM33.2287 125.642L36.7222 125.428C36.5032 121.863 36.1626 118.323 35.7003 114.807L32.2301 115.264L28.76 115.72C29.2011 119.074 29.5262 122.453 29.7353 125.857L33.2287 125.642ZM32.2301 115.264L35.7003 114.807C35.2438 111.336 34.7277 107.838 34.1522 104.312L30.6979 104.876L27.2436 105.44C27.8077 108.895 28.3132 112.322 28.76 115.72L32.2301 115.264ZM30.6979 104.876L34.1522 104.312C33.6426 101.191 33.639 98.0896 34.1389 94.9936L30.6837 94.4356L27.2284 93.8777C26.6077 97.7215 26.6136 101.581 27.2436 105.44L30.6979 104.876ZM30.6837 94.4356L34.1389 94.9936C34.6874 91.5969 35.3414 88.2329 36.1008 84.9014L32.6883 84.1235L29.2758 83.3457C28.483 86.8238 27.8006 90.3345 27.2284 93.8777L30.6837 94.4356ZM32.6883 84.1235L36.1008 84.9014C36.8631 81.5569 37.7136 78.2348 38.6522 74.9352L35.2857 73.9776L31.9193 73.02C30.9468 76.4386 30.0657 79.8805 29.2758 83.3457L32.6883 84.1235ZM35.2857 73.9776L38.6522 74.9352C39.5636 71.731 40.6968 68.5849 42.0527 65.4961L38.8479 64.0893L35.643 62.6824C34.1605 66.0598 32.9189 69.5059 31.9193 73.02L35.2857 73.9776ZM38.8479 64.0893L42.0527 65.4961C43.2813 62.6973 45.0007 60.2714 47.2265 58.1938L44.8382 55.6352L42.4499 53.0767C39.5271 55.805 37.2529 59.0152 35.643 62.6824L38.8479 64.0893ZM44.8382 55.6352L47.2265 58.1938C50.1191 55.4937 52.3166 52.4471 53.7292 49.046L50.4969 47.7036L47.2646 46.3611C46.2809 48.7296 44.706 50.9708 42.4499 53.0767L44.8382 55.6352ZM50.4969 47.7036L53.7292 49.046C54.3163 47.6323 54.7403 46.7408 55.0119 46.2653C55.1682 45.9917 55.1626 46.0557 54.995 46.2303C54.9232 46.3052 54.6078 46.6312 54.0509 46.8728C53.3855 47.1615 52.2499 47.3569 51.1044 46.7197L52.8059 43.6611L54.5074 40.6025C53.2766 39.9178 52.0423 40.1138 51.2649 40.4511C50.5958 40.7414 50.155 41.164 49.9443 41.3836C49.499 41.8476 49.1622 42.3932 48.9336 42.7934C48.4355 43.6654 47.8756 44.89 47.2646 46.3611L50.4969 47.7036ZM52.8059 43.6611L50.6094 46.386L51.0663 46.7543L53.2628 44.0293L55.4593 41.3044L55.0024 40.9361L52.8059 43.6611ZM53.2628 44.0293L56.187 45.9527L56.2419 45.8691L53.3178 43.9458L50.3936 42.0225L50.3386 42.106L53.2628 44.0293Z" fill="black"/>
<path d="M49.8587 43.4119C49.5638 45.3222 50.8734 47.1099 52.7838 47.4049C54.6942 47.6997 56.4819 46.3902 56.7768 44.4798L53.3177 43.9458L49.8587 43.4119ZM53.333 43.847L49.8958 43.1869L49.8837 43.2498L49.874 43.313L53.333 43.847ZM89.3953 31.6804L90.0403 28.2403L89.3953 31.6804ZM99.7531 32.036L100.171 35.5109L99.7531 32.036ZM110.111 30.6659L109.612 27.2016L110.111 30.6659ZM120.565 30.4908L120.184 33.97L120.565 30.4908ZM141.438 30.9181L141.649 27.4244L141.438 30.9181ZM181.166 27.8806L183.381 30.5908L181.166 27.8806ZM203.499 12.605L200.091 13.4036L203.499 12.605ZM209.155 28.5078L212.387 29.8519L212.42 29.7705L212.45 29.6874L209.155 28.5078ZM208.679 29.6529L205.447 28.3088L204.937 29.5348L205.369 30.7905L208.679 29.6529ZM205.401 30.8851C206.03 32.7131 208.021 33.6857 209.849 33.0574C211.677 32.429 212.65 30.4378 212.021 28.6097L208.711 29.7474L205.401 30.8851ZM53.3177 43.9458L56.7768 44.4798L56.792 44.381L53.333 43.847L49.874 43.313L49.8587 43.4119L53.3177 43.9458ZM53.333 43.847L56.7702 44.5071C58.0705 37.7364 59.0123 32.6033 59.5908 29.1263L56.1382 28.5518L52.6857 27.9774C52.1219 31.3658 51.1936 36.4295 49.8958 43.1869L53.333 43.847ZM56.1382 28.5518L59.5908 29.1263C60.1608 25.7004 60.7407 22.2779 61.3305 18.8587L57.8814 18.2637L54.4323 17.6688C53.8402 21.1017 53.2579 24.5379 52.6857 27.9774L56.1382 28.5518ZM57.8814 18.2637L61.3305 18.8587C61.9436 15.3042 62.3579 11.7198 62.5735 8.10588L59.0797 7.89746L55.5859 7.68904C55.3858 11.0448 55.0012 14.3712 54.4323 17.6688L57.8814 18.2637ZM59.0797 7.89746L62.5735 8.10588C62.6171 7.37468 62.6978 6.88744 62.7754 6.59072C62.8611 6.2631 62.8944 6.35532 62.7001 6.58956C62.5879 6.72479 62.3985 6.90764 62.1156 7.06306C61.8253 7.22254 61.5118 7.31141 61.2118 7.33556C60.648 7.38094 60.3637 7.18662 60.4875 7.25414L62.1629 4.18119L63.8383 1.10824C63.0384 0.672107 61.9328 0.254886 60.6502 0.358126C59.2369 0.471881 58.0954 1.17671 57.3128 2.11999C56.6046 2.9736 56.2265 3.96596 56.0033 4.81923C55.772 5.70341 55.6463 6.67782 55.5859 7.68904L59.0797 7.89746ZM62.1629 4.18119L60.4875 7.25414C61.7006 7.91549 63.3019 9.34912 65.2431 11.9375L68.0431 9.83766L70.8432 7.73778C68.6393 4.79887 66.3205 2.46152 63.8383 1.10824L62.1629 4.18119ZM68.0431 9.83766L65.2431 11.9375C67.3193 14.7062 69.4144 17.4844 71.5282 20.2723L74.3171 18.1576L77.1061 16.043C74.9997 13.2649 72.9121 10.4965 70.8432 7.73778L68.0431 9.83766ZM74.3171 18.1576L71.5282 20.2723C73.6575 23.0807 75.8497 25.8921 78.1045 28.7066L80.836 26.5182L83.5675 24.3299C81.3507 21.5629 79.1969 18.8006 77.1061 16.043L74.3171 18.1576ZM80.836 26.5182L78.1045 28.7066C80.8564 32.1415 84.4456 34.3133 88.7502 35.1204L89.3953 31.6804L90.0403 28.2403C87.4042 27.746 85.2872 26.4764 83.5675 24.3299L80.836 26.5182ZM89.3953 31.6804L88.7502 35.1204C92.5639 35.8355 96.3752 35.9681 100.171 35.5109L99.7531 32.036L99.3346 28.5611C96.2613 28.9312 93.1673 28.8266 90.0403 28.2403L89.3953 31.6804ZM99.7531 32.036L100.171 35.5109C103.634 35.0941 107.113 34.6338 110.61 34.1301L110.111 30.6659L109.612 27.2016C106.168 27.6977 102.742 28.1508 99.3346 28.5611L99.7531 32.036ZM110.111 30.6659L110.61 34.1301C113.787 33.6725 116.977 33.6188 120.184 33.97L120.565 30.4908L120.946 27.0116C117.155 26.5965 113.375 26.6596 109.612 27.2016L110.111 30.6659ZM120.565 30.4908L120.184 33.97C123.859 34.3723 127.523 34.4931 131.174 34.331L131.019 30.8345L130.864 27.3379C127.575 27.4839 124.27 27.3755 120.946 27.0116L120.565 30.4908ZM131.019 30.8345L131.174 34.331C134.522 34.1825 137.873 34.2094 141.227 34.4117L141.438 30.9181L141.649 27.4244C138.051 27.2074 134.456 27.1785 130.864 27.3379L131.019 30.8345ZM141.438 30.9181L141.227 34.4117C144.85 34.6303 148.463 34.6201 152.066 34.381L151.834 30.8887L151.602 27.3963C148.296 27.6158 144.978 27.6253 141.649 27.4244L141.438 30.9181ZM151.834 30.8887L152.066 34.381C155.341 34.1635 158.626 34.1967 161.92 34.4811L162.221 30.994L162.522 27.507C158.876 27.1922 155.235 27.1552 151.602 27.3963L151.834 30.8887ZM162.221 30.994L161.92 34.4811C165.525 34.7922 169.041 34.8862 172.467 34.7598L172.338 31.2622L172.209 27.7646C169.087 27.8798 165.859 27.795 162.522 27.507L162.221 30.994ZM172.338 31.2622L172.467 34.7598C176.527 34.61 180.197 33.192 183.381 30.5908L181.166 27.8806L178.951 25.1704C176.912 26.8364 174.697 27.6728 172.209 27.7646L172.338 31.2622ZM181.166 27.8806L183.381 30.5908C186.317 28.1917 188.778 25.3177 190.762 21.992L187.756 20.1988L184.75 18.4057C183.17 21.0551 181.237 23.3023 178.951 25.1704L181.166 27.8806ZM187.756 20.1988L190.762 21.992C192.577 18.9495 194.31 15.8548 195.961 12.7081L192.862 11.0819L189.763 9.45568C188.171 12.4898 186.5 15.4731 184.75 18.4057L187.756 20.1988ZM192.862 11.0819L195.961 12.7081C196.619 11.4545 197.189 10.8712 197.548 10.6242C197.815 10.4406 197.994 10.4079 198.265 10.45L198.803 6.99149L199.34 3.53301C197.272 3.21157 195.292 3.67882 193.578 4.85871C191.957 5.97521 190.726 7.61879 189.763 9.45568L192.862 11.0819ZM198.803 6.99149L198.265 10.45C198.558 10.4955 199.447 10.6554 200.091 13.4036L203.499 12.605L206.906 11.8063C205.967 7.79687 203.725 4.21452 199.34 3.53301L198.803 6.99149ZM203.499 12.605L200.091 13.4036C200.95 17.0683 202.265 20.6237 204.027 24.0657L207.143 22.4707L210.258 20.8758C208.745 17.9211 207.631 14.8992 206.906 11.8063L203.499 12.605ZM207.143 22.4707L204.027 24.0657C204.812 25.5994 205.299 26.7226 205.553 27.4856C205.681 27.8681 205.718 28.0673 205.726 28.124C205.741 28.2358 205.663 27.8767 205.86 27.3283L209.155 28.5078L212.45 29.6874C212.794 28.7258 212.744 27.8052 212.665 27.2073C212.579 26.5543 212.402 25.8956 212.194 25.272C211.778 24.0226 211.11 22.5404 210.258 20.8758L207.143 22.4707ZM209.155 28.5078L205.923 27.1638L205.447 28.3088L208.679 29.6529L211.91 30.9969L212.387 29.8519L209.155 28.5078ZM208.679 29.6529L205.369 30.7905L205.401 30.8851L208.711 29.7474L212.021 28.6097L211.989 28.5152L208.679 29.6529Z" fill="black"/>
<path d="M212.495 28.7262C211.496 27.0719 209.344 26.5414 207.69 27.5412C206.035 28.5411 205.505 30.6928 206.505 32.3471L209.5 30.5366L212.495 28.7262ZM209.552 30.6222L206.556 32.4326L206.752 32.757L207.013 33.0319L209.552 30.6222ZM226.271 62.5866L222.905 63.5427L226.271 62.5866ZM227.498 104.206L224.012 104.517L227.498 104.206ZM227.319 114.563L230.792 114.997L227.319 114.563ZM225.291 124.74L221.917 123.812L225.291 124.74ZM221.159 134.279L218.17 132.457L221.159 134.279ZM216.905 143.812L213.552 142.807L216.905 143.812ZM208.366 162.96L205.213 161.441L208.366 162.96ZM171.519 179.394L171.57 182.893L171.519 179.394ZM165.768 179.94L163.219 177.541L163.098 177.67L162.991 177.81L165.768 179.94ZM165.425 180.387L166.168 183.808L167.421 183.535L168.202 182.518L165.425 180.387ZM164.585 176.988C162.696 177.398 161.497 179.262 161.907 181.151C162.317 183.04 164.181 184.239 166.07 183.829L165.327 180.409L164.585 176.988ZM209.5 30.5366L206.505 32.3471L206.556 32.4326L209.552 30.6222L212.547 28.8118L212.495 28.7262L209.5 30.5366ZM209.552 30.6222L207.013 33.0319C211.746 38.0171 214.648 41.8098 216.007 44.4846L219.127 42.8983L222.247 41.312C220.411 37.7008 216.929 33.3094 212.09 28.2125L209.552 30.6222ZM219.127 42.8983L216.007 44.4846C217.528 47.4753 218.812 50.5401 219.86 53.6802L223.18 52.5718L226.5 51.4635C225.341 47.9915 223.923 44.6074 222.247 41.312L219.127 42.8983ZM223.18 52.5718L219.86 53.6802C220.947 56.9356 221.962 60.2231 222.905 63.5427L226.271 62.5866L229.638 61.6304C228.667 58.2091 227.621 54.8201 226.5 51.4635L223.18 52.5718ZM226.271 62.5866L222.905 63.5427C223.807 66.7205 224.43 69.9464 224.774 73.2226L228.255 72.8568L231.736 72.4911C231.35 68.8146 230.65 65.1936 229.638 61.6304L226.271 62.5866ZM228.255 72.8568L224.774 73.2226C225.119 76.503 225.186 79.7924 224.976 83.0928L228.469 83.3155L231.962 83.5382C232.197 79.8464 232.122 76.1634 231.736 72.4911L228.255 72.8568ZM228.469 83.3155L224.976 83.0928C224.756 86.5407 224.465 89.9798 224.103 93.41L227.584 93.7772L231.065 94.1445C231.437 90.6179 231.736 87.0825 231.962 83.5382L228.469 83.3155ZM227.584 93.7772L224.103 93.41C223.712 97.113 223.682 100.816 224.012 104.517L227.498 104.206L230.984 103.896C230.694 100.648 230.721 97.3983 231.065 94.1445L227.584 93.7772ZM227.498 104.206L224.012 104.517C224.299 107.746 224.244 110.948 223.846 114.129L227.319 114.563L230.792 114.997C231.252 111.318 231.315 107.616 230.984 103.896L227.498 104.206ZM227.319 114.563L223.846 114.129C223.439 117.391 222.796 120.618 221.917 123.812L225.291 124.74L228.666 125.669C229.634 122.153 230.343 118.595 230.792 114.997L227.319 114.563ZM225.291 124.74L221.917 123.812C221.081 126.849 219.834 129.728 218.17 132.457L221.159 134.279L224.147 136.101C226.147 132.822 227.655 129.342 228.666 125.669L225.291 124.74ZM221.159 134.279L218.17 132.457C216.184 135.716 214.643 139.168 213.552 142.807L216.905 143.812L220.257 144.817C221.175 141.754 222.47 138.851 224.147 136.101L221.159 134.279ZM216.905 143.812L213.552 142.807C212.607 145.96 211.396 148.994 209.919 151.911L213.042 153.492L216.164 155.073C217.83 151.784 219.194 148.365 220.257 144.817L216.905 143.812ZM213.042 153.492L209.919 151.911C208.338 155.034 206.769 158.211 205.213 161.441L208.366 162.96L211.519 164.479C213.056 161.29 214.604 158.154 216.164 155.073L213.042 153.492ZM208.366 162.96L205.213 161.441C204.044 163.866 202.275 165.524 199.778 166.534L201.09 169.779L202.403 173.023C206.513 171.361 209.594 168.473 211.519 164.479L208.366 162.96ZM201.09 169.779L199.778 166.534C196.483 167.867 193.25 169.159 190.078 170.412L191.363 173.667L192.649 176.922C195.839 175.663 199.09 174.363 202.403 173.023L201.09 169.779ZM191.363 173.667L190.078 170.412C186.906 171.664 183.697 172.917 180.451 174.168L181.71 177.434L182.97 180.699C186.233 179.441 189.459 178.182 192.649 176.922L191.363 173.667ZM181.71 177.434L180.451 174.168C177.588 175.272 174.6 175.849 171.468 175.894L171.519 179.394L171.57 182.893C175.517 182.836 179.323 182.106 182.97 180.699L181.71 177.434ZM171.519 179.394L171.468 175.894C169.668 175.92 168.194 175.98 167.096 176.085C166.556 176.136 166.013 176.206 165.529 176.314C165.289 176.368 164.979 176.449 164.655 176.579C164.4 176.681 163.777 176.949 163.219 177.541L165.768 179.94L168.317 182.338C167.833 182.853 167.334 183.046 167.254 183.079C167.105 183.138 167.02 183.154 167.057 183.146C167.126 183.13 167.338 183.093 167.757 183.053C168.576 182.976 169.83 182.919 171.57 182.893L171.519 179.394ZM165.768 179.94L162.991 177.81L162.648 178.257L165.425 180.387L168.202 182.518L168.545 182.07L165.768 179.94ZM165.425 180.387L164.682 176.967L164.585 176.988L165.327 180.409L166.07 183.829L166.168 183.808L165.425 180.387Z" fill="black"/>
<path d="M64.3838 170.985C62.6647 170.102 60.5546 170.779 59.6707 172.498C58.7868 174.217 59.4638 176.327 61.1829 177.211L62.7833 174.098L64.3838 170.985ZM62.8723 174.144L65.1828 171.515L64.8577 171.229L64.4727 171.031L62.8723 174.144ZM74.987 182.952L73.4961 186.118L74.987 182.952ZM95.0495 186.699L95.4045 190.181L95.0495 186.699ZM100.503 186.833L103.995 186.602L103.979 186.353L103.927 186.109L100.503 186.833ZM100.547 187.494L97.0543 187.725L97.2419 190.56L100.055 190.959L100.547 187.494ZM100.154 190.973C102.068 191.245 103.839 189.913 104.111 187.999C104.383 186.086 103.051 184.314 101.137 184.042L100.646 187.508L100.154 190.973ZM62.7833 174.098L61.1829 177.211L61.2718 177.257L62.8723 174.144L64.4727 171.031L64.3838 170.985L62.7833 174.098ZM62.8723 174.144L60.5618 176.773C65.6804 181.271 70.0236 184.483 73.4961 186.118L74.987 182.952L76.478 179.785C73.94 178.59 70.2067 175.93 65.1828 171.515L62.8723 174.144ZM74.987 182.952L73.4961 186.118C76.7581 187.654 80.2266 188.806 83.8925 189.582L84.6168 186.158L85.341 182.733C82.1777 182.064 79.2263 181.079 76.478 179.785L74.987 182.952ZM84.6168 186.158L83.8925 189.582C87.6687 190.38 91.5106 190.578 95.4045 190.181L95.0495 186.699L94.6945 183.217C91.5073 183.542 88.3941 183.379 85.341 182.733L84.6168 186.158ZM95.0495 186.699L95.4045 190.181C97.1388 190.005 98.3009 189.944 98.9827 189.961C99.3533 189.97 99.3835 189.999 99.2328 189.96C99.1641 189.942 98.8408 189.858 98.4527 189.6C98.0434 189.329 97.3183 188.69 97.0787 187.557L100.503 186.833L103.927 186.109C103.664 184.863 102.861 184.124 102.32 183.766C101.801 183.421 101.292 183.262 100.984 183.183C100.355 183.02 99.6922 182.976 99.1539 182.963C98.0178 182.935 96.5007 183.033 94.6945 183.217L95.0495 186.699ZM100.503 186.833L97.0106 187.064L97.0543 187.725L100.547 187.494L104.039 187.263L103.995 186.602L100.503 186.833ZM100.547 187.494L100.055 190.959L100.154 190.973L100.646 187.508L101.137 184.042L101.038 184.028L100.547 187.494Z" fill="black"/>
<path d="M77.7705 183.219C75.8375 183.219 74.2705 184.786 74.2705 186.719C74.2705 188.652 75.8375 190.219 77.7705 190.219V186.719V183.219ZM77.8705 186.719V190.219H78.0968L78.3212 190.19L77.8705 186.719ZM81.7145 187.07H85.2145V186.582L85.0809 186.112L81.7145 187.07ZM81.6145 186.719V183.219H76.9798L78.2481 187.677L81.6145 186.719ZM81.7145 190.219C83.6475 190.219 85.2145 188.652 85.2145 186.719C85.2145 184.786 83.6475 183.219 81.7145 183.219V186.719V190.219ZM77.7705 186.719V190.219H77.8705V186.719V183.219H77.7705V186.719ZM77.8705 186.719L78.3212 190.19C79.4023 190.049 80.467 189.845 81.3647 189.509L80.1369 186.231L78.9092 182.954C78.7552 183.012 78.3089 183.132 77.4199 183.248L77.8705 186.719ZM80.1369 186.231L81.3647 189.509C81.0999 189.608 80.4179 189.783 79.5893 189.469C78.7597 189.156 78.3628 188.572 78.2288 188.32L81.3201 186.679L84.4115 185.038C84.0146 184.29 83.289 183.385 82.065 182.922C80.842 182.459 79.6998 182.658 78.9092 182.954L80.1369 186.231ZM81.3201 186.679L78.2288 188.32C78.3168 188.486 78.4192 188.67 78.5318 188.848C78.6118 188.975 78.8244 189.309 79.1505 189.632C79.2892 189.77 79.7024 190.168 80.364 190.432C81.1786 190.756 82.5994 190.919 83.8594 189.924C84.814 189.17 85.0576 188.194 85.1196 187.924C85.2069 187.544 85.2145 187.227 85.2145 187.07H81.7145H78.2145C78.2145 186.972 78.2181 186.702 78.2972 186.358C78.3509 186.124 78.5822 185.172 79.5204 184.431C80.764 183.449 82.1642 183.614 82.9542 183.928C83.5911 184.182 83.9756 184.559 84.0813 184.664C84.2349 184.816 84.3331 184.945 84.3721 184.998C84.4182 185.06 84.4459 185.103 84.4536 185.116C84.4676 185.138 84.4549 185.119 84.4115 185.038L81.3201 186.679ZM81.7145 187.07L85.0809 186.112L84.9809 185.761L81.6145 186.719L78.2481 187.677L78.3481 188.028L81.7145 187.07ZM81.6145 186.719V190.219H81.7145V186.719V183.219H81.6145V186.719Z" fill="black"/>
<path d="M81.2667 182.939C81.3575 181.008 79.8658 179.37 77.9349 179.279C76.004 179.188 74.3652 180.68 74.2744 182.611L77.7705 182.775L81.2667 182.939ZM77.7658 182.875L81.2488 183.22L81.2577 183.13L81.262 183.039L77.7658 182.875ZM80.9325 277.994L77.7214 279.386L77.7294 279.405L77.7375 279.423L80.9325 277.994ZM81.6951 279.699L85.1286 279.02L85.0518 278.632L84.8902 278.27L81.6951 279.699ZM78.281 280.476C78.656 282.373 80.4972 283.606 82.3935 283.231C84.2898 282.856 85.523 281.015 85.148 279.118L81.7145 279.797L78.281 280.476ZM77.7705 182.775L74.2744 182.611L74.2697 182.71L77.7658 182.875L81.262 183.039L81.2667 182.939L77.7705 182.775ZM77.7658 182.875L74.2829 182.53C73.6037 189.383 73.0661 194.524 72.6695 197.963L76.1465 198.364L79.6235 198.765C80.0267 195.268 80.5687 190.082 81.2488 183.22L77.7658 182.875ZM76.1465 198.364L72.6695 197.963C72.2311 201.766 72.339 205.579 72.9888 209.392L76.4391 208.805L79.8893 208.217C79.3492 205.047 79.2621 201.9 79.6235 198.765L76.1465 198.364ZM76.4391 208.805L72.9888 209.392C73.5111 212.458 73.4618 215.502 72.8408 218.547L76.2702 219.246L79.6997 219.946C80.4937 216.052 80.557 212.135 79.8893 208.217L76.4391 208.805ZM76.2702 219.246L72.8408 218.547C72.0378 222.485 72.0486 226.441 72.8709 230.385L76.2972 229.671L79.7236 228.957C79.0948 225.941 79.0877 222.947 79.6997 219.946L76.2702 219.246ZM76.2972 229.671L72.8709 230.385C73.4904 233.357 73.4463 236.316 72.7334 239.297L76.1375 240.111L79.5415 240.925C80.4926 236.947 80.5549 232.945 79.7236 228.957L76.2972 229.671ZM76.1375 240.111L72.7334 239.297C71.8 243.201 71.6157 247.126 72.1916 251.049L75.6544 250.541L79.1173 250.032C78.6733 247.008 78.8111 243.98 79.5415 240.925L76.1375 240.111ZM75.6544 250.541L72.1916 251.049C72.6787 254.367 72.9414 257.705 72.9799 261.063L76.4796 261.022L79.9794 260.982C79.9374 257.311 79.65 253.661 79.1173 250.032L75.6544 250.541ZM76.4796 261.022L72.9799 261.063C73.0246 264.972 73.7179 268.771 75.0572 272.442L78.3452 271.242L81.6332 270.043C80.5655 267.116 80.0151 264.102 79.9794 260.982L76.4796 261.022ZM78.3452 271.242L75.0572 272.442C76.2579 275.733 77.1531 278.076 77.7214 279.386L80.9325 277.994L84.1436 276.601C83.6692 275.508 82.8397 273.35 81.6332 270.043L78.3452 271.242ZM80.9325 277.994L77.7375 279.423L78.5001 281.128L81.6951 279.699L84.8902 278.27L84.1276 276.565L80.9325 277.994ZM81.6951 279.699L78.2616 280.378L78.281 280.476L81.7145 279.797L85.148 279.118L85.1286 279.02L81.6951 279.699Z" fill="black"/>
<path d="M194.037 175.99C193.775 174.075 192.01 172.735 190.095 172.997C188.18 173.259 186.839 175.023 187.101 176.939L190.569 176.464L194.037 175.99ZM190.582 176.563L194.073 176.3L194.065 176.194L194.05 176.089L190.582 176.563ZM195.523 212.632L192.027 212.8L195.523 212.632ZM195.044 223.075L191.577 222.591L195.044 223.075ZM195.511 243.943L192.083 243.238L195.511 243.943ZM195.697 264.813L192.197 264.756L195.697 264.813ZM195.013 282.11L198.342 283.191L198.351 283.163L198.359 283.135L195.013 282.11ZM194.516 283.641L191.187 282.56L191.03 283.042L191.017 283.549L194.516 283.641ZM191.014 283.649C190.963 285.581 192.488 287.189 194.421 287.24C196.353 287.291 197.961 285.766 198.012 283.833L194.513 283.741L191.014 283.649ZM190.569 176.464L187.101 176.939L187.115 177.038L190.582 176.563L194.05 176.089L194.037 175.99L190.569 176.464ZM190.582 176.563L187.092 176.827C187.617 183.786 188.515 189.292 189.91 193.11L193.197 191.909L196.485 190.708C195.43 187.821 194.585 183.097 194.073 176.3L190.582 176.563ZM193.197 191.909L189.91 193.11C191.006 196.11 191.584 199.155 191.655 202.258L195.154 202.178L198.653 202.098C198.564 198.213 197.838 194.412 196.485 190.708L193.197 191.909ZM195.154 202.178L191.655 202.258C191.735 205.78 191.859 209.294 192.027 212.8L195.523 212.632L199.019 212.465C198.854 209.018 198.732 205.562 198.653 202.098L195.154 202.178ZM195.523 212.632L192.027 212.8C192.183 216.056 192.034 219.319 191.577 222.591L195.044 223.075L198.51 223.558C199.026 219.86 199.196 216.161 199.019 212.465L195.523 212.632ZM195.044 223.075L191.577 222.591C191.034 226.49 191.186 230.385 192.03 234.258L195.45 233.514L198.869 232.769C198.2 229.694 198.082 226.63 198.51 223.558L195.044 223.075ZM195.45 233.514L192.03 234.258C192.682 237.256 192.7 240.238 192.083 243.238L195.511 243.943L198.94 244.648C199.753 240.69 199.73 236.72 198.869 232.769L195.45 233.514ZM195.511 243.943L192.083 243.238C191.291 247.09 191.141 250.957 191.639 254.824L195.11 254.377L198.581 253.93C198.184 250.841 198.301 247.752 198.94 244.648L195.511 243.943ZM195.11 254.377L191.639 254.824C192.065 258.136 192.251 261.446 192.197 264.756L195.697 264.813L199.197 264.87C199.256 261.22 199.051 257.573 198.581 253.93L195.11 254.377ZM195.697 264.813L192.197 264.756C192.141 268.244 192.096 271.732 192.063 275.222L195.562 275.255L199.062 275.289C199.095 271.815 199.14 268.342 199.197 264.87L195.697 264.813ZM195.562 275.255L192.063 275.222C192.029 278.801 191.825 280.565 191.666 281.084L195.013 282.11L198.359 283.135C198.867 281.479 199.03 278.674 199.062 275.289L195.562 275.255ZM195.013 282.11L191.684 281.029L191.187 282.56L194.516 283.641L197.844 284.722L198.342 283.191L195.013 282.11ZM194.516 283.641L191.017 283.549L191.014 283.649L194.513 283.741L198.012 283.833L198.014 283.733L194.516 283.641Z" fill="black"/>
<path d="M75.3063 232.387C77.0034 233.312 79.1293 232.687 80.0547 230.99C80.98 229.292 80.3543 227.167 78.6572 226.241L76.9817 229.314L75.3063 232.387ZM76.8939 229.266L75.1324 232.291L75.1751 232.316L75.2185 232.339L76.8939 229.266ZM53.787 217.279L55.292 214.119L53.787 217.279ZM37.5376 204.265L34.7449 206.375L37.5376 204.265ZM30.4814 196.452L28.0992 199.017L30.4814 196.452ZM24.2149 188.153L21.0963 189.741L24.2149 188.153ZM5.67394 150.836L2.53067 152.375L5.67394 150.836ZM3.50561 145.54L0.145297 144.561L0.097296 144.726L0.0656457 144.895L3.50561 145.54ZM3.66153 145.005L7.02184 145.984L7.36528 144.805L6.8969 143.67L3.66153 145.005ZM6.85875 143.578C6.12142 141.791 4.07517 140.94 2.28832 141.677C0.501479 142.415 -0.34932 144.461 0.388013 146.248L3.62338 144.913L6.85875 143.578ZM76.9817 229.314L78.6572 226.241L78.5694 226.193L76.8939 229.266L75.2185 232.339L75.3063 232.387L76.9817 229.314ZM76.8939 229.266L78.6555 226.242C72.6795 222.761 68.0347 220.216 64.768 218.649L63.2539 221.804L61.7398 224.96C64.7453 226.402 69.1939 228.832 75.1324 232.291L76.8939 229.266ZM63.2539 221.804L64.768 218.649C61.6288 217.143 58.4701 215.633 55.292 214.119L53.787 217.279L52.2821 220.439C55.4542 221.95 58.6068 223.457 61.7398 224.96L63.2539 221.804ZM53.787 217.279L55.292 214.119C52.351 212.718 49.6009 211.012 47.0378 208.996L44.8743 211.747L42.7107 214.498C45.681 216.834 48.8728 218.815 52.2821 220.439L53.787 217.279ZM44.8743 211.747L47.0378 208.996C44.5078 207.006 42.2736 204.728 40.3303 202.156L37.5376 204.265L34.7449 206.375C37.0503 209.427 39.7073 212.137 42.7107 214.498L44.8743 211.747ZM37.5376 204.265L40.3303 202.156C38.0828 199.181 35.5933 196.424 32.8635 193.888L30.4814 196.452L28.0992 199.017C30.529 201.274 32.7437 203.726 34.7449 206.375L37.5376 204.265ZM30.4814 196.452L32.8635 193.888C30.5845 191.771 28.745 189.335 27.3335 186.564L24.2149 188.153L21.0963 189.741C22.8806 193.244 25.2187 196.341 28.0992 199.017L30.4814 196.452ZM24.2149 188.153L27.3335 186.564C25.6382 183.236 23.6539 180.093 21.3817 177.138L18.6069 179.271L15.8322 181.404C17.8416 184.018 19.5958 186.796 21.0963 189.741L24.2149 188.153ZM18.6069 179.271L21.3817 177.138C19.4639 174.643 17.981 171.922 16.9264 168.961L13.6293 170.136L10.3323 171.31C11.6329 174.961 13.4684 178.33 15.8322 181.404L18.6069 179.271ZM13.6293 170.136L16.9264 168.961C15.7328 165.611 14.4764 162.3 13.1573 159.031L9.91147 160.34L6.66568 161.65C7.94847 164.829 9.17069 168.05 10.3323 171.31L13.6293 170.136ZM9.91147 160.34L13.1573 159.031C11.825 155.729 10.3783 152.484 8.8172 149.296L5.67394 150.836L2.53067 152.375C4.01768 155.411 5.39602 158.503 6.66568 161.65L9.91147 160.34ZM5.67394 150.836L8.8172 149.296C8.06667 147.764 7.545 146.626 7.22779 145.852C7.06645 145.458 6.98598 145.225 6.9539 145.116C6.93744 145.06 6.95231 145.099 6.96906 145.203C6.9754 145.242 7.04745 145.643 6.94558 146.186L3.50561 145.54L0.0656457 144.895C-0.0558584 145.542 0.0216041 146.09 0.0583975 146.318C0.1056 146.61 0.17596 146.88 0.240036 147.097C0.369017 147.534 0.54978 148.016 0.749825 148.504C1.15539 149.495 1.75714 150.796 2.53067 152.375L5.67394 150.836ZM3.50561 145.54L6.86593 146.519L7.02184 145.984L3.66153 145.005L0.301212 144.026L0.145297 144.561L3.50561 145.54ZM3.66153 145.005L6.8969 143.67L6.85875 143.578L3.62338 144.913L0.388013 146.248L0.426157 146.34L3.66153 145.005Z" fill="black"/>
</svg>
