<svg width="224" height="202" viewBox="0 0 224 202" fill="none" xmlns="http://www.w3.org/2000/svg">
<path d="M108.766 97.0081C109.549 99.9428 112.564 101.686 115.499 100.903C118.433 100.119 120.177 97.1044 119.393 94.1697L114.079 95.5889L108.766 97.0081ZM114.054 95.4923L108.568 95.8867L108.605 96.4072L108.74 96.9115L114.054 95.4923ZM109.755 71.4106L104.66 73.481L109.755 71.4106ZM83.7205 30.6767L79.7931 34.527L83.7205 30.6767ZM54.2235 20.0217L54.0869 25.52L54.2235 20.0217ZM40.8113 26.2892L36.6031 22.7479L40.8113 26.2892ZM30.7628 73.1017L25.2863 73.609L30.7628 73.1017ZM36.6115 87.4794L32.3102 90.9071L36.6115 87.4794ZM47.4455 99.8074L51.398 95.9828L47.4455 99.8074ZM69.3832 123.938L65.5443 127.876L69.3832 123.938ZM81.0968 135.309L77.2736 139.263L81.0968 135.309ZM117.811 168.018L121.075 163.592L117.811 168.018ZM129.396 179.564L133.814 176.287L129.396 179.564ZM139.228 192.737L143.626 189.433L139.228 192.737ZM147.379 193.737L142.628 190.966L147.379 193.737ZM158.217 164.857L162.874 167.782L158.217 164.857ZM177.573 138.263L172.701 135.712L177.573 138.263ZM186.034 124.202L190.57 127.313L186.034 124.202ZM193.701 109.907L198.804 111.959V111.959L193.701 109.907ZM199.502 94.7716L194.335 92.8879L199.502 94.7716ZM204.556 79.3477L199.277 77.8065L204.556 79.3477ZM198.055 19.8698L195.95 24.9512L198.055 19.8698ZM147.367 35.9646L142.346 33.7194L147.367 35.9646ZM142.51 51.6594L147.921 52.6467L142.51 51.6594ZM138.035 67.5965L132.9 65.624L138.035 67.5965ZM132.035 94.1505L129.976 89.0505L132.035 94.1505ZM125.613 88.3115L120.181 89.1754L125.613 88.3115ZM124.964 71.9438L119.478 71.5468L124.964 71.9438ZM122.14 55.9422L117.133 58.2181L122.14 55.9422ZM105.068 27.596L100.188 30.1344L105.068 27.596ZM78.2377 10.8943L80.0392 5.69768L78.2377 10.8943ZM30.5562 11.8403L28.7615 6.64131L30.5562 11.8403ZM30.0611 87.9185L27.5803 92.8272L30.0611 87.9185ZM43.5017 97.2728L47.2399 93.2384L43.5017 97.2728ZM55.8039 108.231L59.3799 104.052L55.8039 108.231ZM69.2083 117.677L71.946 112.907L69.2083 117.677ZM83.1374 126.392L80.0425 130.938L83.1374 126.392ZM118.537 160.059L114.063 163.259L118.537 160.059ZM128.295 173.236L132.661 169.891L128.295 173.236ZM159.507 188.472L154.395 186.44L159.507 188.472ZM172.071 158.46L176.702 161.428L172.071 158.46ZM191.528 132.269L196.214 135.148L191.528 132.269ZM207.208 103.615L201.961 101.968L207.208 103.615ZM214.109 71.6967L208.679 70.8231L214.109 71.6967ZM217.182 55.545L222.554 56.7234L217.182 55.545ZM217.16 39.257L222.531 38.073L217.16 39.257ZM215.303 22.9124L220.803 22.8752L215.303 22.9124ZM208.375 11.5133L206.037 16.4918L208.375 11.5133ZM163.286 13.7233L160.39 9.04763L163.286 13.7233ZM140.425 35.6605L136.004 32.3876L140.425 35.6605ZM133.037 49.8287L127.824 48.074L133.037 49.8287ZM127.296 65.2279L122.205 63.1463L127.296 65.2279ZM124.421 81.2843L129.918 81.1L124.421 81.2843ZM123.099 95.1907L128.385 96.7117L123.099 95.1907ZM122.094 100.755V106.255H122.536L122.972 106.185L122.094 100.755ZM122.705 100.656L128.14 101.503L129.305 94.0182L121.828 95.2269L122.705 100.656ZM117.255 99.909C116.788 102.91 118.842 105.722 121.844 106.19C124.845 106.657 127.657 104.603 128.124 101.601L122.69 100.755L117.255 99.909ZM114.079 95.5889L119.393 94.1697L119.367 94.0731L114.054 95.4923L108.74 96.9115L108.766 97.0081L114.079 95.5889ZM114.054 95.4923L119.539 95.0979C118.744 84.0357 117.269 75.2925 114.85 69.3402L109.755 71.4106L104.66 73.481C106.4 77.7641 107.79 85.0753 108.568 95.8867L114.054 95.4923ZM109.755 71.4106L114.85 69.3402C112.809 64.3151 110.909 59.2475 109.152 54.1373L103.95 55.926L98.7495 57.7147C100.572 63.0153 102.542 68.2707 104.66 73.481L109.755 71.4106ZM103.95 55.926L109.152 54.1373C107.084 48.1253 103.764 42.8645 99.2287 38.4131L95.3762 42.3384L91.5238 46.2638C94.8401 49.5185 97.2367 53.3161 98.7495 57.7147L103.95 55.926ZM95.3762 42.3384L99.2287 38.4131C95.3279 34.5847 91.4677 30.7225 87.648 26.8263L83.7205 30.6767L79.7931 34.527C83.6624 38.4738 87.5726 42.386 91.5238 46.2638L95.3762 42.3384ZM83.7205 30.6767L87.648 26.8263C83.1445 22.2327 77.7722 19.0147 71.6076 17.2252L70.0743 22.5072L68.541 27.7891C72.8824 29.0494 76.6076 31.2778 79.7931 34.527L83.7205 30.6767ZM70.0743 22.5072L71.6076 17.2252C65.9135 15.5723 60.1608 14.6675 54.3602 14.5234L54.2235 20.0217L54.0869 25.52C58.9145 25.64 63.729 26.3922 68.541 27.7891L70.0743 22.5072ZM54.2235 20.0217L54.3602 14.5234C47.2638 14.347 41.2321 17.2472 36.6031 22.7479L40.8113 26.2892L45.0196 29.8305C47.6452 26.7104 50.5549 25.4322 54.0869 25.52L54.2235 20.0217ZM40.8113 26.2892L36.6031 22.7479C32.3639 27.7855 29.636 33.5656 28.4763 40.0071L33.8893 40.9816L39.3023 41.9561C40.1174 37.4286 42.0042 33.4138 45.0196 29.8305L40.8113 26.2892ZM33.8893 40.9816L28.4763 40.0071C27.4797 45.5429 26.5799 50.9936 25.7772 56.3589L31.2166 57.1727L36.6561 57.9866C37.4422 52.7326 38.3242 47.3891 39.3023 41.9561L33.8893 40.9816ZM31.2166 57.1727L25.7772 56.3589C24.9178 62.1029 24.7533 67.8561 25.2863 73.609L30.7628 73.1017L36.2394 72.5943C35.7885 67.728 35.9266 62.8619 36.6561 57.9866L31.2166 57.1727ZM30.7628 73.1017L25.2863 73.609C25.8797 80.014 28.253 85.8158 32.3102 90.9071L36.6115 87.4794L40.9127 84.0517C38.1556 80.5919 36.6298 76.8085 36.2394 72.5943L30.7628 73.1017ZM36.6115 87.4794L32.3102 90.9071C35.8276 95.3209 39.5554 99.5627 43.493 103.632L47.4455 99.8074L51.398 95.9828C47.7046 92.1658 44.2097 88.1889 40.9127 84.0517L36.6115 87.4794ZM47.4455 99.8074L43.493 103.632C47.2114 107.475 50.7567 111.431 54.1295 115.501L58.3644 111.992L62.5994 108.483C59.0446 104.193 55.3106 100.026 51.398 95.9828L47.4455 99.8074ZM58.3644 111.992L54.1295 115.501C57.7174 119.831 61.5225 123.956 65.5443 127.876L69.3832 123.938L73.2221 119.999C69.4797 116.351 65.939 112.513 62.5994 108.483L58.3644 111.992ZM69.3832 123.938L65.5443 127.876C69.4317 131.665 73.3415 135.461 77.2736 139.263L81.0968 135.309L84.92 131.355C80.9983 127.563 77.099 123.778 73.2221 119.999L69.3832 123.938ZM81.0968 135.309L77.2736 139.263C81.3727 143.227 85.72 146.914 90.314 150.323L93.5919 145.907L96.8699 141.49C92.6576 138.364 88.6748 134.986 84.92 131.355L81.0968 135.309ZM93.5919 145.907L90.314 150.323C94.4153 153.367 98.163 156.796 101.561 160.612L105.669 156.954L109.776 153.297C105.879 148.919 101.575 144.983 96.8699 141.49L93.5919 145.907ZM105.669 156.954L101.561 160.612C105.465 164.996 109.795 168.941 114.547 172.445L117.811 168.018L121.075 163.592C116.934 160.538 113.169 157.107 109.776 153.297L105.669 156.954ZM117.811 168.018L114.547 172.445C118.556 175.402 122.029 178.863 124.979 182.841L129.396 179.564L133.814 176.287C130.21 171.429 125.959 167.194 121.075 163.592L117.811 168.018ZM129.396 179.564L124.979 182.841C128.262 187.267 131.546 191.667 134.831 196.04L139.228 192.737L143.626 189.433C140.355 185.078 137.084 180.696 133.814 176.287L129.396 179.564ZM139.228 192.737L134.831 196.04C136.588 198.379 139.288 201.256 143.054 201.718C147.707 202.289 150.648 199.049 152.13 196.507L147.379 193.737L142.628 190.966C142.328 191.48 142.249 191.423 142.532 191.227C142.696 191.114 142.962 190.969 143.324 190.875C143.693 190.778 144.063 190.76 144.394 190.8C145.024 190.878 145.23 191.125 144.974 190.924C144.727 190.731 144.27 190.291 143.626 189.433L139.228 192.737ZM147.379 193.737L152.13 196.507C154.672 192.149 156.458 186.963 157.61 181.087L152.213 180.029L146.815 178.971C145.834 183.978 144.398 187.93 142.628 190.966L147.379 193.737ZM152.213 180.029L157.61 181.087C158.547 176.306 160.299 171.882 162.874 167.782L158.217 164.857L153.559 161.931C150.262 167.18 148.011 172.871 146.815 178.971L152.213 180.029ZM158.217 164.857L162.874 167.782C165.639 163.381 168.767 159.254 172.261 155.398L168.185 151.705L164.109 148.012C160.184 152.344 156.667 156.985 153.559 161.931L158.217 164.857ZM168.185 151.705L172.261 155.398C176.281 150.961 179.679 146.098 182.446 140.815L177.573 138.263L172.701 135.712C170.369 140.164 167.508 144.262 164.109 148.012L168.185 151.705ZM177.573 138.263L182.446 140.815C184.894 136.14 187.602 131.64 190.57 127.313L186.034 124.202L181.498 121.091C178.283 125.779 175.351 130.652 172.701 135.712L177.573 138.263ZM186.034 124.202L190.57 127.313C193.886 122.479 196.632 117.359 198.804 111.959L193.701 109.907L188.599 107.854C186.729 112.502 184.364 116.913 181.498 121.091L186.034 124.202ZM193.701 109.907L198.804 111.959C200.847 106.879 202.802 101.778 204.67 96.6553L199.502 94.7716L194.335 92.8879C192.509 97.8972 190.597 102.886 188.599 107.854L193.701 109.907ZM199.502 94.7716L204.67 96.6553C206.558 91.4755 208.28 86.2199 209.836 80.8889L204.556 79.3477L199.277 77.8065C197.788 82.9087 196.14 87.9357 194.335 92.8879L199.502 94.7716ZM204.556 79.3477L209.836 80.8889C211.431 75.4255 212.636 69.8794 213.45 64.2524L208.007 63.4648L202.563 62.6772C201.823 67.7942 200.728 72.8367 199.277 77.8065L204.556 79.3477ZM208.007 63.4648L213.45 64.2524C214.256 58.6842 214.754 53.1179 214.945 47.5541L209.449 47.3654L203.952 47.1766C203.775 52.3347 203.312 57.5013 202.563 62.6772L208.007 63.4648ZM209.449 47.3654L214.945 47.5541C215.148 41.6664 214.513 35.7666 213.061 29.8688L207.721 31.1836L202.38 32.4983C203.6 37.4543 204.118 42.3425 203.952 47.1766L209.449 47.3654ZM207.721 31.1836L213.061 29.8688C211.312 22.765 206.904 17.5819 200.159 14.7884L198.055 19.8698L195.95 24.9512C199.421 26.3888 201.457 28.7483 202.38 32.4983L207.721 31.1836ZM198.055 19.8698L200.159 14.7884C194.96 12.6352 189.819 10.6689 184.734 8.89011L182.918 14.0816L181.102 19.2731C185.983 20.9808 190.933 22.8732 195.95 24.9512L198.055 19.8698ZM182.918 14.0816L184.734 8.89011C178.827 6.82387 172.778 6.39838 166.691 7.64438L167.794 13.0327L168.897 18.4209C173.009 17.5791 177.042 17.853 181.102 19.2731L182.918 14.0816ZM167.794 13.0327L166.691 7.64438C160.08 8.99747 154.77 12.721 150.891 18.4248L155.439 21.5177L159.987 24.6106C162.382 21.0888 165.307 19.1556 168.897 18.4209L167.794 13.0327ZM155.439 21.5177L150.891 18.4248C147.574 23.3017 144.725 28.4006 142.346 33.7194L147.367 35.9646L152.388 38.2099C154.498 33.4917 157.029 28.9593 159.987 24.6106L155.439 21.5177ZM147.367 35.9646L142.346 33.7194C139.921 39.1428 138.172 44.7969 137.1 50.672L142.51 51.6594L147.921 52.6467C148.836 47.6325 150.324 42.8235 152.388 38.2099L147.367 35.9646ZM142.51 51.6594L137.1 50.672C136.167 55.7795 134.768 60.7621 132.9 65.624L138.035 67.5965L143.169 69.569C145.281 64.0706 146.866 58.4285 147.921 52.6467L142.51 51.6594ZM138.035 67.5965L132.9 65.624C130.58 71.6653 129.838 77.9583 130.669 84.4183L136.124 83.7165L141.579 83.0146C140.978 78.3416 141.509 73.888 143.169 69.569L138.035 67.5965ZM136.124 83.7165L130.669 84.4183C130.963 86.7093 130.735 87.9404 130.518 88.4934C130.424 88.7331 130.342 88.8228 130.313 88.8532C130.283 88.8829 130.2 88.96 129.976 89.0505L132.035 94.1505L134.094 99.2506C137.228 97.9854 139.531 95.6434 140.76 92.5064C141.906 89.5814 142 86.2902 141.579 83.0146L136.124 83.7165ZM132.035 94.1505L129.976 89.0505C129.685 89.1682 129.817 89.0517 130.244 89.0944C130.466 89.1165 130.719 89.1779 130.974 89.2929C131.227 89.407 131.419 89.5455 131.548 89.6633C131.787 89.8807 131.737 89.9529 131.571 89.5509C131.409 89.1581 131.21 88.4884 131.045 87.4477L125.613 88.3115L120.181 89.1754C120.652 92.1338 121.644 95.5256 124.149 97.8025C127.248 100.62 131.077 100.469 134.094 99.2506L132.035 94.1505ZM125.613 88.3115L131.045 87.4477C130.274 82.6047 130.071 77.5727 130.45 72.3408L124.964 71.9438L119.478 71.5468C119.042 77.5742 119.271 83.454 120.181 89.1754L125.613 88.3115ZM124.964 71.9438L130.45 72.3408C130.922 65.8132 129.825 59.5585 127.147 53.6663L122.14 55.9422L117.133 58.2181C119.035 62.402 119.821 66.8151 119.478 71.5468L124.964 71.9438ZM122.14 55.9422L127.147 53.6663C124.702 48.2865 121.732 43.205 118.242 38.4267L113.801 41.6707L109.359 44.9147C112.408 49.0888 114.998 53.5216 117.133 58.2181L122.14 55.9422ZM113.801 41.6707L118.242 38.4267C115.136 34.1739 112.371 29.7182 109.947 25.0576L105.068 27.596L100.188 30.1344C102.869 35.2878 105.927 40.2151 109.359 44.9147L113.801 41.6707ZM105.068 27.596L109.947 25.0576C106.812 19.0314 102.047 14.5874 95.814 11.8678L93.6143 16.9088L91.4146 21.9497C95.3475 23.6659 98.2179 26.3467 100.188 30.1344L105.068 27.596ZM93.6143 16.9088L95.814 11.8678C90.6024 9.59365 85.3441 7.53677 80.0392 5.69768L78.2377 10.8943L76.4361 16.0909C81.468 17.8353 86.4608 19.788 91.4146 21.9497L93.6143 16.9088ZM78.2377 10.8943L80.0392 5.69768C74.6826 3.84069 69.1996 2.2652 63.5914 0.970459L62.3542 6.3295L61.117 11.6885C66.3499 12.8966 71.4559 14.3643 76.4361 16.0909L78.2377 10.8943ZM62.3542 6.3295L63.5914 0.970459C57.2456 -0.494586 50.9031 -0.300147 44.658 1.55055L46.2207 6.82388L47.7834 12.0972C52.2085 10.7859 56.6217 10.6507 61.117 11.6885L62.3542 6.3295ZM46.2207 6.82388L44.658 1.55055C39.2473 3.15396 33.9484 4.8508 28.7615 6.64131L30.5562 11.8403L32.3509 17.0392C37.3798 15.3032 42.5239 13.6558 47.7834 12.0972L46.2207 6.82388ZM30.5562 11.8403L28.7615 6.64131C22.9884 8.63421 17.7302 11.6606 13.0095 15.6862L16.5782 19.8712L20.1469 24.0562C23.8477 20.9003 27.9082 18.5728 32.3509 17.0392L30.5562 11.8403ZM16.5782 19.8712L13.0095 15.6862C7.90453 20.0394 4.5389 25.5633 2.99582 32.1044L8.34888 33.3672L13.7019 34.63C14.7098 30.3577 16.8304 26.8843 20.1469 24.0562L16.5782 19.8712ZM8.34888 33.3672L2.99582 32.1044C1.6631 37.7537 0.725296 43.4424 0.183766 49.1687L5.65934 49.6865L11.1349 50.2043C11.6285 44.9849 12.4837 39.7941 13.7019 34.63L8.34888 33.3672ZM5.65934 49.6865L0.183766 49.1687C-0.414556 55.4955 0.44735 61.6215 2.77931 67.4709L7.88828 65.4341L12.9972 63.3973C11.3222 59.1956 10.6981 54.8231 11.1349 50.2043L5.65934 49.6865ZM7.88828 65.4341L2.77931 67.4709C5.07796 73.2367 8.49899 78.2848 13.0081 82.5719L16.7978 78.5859L20.5875 74.5999C17.2243 71.4023 14.7056 67.6826 12.9972 63.3973L7.88828 65.4341ZM16.7978 78.5859L13.0081 82.5719C17.3379 86.6885 22.2011 90.1087 27.5803 92.8272L30.0611 87.9185L32.5419 83.0098C28.109 80.7694 24.13 77.9679 20.5875 74.5999L16.7978 78.5859ZM30.0611 87.9185L27.5803 92.8272C32.0259 95.074 36.0834 97.8972 39.7635 101.307L43.5017 97.2728L47.2399 93.2384C42.8113 89.135 37.9083 85.7219 32.5419 83.0098L30.0611 87.9185ZM43.5017 97.2728L39.7635 101.307C43.8704 105.112 48.0252 108.813 52.2279 112.41L55.8039 108.231L59.3799 104.052C55.2885 100.551 51.2418 96.9466 47.2399 93.2384L43.5017 97.2728ZM55.8039 108.231L52.2279 112.41C56.6384 116.184 61.3876 119.53 66.4705 122.447L69.2083 117.677L71.946 112.907C67.4506 110.327 63.2635 107.376 59.3799 104.052L55.8039 108.231ZM69.2083 117.677L66.4705 122.447C71.1397 125.127 75.6635 127.958 80.0425 130.938L83.1374 126.392L86.2322 121.845C81.6175 118.704 76.8552 115.725 71.946 112.907L69.2083 117.677ZM83.1374 126.392L80.0425 130.938C84.1708 133.749 87.9707 137.062 91.4439 140.89L95.5175 137.195L99.5912 133.5C95.5512 129.046 91.0977 125.157 86.2322 121.845L83.1374 126.392ZM95.5175 137.195L91.4439 140.89C95.3944 145.245 99.5962 149.19 104.05 152.718L107.465 148.407L110.88 144.096C106.917 140.957 103.154 137.427 99.5912 133.5L95.5175 137.195ZM107.465 148.407L104.05 152.718C107.85 155.728 111.186 159.236 114.063 163.259L118.537 160.059L123.01 156.859C119.543 152.013 115.498 147.753 110.88 144.096L107.465 148.407ZM118.537 160.059L114.063 163.259C117.271 167.743 120.56 172.183 123.93 176.581L128.295 173.236L132.661 169.891C129.364 165.588 126.147 161.244 123.01 156.859L118.537 160.059ZM128.295 173.236L123.93 176.581C127.388 181.094 131.09 185.404 135.034 189.509L139 185.699L142.966 181.888C139.305 178.077 135.87 174.079 132.661 169.891L128.295 173.236ZM139 185.699L135.034 189.509C139.236 193.883 143.761 197.158 148.649 199.005L150.593 193.86L152.536 188.715C149.573 187.595 146.369 185.43 142.966 181.888L139 185.699ZM150.593 193.86L148.649 199.005C151.825 200.204 155.376 200.287 158.611 198.332C161.563 196.547 163.403 193.559 164.618 190.503L159.507 188.472L154.395 186.44C154.015 187.398 153.655 188.032 153.364 188.432C153.079 188.826 152.912 188.923 152.92 188.918C152.959 188.895 153.048 188.866 153.109 188.863C153.136 188.862 152.965 188.877 152.536 188.715L150.593 193.86ZM159.507 188.472L164.618 190.503C166.675 185.326 168.57 180.108 170.301 174.85L165.077 173.13L159.853 171.409C158.191 176.457 156.372 181.467 154.395 186.44L159.507 188.472ZM165.077 173.13L170.301 174.85C171.851 170.142 173.982 165.671 176.702 161.428L172.071 158.46L167.441 155.491C164.229 160.503 161.696 165.811 159.853 171.409L165.077 173.13ZM172.071 158.46L176.702 161.428C179.523 157.027 182.637 152.875 186.044 148.97L181.899 145.354L177.754 141.739C173.99 146.054 170.552 150.639 167.441 155.491L172.071 158.46ZM181.899 145.354L186.044 148.97C189.828 144.631 193.22 140.023 196.214 135.148L191.528 132.269L186.842 129.39C184.169 133.741 181.141 137.857 177.754 141.739L181.899 145.354ZM191.528 132.269L196.214 135.148C199.026 130.571 201.915 125.986 204.881 121.393L200.261 118.409L195.641 115.425C192.631 120.086 189.698 124.741 186.842 129.39L191.528 132.269ZM200.261 118.409L204.881 121.393C208.137 116.352 210.664 110.971 212.456 105.262L207.208 103.615L201.961 101.968C200.466 106.73 198.362 111.212 195.641 115.425L200.261 118.409ZM207.208 103.615L212.456 105.262C214.159 99.8343 215.555 94.3485 216.642 88.8054L211.244 87.7472L205.847 86.6889C204.839 91.8312 203.544 96.9241 201.961 101.968L207.208 103.615ZM211.244 87.7472L216.642 88.8054C217.701 83.4016 218.667 77.9898 219.539 72.5703L214.109 71.6967L208.679 70.8231C207.827 76.1187 206.883 81.4073 205.847 86.6889L211.244 87.7472ZM214.109 71.6967L219.539 72.5703C220.384 67.3169 221.389 62.0346 222.554 56.7234L217.182 55.545L211.809 54.3667C210.601 59.8758 209.557 65.3613 208.679 70.8231L214.109 71.6967ZM217.182 55.545L222.554 56.7234C223.913 50.5291 223.902 44.2937 222.531 38.073L217.16 39.257L211.789 40.4411C212.82 45.1174 212.824 49.7406 211.809 54.3667L217.182 55.545ZM217.16 39.257L222.531 38.073C221.411 32.9921 220.837 27.9282 220.803 22.8752L215.303 22.9124L209.803 22.9495C209.843 28.7924 210.507 34.6249 211.789 40.4411L217.16 39.257ZM215.303 22.9124L220.803 22.8752C220.779 19.38 220.02 16.0427 218.243 13.12C216.452 10.1724 213.843 8.00456 210.712 6.53476L208.375 11.5133L206.037 16.4918C207.489 17.1735 208.326 17.9812 208.844 18.8333C209.377 19.7103 209.79 20.9969 209.803 22.9495L215.303 22.9124ZM208.375 11.5133L210.712 6.53476C205.549 4.11028 199.971 2.57776 194.018 1.90414L193.4 7.36927L192.781 12.8344C197.631 13.3831 202.036 14.6133 206.037 16.4918L208.375 11.5133ZM193.4 7.36927L194.018 1.90414C188.071 1.23121 182.243 1.46085 176.558 2.61623L177.653 8.00606L178.748 13.3959C183.256 12.4798 187.926 12.285 192.781 12.8344L193.4 7.36927ZM177.653 8.00606L176.558 2.61623C170.814 3.78334 165.417 5.93384 160.39 9.04763L163.286 13.7233L166.183 18.3989C170.118 15.9612 174.298 14.3002 178.748 13.3959L177.653 8.00606ZM163.286 13.7233L160.39 9.04763C155.548 12.047 151.088 15.5786 147.014 19.6345L150.895 23.532L154.776 27.4296C158.262 23.9587 162.062 20.9511 166.183 18.3989L163.286 13.7233ZM150.895 23.532L147.014 19.6345C143.038 23.5939 139.367 27.8458 136.004 32.3876L140.425 35.6605L144.845 38.9335C147.883 34.8308 151.193 30.997 154.776 27.4296L150.895 23.532ZM140.425 35.6605L136.004 32.3876C132.46 37.1738 129.731 42.4093 127.824 48.074L133.037 49.8287L138.25 51.5833C139.792 47.0017 141.988 42.7917 144.845 38.9335L140.425 35.6605ZM133.037 49.8287L127.824 48.074C126.138 53.084 124.265 58.108 122.205 63.1463L127.296 65.2279L132.387 67.3096C134.532 62.0619 136.487 56.8198 138.25 51.5833L133.037 49.8287ZM127.296 65.2279L122.205 63.1463C119.808 69.0086 118.712 75.133 118.924 81.4686L124.421 81.2843L129.918 81.1C129.757 76.313 130.578 71.7333 132.387 67.3096L127.296 65.2279ZM124.421 81.2843L118.924 81.4686C119.099 86.6852 118.669 90.6994 117.814 93.6697L123.099 95.1907L128.385 96.7117C129.665 92.2627 130.116 87.006 129.918 81.1L124.421 81.2843ZM123.099 95.1907L117.814 93.6697C117.27 95.559 116.855 97.1713 116.635 98.3862C116.538 98.9257 116.408 99.7489 116.437 100.592C116.448 100.94 116.494 101.91 116.986 102.974C117.257 103.561 117.769 104.406 118.705 105.116C119.716 105.883 120.915 106.255 122.094 106.255V100.755V95.2552C123.224 95.2552 124.379 95.6135 125.352 96.3513C126.249 97.032 126.728 97.8333 126.973 98.3623C127.411 99.311 127.426 100.107 127.43 100.223C127.443 100.602 127.39 100.73 127.46 100.342C127.575 99.7021 127.861 98.5321 128.385 96.7117L123.099 95.1907ZM122.094 100.755L122.972 106.185L123.583 106.086L122.705 100.656L121.828 95.2269L121.216 95.3257L122.094 100.755ZM122.705 100.656L117.271 99.8102L117.255 99.909L122.69 100.755L128.124 101.601L128.14 101.503L122.705 100.656Z" fill="black"/>
</svg>
