<svg width="148" height="180" viewBox="0 0 148 180" fill="none" xmlns="http://www.w3.org/2000/svg">
<path d="M54.8706 104.176C55.2445 107.191 57.9913 109.331 61.0058 108.957C64.0203 108.583 66.1609 105.837 65.787 102.822L60.3288 103.499L54.8706 104.176ZM60.3165 103.4L65.7747 102.723L65.7671 102.661L65.7581 102.6L60.3165 103.4ZM44.0045 15.0836L38.8705 17.0565L44.0045 15.0836ZM6.08868 50.3353L0.666931 49.4108L6.08868 50.3353ZM6.56947 66.4507L1.21246 67.6967L6.56947 66.4507ZM31.2432 144.15L26.4888 146.916L31.2432 144.15ZM37.3214 159.32L31.9732 160.603L37.3214 159.32ZM41.1783 170.729L36.4029 173.458L36.4079 173.467L36.413 173.476L41.1783 170.729ZM43.0707 174.013L48.1819 171.982L48.0348 171.612L47.836 171.267L43.0707 174.013ZM37.9965 176.137C39.1184 178.96 42.3162 180.339 45.139 179.217C47.9618 178.095 49.3407 174.897 48.2188 172.075L43.1077 174.106L37.9965 176.137ZM60.3288 103.499L65.787 102.822L65.7747 102.723L60.3165 103.4L54.8583 104.077L54.8706 104.176L60.3288 103.499ZM60.3165 103.4L65.7581 102.6C64.1861 91.9027 63.4463 84.0923 63.4487 78.9999L57.9487 78.9973L52.4487 78.9948C52.4459 84.9193 53.2847 93.3772 54.8749 104.199L60.3165 103.4ZM57.9487 78.9973L63.4487 78.9999C63.4515 73.103 62.8343 67.2786 61.5968 61.5335L56.2201 62.6917L50.8434 63.8498C51.9159 68.8288 52.4512 73.8748 52.4487 78.9948L57.9487 78.9973ZM56.2201 62.6917L61.5968 61.5335C60.4957 56.4219 59.7547 51.2534 59.3736 46.0261L53.8882 46.426L48.4027 46.8259C48.8209 52.5621 49.6345 58.2374 50.8434 63.8498L56.2201 62.6917ZM53.8882 46.426L59.3736 46.0261C58.9314 39.96 57.5455 34.0888 55.2248 28.4328L50.1365 30.5206L45.0481 32.6083C46.9305 37.1961 48.0457 41.9285 48.4027 46.8259L53.8882 46.426ZM50.1365 30.5206L55.2248 28.4328C53.139 23.3491 51.1102 18.2417 49.1385 13.1108L44.0045 15.0836L38.8705 17.0565C40.8718 22.2644 42.931 27.4483 45.0481 32.6083L50.1365 30.5206ZM44.0045 15.0836L49.1385 13.1108C46.4637 6.15016 41.1816 1.77984 33.8342 0.55559L32.9303 5.98079L32.0263 11.406C35.4716 11.9801 37.5724 13.6783 38.8705 17.0565L44.0045 15.0836ZM32.9303 5.98079L33.8342 0.55559C27.6311 -0.478006 21.6676 -0.0868266 16.0591 1.87371L17.874 7.06564L19.6889 12.2576C23.3627 10.9733 27.4367 10.6413 32.0263 11.406L32.9303 5.98079ZM17.874 7.06564L16.0591 1.87371C12.8172 3.00694 10.0411 4.91662 8.00407 7.68763C5.99381 10.4222 4.94072 13.6702 4.57409 17.1391L10.0436 17.7172L15.5132 18.2953C15.7256 16.2855 16.2671 15.019 16.8669 14.203C17.44 13.4235 18.2895 12.7467 19.6889 12.2576L17.874 7.06564ZM10.0436 17.7172L4.57409 17.1391C3.99485 22.6197 3.42108 28.0767 2.85278 33.5101L8.32294 34.0822L13.7931 34.6544C14.361 29.225 14.9343 23.772 15.5132 18.2953L10.0436 17.7172ZM8.32294 34.0822L2.85278 33.5101C2.29707 38.8231 1.56849 44.1233 0.666931 49.4108L6.08868 50.3353L11.5104 51.2597C12.4517 45.7393 13.2126 40.2041 13.7931 34.6544L8.32294 34.0822ZM6.08868 50.3353L0.666931 49.4108C-0.377353 55.5354 -0.195069 61.6451 1.21246 67.6967L6.56947 66.4507L11.9265 65.2047C10.8501 60.5771 10.7119 55.9431 11.5104 51.2597L6.08868 50.3353ZM6.56947 66.4507L1.21246 67.6967C2.38971 72.7582 3.17083 77.8946 3.55554 83.1085L9.04063 82.7038L14.5257 82.2991C14.0994 76.5215 13.2331 70.8225 11.9265 65.2047L6.56947 66.4507ZM9.04063 82.7038L3.55554 83.1085C3.99816 89.1075 5.24699 94.9286 7.30118 100.557L12.4678 98.6715L17.6345 96.7858C15.9301 92.1156 14.8941 87.2916 14.5257 82.2991L9.04063 82.7038ZM12.4678 98.6715L7.30118 100.557C9.2743 105.963 11.6387 111.194 14.3934 116.247L19.2224 113.615L24.0514 110.982C21.5587 106.41 19.42 101.678 17.6345 96.7858L12.4678 98.6715ZM19.2224 113.615L14.3934 116.247C16.7853 120.635 18.5811 125.289 19.7811 130.223L25.1253 128.924L30.4696 127.624C29.0464 121.772 26.9071 116.22 24.0514 110.982L19.2224 113.615ZM25.1253 128.924L19.7811 130.223C21.2166 136.127 23.4534 141.696 26.4888 146.916L31.2432 144.15L35.9976 141.385C33.4989 137.089 31.6571 132.508 30.4696 127.624L25.1253 128.924ZM31.2432 144.15L26.4888 146.916C28.9868 151.211 30.8129 155.768 31.9732 160.603L37.3214 159.32L42.6696 158.037C41.2598 152.162 39.0338 146.606 35.9976 141.385L31.2432 144.15ZM37.3214 159.32L31.9732 160.603C33.2751 166.029 34.7036 170.484 36.4029 173.458L41.1783 170.729L45.9537 168.001C45.0805 166.473 43.9377 163.321 42.6696 158.037L37.3214 159.32ZM41.1783 170.729L36.413 173.476L38.3055 176.759L43.0707 174.013L47.836 171.267L45.9435 167.983L41.1783 170.729ZM43.0707 174.013L37.9596 176.044L37.9965 176.137L43.1077 174.106L48.2188 172.075L48.1819 171.982L43.0707 174.013Z" fill="black"/>
<path d="M57.0587 96.0246C55.784 98.7818 56.9857 102.05 59.7429 103.325C62.5001 104.6 65.7685 103.398 67.0433 100.641L62.051 98.3327L57.0587 96.0246ZM62.093 98.2419L57.2944 95.5542L57.1902 95.7403L57.1007 95.9338L62.093 98.2419ZM133.531 36.114L130.881 40.9336L133.531 36.114ZM137.987 63.8894L142.656 66.7965L137.987 63.8894ZM128.615 77.6188L124.211 74.324L128.615 77.6188ZM108.256 103.134L105.043 98.6696L108.256 103.134ZM85.7391 126.965L89.6265 130.856L85.7391 126.965ZM74.741 139.116L78.9986 142.598L74.741 139.116ZM49.5506 168.45L54.4447 170.96L49.5506 168.45ZM56.8575 160.923L60.4565 165.082L56.8575 160.923ZM65.1357 154.5L62.6737 149.582L62.6568 149.591L62.6399 149.599L65.1357 154.5ZM67.1363 153.499L69.5983 158.417L69.9963 158.218L70.3572 157.957L67.1363 153.499ZM70.4382 157.899C72.9004 156.12 73.4544 152.682 71.6756 150.22C69.8967 147.757 66.4587 147.203 63.9964 148.982L67.2173 153.44L70.4382 157.899ZM62.051 98.3327L67.0433 100.641L67.0852 100.55L62.093 98.2419L57.1007 95.9338L57.0587 96.0246L62.051 98.3327ZM62.093 98.2419L66.8915 100.93C72.2751 91.3181 75.9221 83.3676 77.4924 77.2796L72.1667 75.906L66.841 74.5323C65.638 79.1966 62.5692 86.1368 57.2944 95.5542L62.093 98.2419ZM72.1667 75.906L77.4924 77.2796C78.7929 72.2377 80.5413 67.4079 82.7365 62.7847L77.7682 60.4256L72.7998 58.0665C70.2998 63.3315 68.3139 68.8219 66.841 74.5323L72.1667 75.906ZM77.7682 60.4256L82.7365 62.7847C84.7201 58.6074 87.5918 54.9507 91.4301 51.7984L87.9394 47.5481L84.4487 43.2978C79.4206 47.4273 75.5115 52.3556 72.7998 58.0665L77.7682 60.4256ZM87.9394 47.5481L91.4301 51.7984C95.2141 48.6906 99.357 46.6727 103.907 45.6759L102.73 40.3033L101.553 34.9307C95.2488 36.3118 89.531 39.1237 84.4487 43.2978L87.9394 47.5481ZM102.73 40.3033L103.907 45.6759C109.659 44.4158 115.247 42.6485 120.666 40.3748L118.538 35.3032L116.41 30.2315C111.607 32.2467 106.656 33.8129 101.553 34.9307L102.73 40.3033ZM118.538 35.3032L120.666 40.3748C124.22 38.8839 127.458 39.052 130.881 40.9336L133.531 36.114L136.18 31.2944C129.835 27.806 123.079 27.4335 116.41 30.2315L118.538 35.3032ZM133.531 36.114L130.881 40.9336C134.178 42.7464 135.821 45.2494 136.178 48.9586L141.653 48.4328L147.127 47.907C146.422 40.5613 142.651 34.8518 136.18 31.2944L133.531 36.114ZM141.653 48.4328L136.178 48.9586C136.591 53.2671 135.664 57.2154 133.318 60.9823L137.987 63.8894L142.656 66.7965C146.259 61.0096 147.775 54.6535 147.127 47.907L141.653 48.4328ZM137.987 63.8894L133.318 60.9823C130.424 65.6303 127.388 70.0771 124.211 74.324L128.615 77.6188L133.019 80.9135C136.389 76.4085 139.602 71.7025 142.656 66.7965L137.987 63.8894ZM128.615 77.6188L124.211 74.324C120.837 78.8335 117.663 83.5038 114.687 88.3342L119.37 91.2188L124.053 94.1035C126.856 89.5524 129.845 85.156 133.019 80.9135L128.615 77.6188ZM119.37 91.2188L114.687 88.3342C112.183 92.3997 108.98 95.8366 105.043 98.6696L108.256 103.134L111.468 107.598C116.571 103.926 120.778 99.4195 124.053 94.1035L119.37 91.2188ZM108.256 103.134L105.043 98.6696C100.082 102.24 95.7675 106.445 92.1189 111.276L96.5079 114.591L100.897 117.905C103.872 113.966 107.39 110.533 111.468 107.598L108.256 103.134ZM96.5079 114.591L92.1189 111.276C88.9599 115.459 85.5378 119.391 81.8518 123.074L85.7391 126.965L89.6265 130.856C93.6752 126.811 97.4323 122.493 100.897 117.905L96.5079 114.591ZM85.7391 126.965L81.8518 123.074C77.854 127.068 74.0645 131.255 70.4834 135.634L74.741 139.116L78.9986 142.598C82.347 138.503 85.8894 134.589 89.6265 130.856L85.7391 126.965ZM74.741 139.116L70.4834 135.634C67.1135 139.755 63.5887 143.722 59.909 147.536L63.8671 151.355L67.8252 155.174C71.7146 151.143 75.4391 146.95 78.9986 142.598L74.741 139.116ZM63.8671 151.355L59.909 147.536C55.947 151.642 52.2675 156.027 48.8706 160.687L53.3153 163.927L57.7599 167.167C60.863 162.909 64.218 158.912 67.8252 155.174L63.8671 151.355ZM53.3153 163.927L48.8706 160.687C47.2333 162.934 46.2067 164.286 45.7093 164.883C45.5847 165.033 45.5719 165.04 45.6355 164.975C45.6579 164.952 45.801 164.805 46.0281 164.626C46.1406 164.537 46.3688 164.363 46.6873 164.183C46.9276 164.047 47.6524 163.651 48.6885 163.522C49.9187 163.368 51.9631 163.598 53.499 165.362C54.7406 166.787 54.8317 168.337 54.8431 168.821C54.8676 169.855 54.5727 170.627 54.5704 170.633C54.4632 170.947 54.3666 171.112 54.4447 170.96L49.5506 168.45L44.6566 165.94C44.5496 166.149 44.3303 166.583 44.1627 167.073C44.1302 167.167 43.8208 168.004 43.8462 169.081C43.8581 169.585 43.9536 171.15 45.2035 172.586C46.7478 174.359 48.8044 174.592 50.0506 174.437C51.1028 174.306 51.8476 173.902 52.1118 173.752C52.4541 173.558 52.7101 173.366 52.8542 173.251C53.1447 173.022 53.3667 172.802 53.4836 172.683C53.7363 172.425 53.9748 172.147 54.1639 171.92C54.9215 171.01 56.1473 169.379 57.7599 167.167L53.3153 163.927ZM49.5506 168.45L54.4447 170.96C54.415 171.017 54.7068 170.524 55.8789 169.316C56.9423 168.221 58.4527 166.816 60.4565 165.082L56.8575 160.923L53.2585 156.764C51.1313 158.604 49.3583 160.241 47.986 161.655C46.7225 162.956 45.4264 164.439 44.6566 165.94L49.5506 168.45ZM56.8575 160.923L60.4565 165.082C62.4841 163.327 64.1249 161.968 65.3966 160.982C66.7541 159.929 67.4387 159.5 67.6315 159.402L65.1357 154.5L62.6399 149.599C61.445 150.208 60.056 151.203 58.6541 152.29C57.1664 153.444 55.362 154.943 53.2585 156.764L56.8575 160.923ZM65.1357 154.5L67.5977 159.419L69.5983 158.417L67.1363 153.499L64.6743 148.581L62.6737 149.582L65.1357 154.5ZM67.1363 153.499L70.3572 157.957L70.4382 157.899L67.2173 153.44L63.9964 148.982L63.9154 149.041L67.1363 153.499Z" fill="black"/>
</svg>
