<svg width="140" height="211" viewBox="0 0 140 211" fill="none" xmlns="http://www.w3.org/2000/svg">
<path d="M15.089 199.627C15.8648 201.397 17.9289 202.204 19.6994 201.428C21.4699 200.652 22.2762 198.588 21.5004 196.818L18.2947 198.222L15.089 199.627ZM18.2546 198.131L21.4603 196.726L21.4231 196.641L21.3814 196.558L18.2546 198.131ZM11.5495 184.112L8.33516 185.497L11.5495 184.112ZM7.24002 174.552L4.07326 176.042L7.24002 174.552ZM5.65607 123.101L9.00982 124.102L5.65607 123.101ZM32.2356 78.7059L35.2425 80.4972V80.4972L32.2356 78.7059ZM38.7877 70.6826L36.4322 68.0939L38.7877 70.6826ZM46.5853 63.7241L44.2803 61.0903V61.0903L46.5853 63.7241ZM79.5778 38.8286L81.0806 41.9896L79.5778 38.8286ZM116.504 5.80685L113.416 4.15848L116.504 5.80685ZM117.983 3.51112L120.884 1.55232L120.431 0.882295L119.731 0.478612L117.983 3.51112ZM118.106 3.69319L115.206 5.65199L117.561 9.14017L120.561 6.18773L118.106 3.69319ZM120.633 6.11759C122.01 4.7617 122.028 2.5457 120.672 1.168C119.316 -0.209698 117.1 -0.227381 115.722 1.1285L118.177 3.62305L120.633 6.11759ZM18.2947 198.222L21.5004 196.818L21.4603 196.726L18.2546 198.131L15.0488 199.535L15.089 199.627L18.2947 198.222ZM18.2546 198.131L21.3814 196.558C18.2942 190.42 16.0971 185.822 14.7638 182.727L11.5495 184.112L8.33516 185.497C9.75313 188.788 12.0261 193.536 15.1277 199.703L18.2546 198.131ZM11.5495 184.112L14.7638 182.727C13.3727 179.499 11.9203 176.277 10.4068 173.061L7.24002 174.552L4.07326 176.042C5.55432 179.189 6.97494 182.341 8.33516 185.497L11.5495 184.112ZM7.24002 174.552L10.4068 173.061C9.1314 170.352 8.49214 167.489 8.48957 164.435L4.98957 164.438L1.48957 164.441C1.493 168.51 2.35404 172.39 4.07326 176.042L7.24002 174.552ZM4.98957 164.438L8.48957 164.435C8.48646 160.739 8.27022 157.118 7.83898 153.572L4.36458 153.995L0.890189 154.418C1.28626 157.674 1.48669 161.015 1.48957 164.441L4.98957 164.438ZM4.36458 153.995L7.83898 153.572C7.43742 150.271 7.17669 146.946 7.05695 143.598L3.55919 143.723L0.0614221 143.848C0.188228 147.394 0.464433 150.917 0.890189 154.418L4.36458 153.995ZM3.55919 143.723L7.05695 143.598C6.93835 140.281 7.00486 136.947 7.25698 133.596L3.76684 133.333L0.276705 133.071C0.00540209 136.677 -0.0665259 140.27 0.0614221 143.848L3.55919 143.723ZM3.76684 133.333L7.25698 133.596C7.49986 130.367 8.08389 127.204 9.00982 124.102L5.65607 123.101L2.30232 122.1C1.2327 125.683 0.557248 129.341 0.276705 133.071L3.76684 133.333ZM5.65607 123.101L9.00982 124.102C9.96153 120.914 11.1257 117.814 12.5024 114.801L9.31896 113.346L6.13549 111.892C4.62393 115.2 3.34615 118.603 2.30232 122.1L5.65607 123.101ZM9.31896 113.346L12.5024 114.801C13.8695 111.809 15.4583 108.957 17.2692 106.245L14.3582 104.301L11.4472 102.358C9.42739 105.384 7.65671 108.562 6.13549 111.892L9.31896 113.346ZM14.3582 104.301L17.2692 106.245C19.2738 103.242 21.0816 100.086 22.6929 96.7808L19.5468 95.2472L16.4007 93.7136C14.9245 96.7418 13.2732 99.6227 11.4472 102.358L14.3582 104.301ZM19.5468 95.2472L22.6929 96.7808C24.0523 93.9921 25.8556 91.5346 28.1157 89.3927L25.7081 86.8523L23.3006 84.3119C20.433 87.0295 18.1288 90.1686 16.4007 93.7136L19.5468 95.2472ZM25.7081 86.8523L28.1157 89.3927C30.9101 86.7444 33.2884 83.7775 35.2425 80.4972L32.2356 78.7059L29.2287 76.9147C27.6072 79.6367 25.6338 82.1007 23.3006 84.3119L25.7081 86.8523ZM32.2356 78.7059L35.2425 80.4972C36.854 77.7921 38.8186 75.3865 41.1432 73.2714L38.7877 70.6826L36.4322 68.0939C33.5964 70.6742 31.1929 73.6174 29.2287 76.9147L32.2356 78.7059ZM38.7877 70.6826L41.1432 73.2714C43.7067 70.9389 46.2891 68.6344 48.8903 66.3579L46.5853 63.7241L44.2803 61.0903C41.6451 63.3965 39.0291 65.731 36.4322 68.0939L38.7877 70.6826ZM46.5853 63.7241L48.8903 66.3579C51.5347 64.0437 54.1431 61.6913 56.7155 59.3008L54.333 56.737L51.9504 54.1731C49.429 56.5161 46.8724 58.8219 44.2803 61.0903L46.5853 63.7241ZM54.333 56.737L56.7155 59.3008C59.246 56.9493 61.7876 54.6327 64.3402 52.351L62.0078 49.7415L59.6753 47.132C57.0886 49.444 54.5137 51.7911 51.9504 54.1731L54.333 56.737ZM62.0078 49.7415L64.3402 52.351C66.7325 50.2128 69.3202 48.3351 72.1068 46.7162L70.3485 43.6899L68.5903 40.6635C65.3952 42.5198 62.4224 44.6766 59.6753 47.132L62.0078 49.7415ZM70.3485 43.6899L72.1068 46.7162C75.0133 45.0276 78.0045 43.452 81.0806 41.9896L79.5778 38.8286L78.0751 35.6676C74.8271 37.2117 71.6654 38.877 68.5903 40.6635L70.3485 43.6899ZM79.5778 38.8286L81.0806 41.9896C84.5743 40.3286 87.7476 38.1569 90.5921 35.4852L88.1959 32.934L85.7997 30.3829C83.4775 32.5641 80.9054 34.322 78.0751 35.6676L79.5778 38.8286ZM88.1959 32.934L90.5921 35.4852C93.2455 32.9929 95.7787 30.408 98.1912 27.7306L95.591 25.3877L92.9908 23.0448C90.7099 25.5763 88.313 28.0223 85.7997 30.3829L88.1959 32.934ZM95.591 25.3877L98.1912 27.7306C100.343 25.342 102.753 23.2583 105.425 21.475L103.482 18.5638L101.539 15.6526C98.3832 17.7589 95.532 20.2245 92.9908 23.0448L95.591 25.3877ZM103.482 18.5638L105.425 21.475C108.534 19.4002 111.401 17.0393 114.022 14.3942L111.536 11.9305L109.05 9.46694C106.761 11.7765 104.259 13.8378 101.539 15.6526L103.482 18.5638ZM111.536 11.9305L114.022 14.3942C116.539 11.8537 118.488 9.52086 119.591 7.45522L116.504 5.80685L113.416 4.15848C112.805 5.30305 111.442 7.0527 109.05 9.46694L111.536 11.9305ZM116.504 5.80685L119.591 7.45522C120.01 6.67144 120.292 6.18249 120.458 5.92518C120.557 5.77245 120.534 5.82671 120.417 5.95637C120.38 5.99747 120.148 6.25999 119.749 6.50509C119.543 6.63182 119.13 6.85527 118.553 6.95542C117.916 7.06597 117.065 7.02148 116.236 6.54362L117.983 3.51112L119.731 0.478612C117.961 -0.541121 116.383 0.357653 116.086 0.539912C115.632 0.818856 115.333 1.14146 115.219 1.26889C114.946 1.5712 114.722 1.90309 114.574 2.13299C114.247 2.64092 113.855 3.33714 113.416 4.15848L116.504 5.80685ZM117.983 3.51112L115.083 5.46992L115.206 5.65199L118.106 3.69319L121.007 1.73439L120.884 1.55232L117.983 3.51112ZM118.106 3.69319L120.561 6.18773L120.633 6.11759L118.177 3.62305L115.722 1.1285L115.651 1.19865L118.106 3.69319Z" fill="black"/>
<path d="M31.7586 203.347C29.8334 203.52 28.4128 205.22 28.5857 207.146C28.7586 209.071 30.4594 210.491 32.3847 210.319L32.0717 206.833L31.7586 203.347ZM32.1713 206.824L32.2898 203.326L32.0736 203.318L31.8582 203.338L32.1713 206.824ZM47.6909 205.902L46.8457 202.506L47.6909 205.902ZM57.9442 203.827L58.4839 207.285L57.9442 203.827ZM68.3077 202.569L68.0036 199.083L68.3077 202.569ZM78.499 200.385L77.348 197.08L78.499 200.385ZM87.6945 195.501L85.6028 192.695L87.6945 195.501ZM96.9805 190.589L98.13 193.895L96.9805 190.589ZM105.479 184.732L102.8 182.479L105.479 184.732ZM113.193 177.629L115.207 180.492L113.193 177.629ZM120.945 170.694L118.326 168.373L120.945 170.694ZM131.261 152.569L134.126 154.579V154.579L131.261 152.569ZM134.993 142.929L138.464 143.374L134.993 142.929ZM135.675 121.996L132.234 122.641L135.675 121.996ZM134.071 90.6855L130.618 91.2591L134.071 90.6855ZM127.333 70.9518L130.736 70.1331L127.333 70.9518ZM122.391 50.6662L119.104 51.8686L122.391 50.6662ZM120.125 40.5327L123.611 40.2228L120.125 40.5327ZM118.795 13.3985L121.887 11.7595L121.86 11.7081L121.831 11.6577L118.795 13.3985ZM118.184 12.3332L114.692 12.5697L114.747 13.3743L115.148 14.0739L118.184 12.3332ZM121.669 11.9969C121.539 10.0683 119.87 8.61078 117.941 8.7414C116.012 8.87202 114.555 10.5413 114.686 12.4699L118.177 12.2334L121.669 11.9969ZM32.0717 206.833L32.3847 210.319L32.4843 210.31L32.1713 206.824L31.8582 203.338L31.7586 203.347L32.0717 206.833ZM32.1713 206.824L32.0527 210.322C39.0599 210.559 44.633 210.27 48.536 209.298L47.6909 205.902L46.8457 202.506C43.922 203.233 39.1487 203.558 32.2898 203.326L32.1713 206.824ZM47.6909 205.902L48.536 209.298C51.8501 208.474 55.166 207.803 58.4839 207.285L57.9442 203.827L57.4045 200.369C53.878 200.919 50.3583 201.631 46.8457 202.506L47.6909 205.902ZM57.9442 203.827L58.4839 207.285C61.8271 206.763 65.2031 206.353 68.6119 206.056L68.3077 202.569L68.0036 199.083C64.4388 199.393 60.9057 199.822 57.4045 200.369L57.9442 203.827ZM68.3077 202.569L68.6119 206.056C72.3876 205.727 76.0692 204.938 79.6501 203.691L78.499 200.385L77.348 197.08C74.3141 198.137 71.2015 198.804 68.0036 199.083L68.3077 202.569ZM78.499 200.385L79.6501 203.691C83.2965 202.421 86.6786 200.624 89.7862 198.308L87.6945 195.501L85.6028 192.695C83.0646 194.587 80.3164 196.046 77.348 197.08L78.499 200.385ZM87.6945 195.501L89.7862 198.308C92.3187 196.42 95.0957 194.95 98.13 193.895L96.9805 190.589L95.831 187.283C92.1299 188.57 88.7161 190.375 85.6028 192.695L87.6945 195.501ZM96.9805 190.589L98.13 193.895C102.094 192.516 105.455 190.199 108.158 186.984L105.479 184.732L102.8 182.479C100.907 184.731 98.6023 186.319 95.831 187.283L96.9805 190.589ZM105.479 184.732L108.158 186.984C110.267 184.475 112.616 182.315 115.207 180.492L113.193 177.629L111.18 174.767C108.081 176.946 105.287 179.521 102.8 182.479L105.479 184.732ZM113.193 177.629L115.207 180.492C118.276 178.334 121.063 175.839 123.565 173.015L120.945 170.694L118.326 168.373C116.181 170.794 113.8 172.923 111.18 174.767L113.193 177.629ZM120.945 170.694L123.565 173.015C126.167 170.078 128.177 166.765 129.586 163.096L126.318 161.842L123.051 160.588C121.942 163.476 120.37 166.065 118.326 168.373L120.945 170.694ZM126.318 161.842L129.586 163.096C130.74 160.088 132.252 157.25 134.126 154.579L131.261 152.569L128.395 150.559C126.196 153.695 124.413 157.04 123.051 160.588L126.318 161.842ZM131.261 152.569L134.126 154.579C136.489 151.21 137.941 147.459 138.464 143.374L134.993 142.929L131.521 142.484C131.142 145.445 130.105 148.121 128.395 150.559L131.261 152.569ZM134.993 142.929L138.464 143.374C138.921 139.812 139.314 136.269 139.644 132.745L136.159 132.419L132.674 132.092C132.352 135.536 131.968 139 131.521 142.484L134.993 142.929ZM136.159 132.419L139.644 132.745C140 128.934 139.823 125.134 139.115 121.352L135.675 121.996L132.234 122.641C132.824 125.788 132.97 128.935 132.674 132.092L136.159 132.419ZM135.675 121.996L139.115 121.352C138.525 118.204 138.376 115.045 138.666 111.865L135.18 111.547L131.695 111.229C131.346 115.053 131.526 118.86 132.234 122.641L135.675 121.996ZM135.18 111.547L138.666 111.865C139.002 108.178 139.043 104.503 138.788 100.84L135.296 101.084L131.805 101.327C132.034 104.612 131.997 107.912 131.695 111.229L135.18 111.547ZM135.296 101.084L138.788 100.84C138.538 97.2555 138.116 93.6793 137.523 90.112L134.071 90.6855L130.618 91.2591C131.175 94.6093 131.57 97.9653 131.805 101.327L135.296 101.084ZM134.071 90.6855L137.523 90.112C136.893 86.3155 135.725 82.685 134.025 79.231L130.885 80.7769L127.745 82.3228C129.143 85.1629 130.1 88.1382 130.618 91.2591L134.071 90.6855ZM130.885 80.7769L134.025 79.231C132.59 76.3154 131.494 73.2842 130.736 70.1331L127.333 70.9518L123.93 71.7704C124.809 75.4254 126.082 78.9444 127.745 82.3228L130.885 80.7769ZM127.333 70.9518L130.736 70.1331C129.931 66.7884 129.216 63.4375 128.59 60.0804L125.149 60.7216L121.709 61.3629C122.357 64.8398 123.097 68.309 123.93 71.7704L127.333 70.9518ZM125.149 60.7216L128.59 60.0804C127.918 56.4711 126.946 52.9317 125.678 49.4639L122.391 50.6662L119.104 51.8686C120.24 54.974 121.108 58.1382 121.709 61.3629L125.149 60.7216ZM122.391 50.6662L125.678 49.4639C124.58 46.4634 123.892 43.3855 123.611 40.2228L120.125 40.5327L116.639 40.8426C116.974 44.6181 117.797 48.2959 119.104 51.8686L122.391 50.6662ZM120.125 40.5327L123.611 40.2228C123.297 36.691 122.888 33.1723 122.385 29.6668L118.92 30.1646L115.456 30.6624C115.942 34.0429 116.336 37.4363 116.639 40.8426L120.125 40.5327ZM118.92 30.1646L122.385 29.6668C121.934 26.5271 121.895 23.3717 122.271 20.1928L118.795 19.7818L115.32 19.3708C114.873 23.1496 114.918 26.916 115.456 30.6624L118.92 30.1646ZM118.795 19.7818L122.271 20.1928C122.484 18.3919 122.604 16.837 122.604 15.5766C122.604 14.9466 122.574 14.3233 122.492 13.743C122.416 13.2099 122.265 12.4721 121.887 11.7595L118.795 13.3985L115.702 15.0375C115.531 14.7132 115.534 14.5327 115.561 14.7256C115.582 14.8715 115.604 15.1432 115.604 15.5771C115.604 16.4444 115.518 17.6928 115.32 19.3708L118.795 19.7818ZM118.795 13.3985L121.831 11.6577L121.221 10.5924L118.184 12.3332L115.148 14.0739L115.759 15.1392L118.795 13.3985ZM118.184 12.3332L121.676 12.0967L121.669 11.9969L118.177 12.2334L114.686 12.4699L114.692 12.5697L118.184 12.3332Z" fill="black"/>
<path d="M29.5315 169.982C28.2017 171.385 28.2609 173.601 29.6638 174.93C31.0667 176.26 33.282 176.201 34.6118 174.798L32.0717 172.39L29.5315 169.982ZM32.1405 172.318L34.6806 174.725L34.7749 174.626L34.8611 174.519L32.1405 172.318ZM50.8264 154.235L48.3427 151.769L50.8264 154.235ZM57.7409 146.413L54.989 144.25L57.7409 146.413ZM69.8535 129.511L73.1602 130.658L69.8535 129.511ZM74.4701 120.104L71.5439 118.183L74.4701 120.104ZM78.8634 110.7L82.2132 111.715L78.8634 110.7ZM83.1747 101.176L80.2005 99.3306L83.1747 101.176ZM92.3304 63.2517L95.8303 63.2154L92.3304 63.2517ZM92.3236 60.4526L95.8164 60.2287L95.6064 56.9526H92.3236V60.4526ZM92.3299 60.5514L88.8371 60.7753L95.7857 61.1057L92.3299 60.5514ZM95.8016 61.0069C96.1077 59.0983 94.8086 57.3029 92.9 56.9968C90.9914 56.6907 89.196 57.9897 88.8899 59.8983L92.3457 60.4526L95.8016 61.0069ZM32.0717 172.39L34.6118 174.798L34.6806 174.725L32.1405 172.318L29.6003 169.91L29.5315 169.982L32.0717 172.39ZM32.1405 172.318L34.8611 174.519C39.1681 169.198 42.5338 165.738 44.9974 163.904L42.9074 161.097L40.8174 158.289C37.6262 160.665 33.8139 164.686 29.4198 170.116L32.1405 172.318ZM42.9074 161.097L44.9974 163.904C47.9626 161.697 50.7341 159.296 53.3101 156.701L50.8264 154.235L48.3427 151.769C46.015 154.114 43.5072 156.287 40.8174 158.289L42.9074 161.097ZM50.8264 154.235L53.3101 156.701C55.8575 154.136 58.2518 151.427 60.4928 148.575L57.7409 146.413L54.989 144.25C52.9144 146.89 50.6991 149.396 48.3427 151.769L50.8264 154.235ZM57.7409 146.413L60.4928 148.575C62.5943 145.901 64.8027 143.306 67.1183 140.789L64.5425 138.419L61.9667 136.049C59.5291 138.699 57.2031 141.433 54.989 144.25L57.7409 146.413ZM64.5425 138.419L67.1183 140.789C69.8237 137.848 71.8408 134.461 73.1602 130.658L69.8535 129.511L66.5468 128.364C65.5382 131.271 64.0146 133.824 61.9667 136.049L64.5425 138.419ZM69.8535 129.511L73.1602 130.658C74.2315 127.57 75.6437 124.694 77.3962 122.024L74.4701 120.104L71.5439 118.183C69.4692 121.345 67.8036 124.741 66.5468 128.364L69.8535 129.511ZM74.4701 120.104L77.3962 122.024C79.4945 118.826 81.1013 115.387 82.2132 111.715L78.8634 110.7L75.5136 109.686C74.595 112.72 73.2729 115.549 71.5439 118.183L74.4701 120.104ZM78.8634 110.7L82.2132 111.715C83.1394 108.656 84.4498 105.76 86.149 103.021L83.1747 101.176L80.2005 99.3306C78.1817 102.585 76.6178 106.039 75.5136 109.686L78.8634 110.7ZM83.1747 101.176L86.149 103.021C88.204 99.7077 89.6819 96.167 90.5723 92.4102L87.1666 91.603L83.761 90.7958C83.0469 93.8086 81.8636 96.6496 80.2005 99.3306L83.1747 101.176ZM87.1666 91.603L90.5723 92.4102C91.3678 89.0537 92.2054 85.7056 93.0851 82.3661L89.7005 81.4746L86.316 80.5831C85.4216 83.9786 84.5699 87.3828 83.761 90.7958L87.1666 91.603ZM89.7005 81.4746L93.0851 82.3661C94.0108 78.8515 94.7048 75.2897 95.1669 71.6817L91.6953 71.2371L88.2236 70.7924C87.8001 74.0994 87.1643 77.3626 86.316 80.5831L89.7005 81.4746ZM91.6953 71.2371L95.1669 71.6817C95.6159 68.1762 95.8521 65.3251 95.8303 63.2154L92.3304 63.2517L88.8306 63.288C88.8475 64.9105 88.6603 67.3829 88.2236 70.7924L91.6953 71.2371ZM92.3304 63.2517L95.8303 63.2154C95.8206 62.2844 95.8153 61.596 95.8142 61.1438C95.8136 60.9147 95.8142 60.7623 95.8154 60.6744C95.8161 60.6243 95.8166 60.6257 95.8153 60.6539C95.8152 60.656 95.8121 60.7347 95.8006 60.8408C95.7972 60.8722 95.7796 61.0426 95.7293 61.2565C95.711 61.3346 95.6405 61.6358 95.4677 61.9897C95.3848 62.1593 95.1848 62.5392 94.8038 62.922C94.4091 63.3185 93.5697 63.9526 92.3236 63.9526V60.4526V56.9526C91.0772 56.9526 90.2376 57.5869 89.8427 57.9836C89.4614 58.3667 89.2612 58.7469 89.1781 58.9169C89.0048 59.2717 88.934 59.5743 88.9152 59.6543C88.864 59.8718 88.8456 60.0477 88.8414 60.0863C88.8283 60.207 88.8238 60.3075 88.8224 60.3388C88.8185 60.4253 88.8169 60.5142 88.816 60.5807C88.8141 60.7261 88.8136 60.9236 88.8142 61.161C88.8154 61.6419 88.8209 62.3529 88.8306 63.288L92.3304 63.2517ZM92.3236 60.4526L88.8307 60.6766L88.8371 60.7753L92.3299 60.5514L95.8227 60.3274L95.8164 60.2287L92.3236 60.4526ZM92.3299 60.5514L95.7857 61.1057L95.8016 61.0069L92.3457 60.4526L88.8899 59.8983L88.8741 59.9971L92.3299 60.5514Z" fill="black"/>
<path d="M60.4646 155.226C58.5941 155.714 57.4731 157.626 57.9608 159.496C58.4485 161.367 60.3601 162.488 62.2306 162L61.3476 158.613L60.4646 155.226ZM61.4444 158.588L60.8762 155.134L60.7173 155.16L60.5614 155.201L61.4444 158.588ZM76.7078 155.769L75.9387 152.354L76.7078 155.769ZM86.5996 152.526L85.2009 149.318L86.5996 152.526ZM102.839 141.154L101.043 138.15L102.839 141.154ZM106.297 138.465L109.614 137.348L109.511 137.044L109.355 136.763L106.297 138.465ZM106.041 138.005L104.024 135.145L101.453 136.959L102.983 139.708L106.041 138.005ZM108.14 140.808C109.72 139.694 110.097 137.51 108.983 135.93C107.869 134.351 105.685 133.973 104.105 135.088L106.123 137.948L108.14 140.808ZM61.3476 158.613L62.2306 162L62.3273 161.975L61.4444 158.588L60.5614 155.201L60.4646 155.226L61.3476 158.613ZM61.4444 158.588L62.0125 162.042C68.8178 160.922 73.9877 159.969 77.4768 159.183L76.7078 155.769L75.9387 152.354C72.6561 153.094 67.6503 154.02 60.8762 155.134L61.4444 158.588ZM76.7078 155.769L77.4768 159.183C81.0805 158.371 84.5885 157.221 87.9983 155.735L86.5996 152.526L85.2009 149.318C82.1934 150.629 79.1069 151.641 75.9387 152.354L76.7078 155.769ZM86.5996 152.526L87.9983 155.735C91.56 154.182 94.7869 152.088 97.6671 149.464L95.3096 146.877L92.9521 144.29C90.6363 146.4 88.0566 148.073 85.2009 149.318L86.5996 152.526ZM95.3096 146.877L97.6671 149.464C100.133 147.217 102.456 145.461 104.635 144.158L102.839 141.154L101.043 138.15C98.3789 139.742 95.6827 141.801 92.9521 144.29L95.3096 146.877ZM102.839 141.154L104.635 144.158C105.877 143.415 106.919 142.741 107.668 142.159C108.023 141.883 108.463 141.513 108.832 141.071C109.014 140.853 109.299 140.478 109.512 139.966C109.723 139.46 109.997 138.485 109.614 137.348L106.297 138.465L102.98 139.582C102.626 138.531 102.889 137.66 103.05 137.274C103.213 136.883 103.408 136.646 103.46 136.584C103.57 136.452 103.592 136.461 103.371 136.633C102.967 136.947 102.222 137.445 101.043 138.15L102.839 141.154ZM106.297 138.465L109.355 136.763L109.099 136.303L106.041 138.005L102.983 139.708L103.239 140.167L106.297 138.465ZM106.041 138.005L108.058 140.866L108.14 140.808L106.123 137.948L104.105 135.088L104.024 135.145L106.041 138.005Z" fill="black"/>
<path d="M98.9492 114.415C97.3656 115.524 96.9805 117.706 98.089 119.289C99.1975 120.873 101.38 121.258 102.963 120.15L100.956 117.282L98.9492 114.415ZM101.038 117.225L103.045 120.092L103.202 119.983L103.345 119.857L101.038 117.225ZM118.363 105.45L121.054 103.212L120.689 102.774L120.204 102.474L118.363 105.45ZM118.096 105.285L116.088 102.418L111.735 105.465L116.254 108.261L118.096 105.285ZM120.185 108.095C121.768 106.986 122.153 104.804 121.045 103.22C119.936 101.637 117.754 101.252 116.17 102.36L118.177 105.228L120.185 108.095ZM100.956 117.282L102.963 120.15L103.045 120.092L101.038 117.225L99.0311 114.358L98.9492 114.415L100.956 117.282ZM101.038 117.225L103.345 119.857C107.529 116.191 110.652 113.644 112.765 112.146L110.74 109.291L108.715 106.436C106.298 108.15 102.953 110.893 98.7314 114.593L101.038 117.225ZM110.74 109.291L112.765 112.146C114.923 110.615 116.392 109.892 117.268 109.653L116.342 106.277L115.417 102.901C113.353 103.467 111.086 104.754 108.715 106.436L110.74 109.291ZM116.342 106.277L117.268 109.653C118.025 109.445 118.732 109.23 119.276 109.007C119.49 108.92 119.979 108.714 120.443 108.357C120.636 108.208 121.235 107.731 121.598 106.869C121.805 106.376 121.948 105.722 121.84 104.977C121.732 104.23 121.406 103.636 121.054 103.212L118.363 105.45L115.672 107.688C115.335 107.283 115.018 106.708 114.913 105.981C114.808 105.258 114.948 104.625 115.145 104.155C115.489 103.338 116.044 102.909 116.169 102.813C116.495 102.562 116.747 102.479 116.624 102.529C116.495 102.582 116.13 102.706 115.417 102.901L116.342 106.277ZM118.363 105.45L120.204 102.474L119.937 102.309L118.096 105.285L116.254 108.261L116.521 108.426L118.363 105.45ZM118.096 105.285L120.103 108.152L120.185 108.095L118.177 105.228L116.17 102.36L116.088 102.418L118.096 105.285Z" fill="black"/>
<path d="M47.626 100.118C47.6573 98.1856 46.1159 96.5933 44.1832 96.562C42.2505 96.5306 40.6582 98.072 40.6269 100.005L44.1264 100.062L47.626 100.118ZM44.1248 100.162L47.5424 100.916L47.6186 100.571L47.6243 100.218L44.1248 100.162ZM43.9317 131.088L44.4439 134.551L45.2294 134.435L45.8878 133.991L43.9317 131.088ZM44.1228 130.96L47.6204 130.831L47.3895 124.537L42.1667 128.057L44.1228 130.96ZM40.6288 131.188C40.6996 133.12 42.323 134.628 44.2547 134.557C46.1864 134.486 47.6949 132.863 47.6241 130.931L44.1264 131.06L40.6288 131.188ZM44.1264 100.062L40.6269 100.005L40.6253 100.105L44.1248 100.162L47.6243 100.218L47.626 100.118L44.1264 100.062ZM44.1248 100.162L40.7072 99.4067C39.2051 106.207 38.4019 111.643 38.4321 115.553L41.932 115.526L45.4319 115.499C45.408 112.405 46.0667 107.598 47.5424 100.916L44.1248 100.162ZM41.932 115.526L38.4321 115.553C38.4606 119.243 38.7848 122.905 39.4047 126.537L42.8548 125.948L46.3049 125.359C45.7485 122.1 45.4575 118.813 45.4319 115.499L41.932 115.526ZM42.8548 125.948L39.4047 126.537C39.7004 128.27 39.9461 129.612 40.1396 130.536C40.2334 130.983 40.3302 131.407 40.4286 131.748C40.471 131.895 40.5533 132.169 40.683 132.456C40.7362 132.574 40.8903 132.908 41.1753 133.263C41.266 133.376 42.4038 134.853 44.4439 134.551L43.9317 131.088L43.4196 127.626C44.4459 127.474 45.2699 127.806 45.7592 128.108C46.2172 128.391 46.5005 128.714 46.6341 128.881C46.8993 129.211 47.0318 129.507 47.0617 129.573C47.1446 129.756 47.173 129.873 47.1543 129.808C47.1305 129.725 47.0764 129.509 46.9908 129.1C46.8252 128.31 46.5973 127.073 46.3049 125.359L42.8548 125.948ZM43.9317 131.088L45.8878 133.991L46.0788 133.862L44.1228 130.96L42.1667 128.057L41.9757 128.186L43.9317 131.088ZM44.1228 130.96L40.6251 131.088L40.6288 131.188L44.1264 131.06L47.6241 130.931L47.6204 130.831L44.1228 130.96Z" fill="black"/>
<path d="M71.7294 88.2221C71.8486 86.2927 70.3811 84.6321 68.4518 84.513C66.5225 84.3939 64.8619 85.8613 64.7427 87.7906L68.2361 88.0063L71.7294 88.2221ZM68.2299 88.1062L71.6398 88.8952L71.7054 88.612L71.7233 88.3219L68.2299 88.1062ZM65.9646 117.282V120.782H66.2772L66.5849 120.727L65.9646 117.282ZM66.5192 117.182L70.0144 117.364L70.2439 112.955L65.8989 113.738L66.5192 117.182ZM63.0187 117.1C62.9183 119.031 64.4017 120.677 66.3321 120.778C68.2625 120.878 69.9088 119.395 70.0092 117.464L66.514 117.282L63.0187 117.1ZM68.2361 88.0063L64.7427 87.7906L64.7366 87.8905L68.2299 88.1062L71.7233 88.3219L71.7294 88.2221L68.2361 88.0063ZM68.2299 88.1062L64.82 87.3171C63.2278 94.1977 62.6196 99.9134 63.3882 104.142L66.8318 103.517L70.2754 102.891C69.7724 100.123 70.0963 95.5655 71.6398 88.8952L68.2299 88.1062ZM66.8318 103.517L63.3882 104.142C63.9488 107.226 63.8506 109.849 63.2285 112.085L66.6004 113.023L69.9723 113.961C70.9304 110.518 70.9865 106.803 70.2754 102.891L66.8318 103.517ZM66.6004 113.023L63.2285 112.085C62.8262 113.531 62.5266 114.767 62.3872 115.701C62.3251 116.117 62.2489 116.751 62.3188 117.394C62.3506 117.686 62.4473 118.368 62.8859 119.07C63.4453 119.966 64.5214 120.782 65.9646 120.782V117.282V113.782C66.5352 113.782 67.1476 113.929 67.7116 114.269C68.2562 114.598 68.6082 115.018 68.8229 115.362C69.206 115.975 69.2654 116.523 69.2779 116.638C69.3092 116.927 69.2667 117.028 69.3105 116.734C69.3831 116.248 69.5845 115.355 69.9723 113.961L66.6004 113.023ZM65.9646 117.282L66.5849 120.727L67.1395 120.627L66.5192 117.182L65.8989 113.738L65.3443 113.838L65.9646 117.282ZM66.5192 117.182L63.0239 117.001L63.0187 117.1L66.514 117.282L70.0092 117.464L70.0144 117.364L66.5192 117.182Z" fill="black"/>
</svg>
