<svg width="91" height="249" viewBox="0 0 91 249" fill="none" xmlns="http://www.w3.org/2000/svg">
<path d="M0.314897 118.804C0.273845 121.013 2.03112 122.837 4.23988 122.878C6.44863 122.919 8.27246 121.162 8.31352 118.953L4.31421 118.878L0.314897 118.804ZM4.31606 118.778L0.319236 118.619L0.317544 118.662L0.316755 118.704L4.31606 118.778ZM7.92659 53.7519L4.08168 52.6489L7.92659 53.7519ZM13.1093 30.5513L9.4442 28.9492L13.1093 30.5513ZM17.1364 19.2973L13.287 18.2098L17.1364 19.2973ZM23.4634 10.1042L21.108 6.87117L23.4634 10.1042ZM34.0345 5.40408L33.1838 1.49558L34.0345 5.40408ZM45.9293 4.00836L45.8514 0.00912094L45.9293 4.00836ZM82.6099 43.5606L86.4944 42.6063L82.6099 43.5606ZM86.4138 67.144L82.43 67.5045L86.4138 67.144ZM85.4489 102.958L81.4607 103.266L85.4489 102.958ZM85.7052 138.687L81.7096 138.5L85.7052 138.687ZM69.8774 232.39L73.3882 234.307L69.8774 232.39ZM61.9165 240.832L59.8109 237.431L61.9165 240.832ZM50.9027 244.046L50.8494 240.046L50.9027 244.046ZM13.4349 205.983L9.58278 207.061L13.4349 205.983ZM10.9692 194.235L7.0091 194.798L10.9692 194.235ZM11.3719 158.353L7.3779 158.572L11.3719 158.353ZM12.9621 146.567L9.16571 145.307L12.9621 146.567ZM28.9451 89.6832L32.3292 91.8158L28.9451 89.6832ZM35.4878 79.5442L38.8259 81.7481L35.4878 79.5442ZM44.9315 74.4436L44.9321 70.4436L44.9315 74.4436ZM65.2185 79.996L68.5615 77.7997L65.2185 79.996ZM70.7343 90.1446L67.078 91.767L70.7343 90.1446ZM75.0973 101.194L78.8749 99.8786L75.0973 101.194ZM73.1657 148.127L76.6421 150.105L73.1657 148.127ZM70.539 157.295L66.5575 157.68L70.539 157.295ZM70.2083 161.124L69.2845 165.015L69.5602 165.081L69.8423 165.107L70.2083 161.124ZM69.5232 160.961L70.447 157.069L66.4822 156.128L65.6149 160.11L69.5232 160.961ZM65.5936 160.207C65.1233 162.366 66.492 164.497 68.6505 164.967C70.809 165.437 72.94 164.069 73.4102 161.91L69.5019 161.059L65.5936 160.207ZM4.31421 118.878L8.31352 118.953L8.31537 118.853L4.31606 118.778L0.316755 118.704L0.314897 118.804L4.31421 118.878ZM4.31606 118.778L8.31289 118.938C8.62288 111.158 8.69941 105.159 8.52536 101.009L4.52888 101.177L0.532388 101.344C0.692367 105.159 0.62702 110.895 0.319236 118.619L4.31606 118.778ZM4.52888 101.177L8.52536 101.009C8.35846 97.0288 8.19524 93.0463 8.0357 89.0615L4.0389 89.2215L0.0421035 89.3815C0.201845 93.3713 0.365273 97.3589 0.532388 101.344L4.52888 101.177ZM4.0389 89.2215L8.0357 89.0615C7.8893 85.4049 8.19287 81.7713 8.94893 78.1533L5.03351 77.3351L1.11809 76.5169C0.228726 80.7728 -0.13078 85.0634 0.0421035 89.3815L4.0389 89.2215ZM5.03351 77.3351L8.94893 78.1533C9.82698 73.9516 10.2697 69.7196 10.2749 65.4616L6.27493 65.4567L2.27493 65.4517C2.27037 69.1577 1.88547 72.8447 1.11809 76.5169L5.03351 77.3351ZM6.27493 65.4567L10.2749 65.4616C10.2794 61.8504 10.7779 58.3184 11.7715 54.8549L7.92659 53.7519L4.08168 52.6489C2.88286 56.8277 2.28029 61.0989 2.27493 65.4517L6.27493 65.4567ZM7.92659 53.7519L11.7715 54.8549C12.9362 50.795 13.7201 46.6444 14.1239 42.4063L10.1419 42.027L6.15994 41.6476C5.80237 45.4005 5.10939 49.0665 4.08168 52.6489L7.92659 53.7519ZM10.1419 42.027L14.1239 42.4063C14.4646 38.83 15.3476 35.4177 16.7745 32.1534L13.1093 30.5513L9.4442 28.9492C7.67581 32.9948 6.58054 37.233 6.15994 41.6476L10.1419 42.027ZM13.1093 30.5513L16.7745 32.1534C18.4453 28.3309 19.8492 24.4077 20.9857 20.3848L17.1364 19.2973L13.287 18.2098C12.2495 21.8824 10.9686 25.4618 9.4442 28.9492L13.1093 30.5513ZM17.1364 19.2973L20.9857 20.3848C21.8376 17.3694 23.4368 15.0725 25.8188 13.3372L23.4634 10.1042L21.108 6.87117C17.2281 9.69788 14.6093 13.5297 13.287 18.2098L17.1364 19.2973ZM23.4634 10.1042L25.8188 13.3372C28.4849 11.3948 31.4925 10.051 34.8851 9.31259L34.0345 5.40408L33.1838 1.49558C28.7436 2.46194 24.7039 4.25146 21.108 6.87117L23.4634 10.1042ZM34.0345 5.40408L34.8851 9.31259C38.5471 8.5156 42.2532 8.08067 46.0071 8.00761L45.9293 4.00836L45.8514 0.00912094C41.5784 0.092289 37.3546 0.587842 33.1838 1.49558L34.0345 5.40408ZM45.9293 4.00836L46.0071 8.00761C49.6578 7.93655 53.326 8.35523 57.0203 9.27375L57.9855 5.39194L58.9506 1.51012C54.5969 0.427647 50.2276 -0.0760565 45.8514 0.00912094L45.9293 4.00836ZM57.9855 5.39194L57.0203 9.27375C60.3231 10.0949 63.069 11.6865 65.3484 14.0728L68.2409 11.3098L71.1333 8.5469C67.7869 5.04367 63.6959 2.68995 58.9506 1.51012L57.9855 5.39194ZM68.2409 11.3098L65.3484 14.0728C67.8345 16.6754 69.7388 19.5687 71.0863 22.7655L74.7722 21.2118L78.4581 19.6581C76.723 15.5418 74.273 11.8338 71.1333 8.5469L68.2409 11.3098ZM74.7722 21.2118L71.0863 22.7655C72.6051 26.3687 74.0374 29.9855 75.3832 33.616L79.1338 32.2257L82.8844 30.8353C81.4975 27.0939 80.022 23.3682 78.4581 19.6581L74.7722 21.2118ZM79.1338 32.2257L75.3832 33.616C76.696 37.1574 77.8103 40.7901 78.7255 44.515L82.6099 43.5606L86.4944 42.6063C85.5076 38.5899 84.3045 34.6659 82.8844 30.8353L79.1338 32.2257ZM82.6099 43.5606L78.7255 44.515C79.6489 48.2735 80.408 52.0646 81.0028 55.8885L84.9553 55.2737L88.9077 54.6589C88.2774 50.6067 87.4729 46.5891 86.4944 42.6063L82.6099 43.5606ZM84.9553 55.2737L81.0028 55.8885C81.6022 59.742 82.078 63.614 82.43 67.5045L86.4138 67.144L90.3975 66.7835C90.0301 62.7231 89.5335 58.6815 88.9077 54.6589L84.9553 55.2737ZM86.4138 67.144L82.43 67.5045C82.7726 71.2899 82.8436 75.0808 82.643 78.8786L86.6374 79.0896L90.6319 79.3006C90.8526 75.1219 90.7744 70.9491 90.3975 66.7835L86.4138 67.144ZM86.6374 79.0896L82.643 78.8786C82.4364 82.7891 82.1157 86.6953 81.6807 90.5974L85.656 91.0406L89.6314 91.4837C90.0836 87.4276 90.4171 83.3665 90.6319 79.3006L86.6374 79.0896ZM85.656 91.0406L81.6807 90.5974C81.2095 94.824 81.1358 99.0479 81.4607 103.266L85.4489 102.958L89.4371 102.651C89.151 98.9367 89.2154 95.2153 89.6314 91.4837L85.656 91.0406ZM85.4489 102.958L81.4607 103.266C81.753 107.06 81.7997 110.855 81.6009 114.653L85.5954 114.862L89.5899 115.071C89.8067 110.929 89.7558 106.789 89.4371 102.651L85.4489 102.958ZM85.5954 114.862L81.6009 114.653C81.3853 118.77 81.3987 122.89 81.6409 127.01L85.634 126.775L89.6271 126.541C89.4022 122.716 89.3899 118.893 89.5899 115.071L85.5954 114.862ZM85.634 126.775L81.6409 127.01C81.8662 130.842 81.8891 134.672 81.7096 138.5L85.7052 138.687L89.7008 138.875C89.8935 134.765 89.8689 130.654 89.6271 126.541L85.634 126.775ZM85.7052 138.687L81.7096 138.5C81.5207 142.528 81.4212 146.563 81.411 150.605L85.411 150.615L89.411 150.625C89.4209 146.701 89.5175 142.784 89.7008 138.875L85.7052 138.687ZM85.411 150.615L81.411 150.605C81.4015 154.389 81.1118 158.153 80.5419 161.898L84.4964 162.5L88.4508 163.102C89.0804 158.966 89.4005 154.806 89.411 150.625L85.411 150.615ZM84.4964 162.5L80.5419 161.898C79.9582 165.733 79.2209 169.547 78.3298 173.339L82.2237 174.254L86.1177 175.169C87.0573 171.17 87.835 167.148 88.4508 163.102L84.4964 162.5ZM82.2237 174.254L78.3298 173.339C77.3181 177.645 76.9914 182.041 77.3436 186.511L81.3312 186.197L85.3188 185.883C85.0304 182.22 85.2987 178.654 86.1177 175.169L82.2237 174.254ZM81.3312 186.197L77.3436 186.511C77.6182 189.997 77.1467 193.329 75.9315 196.549L79.6738 197.961L83.4162 199.373C85.0514 195.041 85.6849 190.529 85.3188 185.883L81.3312 186.197ZM79.6738 197.961L75.9315 196.549C74.4527 200.467 73.2147 204.42 72.2187 208.408L76.0995 209.377L79.9803 210.346C80.8997 206.665 82.0445 203.008 83.4162 199.373L79.6738 197.961ZM76.0995 209.377L72.2187 208.408C71.232 212.359 70.4153 216.384 69.7681 220.482L73.7191 221.106L77.6701 221.73C78.2815 217.859 79.0517 214.065 79.9803 210.346L76.0995 209.377ZM73.7191 221.106L69.7681 220.482C69.2103 224.014 68.0785 227.338 66.3666 230.473L69.8774 232.39L73.3882 234.307C75.54 230.366 76.9693 226.167 77.6701 221.73L73.7191 221.106ZM69.8774 232.39L66.3666 230.473C64.7614 233.413 62.5879 235.712 59.8109 237.431L61.9165 240.832L64.022 244.233C67.9959 241.773 71.1297 238.443 73.3882 234.307L69.8774 232.39ZM61.9165 240.832L59.8109 237.431C57.0521 239.139 54.0902 240.003 50.8494 240.046L50.9027 244.046L50.9559 248.045C55.6492 247.983 60.0299 246.704 64.022 244.233L61.9165 240.832ZM50.9027 244.046L50.8494 240.046C47.0307 240.097 43.1623 239.936 39.2437 239.563L38.8645 243.545L38.4852 247.527C42.6834 247.927 46.8406 248.1 50.9559 248.045L50.9027 244.046ZM38.8645 243.545L39.2437 239.563C36.1779 239.271 33.6413 238.02 31.4775 235.692L28.5477 238.416L25.6179 241.139C29.093 244.877 33.4343 247.046 38.4852 247.527L38.8645 243.545ZM28.5477 238.416L31.4775 235.692C28.8755 232.893 26.7043 229.892 24.9519 226.689L21.4427 228.609L17.9335 230.529C20.0156 234.335 22.5811 237.872 25.6179 241.139L28.5477 238.416ZM21.4427 228.609L24.9519 226.689C23.168 223.428 21.7298 219.999 20.6372 216.397L16.8094 217.558L12.9817 218.72C14.2323 222.842 15.8829 226.78 17.9335 230.529L21.4427 228.609ZM16.8094 217.558L20.6372 216.397C19.474 212.563 18.3573 208.732 17.2871 204.906L13.4349 205.983L9.58278 207.061C10.6687 210.943 11.8017 214.83 12.9817 218.72L16.8094 217.558ZM13.4349 205.983L17.2871 204.906C16.2565 201.221 15.4706 197.477 14.9294 193.672L10.9692 194.235L7.0091 194.798C7.59943 198.949 8.45732 203.037 9.58278 207.061L13.4349 205.983ZM10.9692 194.235L14.9294 193.672C14.4216 190.101 14.4638 186.525 15.0593 182.929L11.113 182.276L7.16678 181.622C6.43905 186.016 6.38546 190.413 7.0091 194.798L10.9692 194.235ZM11.113 182.276L15.0593 182.929C15.7633 178.678 16.0447 174.429 15.9005 170.186L11.9028 170.321L7.90511 170.457C8.03105 174.163 7.78597 177.883 7.16678 181.622L11.113 182.276ZM11.9028 170.321L15.9005 170.186C15.7645 166.183 15.5863 162.166 15.366 158.135L11.3719 158.353L7.3779 158.572C7.59524 162.548 7.77097 166.51 7.90511 170.457L11.9028 170.321ZM11.3719 158.353L15.366 158.135C15.1749 154.638 15.6355 151.21 16.7585 147.827L12.9621 146.567L9.16571 145.307C7.73085 149.63 7.13136 154.06 7.3779 158.572L11.3719 158.353ZM12.9621 146.567L16.7585 147.827C18.1537 143.622 18.9425 139.324 19.1185 134.943L15.1217 134.782L11.1249 134.622C10.9794 138.245 10.3284 141.803 9.16571 145.307L12.9621 146.567ZM15.1217 134.782L19.1185 134.943C19.2679 131.222 19.8052 127.576 20.73 124L16.8573 122.998L12.9847 121.997C11.9168 126.127 11.297 130.337 11.1249 134.622L15.1217 134.782ZM16.8573 122.998L20.73 124C21.751 120.051 22.6256 116.066 23.3536 112.047L19.4177 111.334L15.4817 110.621C14.7887 114.447 13.9563 118.239 12.9847 121.997L16.8573 122.998ZM19.4177 111.334L23.3536 112.047C23.9978 108.49 25.1172 105.096 26.7151 101.853L23.1271 100.085L19.5391 98.3169C17.6122 102.227 16.2586 106.332 15.4817 110.621L19.4177 111.334ZM23.1271 100.085L26.7151 101.853C28.4161 98.4013 30.2875 95.0557 32.3292 91.8158L28.9451 89.6832L25.561 87.5506C23.3701 91.0273 21.3628 94.6162 19.5391 98.3169L23.1271 100.085ZM28.9451 89.6832L32.3292 91.8158C34.4301 88.4821 36.5956 85.1262 38.8259 81.7481L35.4878 79.5442L32.1497 77.3403C29.8891 80.7644 27.6928 84.1678 25.561 87.5506L28.9451 89.6832ZM35.4878 79.5442L38.8259 81.7481C40.3364 79.4602 42.2345 78.4431 44.9308 78.4436L44.9315 74.4436L44.9321 70.4436C39.5277 70.4427 35.13 72.8261 32.1497 77.3403L35.4878 79.5442ZM44.9315 74.4436L44.9308 78.4436C48.8936 78.4442 52.6709 78.5757 56.264 78.8361L56.5532 74.8466L56.8424 70.857C53.0406 70.5815 49.07 70.4443 44.9321 70.4436L44.9315 74.4436ZM56.5532 74.8466L56.264 78.8361C58.689 79.0119 60.4623 80.0415 61.8754 82.1924L65.2185 79.996L68.5615 77.7997C65.8159 73.6206 61.8124 71.2173 56.8424 70.857L56.5532 74.8466ZM65.2185 79.996L61.8754 82.1924C63.8302 85.1678 65.5653 88.3578 67.078 91.767L70.7343 90.1446L74.3904 88.5222C72.7077 84.7299 70.7655 81.1543 68.5615 77.7997L65.2185 79.996ZM70.7343 90.1446L67.078 91.767C68.6306 95.2659 70.0446 98.8464 71.3197 102.509L75.0973 101.194L78.8749 99.8786C77.5282 96.0104 76.0335 92.2249 74.3904 88.5222L70.7343 90.1446ZM75.0973 101.194L71.3197 102.509C72.5182 105.951 73.2633 109.495 73.5556 113.148L77.5428 112.829L81.5301 112.51C81.1836 108.18 80.2984 103.967 78.8749 99.8786L75.0973 101.194ZM77.5428 112.829L73.5556 113.148C73.8494 116.819 73.7029 120.48 73.1148 124.136L77.064 124.771L81.0133 125.406C81.7024 121.122 81.8751 116.821 81.5301 112.51L77.5428 112.829ZM77.064 124.771L73.1148 124.136C72.4412 128.324 72.1154 132.549 72.1372 136.809L76.1371 136.789L80.1371 136.768C80.1176 132.945 80.4098 129.159 81.0133 125.406L77.064 124.771ZM76.1371 136.789L72.1372 136.809C72.1542 140.149 71.3448 143.239 69.6893 146.148L73.1657 148.127L76.6421 150.105C78.9898 145.98 80.1613 141.512 80.1371 136.768L76.1371 136.789ZM73.1657 148.127L69.6893 146.148C67.4894 150.013 66.1951 153.924 66.5575 157.68L70.539 157.295L74.5205 156.911C74.382 155.476 74.8388 153.274 76.6421 150.105L73.1657 148.127ZM70.539 157.295L66.5575 157.68C66.6782 158.93 66.6813 159.597 66.659 159.855C66.6429 160.042 66.6395 159.704 66.8758 159.203C67.0051 158.929 67.3159 158.369 67.9627 157.882C68.7023 157.325 69.6353 157.054 70.5743 157.14L70.2083 161.124L69.8423 165.107C70.8991 165.204 71.9386 164.902 72.7734 164.274C73.5153 163.716 73.9101 163.043 74.112 162.614C74.4936 161.805 74.5904 160.994 74.6294 160.543C74.7173 159.525 74.6504 158.256 74.5205 156.911L70.539 157.295ZM70.2083 161.124L71.1321 157.232L70.447 157.069L69.5232 160.961L68.5994 164.853L69.2845 165.015L70.2083 161.124ZM69.5232 160.961L65.6149 160.11L65.5936 160.207L69.5019 161.059L73.4102 161.91L73.4315 161.812L69.5232 160.961Z" fill="black"/>
</svg>
