<svg width="295" height="247" viewBox="0 0 295 247" fill="none" xmlns="http://www.w3.org/2000/svg">
<path d="M42.8657 2.08593C42.0842 0.31796 40.0175 -0.481726 38.2495 0.299782C36.4815 1.08129 35.6818 3.14805 36.4634 4.91602L39.6646 3.50098L42.8657 2.08593ZM39.705 3.59244L42.983 2.36589L42.9473 2.27052L42.9062 2.17739L39.705 3.59244ZM55.0224 36.5689L57.8738 34.5391L55.0224 36.5689ZM66.6065 53.938L69.6489 52.2078L66.6065 53.938ZM72.1134 62.7261L74.9964 60.7416L72.1134 62.7261ZM78.0968 71.2158L80.9355 69.1684L78.0968 71.2158ZM84.244 79.6651L81.4222 81.7357L84.244 79.6651ZM92.708 91.7356L95.3858 93.9892L95.5832 93.7547L95.7368 93.4894L92.708 91.7356ZM92.9894 91.2495L95.7695 89.1233L92.5863 84.9611L89.9606 89.4956L92.9894 91.2495ZM90.2701 93.4552C91.4444 94.9906 93.641 95.2833 95.1764 94.1091C96.7118 92.9348 97.0046 90.7381 95.8303 89.2027L93.0502 91.3289L90.2701 93.4552ZM39.6646 3.50098L36.4634 4.91602L36.5038 5.00748L39.705 3.59244L42.9062 2.17739L42.8657 2.08593L39.6646 3.50098ZM39.705 3.59244L36.4269 4.81899C38.847 11.2868 40.7777 16.1806 42.2099 19.4601L45.4174 18.0594L48.6249 16.6587C47.2704 13.5571 45.3928 8.80619 42.983 2.36589L39.705 3.59244ZM45.4174 18.0594L42.2099 19.4601C43.6174 22.6831 45.0738 25.885 46.579 29.0657L49.7426 27.5685L52.9062 26.0714C51.4312 22.9545 50.0041 19.8169 48.6249 16.6587L45.4174 18.0594ZM49.7426 27.5685L46.579 29.0657C48.1577 32.4017 50.0223 35.58 52.1711 38.5986L55.0224 36.5689L57.8738 34.5391C55.9631 31.8549 54.3078 29.0329 52.9062 26.0714L49.7426 27.5685ZM55.0224 36.5689L52.1711 38.5986C54.1939 41.4403 56.1956 44.2828 58.176 47.1261L61.048 45.1257L63.92 43.1253C61.9258 40.2623 59.9104 37.4002 57.8738 34.5391L55.0224 36.5689ZM61.048 45.1257L58.176 47.1261C60.1024 49.8918 61.8984 52.7391 63.564 55.6681L66.6065 53.938L69.6489 52.2078C67.8779 49.0935 65.9682 46.0658 63.92 43.1253L61.048 45.1257ZM66.6065 53.938L63.564 55.6681C65.3314 58.7761 67.2202 61.7904 69.2304 64.7107L72.1134 62.7261L74.9964 60.7416C73.1007 57.9878 71.3182 55.1433 69.6489 52.2078L66.6065 53.938ZM72.1134 62.7261L69.2304 64.7107C71.1981 67.5691 73.2073 70.42 75.2582 73.2633L78.0968 71.2158L80.9355 69.1684C78.9143 66.3662 76.9346 63.5573 74.9964 60.7416L72.1134 62.7261ZM78.0968 71.2158L75.2582 73.2633C77.2998 76.0938 79.3545 78.9179 81.4222 81.7357L84.244 79.6651L87.0657 77.5944C85.0093 74.792 82.9659 71.9833 80.9355 69.1684L78.0968 71.2158ZM84.244 79.6651L81.4222 81.7357C83.4294 84.4711 85.2418 87.1695 86.8617 89.8309L89.8514 88.0112L92.8412 86.1915C91.1086 83.3449 89.1827 80.4793 87.0657 77.5944L84.244 79.6651ZM89.8514 88.0112L86.8617 89.8309C87.7119 91.2278 88.4492 92.3604 89.0455 93.1379C89.3139 93.4878 89.7064 93.9708 90.1784 94.3589C90.3775 94.5225 90.9125 94.9456 91.7025 95.1523C92.1439 95.2678 92.7906 95.3483 93.5291 95.1582C94.3095 94.9573 94.9406 94.5182 95.3858 93.9892L92.708 91.7356L90.0301 89.4819C90.4468 88.9868 91.0437 88.5697 91.7843 88.3791C92.483 88.1993 93.0842 88.2782 93.4744 88.3803C94.1622 88.5602 94.5723 88.9093 94.6238 88.9517C94.8008 89.0971 94.8076 89.1485 94.5999 88.8777C94.244 88.4137 93.6672 87.5486 92.8412 86.1915L89.8514 88.0112ZM92.708 91.7356L95.7368 93.4894L96.0183 93.0034L92.9894 91.2495L89.9606 89.4956L89.6791 89.9817L92.708 91.7356ZM92.9894 91.2495L90.2093 93.3758L90.2701 93.4552L93.0502 91.3289L95.8303 89.2027L95.7695 89.1233L92.9894 91.2495Z" fill="black"/>
<path d="M182.656 10.3896C182.656 8.45665 181.089 6.88965 179.156 6.88965C177.223 6.88965 175.656 8.45665 175.656 10.3896H179.156H182.656ZM179.156 10.4896H175.656V10.5772L175.66 10.6646L179.156 10.4896ZM179.095 58.6089V62.1089H181.068L182.09 60.4214L179.095 58.6089ZM179.156 58.5089H182.656V45.968L176.162 56.6965L179.156 58.5089ZM175.656 58.6089C175.656 60.5419 177.223 62.1089 179.156 62.1089C181.089 62.1089 182.656 60.5419 182.656 58.6089H179.156H175.656ZM179.156 10.3896H175.656V10.4896H179.156H182.656V10.3896H179.156ZM179.156 10.4896L175.66 10.6646C176.004 17.5246 176.084 22.5663 175.924 25.8648L179.42 26.0346L182.916 26.2045C183.093 22.5497 182.998 17.228 182.652 10.3147L179.156 10.4896ZM179.42 26.0346L175.924 25.8648C175.756 29.3169 175.552 32.7689 175.311 36.2211L178.803 36.4646L182.294 36.7082C182.538 33.207 182.746 29.7058 182.916 26.2045L179.42 26.0346ZM178.803 36.4646L175.311 36.2211C175.055 39.8969 175.113 43.573 175.485 47.2472L178.967 46.8946L182.449 46.5421C182.117 43.263 182.065 39.9858 182.294 36.7082L178.803 36.4646ZM178.967 46.8946L175.485 47.2472C175.827 50.6291 175.907 53.2284 175.774 55.1123L179.265 55.3593L182.756 55.6063C182.929 53.1573 182.811 50.1136 182.449 46.5421L178.967 46.8946ZM179.265 55.3593L175.774 55.1123C175.697 56.2003 175.642 57.0391 175.612 57.6143C175.598 57.8947 175.587 58.1508 175.584 58.3538C175.582 58.4409 175.581 58.5978 175.591 58.7665C175.595 58.8248 175.607 59.0446 175.663 59.3111C175.684 59.413 175.76 59.7729 175.97 60.1877C176.041 60.3279 176.917 62.1089 179.095 62.1089V58.6089V55.1089C180.166 55.1089 180.968 55.5833 181.445 56.0154C181.879 56.4087 182.109 56.8174 182.214 57.0238C182.422 57.4344 182.496 57.788 182.515 57.8813C182.567 58.131 182.577 58.3254 182.579 58.3498C182.585 58.4507 182.582 58.5061 182.583 58.4578C182.584 58.39 182.589 58.2399 182.603 57.9787C182.629 57.4707 182.68 56.6847 182.756 55.6063L179.265 55.3593ZM179.095 58.6089L182.09 60.4214L182.15 60.3214L179.156 58.5089L176.162 56.6965L176.101 56.7965L179.095 58.6089ZM179.156 58.5089H175.656V58.6089H179.156H182.656V58.5089H179.156Z" fill="black"/>
<path d="M3.28766 151.554C1.35822 151.671 -0.110825 153.33 0.00644708 155.26C0.12372 157.189 1.7829 158.658 3.71234 158.541L3.5 155.047L3.28766 151.554ZM3.59982 155.041L3.84605 151.55L3.61683 151.534L3.38748 151.548L3.59982 155.041ZM29.5125 153.544L29.2924 150.051L29.5125 153.544ZM48.4212 151.964L48.1549 148.474L48.4212 151.964ZM51.737 151.656L55.0574 150.549L54.5406 148.999L53.0198 148.4L51.737 151.656ZM51.6195 151.61L51.3753 148.119L50.3367 154.866L51.6195 151.61ZM51.9634 155.095C53.8917 154.96 55.3456 153.287 55.2107 151.359C55.0759 149.431 53.4034 147.977 51.4751 148.112L51.7193 151.603L51.9634 155.095ZM3.5 155.047L3.71234 158.541L3.81216 158.535L3.59982 155.041L3.38748 151.548L3.28766 151.554L3.5 155.047ZM3.59982 155.041L3.35359 158.533C10.3698 159.027 15.9249 158.985 19.8052 158.266L19.1674 154.825L18.5296 151.383C15.5597 151.934 10.7364 152.036 3.84605 151.55L3.59982 155.041ZM19.1674 154.825L19.8052 158.266C23.0925 157.657 26.4014 157.247 29.7326 157.037L29.5125 153.544L29.2924 150.051C25.6805 150.279 22.0926 150.723 18.5296 151.383L19.1674 154.825ZM29.5125 153.544L29.7326 157.037C33.2426 156.816 36.7448 156.537 40.2391 156.201L39.9038 152.717L39.5685 149.233C36.151 149.562 32.7257 149.835 29.2924 150.051L29.5125 153.544ZM39.9038 152.717L40.2391 156.201C43.6831 155.87 46.4971 155.621 48.6875 155.454L48.4212 151.964L48.1549 148.474C45.9005 148.646 43.0362 148.9 39.5685 149.233L39.9038 152.717ZM48.4212 151.964L48.6875 155.454C49.8028 155.369 50.6581 155.299 51.2403 155.245C51.5248 155.218 51.7785 155.193 51.9749 155.168C52.0595 155.157 52.2064 155.138 52.3605 155.108C52.4103 155.098 52.6174 155.058 52.863 154.974C52.9443 154.946 53.3105 154.823 53.7123 154.548C53.9055 154.415 54.3548 154.084 54.72 153.488C55.154 152.781 55.4441 151.71 55.0574 150.549L51.737 151.656L48.4166 152.763C48.0303 151.604 48.3202 150.534 48.7535 149.828C49.118 149.234 49.566 148.903 49.7575 148.772C50.1556 148.499 50.516 148.379 50.5893 148.354C50.819 148.275 51.0013 148.241 51.0177 148.238C51.1049 148.221 51.1501 148.216 51.098 148.223C51.0211 148.233 50.8617 148.25 50.5936 148.275C50.0706 148.323 49.2619 148.39 48.1549 148.474L48.4212 151.964ZM51.737 151.656L53.0198 148.4L52.9023 148.354L51.6195 151.61L50.3367 154.866L50.4542 154.913L51.737 151.656ZM51.6195 151.61L51.8637 155.101L51.9634 155.095L51.7193 151.603L51.4751 148.112L51.3753 148.119L51.6195 151.61Z" fill="black"/>
<path d="M108.181 182.549C109.103 180.851 108.474 178.726 106.776 177.803C105.077 176.881 102.952 177.51 102.029 179.208L105.105 180.879L108.181 182.549ZM105.057 180.967L107.882 183.034L108.021 182.844L108.133 182.637L105.057 180.967ZM96.9708 194.25L100.223 195.543L96.9708 194.25ZM87.8663 213.057L84.7533 211.457L87.8663 213.057ZM76.7754 239.843L73.2995 239.433L76.7754 239.843ZM76.1195 242.908L74.5636 246.043L75.1156 246.317L75.7279 246.386L76.1195 242.908ZM75.8679 242.783L77.4237 239.648L74.0868 237.992L72.6419 241.425L75.8679 242.783ZM72.6031 241.518C71.8534 243.299 72.6899 245.351 74.4716 246.101C76.2532 246.851 78.3054 246.014 79.0551 244.233L75.8291 242.875L72.6031 241.518ZM105.105 180.879L102.029 179.208L101.982 179.296L105.057 180.967L108.133 182.637L108.181 182.549L105.105 180.879ZM105.057 180.967L102.233 178.9C98.0975 184.55 95.1836 189.27 93.7182 192.957L96.9708 194.25L100.223 195.543C101.349 192.711 103.826 188.576 107.882 183.034L105.057 180.967ZM96.9708 194.25L93.7182 192.957C92.4645 196.112 91.0677 199.184 89.528 202.175L92.6398 203.777L95.7516 205.379C97.3959 202.185 98.8865 198.906 100.223 195.543L96.9708 194.25ZM92.6398 203.777L89.528 202.175C87.9356 205.268 86.344 208.362 84.7533 211.457L87.8663 213.057L90.9792 214.657C92.5692 211.563 94.16 208.471 95.7516 205.379L92.6398 203.777ZM87.8663 213.057L84.7533 211.457C83.0905 214.693 81.6514 218.032 80.436 221.474L83.7363 222.639L87.0366 223.804C88.1472 220.659 89.4614 217.611 90.9792 214.657L87.8663 213.057ZM83.7363 222.639L80.436 221.474C79.3297 224.607 78.0086 227.623 76.4728 230.525L79.5663 232.162L82.6598 233.8C84.3581 230.591 85.8169 227.258 87.0366 223.804L83.7363 222.639ZM79.5663 232.162L76.4728 230.525C74.7697 233.743 73.6164 236.747 73.2995 239.433L76.7754 239.843L80.2513 240.253C80.4217 238.809 81.129 236.692 82.6598 233.8L79.5663 232.162ZM76.7754 239.843L73.2995 239.433C73.1806 240.441 73.0801 241.08 73.0062 241.426C72.9629 241.628 72.9618 241.569 73.0336 241.394C73.0595 241.332 73.1958 240.996 73.508 240.622C73.7706 240.308 74.7944 239.237 76.5111 239.43L76.1195 242.908L75.7279 246.386C77.4931 246.585 78.566 245.486 78.8785 245.112C79.2407 244.679 79.4277 244.25 79.5052 244.063C79.68 243.638 79.7851 243.199 79.8512 242.89C79.9959 242.214 80.1265 241.31 80.2513 240.253L76.7754 239.843ZM76.1195 242.908L77.6754 239.773L77.4237 239.648L75.8679 242.783L74.312 245.918L74.5636 246.043L76.1195 242.908ZM75.8679 242.783L72.6419 241.425L72.6031 241.518L75.8291 242.875L79.0551 244.233L79.0939 244.14L75.8679 242.783Z" fill="black"/>
<path d="M204.073 187.071C202.737 185.674 200.522 185.624 199.125 186.96C197.728 188.296 197.678 190.512 199.014 191.909L201.543 189.49L204.073 187.071ZM201.613 189.562L199.083 191.981L199.125 192.024L199.168 192.067L201.613 189.562ZM219.646 208.202L216.704 210.097L219.646 208.202ZM237.927 229.507L235.624 232.142L235.633 232.15L235.642 232.158L237.927 229.507ZM239.364 230.745L241.993 228.435L241.833 228.253L241.649 228.094L239.364 230.745ZM236.801 233.131C238.078 234.583 240.289 234.725 241.741 233.449C243.193 232.173 243.335 229.962 242.059 228.51L239.43 230.821L236.801 233.131ZM201.543 189.49L199.014 191.909L199.083 191.981L201.613 189.562L204.142 187.143L204.073 187.071L201.543 189.49ZM201.613 189.562L199.168 192.067C204.104 196.885 207.908 200.497 210.56 202.879L212.899 200.275L215.237 197.671C212.697 195.39 208.977 191.86 204.057 187.057L201.613 189.562ZM212.899 200.275L210.56 202.879C212.923 205 214.969 207.404 216.704 210.097L219.646 208.202L222.589 206.307C220.519 203.093 218.067 200.212 215.237 197.671L212.899 200.275ZM219.646 208.202L216.704 210.097C218.754 213.281 221.144 216.178 223.869 218.784L226.288 216.254L228.707 213.725C226.381 211.501 224.343 209.03 222.589 206.307L219.646 208.202ZM226.288 216.254L223.869 218.784C226.263 221.073 228.462 223.531 230.468 226.158L233.25 224.035L236.032 221.911C233.805 218.994 231.363 216.265 228.707 213.725L226.288 216.254ZM233.25 224.035L230.468 226.158C232.57 228.912 234.322 231.004 235.624 232.142L237.927 229.507L240.231 226.872C239.528 226.258 238.163 224.702 236.032 221.911L233.25 224.035ZM237.927 229.507L235.642 232.158L237.079 233.396L239.364 230.745L241.649 228.094L240.212 226.856L237.927 229.507ZM239.364 230.745L236.735 233.056L236.801 233.131L239.43 230.821L242.059 228.51L241.993 228.435L239.364 230.745Z" fill="black"/>
<path d="M236.059 103.741C234.354 104.652 233.71 106.772 234.621 108.477C235.532 110.182 237.652 110.826 239.357 109.915L237.708 106.828L236.059 103.741ZM237.796 106.781L239.445 109.868L239.816 109.67L240.13 109.389L237.796 106.781ZM260.241 94.1303L259.62 90.6858V90.6858L260.241 94.1303ZM287.577 82.6701L287.026 79.2137L287.577 82.6701ZM291.215 81.5338L294.629 80.765L294.559 80.4527L294.433 80.1584L291.215 81.5338ZM291.003 81.0375L289.552 77.8523L286.441 79.2692L287.784 82.413L291.003 81.0375ZM292.544 84.1814C294.303 83.3803 295.08 81.3047 294.279 79.5456C293.478 77.7864 291.402 77.0097 289.643 77.8108L291.094 80.9961L292.544 84.1814ZM237.708 106.828L239.357 109.915L239.445 109.868L237.796 106.781L236.147 103.694L236.059 103.741L237.708 106.828ZM237.796 106.781L240.13 109.389C245.275 104.785 249.161 101.929 251.87 100.567L250.299 97.4402L248.727 94.313C245.158 96.1067 240.71 99.4775 235.462 104.172L237.796 106.781ZM250.299 97.4402L251.87 100.567C254.706 99.1419 257.7 98.1447 260.861 97.5748L260.241 94.1303L259.62 90.6858C255.803 91.3737 252.168 92.583 248.727 94.313L250.299 97.4402ZM260.241 94.1303L260.861 97.5748C264.612 96.8988 268.217 95.8122 271.671 94.3137L270.277 91.1029L268.884 87.8922C265.934 89.1724 262.848 90.104 259.62 90.6858L260.241 94.1303ZM270.277 91.1029L271.671 94.3137C275.057 92.8442 278.292 91.0952 281.373 89.0676L279.449 86.1438L277.525 83.2201C274.781 85.0259 271.901 86.583 268.884 87.8922L270.277 91.1029ZM279.449 86.1438L281.373 89.0676C284.017 87.3279 286.259 86.4241 288.127 86.1266L287.577 82.6701L287.026 79.2137C283.883 79.7143 280.707 81.1263 277.525 83.2201L279.449 86.1438ZM287.577 82.6701L288.127 86.1266C289.417 85.9211 290.552 85.6954 291.409 85.4275C291.8 85.3055 292.392 85.0984 292.943 84.7392C293.212 84.5637 295.185 83.2336 294.629 80.765L291.215 81.5338L287.8 82.3026C287.56 81.2371 287.881 80.3144 288.273 79.7263C288.61 79.2219 288.99 78.9599 289.123 78.8737C289.391 78.6988 289.538 78.6785 289.322 78.7459C288.967 78.8568 288.243 79.02 287.026 79.2137L287.577 82.6701ZM291.215 81.5338L294.433 80.1584L294.221 79.6621L291.003 81.0375L287.784 82.413L287.996 82.9092L291.215 81.5338ZM291.003 81.0375L292.453 84.2228L292.544 84.1814L291.094 80.9961L289.643 77.8108L289.552 77.8523L291.003 81.0375Z" fill="black"/>
</svg>
