<svg width="304" height="333" viewBox="0 0 304 333" fill="none" xmlns="http://www.w3.org/2000/svg">
<path d="M127.548 3.45396C127.522 1.52113 125.935 -0.0251229 124.002 0.000302792C122.069 0.0257285 120.523 1.61321 120.548 3.54604L124.048 3.5L127.548 3.45396ZM124.049 3.59999L127.543 3.81217L127.551 3.68318L127.549 3.55395L124.049 3.59999ZM124.96 50.4207L121.485 50.0031L124.96 50.4207ZM127.371 105.105V108.605H128.675L129.661 107.752L127.371 105.105ZM127.486 105.005L130.979 104.785L130.536 97.7383L125.196 102.358L127.486 105.005ZM123.999 105.325C124.121 107.254 125.783 108.719 127.712 108.598C129.641 108.477 131.107 106.814 130.985 104.885L127.492 105.105L123.999 105.325ZM124.048 3.5L120.548 3.54604L120.55 3.64603L124.049 3.59999L127.549 3.55395L127.548 3.45396L124.048 3.5ZM124.049 3.59999L120.556 3.38781C120.137 10.2796 119.855 15.4913 119.709 19.0081L123.206 19.1526L126.703 19.2971C126.846 15.8502 127.125 10.6934 127.543 3.81217L124.049 3.59999ZM123.206 19.1526L119.709 19.0081C119.552 22.8055 119.905 26.5874 120.761 30.346L124.173 29.5687L127.586 28.7914C126.865 25.6256 126.573 22.4634 126.703 19.2971L123.206 19.1526ZM124.173 29.5687L120.761 30.346C121.498 33.5836 121.901 36.8178 121.973 40.0518L125.473 39.9738L128.972 39.8958C128.889 36.1808 128.426 32.4782 127.586 28.7914L124.173 29.5687ZM125.473 39.9738L121.973 40.0518C122.047 43.3589 121.884 46.6756 121.485 50.0031L124.96 50.4207L128.435 50.8384C128.874 47.1857 129.053 43.5378 128.972 39.8958L125.473 39.9738ZM124.96 50.4207L121.485 50.0031C121.018 53.887 121.21 57.7561 122.057 61.5938L125.475 60.8394L128.892 60.0851C128.214 57.0114 128.062 53.9347 128.435 50.8384L124.96 50.4207ZM125.475 60.8394L122.057 61.5938C122.739 64.6838 122.913 67.7769 122.582 70.8877L126.062 71.2575L129.543 71.6273C129.954 67.7588 129.736 63.9065 128.892 60.0851L125.475 60.8394ZM126.062 71.2575L122.582 70.8877C122.185 74.6283 122.194 78.3594 122.612 82.0764L126.09 81.6855L129.568 81.2945C129.208 78.0867 129.199 74.8658 129.543 71.6273L126.062 71.2575ZM126.09 81.6855L122.612 82.0764C122.998 85.5088 123.338 88.9395 123.634 92.3686L127.121 92.0679L130.608 91.7673C130.307 88.2778 129.961 84.7869 129.568 81.2945L126.09 81.6855ZM127.121 92.0679L123.634 92.3686C123.923 95.7248 124.011 98.6088 123.912 101.039L127.409 101.181L130.906 101.323C131.02 98.5208 130.915 95.3295 130.608 91.7673L127.121 92.0679ZM127.409 101.181L123.912 101.039C123.858 102.355 123.826 103.38 123.82 104.09C123.816 104.433 123.818 104.767 123.832 105.042C123.838 105.158 123.852 105.393 123.898 105.651C123.915 105.749 123.973 106.076 124.135 106.457C124.211 106.637 124.401 107.051 124.788 107.471C125.199 107.918 126.068 108.605 127.371 108.605V105.105V101.605C128.668 101.605 129.533 102.29 129.939 102.731C130.321 103.146 130.506 103.552 130.579 103.723C130.731 104.083 130.782 104.379 130.792 104.436C130.823 104.613 130.825 104.725 130.823 104.677C130.82 104.626 130.816 104.469 130.819 104.158C130.825 103.56 130.853 102.623 130.906 101.323L127.409 101.181ZM127.371 105.105L129.661 107.752L129.776 107.652L127.486 105.005L125.196 102.358L125.081 102.458L127.371 105.105ZM127.486 105.005L123.993 105.225L123.999 105.325L127.492 105.105L130.985 104.885L130.979 104.785L127.486 105.005Z" fill="black"/>
<path d="M3.48588 182.544C1.5529 182.552 -0.00777173 184.125 2.86102e-05 186.058C0.00782871 187.991 1.58114 189.552 3.51412 189.544L3.5 186.044L3.48588 182.544ZM3.6 186.044L4.04444 182.572L3.81609 182.543L3.58588 182.544L3.6 186.044ZM60.6167 183.413L60.0762 179.955V179.955L60.6167 183.413ZM77.7772 183.187L79.0548 186.445L79.0831 186.434L79.1111 186.423L77.7772 183.187ZM79.1737 182.611L78.794 179.132L78.2996 179.186L77.8398 179.375L79.1737 182.611ZM79.6529 186.079C81.5745 185.87 82.9622 184.142 82.7525 182.22C82.5428 180.299 80.815 178.911 78.8934 179.121L79.2731 182.6L79.6529 186.079ZM3.5 186.044L3.51412 189.544L3.61412 189.544L3.6 186.044L3.58588 182.544L3.48588 182.544L3.5 186.044ZM3.6 186.044L3.15556 189.516C10.146 190.411 15.8644 190.485 19.998 189.436L19.1367 186.044L18.2755 182.651C15.4637 183.365 10.8243 183.44 4.04444 182.572L3.6 186.044ZM19.1367 186.044L19.998 189.436C23.0287 188.667 26.0371 188.513 29.0503 188.963L29.5672 185.501L30.0842 182.039C26.1353 181.45 22.1901 181.657 18.2755 182.651L19.1367 186.044ZM29.5672 185.501L29.0503 188.963C32.8139 189.525 36.5809 189.621 40.3447 189.249L40.0009 185.766L39.6571 182.283C36.4713 182.598 33.2825 182.517 30.0842 182.039L29.5672 185.501ZM40.0009 185.766L40.3447 189.249C43.8222 188.906 47.2799 188.561 50.7176 188.213L50.3655 184.731L50.0133 181.248C46.5812 181.596 43.1291 181.941 39.6571 182.283L40.0009 185.766ZM50.3655 184.731L50.7176 188.213C54.2153 187.859 57.6952 187.412 61.1572 186.871L60.6167 183.413L60.0762 179.955C56.7397 180.476 53.3855 180.907 50.0133 181.248L50.3655 184.731ZM60.6167 183.413L61.1572 186.871C64.2425 186.388 67.3929 186.32 70.6172 186.674L70.9983 183.194L71.3795 179.715C67.56 179.297 63.7894 179.374 60.0762 179.955L60.6167 183.413ZM70.9983 183.194L70.6172 186.674C72.443 186.874 74.0293 186.983 75.3385 186.982C76.5288 186.981 77.9066 186.895 79.0548 186.445L77.7772 183.187L76.4995 179.928C76.6504 179.869 76.3997 179.981 75.3304 179.982C74.3801 179.983 73.0755 179.901 71.3795 179.715L70.9983 183.194ZM77.7772 183.187L79.1111 186.423L80.5077 185.847L79.1737 182.611L77.8398 179.375L76.4432 179.951L77.7772 183.187ZM79.1737 182.611L79.5535 186.09L79.6529 186.079L79.2731 182.6L78.8934 179.121L78.794 179.132L79.1737 182.611Z" fill="black"/>
<path d="M144.764 239.623C144.871 237.693 143.392 236.042 141.462 235.936C139.532 235.829 137.881 237.307 137.775 239.237L141.269 239.43L144.764 239.623ZM141.264 239.53L144.757 239.748L144.758 239.736L144.758 239.723L141.264 239.53ZM140.038 325.886L136.538 325.833L140.038 325.886ZM139.769 328.98L138.332 332.172L139.018 332.48H139.769V328.98ZM139.547 328.88L140.984 325.689L136.05 323.467L136.047 328.879L139.547 328.88ZM136.047 328.979C136.046 330.912 137.613 332.479 139.546 332.48C141.479 332.481 143.046 330.915 143.047 328.982L139.547 328.98L136.047 328.979ZM141.269 239.43L137.775 239.237L137.769 239.337L141.264 239.53L144.758 239.723L144.764 239.623L141.269 239.43ZM141.264 239.53L137.771 239.312C137.34 246.195 137.209 251.524 137.41 255.21L140.904 255.02L144.399 254.831C144.222 251.565 144.331 246.567 144.757 239.748L141.264 239.53ZM140.904 255.02L137.41 255.21C137.586 258.467 137.458 261.719 137.022 264.971L140.491 265.436L143.96 265.9C144.453 262.217 144.6 258.526 144.399 254.831L140.904 255.02ZM140.491 265.436L137.022 264.971C136.524 268.692 136.436 272.423 136.759 276.158L140.246 275.857L143.733 275.556C143.454 272.332 143.53 269.114 143.96 265.9L140.491 265.436ZM140.246 275.857L136.759 276.158C137.042 279.436 137.039 282.709 136.75 285.98L140.236 286.289L143.722 286.597C144.047 282.92 144.051 279.239 143.733 275.556L140.246 275.857ZM140.236 286.289L136.75 285.98C136.44 289.484 136.175 292.989 135.954 296.494L139.447 296.714L142.94 296.934C143.157 293.487 143.418 290.042 143.722 286.597L140.236 286.289ZM139.447 296.714L135.954 296.494C135.728 300.088 135.682 303.681 135.816 307.275L139.313 307.145L142.811 307.014C142.685 303.654 142.728 300.294 142.94 296.934L139.447 296.714ZM139.313 307.145L135.816 307.275C135.946 310.773 136.108 314.271 136.302 317.768L139.796 317.575L143.291 317.382C143.1 313.926 142.94 310.47 142.811 307.014L139.313 307.145ZM139.796 317.575L136.302 317.768C136.492 321.211 136.568 323.888 136.538 325.833L140.038 325.886L143.538 325.938C143.57 323.757 143.485 320.894 143.291 317.382L139.796 317.575ZM140.038 325.886L136.538 325.833C136.523 326.846 136.494 327.517 136.461 327.904C136.442 328.122 136.432 328.118 136.459 328.001C136.465 327.973 136.528 327.683 136.714 327.323C136.806 327.145 137.023 326.762 137.432 326.387C137.876 325.98 138.673 325.48 139.769 325.48V328.98V332.48C140.884 332.48 141.699 331.972 142.16 331.549C142.588 331.158 142.821 330.752 142.93 330.541C143.15 330.117 143.244 329.73 143.28 329.573C143.366 329.198 143.409 328.807 143.434 328.509C143.49 327.864 143.522 326.989 143.538 325.938L140.038 325.886ZM139.769 328.98L141.206 325.789L140.984 325.689L139.547 328.88L138.11 332.072L138.332 332.172L139.769 328.98ZM139.547 328.88L136.047 328.879L136.047 328.979L139.547 328.98L143.047 328.982L143.047 328.882L139.547 328.88Z" fill="black"/>
<path d="M195.724 168.829C193.825 169.19 192.578 171.021 192.938 172.92C193.299 174.819 195.13 176.067 197.03 175.706L196.377 172.268L195.724 168.829ZM196.475 172.249L197.128 175.688L197.243 175.666L197.357 175.636L196.475 172.249ZM211.742 169.301L211.516 165.808L211.742 169.301ZM299.704 161.572L303.078 162.502L303.204 162.046V161.572H299.704ZM299.604 161.935L296.23 161.006L295.006 165.446L299.612 165.435L299.604 161.935ZM299.712 165.435C301.645 165.43 303.209 163.86 303.204 161.927C303.199 159.994 301.629 158.43 299.696 158.435L299.704 161.935L299.712 165.435ZM196.377 172.268L197.03 175.706L197.128 175.688L196.475 172.249L195.823 168.81L195.724 168.829L196.377 172.268ZM196.475 172.249L197.357 175.636C203.99 173.91 208.817 172.997 211.968 172.794L211.742 169.301L211.516 165.808C207.678 166.056 202.328 167.109 195.594 168.862L196.475 172.249ZM211.742 169.301L211.968 172.794C215.696 172.553 219.358 171.942 222.949 170.96L222.027 167.584L221.105 164.208C217.971 165.064 214.776 165.598 211.516 165.808L211.742 169.301ZM222.027 167.584L222.949 170.96C226.191 170.075 229.467 169.367 232.777 168.837L232.224 165.381L231.67 161.925C228.111 162.495 224.588 163.256 221.105 164.208L222.027 167.584ZM232.224 165.381L232.777 168.837C236.257 168.28 239.73 167.654 243.196 166.96L242.509 163.528L241.822 160.097C238.445 160.772 235.061 161.382 231.67 161.925L232.224 165.381ZM242.509 163.528L243.196 166.96C246.388 166.321 249.616 166.005 252.881 166.011L252.888 162.511L252.894 159.011C249.164 159.004 245.472 159.366 241.822 160.097L242.509 163.528ZM252.888 162.511L252.881 166.011C256.562 166.018 260.226 165.737 263.87 165.169L263.331 161.711L262.792 158.252C259.508 158.764 256.209 159.017 252.894 159.011L252.888 162.511ZM263.331 161.711L263.87 165.169C267.17 164.654 270.476 164.378 273.787 164.34L273.747 160.84L273.706 157.34C270.058 157.382 266.42 157.687 262.792 158.252L263.331 161.711ZM273.747 160.84L273.787 164.34C277.223 164.3 280.657 164.325 284.091 164.416L284.183 160.917L284.275 157.419C280.753 157.326 277.23 157.299 273.706 157.34L273.747 160.84ZM284.183 160.917L284.091 164.416C287.582 164.508 291.051 164.58 294.499 164.632L294.552 161.132L294.604 157.633C291.183 157.582 287.74 157.51 284.275 157.419L284.183 160.917ZM294.552 161.132L294.499 164.632C296.198 164.658 297.386 164.706 298.118 164.768C298.508 164.802 298.636 164.829 298.61 164.823C298.592 164.819 298.537 164.806 298.456 164.78C298.383 164.757 298.23 164.704 298.039 164.607C297.874 164.523 297.499 164.316 297.126 163.917C296.722 163.484 296.204 162.685 296.204 161.572H299.704H303.204C303.204 160.429 302.673 159.601 302.242 159.139C301.842 158.711 301.427 158.476 301.208 158.365C300.766 158.141 300.352 158.04 300.154 157.995C299.698 157.892 299.182 157.834 298.714 157.794C297.728 157.71 296.34 157.659 294.604 157.633L294.552 161.132ZM299.704 161.572L296.33 160.643L296.23 161.006L299.604 161.935L302.978 162.865L303.078 162.502L299.704 161.572ZM299.604 161.935L299.612 165.435L299.712 165.435L299.704 161.935L299.696 158.435L299.596 158.435L299.604 161.935Z" fill="black"/>
</svg>
