<svg width="77" height="80" viewBox="0 0 77 80" fill="none" xmlns="http://www.w3.org/2000/svg">
<path d="M25.6924 44.5822C26.2853 42.7424 25.2744 40.7703 23.4345 40.1775C21.5947 39.5847 19.6226 40.5956 19.0298 42.4354L22.3611 43.5088L25.6924 44.5822ZM22.3304 43.604L18.9991 42.5306L18.0842 45.37L20.7428 46.7232L22.3304 43.604ZM28.1318 50.4857L25.2306 48.5279L28.1318 50.4857ZM22.5397 50.6263L20.4056 53.4005L22.5397 50.6263ZM26.1187 35.611L27.2256 38.9313L26.1187 35.611ZM43.2307 37.816L46.4283 36.3929L43.2307 37.816ZM45.4138 47.0847L41.9245 47.3581L45.4138 47.0847ZM12.0371 49.7303L8.53752 49.6759L12.0371 49.7303ZM31.406 20.2791L31.235 16.7832L31.406 20.2791ZM56.0425 31.1786L52.5433 31.2527L56.0425 31.1786ZM48.578 59.5371L45.8412 57.3554L48.578 59.5371ZM18.9967 62.9036L18.0185 66.2641L18.9967 62.9036ZM14.8355 13.3633L13.363 10.1881L14.8355 13.3633ZM24.1464 8.55749L22.4101 5.51851L24.1464 8.55749ZM60.5273 12.5017L63.144 10.1773L60.5273 12.5017ZM72.5713 40.1992L69.0743 40.3434L72.5713 40.1992ZM66.5114 59.2459L69.2904 61.3737L66.5114 59.2459ZM59.0315 66.3253L57.0431 63.445L59.0315 66.3253ZM39.4882 73.624L38.9198 70.1705L39.4882 73.624ZM18.7772 76.3337L19.0404 72.8436L18.7772 76.3337ZM10.453 73.9692L8.5633 76.9152L10.453 73.9692ZM7.12333 72.3929L4.21115 70.4514L4.01478 70.746L3.88137 71.0739L7.12333 72.3929ZM6.96192 72.7896L6.79416 76.2856L9.26984 76.4044L10.2039 74.1086L6.96192 72.7896ZM7.0298 69.2888C5.09902 69.1962 3.45871 70.6863 3.36606 72.617C3.2734 74.5478 4.7635 76.1881 6.69427 76.2808L6.86203 72.7848L7.0298 69.2888ZM22.3611 43.5088L19.0298 42.4354L18.9991 42.5306L22.3304 43.604L25.6617 44.6774L25.6924 44.5822L22.3611 43.5088ZM22.3304 43.604L20.7428 46.7232C23.2351 47.9918 24.4932 48.9671 24.9922 49.559C25.2157 49.8241 25.093 49.7876 25.0458 49.4635C24.9849 49.0453 25.1234 48.6868 25.2306 48.5279L28.1318 50.4857L31.033 52.4436C31.7981 51.3098 32.1882 49.9335 31.9727 48.4545C31.7709 47.0695 31.0876 45.9291 30.3442 45.0472C28.9094 43.3452 26.609 41.8545 23.9181 40.4848L22.3304 43.604ZM28.1318 50.4857L25.2306 48.5279C25.1077 48.7101 25.0752 48.6935 25.1811 48.627C25.3122 48.5447 25.4923 48.4884 25.6591 48.4842C25.7973 48.4807 25.7948 48.5163 25.6097 48.438C25.42 48.3577 25.109 48.1871 24.6737 47.8522L22.5397 50.6263L20.4056 53.4005C21.875 54.5308 23.7318 55.5348 25.835 55.482C28.193 55.4227 29.9267 54.083 31.033 52.4436L28.1318 50.4857ZM22.5397 50.6263L24.6737 47.8522C23.9848 47.3222 23.617 46.7659 23.4236 46.1589C23.2186 45.5156 23.1403 44.59 23.4059 43.2616L19.9737 42.5756L16.5416 41.8896C16.1053 44.0725 16.1038 46.2443 16.7541 48.2846C17.416 50.3612 18.6821 52.0746 20.4056 53.4005L22.5397 50.6263ZM19.9737 42.5756L23.4059 43.2616C23.8617 40.981 25.0234 39.6655 27.2256 38.9313L26.1187 35.611L25.0117 32.2906C20.4244 33.82 17.4895 37.1476 16.5416 41.8896L19.9737 42.5756ZM26.1187 35.611L27.2256 38.9313C30.2877 37.9105 33.3287 37.3989 36.3607 37.3781L36.3367 33.8782L36.3127 30.3782C32.5102 30.4043 28.7392 31.0479 25.0117 32.2906L26.1187 35.611ZM36.3367 33.8782L36.3607 37.3781C37.628 37.3694 38.4083 37.6107 38.8871 37.8842C39.3272 38.1356 39.7161 38.5268 40.0331 39.2391L43.2307 37.816L46.4283 36.3929C45.5666 34.4566 44.217 32.8672 42.3591 31.8059C40.5399 30.7668 38.4626 30.3635 36.3127 30.3782L36.3367 33.8782ZM43.2307 37.816L40.0331 39.2391C41.0186 41.4535 41.6723 44.1398 41.9245 47.3581L45.4138 47.0847L48.9031 46.8113C48.602 42.9688 47.8004 39.4759 46.4283 36.3929L43.2307 37.816ZM45.4138 47.0847L41.9245 47.3581C42.1276 49.9508 41.409 52.1527 39.6823 54.1613L42.3364 56.4429L44.9905 58.7245C47.9203 55.3164 49.2532 51.2795 48.9031 46.8113L45.4138 47.0847ZM42.3364 56.4429L39.6823 54.1613C37.6935 56.4749 35.3209 58.2353 32.5338 59.4661L33.9478 62.6678L35.3617 65.8695C39.1031 64.2172 42.3229 61.8277 44.9905 58.7245L42.3364 56.4429ZM33.9478 62.6678L32.5338 59.4661C29.8841 60.6363 27.1579 60.9956 24.2744 60.5494L23.7393 64.0083L23.2041 67.4671C27.4035 68.1168 31.4829 67.5825 35.3617 65.8695L33.9478 62.6678ZM23.7393 64.0083L24.2744 60.5494C21.5809 60.1327 19.5332 58.9345 17.9407 56.9129L15.1913 59.0788L12.4419 61.2446C15.1638 64.6998 18.8147 66.788 23.2041 67.4671L23.7393 64.0083ZM15.1913 59.0788L17.9407 56.9129C16.2826 54.8081 15.4948 52.4765 15.5367 49.7848L12.0371 49.7303L8.53752 49.6759C8.47067 53.972 9.78567 57.8727 12.4419 61.2446L15.1913 59.0788ZM12.0371 49.7303L15.5367 49.7848C15.593 46.1677 15.4582 42.5728 15.132 39.0009L11.6465 39.3192L8.161 39.6375C8.46435 42.9593 8.58998 46.3052 8.53752 49.6759L12.0371 49.7303ZM11.6465 39.3192L15.132 39.0009C14.889 36.3403 15.4858 34.0163 16.9243 31.8841L14.0228 29.9267L11.1214 27.9692C8.76188 31.4666 7.77442 35.4043 8.161 39.6375L11.6465 39.3192ZM14.0228 29.9267L16.9243 31.8841C18.5037 29.5429 20.5791 27.6431 23.2059 26.1769L21.5 23.1208L19.7941 20.0646C16.2494 22.0433 13.3399 24.6807 11.1214 27.9692L14.0228 29.9267ZM21.5 23.1208L23.2059 26.1769C25.8224 24.7164 28.5993 23.9205 31.5769 23.7749L31.406 20.2791L31.235 16.7832C27.1763 16.9817 23.3492 18.0802 19.7941 20.0646L21.5 23.1208ZM31.406 20.2791L31.5769 23.7749C35.0895 23.6031 38.5849 23.4405 42.0629 23.2872L41.9088 19.7906L41.7546 16.294C38.2653 16.4478 34.7587 16.6109 31.235 16.7832L31.406 20.2791ZM41.9088 19.7906L42.0629 23.2872C44.741 23.1691 47.1847 23.8917 49.5026 25.5409L51.5317 22.6891L53.5608 19.8374C50.0155 17.3147 46.0439 16.1049 41.7546 16.294L41.9088 19.7906ZM51.5317 22.6891L49.5026 25.5409C51.5396 26.9903 52.4913 28.7937 52.5433 31.2527L56.0425 31.1786L59.5417 31.1046C59.4425 26.4161 57.387 22.5598 53.5608 19.8374L51.5317 22.6891ZM56.0425 31.1786L52.5433 31.2527C52.6218 34.9609 52.9124 38.6106 53.4164 42.201L56.8824 41.7145L60.3484 41.228C59.8838 37.918 59.6145 34.5439 59.5417 31.1046L56.0425 31.1786ZM56.8824 41.7145L53.4164 42.201C53.7851 44.8278 53.2648 47.0788 51.8816 49.1371L54.7866 51.0893L57.6916 53.0415C60.0713 49.5004 60.9483 45.5016 60.3484 41.228L56.8824 41.7145ZM54.7866 51.0893L51.8816 49.1371C50.0568 51.8526 48.0439 54.5921 45.8412 57.3554L48.578 59.5371L51.3149 61.7187C53.6273 58.8178 55.7535 55.9255 57.6916 53.0415L54.7866 51.0893ZM48.578 59.5371L45.8412 57.3554C44.2812 59.3124 42.4509 60.1272 40.0202 59.9918L39.8256 63.4864L39.6309 66.9809C44.355 67.2441 48.3597 65.4261 51.3149 61.7187L48.578 59.5371ZM39.8256 63.4864L40.0202 59.9918C36.2522 59.7819 32.5237 59.882 28.8368 60.2941L29.2256 63.7724L29.6143 67.2508C32.906 66.8829 36.2441 66.7923 39.6309 66.9809L39.8256 63.4864ZM29.2256 63.7724L28.8368 60.2941C25.8006 60.6334 22.8558 60.3816 19.9748 59.543L18.9967 62.9036L18.0185 66.2641C21.7975 67.3641 25.672 67.6914 29.6143 67.2508L29.2256 63.7724ZM18.9967 62.9036L19.9748 59.543C16.9943 58.6755 14.254 57.3838 11.7393 55.6665L9.76546 58.5568L7.79165 61.4472C10.9251 63.587 14.339 65.1932 18.0185 66.2641L18.9967 62.9036ZM9.76546 58.5568L11.7393 55.6665C9.80692 54.3469 8.74352 52.5709 8.49491 50.0284L5.01152 50.369L1.52813 50.7096C1.96984 55.227 4.07574 58.9096 7.79165 61.4472L9.76546 58.5568ZM5.01152 50.369L8.49491 50.0284C8.15571 46.5593 7.91234 43.1308 7.76453 39.7428L4.26786 39.8953L0.771186 40.0479C0.924612 43.5648 1.17702 47.1187 1.52813 50.7096L5.01152 50.369ZM4.26786 39.8953L7.76453 39.7428C7.61148 36.2344 7.37141 32.6654 7.04463 29.0359L3.55873 29.3497L0.072829 29.6636C0.390324 33.1899 0.623009 36.6513 0.771186 40.0479L4.26786 39.8953ZM3.55873 29.3497L7.04463 29.0359C6.80678 26.3941 7.51367 24.1183 9.25949 22.0174L6.5676 19.7805L3.87572 17.5436C0.965426 21.0458 -0.333596 25.1495 0.072829 29.6636L3.55873 29.3497ZM6.5676 19.7805L9.25949 22.0174C11.2686 19.5996 13.6132 17.7882 16.308 16.5385L14.8355 13.3633L13.363 10.1881C9.6901 11.8914 6.52268 14.3582 3.87572 17.5436L6.5676 19.7805ZM14.8355 13.3633L16.308 16.5385C19.581 15.0206 22.7727 13.3733 25.8827 11.5965L24.1464 8.55749L22.4101 5.51851C19.4734 7.19636 16.4578 8.75291 13.363 10.1881L14.8355 13.3633ZM24.1464 8.55749L25.8827 11.5965C28.6164 10.0346 31.5067 8.89279 34.5629 8.16692L33.7541 4.76165L32.9453 1.35638C29.2379 2.23694 25.723 3.62572 22.4101 5.51851L24.1464 8.55749ZM33.7541 4.76165L34.5629 8.16692C37.7109 7.41924 40.7643 7.03479 43.7281 7.00071L43.6878 3.50094L43.6476 0.00117314C40.1301 0.0416182 36.561 0.497642 32.9453 1.35638L33.7541 4.76165ZM43.6878 3.50094L43.7281 7.00071C46.2876 6.97128 48.6974 7.63627 51.0218 9.05517L52.8454 6.06776L54.669 3.08035C51.2647 1.0023 47.5694 -0.0439209 43.6476 0.00117314L43.6878 3.50094ZM52.8454 6.06776L51.0218 9.05517C53.5867 10.6208 55.8808 12.5409 57.9105 14.826L60.5273 12.5017L63.144 10.1773C60.66 7.38079 57.8329 5.01167 54.669 3.08035L52.8454 6.06776ZM60.5273 12.5017L57.9105 14.826C59.994 17.1716 61.7893 19.7161 63.2995 22.4634L66.3666 20.7774L69.4338 19.0914C67.6718 15.886 65.5743 12.9133 63.144 10.1773L60.5273 12.5017ZM66.3666 20.7774L63.2995 22.4634C64.8465 25.2778 66.1797 28.2286 67.2981 31.318L70.5891 30.1266L73.8801 28.9351C72.6407 25.5117 71.1589 22.2297 69.4338 19.0914L66.3666 20.7774ZM70.5891 30.1266L67.2981 31.318C68.3552 34.2381 68.9464 37.2425 69.0743 40.3434L72.5713 40.1992L76.0684 40.055C75.911 36.2386 75.1807 32.5279 73.8801 28.9351L70.5891 30.1266ZM72.5713 40.1992L69.0743 40.3434C69.2001 43.3927 68.7993 46.3415 67.8733 49.2095L71.204 50.2849L74.5347 51.3603C75.7171 47.6981 76.2279 43.9231 76.0684 40.055L72.5713 40.1992ZM71.204 50.2849L67.8733 49.2095C66.941 52.0971 65.5627 54.7278 63.7325 57.1182L66.5114 59.2459L69.2904 61.3737C71.6085 58.3462 73.3586 55.0029 74.5347 51.3603L71.204 50.2849ZM66.5114 59.2459L63.7325 57.1182C61.8891 59.5257 59.6656 61.6345 57.0431 63.445L59.0315 66.3253L61.02 69.2056C64.2223 66.9948 66.9854 64.384 69.2904 61.3737L66.5114 59.2459ZM59.0315 66.3253L57.0431 63.445C54.3918 65.2753 51.5589 66.7067 48.5371 67.7448L49.6743 71.0549L50.8114 74.365C54.4411 73.1181 57.8464 71.3964 61.02 69.2056L59.0315 66.3253ZM49.6743 71.0549L48.5371 67.7448C45.3964 68.8237 42.1912 69.632 38.9198 70.1705L39.4882 73.624L40.0566 77.0775C43.7151 76.4754 47.3006 75.571 50.8114 74.365L49.6743 71.0549ZM39.4882 73.624L38.9198 70.1705C35.3943 70.7507 31.8916 71.4226 28.4119 72.186L29.1619 75.6047L29.912 79.0234C33.2708 78.2864 36.6524 77.6378 40.0566 77.0775L39.4882 73.624ZM29.1619 75.6047L28.4119 72.186C25.3263 72.8629 22.2061 73.0823 19.0404 72.8436L18.7772 76.3337L18.5141 79.8238C22.356 80.1134 26.159 79.8468 29.912 79.0234L29.1619 75.6047ZM18.7772 76.3337L19.0404 72.8436C15.8744 72.6049 13.7302 71.9131 12.3427 71.0231L10.453 73.9692L8.5633 76.9152C11.267 78.6495 14.6723 79.5341 18.5141 79.8238L18.7772 76.3337ZM10.453 73.9692L12.3427 71.0231C11.2907 70.3483 10.3486 69.7895 9.58398 69.4275C9.23258 69.2612 8.71144 69.0348 8.1346 68.9162C7.85511 68.8587 7.32322 68.7738 6.68521 68.8748C5.98939 68.985 4.93209 69.37 4.21115 70.4514L7.12333 72.3929L10.0355 74.3343C9.35811 75.3504 8.3736 75.6947 7.77982 75.7887C7.24384 75.8736 6.84322 75.7971 6.72424 75.7726C6.46843 75.72 6.38527 75.658 6.58882 75.7544C6.93405 75.9178 7.56978 76.2779 8.5633 76.9152L10.453 73.9692ZM7.12333 72.3929L3.88137 71.0739L3.71996 71.4706L6.96192 72.7896L10.2039 74.1086L10.3653 73.7118L7.12333 72.3929ZM6.96192 72.7896L7.12968 69.2936L7.0298 69.2888L6.86203 72.7848L6.69427 76.2808L6.79416 76.2856L6.96192 72.7896Z" fill="black"/>
</svg>
