<svg width="185" height="421" viewBox="0 0 185 421" fill="none" xmlns="http://www.w3.org/2000/svg">
<path d="M2.71942 225.05C1.36829 226.432 1.39362 228.648 2.77598 229.999C4.15834 231.35 6.37428 231.325 7.7254 229.943L5.22241 227.496L2.71942 225.05ZM5.29231 227.425L7.7953 229.871L7.83601 229.829L7.8753 229.786L5.29231 227.425ZM16.4392 216.576L14.3009 213.806L16.4392 216.576ZM31.217 201.81L28.7527 199.324L31.217 201.81ZM44.257 185.483L47.0579 187.582L44.257 185.483ZM69.573 152.3L66.4187 150.784L69.573 152.3ZM75.2021 143.479L72.5 141.255L75.2021 143.479ZM85.8971 125.594L82.7221 124.121L85.8971 125.594ZM90.6476 116.301L93.7007 118.012L90.6476 116.301ZM95.5786 107.109L98.6929 108.707L95.5786 107.109ZM114.572 58.7815L111.085 58.4826L114.572 58.7815ZM116.789 48.5733L113.495 47.3918L116.789 48.5733ZM123.201 28.6943L126.654 29.2654L123.201 28.6943ZM128.442 8.45322L125.098 7.42119L128.442 8.45322ZM125.668 95.7789L122.182 96.0906L125.668 95.7789ZM125.699 127.125L122.202 127.257L125.699 127.125ZM133.573 168.144L130.268 169.294L133.573 168.144ZM139.894 188.05L136.55 189.085L139.894 188.05ZM143.531 197.841L146.74 196.442L143.531 197.841ZM154.193 215.746L151.279 217.685L154.193 215.746ZM159.995 224.382L157.099 226.347L159.995 224.382ZM180.252 254.89L179.388 258.282L179.581 258.331L179.779 258.358L180.252 254.89ZM180.821 254.968L183.69 252.963L182.812 251.707L181.294 251.5L180.821 254.968ZM178.01 257.055C179.117 258.639 181.299 259.026 182.883 257.919C184.468 256.811 184.854 254.629 183.747 253.045L180.878 255.05L178.01 257.055ZM5.22241 227.496L7.7254 229.943L7.7953 229.871L5.29231 227.425L2.78932 224.978L2.71942 225.05L5.22241 227.496ZM5.29231 227.425L7.8753 229.786C12.493 224.736 16.044 221.303 18.5776 219.347L16.4392 216.576L14.3009 213.806C11.2731 216.142 7.39268 219.941 2.70932 225.063L5.29231 227.425ZM16.4392 216.576L18.5776 219.347C21.5362 217.064 24.2404 214.525 26.6872 211.733L24.0548 209.426L21.4225 207.12C19.2766 209.569 16.9038 211.797 14.3009 213.806L16.4392 216.576ZM24.0548 209.426L26.6872 211.733C28.9295 209.174 31.2608 206.695 33.6812 204.295L31.217 201.81L28.7527 199.324C26.2163 201.839 23.7728 204.438 21.4225 207.12L24.0548 209.426ZM31.217 201.81L33.6812 204.295C36.2908 201.708 38.6821 198.929 40.8543 195.961L38.0297 193.894L35.2051 191.827C33.2505 194.498 31.1 196.997 28.7527 199.324L31.217 201.81ZM38.0297 193.894L40.8543 195.961C42.9099 193.151 44.9778 190.358 47.0579 187.582L44.257 185.483L41.456 183.385C39.3599 186.182 37.2763 188.996 35.2051 191.827L38.0297 193.894ZM44.257 185.483L47.0579 187.582C49.192 184.734 51.2321 181.816 53.1781 178.83L50.2456 176.919L47.3132 175.008C45.4505 177.867 43.4982 180.659 41.456 183.385L44.257 185.483ZM50.2456 176.919L53.1781 178.83C55.0231 175.998 56.9914 173.265 59.0832 170.631L56.3421 168.454L53.6011 166.278C51.3729 169.084 49.2769 171.994 47.3132 175.008L50.2456 176.919ZM56.3421 168.454L59.0832 170.631C61.1393 168.041 63.3911 165.584 65.8403 163.26L63.4311 160.721L61.0219 158.182C58.3391 160.728 55.8649 163.427 53.6011 166.278L56.3421 168.454ZM63.4311 160.721L65.8403 163.26C68.7137 160.533 71.0139 157.38 72.7273 153.817L69.573 152.3L66.4187 150.784C65.0749 153.578 63.2804 156.039 61.0219 158.182L63.4311 160.721ZM69.573 152.3L72.7273 153.817C74.1351 150.889 75.8601 148.187 77.9043 145.704L75.2021 143.479L72.5 141.255C70.0958 144.175 68.0681 147.353 66.4187 150.784L69.573 152.3ZM75.2021 143.479L77.9043 145.704C80.2559 142.847 82.3423 139.815 84.1619 136.608L81.1179 134.881L78.0738 133.154C76.454 136.008 74.5966 138.708 72.5 141.255L75.2021 143.479ZM81.1179 134.881L84.1619 136.608C85.9286 133.495 87.5654 130.314 89.0721 127.067L85.8971 125.594L82.7221 124.121C81.2958 127.195 79.7464 130.206 78.0738 133.154L81.1179 134.881ZM85.8971 125.594L89.0721 127.067C90.5011 123.987 92.044 120.969 93.7007 118.012L90.6476 116.301L87.5944 114.59C85.8502 117.702 84.2261 120.879 82.7221 124.121L85.8971 125.594ZM90.6476 116.301L93.7007 118.012C95.4222 114.941 97.0863 111.839 98.6929 108.707L95.5786 107.109L92.4644 105.512C90.8971 108.567 89.2738 111.594 87.5944 114.59L90.6476 116.301ZM95.5786 107.109L98.6929 108.707C100.215 105.738 101.919 102.857 103.805 100.064L100.905 98.1054L98.0037 96.147C95.9625 99.1705 94.1158 102.292 92.4644 105.512L95.5786 107.109ZM100.905 98.1054L103.805 100.064C106.048 96.7416 107.522 93.0709 108.223 89.0856L104.776 88.479L101.329 87.8724C100.796 90.905 99.6881 93.652 98.0037 96.147L100.905 98.1054ZM104.776 88.479L108.223 89.0856C108.781 85.9148 109.778 82.9386 111.21 80.1437L108.096 78.547L104.981 76.9503C103.223 80.38 102.006 84.0251 101.329 87.8724L104.776 88.479ZM108.096 78.547L111.21 80.1437C112.869 76.908 114.328 73.5899 115.586 70.1899L112.304 68.9751L109.022 67.7603C107.86 70.8983 106.514 73.9614 104.981 76.9503L108.096 78.547ZM112.304 68.9751L115.586 70.1899C116.907 66.6217 117.731 62.9154 118.059 59.0804L114.572 58.7815L111.085 58.4826C110.809 61.7011 110.121 64.7906 109.022 67.7603L112.304 68.9751ZM114.572 58.7815L118.059 59.0804C118.336 55.8499 119.012 52.7442 120.084 49.7547L116.789 48.5733L113.495 47.3918C112.215 50.9598 111.413 54.6595 111.085 58.4826L114.572 58.7815ZM116.789 48.5733L120.084 49.7547C121.25 46.5037 122.46 43.2585 123.714 40.0191L120.45 38.7553L117.186 37.4915C115.911 40.7853 114.68 44.0854 113.495 47.3918L116.789 48.5733ZM120.45 38.7553L123.714 40.0191C125.065 36.5296 126.046 32.9439 126.654 29.2654L123.201 28.6943L119.748 28.1231C119.218 31.326 118.365 34.4476 117.186 37.4915L120.45 38.7553ZM123.201 28.6943L126.654 29.2654C127.202 25.9523 127.931 22.6834 128.841 19.4583L125.472 18.5079L122.104 17.5576C121.124 21.0328 120.338 24.5548 119.748 28.1231L123.201 28.6943ZM125.472 18.5079L128.841 19.4583C129.778 16.1356 130.76 12.8113 131.787 9.48524L128.442 8.45322L125.098 7.42119C124.055 10.8011 123.057 14.1799 122.104 17.5576L125.472 18.5079ZM128.442 8.45322L131.787 9.48524C132.292 7.8466 132.66 6.57633 132.808 5.85289C132.838 5.70644 132.912 5.34196 132.921 4.9398C132.922 4.89271 132.97 4.09879 132.552 3.25243C132.292 2.72559 131.659 1.81303 130.404 1.43841C129.197 1.0779 128.215 1.45974 127.775 1.68823C127.014 2.083 126.598 2.66561 126.56 2.71559C126.422 2.8958 126.321 3.06121 126.262 3.16091C126.138 3.36992 126.026 3.59209 125.935 3.78087L129.087 5.30235L132.239 6.82383C132.299 6.6995 132.313 6.68054 132.289 6.72036C132.28 6.73546 132.223 6.83428 132.122 6.96587C132.121 6.96724 131.736 7.51922 130.999 7.90136C130.571 8.12354 129.6 8.50356 128.401 8.14572C127.156 7.77379 126.531 6.8684 126.276 6.35324C126.033 5.86099 125.969 5.43285 125.947 5.25834C125.921 5.04692 125.921 4.87951 125.923 4.78988C125.929 4.50637 125.974 4.3325 125.951 4.44862C125.884 4.77547 125.627 5.70684 125.098 7.42119L128.442 8.45322ZM129.087 5.30235L125.935 3.78087C125.378 4.93601 125.107 6.30162 124.964 7.64098C124.814 9.03275 124.777 10.6613 124.828 12.4912L128.327 12.3931L131.825 12.2951C131.779 10.6502 131.82 9.35956 131.924 8.38774C132.034 7.3635 132.192 6.9211 132.239 6.82383L129.087 5.30235ZM128.327 12.3931L124.828 12.4912C124.925 15.9559 125.007 19.4242 125.075 22.896L128.574 22.8279L132.074 22.7598C132.006 19.2681 131.923 15.7799 131.825 12.2951L128.327 12.3931ZM128.574 22.8279L125.075 22.896C125.139 26.1935 124.944 29.4771 124.489 32.7485L127.955 33.2306L131.422 33.7128C131.928 30.0773 132.145 26.4257 132.074 22.7598L128.574 22.8279ZM127.955 33.2306L124.489 32.7485C124.004 36.2334 123.567 39.7251 123.177 43.2235L126.656 43.611L130.134 43.9985C130.517 40.5633 130.946 37.1348 131.422 33.7128L127.955 33.2306ZM126.656 43.611L123.177 43.2235C122.767 46.9031 122.696 50.5962 122.962 54.3001L126.453 54.0489L129.944 53.7977C129.708 50.518 129.771 47.2525 130.134 43.9985L126.656 43.611ZM126.453 54.0489L122.962 54.3001C123.206 57.6847 123.292 61.0609 123.222 64.429L126.721 64.502L130.22 64.575C130.295 60.9892 130.203 57.3966 129.944 53.7977L126.453 54.0489ZM126.721 64.502L123.222 64.429C123.152 67.7678 122.885 71.1055 122.42 74.4429L125.887 74.9258L129.353 75.4087C129.856 71.8017 130.145 68.1903 130.22 64.575L126.721 64.502ZM125.887 74.9258L122.42 74.4429C121.914 78.0781 121.667 81.7176 121.681 85.3601L125.181 85.3467L128.681 85.3333C128.669 82.0257 128.892 78.7179 129.353 75.4087L125.887 74.9258ZM125.181 85.3467L121.681 85.3601C121.695 88.9352 121.862 92.5122 122.182 96.0906L125.668 95.7789L129.154 95.4672C128.852 92.0861 128.694 88.7082 128.681 85.3333L125.181 85.3467ZM125.668 95.7789L122.182 96.0906C122.48 99.4319 122.579 102.769 122.477 106.101L125.975 106.208L129.474 106.315C129.584 102.702 129.477 99.0854 129.154 95.4672L125.668 95.7789ZM125.975 106.208L122.477 106.101C122.371 109.575 122.265 113.056 122.16 116.545L125.658 116.651L129.156 116.756C129.262 113.268 129.367 109.788 129.474 106.315L125.975 106.208ZM125.658 116.651L122.16 116.545C122.052 120.113 122.066 123.684 122.202 127.257L125.699 127.125L129.197 126.992C129.067 123.576 129.054 120.165 129.156 116.756L125.658 116.651ZM125.699 127.125L122.202 127.257C122.339 130.862 122.645 134.451 123.122 138.024L126.591 137.562L130.06 137.1C129.613 133.745 129.325 130.376 129.197 126.992L125.699 127.125ZM126.591 137.562L123.122 138.024C123.616 141.735 124.501 145.369 125.773 148.923L129.068 147.743L132.363 146.562C131.256 143.469 130.489 140.316 130.06 137.1L126.591 137.562ZM129.068 147.743L125.773 148.923C126.866 151.974 127.563 155.095 127.867 158.291L131.352 157.96L134.836 157.628C134.476 153.848 133.651 150.157 132.363 146.562L129.068 147.743ZM131.352 157.96L127.867 158.291C128.226 162.058 129.026 165.727 130.268 169.294L133.573 168.144L136.879 166.993C135.822 163.957 135.142 160.838 134.836 157.628L131.352 157.96ZM133.573 168.144L130.268 169.294C131.402 172.554 132.471 175.824 133.476 179.103L136.822 178.077L140.169 177.052C139.139 173.689 138.042 170.336 136.879 166.993L133.573 168.144ZM136.822 178.077L133.476 179.103C134.494 182.427 135.519 185.755 136.55 189.085L139.894 188.05L143.237 187.016C142.208 183.691 141.185 180.37 140.169 177.052L136.822 178.077ZM139.894 188.05L136.55 189.085C137.619 192.537 138.876 195.922 140.323 199.24L143.531 197.841L146.74 196.442C145.396 193.361 144.229 190.219 143.237 187.016L139.894 188.05ZM143.531 197.841L140.323 199.24C141.795 202.615 143.532 205.848 145.534 208.937L148.471 207.033L151.408 205.13C149.614 202.362 148.058 199.467 146.74 196.442L143.531 197.841ZM148.471 207.033L145.534 208.937C147.44 211.877 149.355 214.793 151.279 217.685L154.193 215.746L157.107 213.808C155.199 210.939 153.299 208.047 151.408 205.13L148.471 207.033ZM154.193 215.746L151.279 217.685C153.201 220.574 155.141 223.461 157.099 226.347L159.995 224.382L162.891 222.417C160.945 219.548 159.017 216.679 157.107 213.808L154.193 215.746ZM159.995 224.382L157.099 226.347C159.067 229.248 161.07 232.124 163.107 234.975L165.955 232.94L168.802 230.905C166.798 228.1 164.828 225.271 162.891 222.417L159.995 224.382ZM165.955 232.94L163.107 234.975C165.196 237.898 167.424 240.707 169.793 243.403L172.422 241.094L175.052 238.784C172.838 236.264 170.755 233.638 168.802 230.905L165.955 232.94ZM172.422 241.094L169.793 243.403C171.812 245.703 173.371 248.274 174.479 251.133L177.742 249.868L181.006 248.604C179.602 244.98 177.614 241.701 175.052 238.784L172.422 241.094ZM177.742 249.868L174.479 251.133C175.119 252.785 175.689 254.135 176.181 255.12C176.421 255.601 176.695 256.1 176.999 256.532C177.15 256.746 177.369 257.032 177.66 257.309C177.901 257.539 178.483 258.051 179.388 258.282L180.252 254.89L181.117 251.499C181.917 251.703 182.382 252.14 182.492 252.245C182.579 252.328 182.638 252.396 182.669 252.434C182.702 252.473 182.719 252.497 182.722 252.501C182.725 252.506 182.7 252.47 182.645 252.374C182.593 252.282 182.525 252.156 182.442 251.99C182.098 251.301 181.622 250.193 181.006 248.604L177.742 249.868ZM180.252 254.89L179.779 258.358L180.348 258.436L180.821 254.968L181.294 251.5L180.726 251.423L180.252 254.89ZM180.821 254.968L177.952 256.973L178.01 257.055L180.878 255.05L183.747 253.045L183.69 252.963L180.821 254.968Z" fill="black"/>
<path d="M5.43947 224.582C3.83026 223.511 1.65756 223.948 0.586626 225.557C-0.484311 227.166 -0.0479507 229.339 1.56126 230.41L3.50037 227.496L5.43947 224.582ZM3.58362 227.551L1.64451 230.465L1.96927 230.681L2.33364 230.821L3.58362 227.551ZM17.5041 234.579L15.3232 237.317L17.5041 234.579ZM40.0084 256.274L37.0522 258.147L40.0084 256.274ZM53.2777 272.444L50.391 274.423L53.2777 272.444ZM58.3052 281.611L55.0845 282.981L58.3052 281.611ZM73.0301 331.486L76.4233 330.628L73.0301 331.486ZM75.5951 362.637L72.0964 362.543L75.5951 362.637ZM75.6548 373.098L72.1573 373.232L75.6548 373.098ZM76.3518 383.487L79.8357 383.153L76.3518 383.487ZM81.4599 403.44L78.199 402.169L81.4599 403.44ZM89.2678 362.446L92.5178 363.745L89.2678 362.446ZM93.4148 352.818L90.2383 351.348L93.4148 352.818ZM105.233 323.925L102.039 322.495L105.233 323.925ZM114.465 305.239L117.45 307.066V307.066L114.465 305.239ZM118.448 295.551L115.044 294.736V294.736L118.448 295.551ZM135.886 269.691L133.343 267.286L135.886 269.691ZM153.251 258.163L154.951 261.222L153.251 258.163ZM162.738 253.935L163.875 257.245V257.245L162.738 253.935ZM172.573 250.558L171.436 247.247L172.573 250.558ZM179.18 248.517L178.49 245.086L178.476 245.089L178.462 245.092L179.18 248.517ZM180.784 248.195L181.474 251.626L181.715 251.578L181.947 251.496L180.784 248.195ZM182.042 251.462C183.865 250.82 184.822 248.821 184.179 246.998C183.537 245.175 181.538 244.218 179.715 244.861L180.878 248.161L182.042 251.462ZM3.50037 227.496L1.56126 230.41L1.64451 230.465L3.58362 227.551L5.52272 224.638L5.43947 224.582L3.50037 227.496ZM3.58362 227.551L2.33364 230.821C8.79909 233.293 13.0192 235.481 15.3232 237.317L17.5041 234.579L19.685 231.842C16.5019 229.306 11.4416 226.809 4.8336 224.282L3.58362 227.551ZM17.5041 234.579L15.3232 237.317C18.107 239.534 20.9334 241.686 23.8025 243.771L25.8603 240.94L27.918 238.109C25.1327 236.084 22.3884 233.995 19.685 231.842L17.5041 234.579ZM25.8603 240.94L23.8025 243.771C26.435 245.685 28.8517 247.853 31.055 250.279L33.6459 247.925L36.2368 245.572C33.7136 242.794 30.9399 240.305 27.918 238.109L25.8603 240.94ZM33.6459 247.925L31.055 250.279C33.2832 252.732 35.2818 255.354 37.0522 258.147L40.0084 256.274L42.9645 254.4C40.9782 251.266 38.7351 248.323 36.2368 245.572L33.6459 247.925ZM40.0084 256.274L37.0522 258.147C39.072 261.334 41.4242 264.254 44.1058 266.904L46.5657 264.414L49.0257 261.924C46.7208 259.647 44.7014 257.14 42.9645 254.4L40.0084 256.274ZM46.5657 264.414L44.1058 266.904C46.4409 269.211 48.5353 271.717 50.391 274.423L53.2777 272.444L56.1644 270.465C54.0572 267.392 51.677 264.544 49.0257 261.924L46.5657 264.414ZM53.2777 272.444L50.391 274.423C52.2413 277.122 53.8052 279.974 55.0845 282.981L58.3052 281.611L61.5259 280.241C60.0647 276.806 58.2769 273.546 56.1644 270.465L53.2777 272.444ZM58.3052 281.611L55.0845 282.981C56.4638 286.223 57.873 289.448 59.3121 292.654L62.5052 291.221L65.6984 289.788C64.2781 286.623 62.8873 283.441 61.5259 280.241L58.3052 281.611ZM62.5052 291.221L59.3121 292.654C60.61 295.546 61.5062 298.595 61.9982 301.81L65.4579 301.281L68.9177 300.752C68.3321 296.925 67.2598 293.267 65.6984 289.788L62.5052 291.221ZM65.4579 301.281L61.9982 301.81C62.5901 305.678 63.7378 309.347 65.4443 312.802L68.5825 311.253L71.7206 309.703C70.3387 306.905 69.4034 303.926 68.9177 300.752L65.4579 301.281ZM68.5825 311.253L65.4443 312.802C66.7925 315.532 67.5848 318.401 67.8279 321.432L71.3167 321.153L74.8055 320.873C74.4915 316.957 73.4609 313.226 71.7206 309.703L68.5825 311.253ZM71.3167 321.153L67.8279 321.432C68.1223 325.103 68.7258 328.741 69.6368 332.344L73.0301 331.486L76.4233 330.628C75.6071 327.4 75.0683 324.149 74.8055 320.873L71.3167 321.153ZM73.0301 331.486L69.6368 332.344C70.4486 335.554 70.9553 338.774 71.1593 342.006L74.6524 341.785L78.1454 341.565C77.9137 337.895 77.3387 334.248 76.4233 330.628L73.0301 331.486ZM74.6524 341.785L71.1593 342.006C71.378 345.468 71.6138 348.943 71.8668 352.434L75.3576 352.18L78.8485 351.927C78.597 348.459 78.3627 345.004 78.1454 341.565L74.6524 341.785ZM75.3576 352.18L71.8668 352.434C72.1106 355.797 72.1872 359.167 72.0964 362.543L75.5951 362.637L79.0938 362.731C79.1909 359.124 79.1091 355.522 78.8485 351.927L75.3576 352.18ZM75.5951 362.637L72.0964 362.543C72.0004 366.11 72.0207 369.673 72.1573 373.232L75.6548 373.098L79.1522 372.963C79.0214 369.557 79.0019 366.147 79.0938 362.731L75.5951 362.637ZM75.6548 373.098L72.1573 373.232C72.2936 376.781 72.5304 380.311 72.8678 383.822L76.3518 383.487L79.8357 383.153C79.5112 379.776 79.2834 376.379 79.1522 372.963L75.6548 373.098ZM76.3518 383.487L72.8678 383.822C73.1998 387.277 73.5484 390.743 73.9139 394.223L77.3947 393.857L80.8756 393.492C80.5123 390.033 80.1657 386.586 79.8357 383.153L76.3518 383.487ZM77.3947 393.857L73.9139 394.223C74.2651 397.567 74.4343 400.913 74.4217 404.263L77.9217 404.277L81.4216 404.29C81.4352 400.686 81.2531 397.086 80.8756 393.492L77.3947 393.857ZM77.9217 404.277L74.4217 404.263C74.4079 407.93 74.6922 411.489 75.2804 414.934L78.7305 414.346L82.1806 413.757C81.6642 410.731 81.4093 407.577 81.4216 404.29L77.9217 404.277ZM78.7305 414.346L75.2804 414.934C75.4217 415.762 75.5646 416.493 75.7128 417.043C75.7743 417.271 75.8969 417.704 76.1136 418.13C76.1905 418.281 76.4873 418.868 77.1135 419.367C77.4681 419.649 78.0903 420.032 78.9567 420.123C79.8899 420.221 80.7102 419.939 81.3087 419.534C82.2682 418.885 82.6017 417.973 82.6603 417.822C82.781 417.51 82.8417 417.231 82.8729 417.071C82.9384 416.732 82.9707 416.383 82.9905 416.097C83.0319 415.497 83.0466 414.71 83.0441 413.786L79.5441 413.795L76.0441 413.805C76.0465 414.682 76.031 415.269 76.0071 415.615C75.9942 415.802 75.9851 415.819 76.0004 415.74C76.0064 415.709 76.0398 415.534 76.131 415.298C76.1601 415.223 76.462 414.361 77.3876 413.735C77.9691 413.342 78.7719 413.065 79.687 413.161C80.5354 413.25 81.139 413.624 81.4744 413.891C82.0624 414.359 82.3186 414.889 82.3529 414.956C82.4842 415.214 82.5126 415.373 82.4712 415.219C82.4136 415.006 82.3154 414.546 82.1806 413.757L78.7305 414.346ZM79.5441 413.795L83.0441 413.786C83.0353 410.614 83.5956 407.598 84.7207 404.712L81.4599 403.44L78.199 402.169C76.75 405.885 76.033 409.772 76.0441 413.805L79.5441 413.795ZM81.4599 403.44L84.7207 404.712C86.1533 401.038 86.9255 397.231 87.0308 393.308L83.532 393.214L80.0333 393.12C79.9498 396.23 79.3406 399.241 78.199 402.169L81.4599 403.44ZM83.532 393.214L87.0308 393.308C87.1169 390.098 87.6173 386.974 88.5315 383.927L85.1792 382.921L81.8268 381.915C80.7336 385.559 80.1359 389.296 80.0333 393.12L83.532 393.214ZM85.1792 382.921L88.5315 383.927C89.6139 380.32 90.2677 376.617 90.494 372.825L87.0002 372.617L83.5065 372.408C83.3121 375.666 82.7518 378.833 81.8268 381.915L85.1792 382.921ZM87.0002 372.617L90.494 372.825C90.6822 369.672 91.3566 366.65 92.5178 363.745L89.2678 362.446L86.0178 361.147C84.5763 364.754 83.739 368.512 83.5065 372.408L87.0002 372.617ZM89.2678 362.446L92.5178 363.745C93.7963 360.546 95.1541 357.394 96.5912 354.288L93.4148 352.818L90.2383 351.348C88.7488 354.567 87.342 357.834 86.0178 361.147L89.2678 362.446ZM93.4148 352.818L96.5912 354.288C98.1427 350.935 99.3837 347.465 100.314 343.88L96.9259 343.001L93.5381 342.122C92.7131 345.302 91.6133 348.377 90.2383 351.348L93.4148 352.818ZM96.9259 343.001L100.314 343.88C101.124 340.758 102.276 337.777 103.771 334.933L100.674 333.304L97.5756 331.675C95.8292 334.997 94.4829 338.481 93.5381 342.122L96.9259 343.001ZM100.674 333.304L103.771 334.933C105.427 331.785 106.979 328.592 108.428 325.355L105.233 323.925L102.039 322.495C100.65 325.598 99.1623 328.658 97.5756 331.675L100.674 333.304ZM105.233 323.925L108.428 325.355C109.841 322.197 111.274 319.047 112.725 315.903L109.548 314.436L106.37 312.969C104.907 316.137 103.463 319.313 102.039 322.495L105.233 323.925ZM109.548 314.436L112.725 315.903C114.125 312.871 115.7 309.926 117.45 307.066L114.465 305.239L111.48 303.412C109.588 306.503 107.884 309.689 106.37 312.969L109.548 314.436ZM114.465 305.239L117.45 307.066C119.468 303.768 120.934 300.196 121.851 296.366L118.448 295.551L115.044 294.736C114.293 297.871 113.104 300.757 111.48 303.412L114.465 305.239ZM118.448 295.551L121.851 296.366C122.584 293.308 123.832 290.547 125.596 288.055L122.74 286.032L119.884 284.01C117.593 287.244 115.98 290.829 115.044 294.736L118.448 295.551ZM122.74 286.032L125.596 288.055C127.589 285.241 129.647 282.488 131.77 279.797L129.022 277.629L126.274 275.462C124.076 278.248 121.946 281.098 119.884 284.01L122.74 286.032ZM129.022 277.629L131.77 279.797C133.865 277.141 136.084 274.574 138.428 272.096L135.886 269.691L133.343 267.286C130.856 269.914 128.5 272.64 126.274 275.462L129.022 277.629ZM135.886 269.691L138.428 272.096C140.602 269.798 143.062 267.879 145.815 266.331L144.1 263.28L142.384 260.229C139.017 262.123 136 264.477 133.343 267.286L135.886 269.691ZM144.1 263.28L145.815 266.331C148.871 264.613 151.916 262.91 154.951 261.222L153.251 258.163L151.55 255.104C148.505 256.797 145.45 258.506 142.384 260.229L144.1 263.28ZM153.251 258.163L154.951 261.222C157.812 259.632 160.786 258.307 163.875 257.245L162.738 253.935L161.6 250.625C158.121 251.821 154.77 253.314 151.55 255.104L153.251 258.163ZM162.738 253.935L163.875 257.245C167.159 256.117 170.437 254.991 173.709 253.868L172.573 250.558L171.436 247.247C168.164 248.37 164.885 249.496 161.6 250.625L162.738 253.935ZM172.573 250.558L173.709 253.868C177.015 252.733 179.013 252.128 179.897 251.943L179.18 248.517L178.462 245.092C177.081 245.381 174.674 246.136 171.436 247.247L172.573 250.558ZM179.18 248.517L179.869 251.949L181.474 251.626L180.784 248.195L180.094 244.763L178.49 245.086L179.18 248.517ZM180.784 248.195L181.947 251.496L182.042 251.462L180.878 248.161L179.715 244.861L179.621 244.894L180.784 248.195Z" fill="black"/>
</svg>
