<svg width="404" height="395" viewBox="0 0 404 395" fill="none" xmlns="http://www.w3.org/2000/svg">
<path d="M175.472 16.2548C176.035 14.4057 174.993 12.45 173.144 11.8867C171.295 11.3233 169.339 12.3656 168.776 14.2147L172.124 15.2347L175.472 16.2548ZM172.095 15.3304L175.429 16.3942L175.436 16.3724L175.443 16.3504L172.095 15.3304ZM156.452 70.4284L153.083 69.4791L156.452 70.4284ZM152.706 80.1937L149.564 78.6503L152.706 80.1937ZM147.362 100.366L144.02 99.3251L147.362 100.366ZM143.674 110.155L140.475 108.733L143.674 110.155ZM140.349 120.05L136.941 119.254L140.349 120.05ZM130.126 160.502L126.85 159.268L130.126 160.502ZM124.727 172.635L121.65 174.304L124.727 172.635ZM124.403 154.386L121.002 153.557L124.403 154.386ZM127.602 133.754L124.34 132.486L127.602 133.754ZM132.903 92.4791L136.36 93.0236L132.903 92.4791ZM133.877 67.3703L137.224 68.3927L133.877 67.3703ZM133.116 83.9804L129.688 83.2732L133.116 83.9804ZM129.814 125.544L126.329 125.217L129.814 125.544ZM128.557 146.379L131.975 147.131L128.557 146.379ZM125.799 167.104L122.435 166.136L125.799 167.104ZM128.045 158.127L124.546 158.06L128.045 158.127ZM132.286 116.628L128.906 115.719L132.286 116.628ZM148.396 45.4951L144.961 44.8252L148.396 45.4951ZM150.756 35.3257L147.376 34.4153L150.756 35.3257ZM154.538 25.6018L151.431 23.9902L154.538 25.6018ZM164.714 24.2489L161.43 25.4593L164.714 24.2489ZM168.539 33.925L165.314 35.2868L168.539 33.925ZM186.76 71.5042L189.955 70.0752L186.76 71.5042ZM193.889 91.1753L196.927 89.4383L193.889 91.1753ZM203.572 109.662L200.571 111.463L203.572 109.662ZM205.416 105.711L202.236 107.172L205.416 105.711ZM202.34 95.7326L198.89 96.3205V96.3205L202.34 95.7326ZM194.706 76.3665L191.505 77.781L194.706 76.3665ZM191.064 66.5887L187.718 67.6141L191.064 66.5887ZM187.324 56.869L184.154 58.3524L187.324 56.869ZM183.52 47.2068L186.851 46.1309L183.52 47.2068ZM173.604 17.5742L176.984 16.6647L173.604 17.5742ZM170.76 12.3919L167.73 14.143L170.76 12.3919ZM175.655 21.6769L178.813 20.1683L175.655 21.6769ZM214.909 95.2664L217.836 93.3468L214.909 95.2664ZM225.198 113.429L222.237 115.295L225.198 113.429ZM231.291 121.924L234.009 119.719L231.291 121.924ZM237.194 130.526L234.158 132.267L237.194 130.526ZM247.041 144.645L250.075 142.901L250.07 142.893L250.066 142.885L247.041 144.645ZM247.839 146.034L244.805 147.778L244.886 147.92L244.981 148.054L247.839 146.034ZM245.038 148.135C246.154 149.714 248.338 150.09 249.916 148.974C251.495 147.859 251.871 145.675 250.755 144.096L247.897 146.116L245.038 148.135ZM172.124 15.2347L168.776 14.2147L168.746 14.3103L172.095 15.3304L175.443 16.3504L175.472 16.2548L172.124 15.2347ZM172.095 15.3304L168.76 14.2666C166.676 20.7999 164.967 25.5385 163.631 28.5663L166.833 29.9794L170.035 31.3925C171.527 28.0121 173.326 22.9847 175.429 16.3942L172.095 15.3304ZM166.833 29.9794L163.631 28.5663C162.143 31.939 160.933 35.399 160.002 38.9449L163.388 39.8333L166.773 40.7217C167.609 37.5372 168.696 34.4279 170.035 31.3925L166.833 29.9794ZM163.388 39.8333L160.002 38.9449C159.083 42.448 158.375 46.0136 157.879 49.6406L161.347 50.1149L164.815 50.5893C165.273 47.238 165.926 43.9491 166.773 40.7217L163.388 39.8333ZM161.347 50.1149L157.879 49.6406C157.423 52.9787 156.754 56.2488 155.874 59.452L159.248 60.3795L162.623 61.3069C163.586 57.8024 164.317 54.2295 164.815 50.5893L161.347 50.1149ZM159.248 60.3795L155.874 59.452C154.954 62.7986 154.024 66.141 153.083 69.4791L156.452 70.4284L159.821 71.3776C160.765 68.025 161.7 64.6681 162.623 61.3069L159.248 60.3795ZM156.452 70.4284L153.083 69.4791C152.199 72.617 151.027 75.6734 149.564 78.6503L152.706 80.1937L155.847 81.7372C157.494 78.3843 158.82 74.9305 159.821 71.3776L156.452 70.4284ZM152.706 80.1937L149.564 78.6503C147.846 82.1476 146.715 85.8282 146.177 89.679L149.643 90.1637L153.109 90.6484C153.544 87.5357 154.455 84.5696 155.847 81.7372L152.706 80.1937ZM149.643 90.1637L146.177 89.679C145.716 92.9745 144.997 96.1891 144.02 99.3251L147.362 100.366L150.703 101.407C151.794 97.9033 152.596 94.3165 153.109 90.6484L149.643 90.1637ZM147.362 100.366L144.02 99.3251C143.027 102.514 141.846 105.65 140.475 108.733L143.674 110.155L146.872 111.576C148.352 108.247 149.629 104.857 150.703 101.407L147.362 100.366ZM143.674 110.155L140.475 108.733C138.962 112.14 137.783 115.647 136.941 119.254L140.349 120.05L143.758 120.846C144.499 117.671 145.537 114.582 146.872 111.576L143.674 110.155ZM140.349 120.05L136.941 119.254C136.151 122.638 135.351 126.016 134.54 129.389L137.943 130.207L141.346 131.025C142.16 127.637 142.964 124.244 143.758 120.846L140.349 120.05ZM137.943 130.207L134.54 129.389C133.749 132.677 132.827 135.932 131.773 139.152L135.099 140.241L138.426 141.329C139.538 137.931 140.512 134.496 141.346 131.025L137.943 130.207ZM135.099 140.241L131.773 139.152C130.627 142.654 129.789 146.237 129.26 149.899L132.724 150.399L136.188 150.899C136.66 147.635 137.406 144.446 138.426 141.329L135.099 140.241ZM132.724 150.399L129.26 149.899C128.796 153.112 127.993 156.233 126.85 159.268L130.126 160.502L133.401 161.735C134.723 158.226 135.652 154.613 136.188 150.899L132.724 150.399ZM130.126 160.502L126.85 159.268C125.545 162.734 124.558 166.284 123.889 169.916L127.331 170.55L130.773 171.184C131.366 167.962 132.242 164.813 133.401 161.735L130.126 160.502ZM127.331 170.55L123.889 169.916C123.748 170.679 123.618 171.154 123.524 171.412C123.478 171.538 123.464 171.546 123.502 171.482C123.531 171.433 123.682 171.179 124.018 170.91C124.393 170.61 125.014 170.285 125.824 170.275C126.607 170.265 127.18 170.553 127.48 170.757C127.763 170.95 127.895 171.125 127.901 171.132C127.917 171.153 127.882 171.111 127.804 170.967L124.727 172.635L121.65 174.304C121.987 174.924 122.575 175.887 123.542 176.545C124.089 176.917 124.901 177.287 125.915 177.274C126.958 177.261 127.803 176.848 128.394 176.374C129.401 175.567 129.871 174.439 130.102 173.805C130.383 173.032 130.598 172.135 130.773 171.184L127.331 170.55ZM124.727 172.635L127.804 170.967C127.084 169.639 126.591 167.584 126.622 164.536L123.122 164.501L119.623 164.465C119.585 168.19 120.162 171.558 121.65 174.304L124.727 172.635ZM123.122 164.501L126.622 164.536C126.654 161.423 127.046 158.318 127.803 155.216L124.403 154.386L121.002 153.557C120.121 157.168 119.66 160.806 119.623 164.465L123.122 164.501ZM124.403 154.386L127.803 155.216C128.688 151.586 129.14 147.856 129.161 144.03L125.662 144.01L122.162 143.99C122.143 147.287 121.755 150.473 121.002 153.557L124.403 154.386ZM125.662 144.01L129.161 144.03C129.179 140.891 129.748 137.896 130.865 135.021L127.602 133.754L124.34 132.486C122.91 136.166 122.184 140.008 122.162 143.99L125.662 144.01ZM127.602 133.754L130.865 135.021C132.192 131.606 133.295 128.128 134.175 124.586L130.778 123.743L127.381 122.899C126.573 126.151 125.56 129.347 124.34 132.486L127.602 133.754ZM130.778 123.743L134.175 124.586C135.078 120.945 135.583 117.245 135.689 113.492L132.19 113.394L128.691 113.296C128.6 116.547 128.163 119.747 127.381 122.899L130.778 123.743ZM132.19 113.394L135.689 113.492C135.789 109.93 135.797 106.368 135.713 102.808L132.214 102.89L128.715 102.973C128.796 106.413 128.788 109.853 128.691 113.296L132.19 113.394ZM132.214 102.89L135.713 102.808C135.635 99.5167 135.851 96.2562 136.36 93.0236L132.903 92.4791L129.445 91.9345C128.871 95.5839 128.627 99.2642 128.715 102.973L132.214 102.89ZM132.903 92.4791L136.36 93.0236C136.919 89.4747 137.31 85.9117 137.534 82.3348L134.04 82.1168L130.547 81.8988C130.338 85.2563 129.97 88.6015 129.445 91.9345L132.903 92.4791ZM134.04 82.1168L137.534 82.3348C137.756 78.771 137.831 75.2001 137.757 71.6225L134.258 71.6941L130.759 71.7657C130.828 75.1506 130.758 78.5282 130.547 81.8988L134.04 82.1168ZM134.258 71.6941L137.757 71.6225C137.722 69.8816 137.671 68.5453 137.596 67.6948C137.574 67.4405 137.518 66.7183 137.288 66.0953C137.238 65.9588 137.024 65.3633 136.481 64.8063C136.175 64.4922 135.609 64.0308 134.757 63.8312C133.83 63.6143 132.967 63.8003 132.315 64.1431C131.281 64.6865 130.857 65.5669 130.795 65.6876C130.651 65.9696 130.569 66.2185 130.53 66.3479L133.877 67.3703L137.224 68.3927C137.208 68.4473 137.149 68.6372 137.026 68.8763C136.987 68.954 136.584 69.8074 135.571 70.3397C134.929 70.6769 134.077 70.8614 133.161 70.6469C132.319 70.4497 131.763 69.9947 131.467 69.691C130.945 69.1548 130.75 68.596 130.719 68.5122C130.567 68.0997 130.582 67.8432 130.623 68.3095C130.675 68.9003 130.723 70.0253 130.759 71.7657L134.258 71.6941ZM133.877 67.3703L130.53 66.3479C130.359 66.9067 130.308 67.489 130.283 67.8591C130.253 68.3029 130.242 68.8152 130.243 69.3731C130.245 70.4931 130.297 71.9596 130.394 73.7476L133.889 73.5586L137.384 73.3696C137.29 71.6308 137.245 70.3026 137.243 69.3598C137.242 68.8863 137.252 68.5502 137.267 68.3287C137.287 68.0333 137.304 68.1333 137.224 68.3927L133.877 67.3703ZM133.889 73.5586L130.394 73.7476C130.569 76.9773 130.333 80.1499 129.688 83.2732L133.116 83.9804L136.544 84.6877C137.311 80.9687 137.59 77.1934 137.384 73.3696L133.889 73.5586ZM133.116 83.9804L129.688 83.2732C128.977 86.7211 128.306 90.178 127.674 93.6441L131.118 94.271L134.561 94.8979C135.183 91.4855 135.843 88.0822 136.544 84.6877L133.116 83.9804ZM131.118 94.271L127.674 93.6441C126.988 97.4142 126.848 101.224 127.253 105.062L130.733 104.695L134.214 104.328C133.879 101.146 133.995 98.0061 134.561 94.8979L131.118 94.271ZM130.733 104.695L127.253 105.062C127.598 108.344 127.617 111.596 127.31 114.822L130.794 115.153L134.279 115.485C134.63 111.787 134.608 108.067 134.214 104.328L130.733 104.695ZM130.794 115.153L127.31 114.822C126.981 118.286 126.654 121.751 126.329 125.217L129.814 125.544L133.299 125.87C133.623 122.407 133.95 118.945 134.279 115.485L130.794 115.153ZM129.814 125.544L126.329 125.217C125.991 128.831 125.884 132.463 126.008 136.113L129.506 135.993L133.004 135.874C132.89 132.52 132.988 129.186 133.299 125.87L129.814 125.544ZM129.506 135.993L126.008 136.113C126.118 139.321 125.828 142.491 125.139 145.628L128.557 146.379L131.975 147.131C132.791 143.422 133.134 139.668 133.004 135.874L129.506 135.993ZM128.557 146.379L125.139 145.628C124.336 149.279 123.907 152.968 123.852 156.692L127.352 156.743L130.852 156.794C130.899 153.544 131.274 150.324 131.975 147.131L128.557 146.379ZM127.352 156.743L123.852 156.692C123.806 159.862 123.336 163.007 122.435 166.136L125.799 167.104L129.162 168.072C130.231 164.359 130.796 160.598 130.852 156.794L127.352 156.743ZM125.799 167.104L122.435 166.136C122.185 167.006 121.99 167.722 121.862 168.258C121.8 168.516 121.738 168.798 121.697 169.06C121.677 169.184 121.648 169.387 121.639 169.621C121.634 169.737 121.631 169.929 121.654 170.161C121.673 170.342 121.73 170.823 121.995 171.369C122.279 171.956 123.043 173.043 124.567 173.304C125.888 173.531 126.841 172.949 127.142 172.745C127.759 172.326 128.097 171.798 128.132 171.747C128.336 171.447 128.495 171.126 128.585 170.94C128.8 170.494 129.068 169.868 129.374 169.117L126.134 167.795L122.893 166.473C122.595 167.202 122.396 167.657 122.282 167.894C122.207 168.049 122.236 167.969 122.343 167.811C122.378 167.76 122.449 167.659 122.553 167.538C122.637 167.44 122.86 167.191 123.214 166.951C123.499 166.757 124.439 166.18 125.749 166.405C127.261 166.664 128.016 167.743 128.293 168.315C128.551 168.847 128.604 169.307 128.619 169.462C128.64 169.666 128.636 169.826 128.633 169.903C128.63 169.989 128.623 170.054 128.619 170.087C128.615 170.123 128.612 170.146 128.611 170.152C128.61 170.158 128.623 170.083 128.67 169.885C128.76 169.507 128.92 168.913 129.162 168.072L125.799 167.104ZM126.134 167.795L129.374 169.117C130.759 165.723 131.47 162.071 131.544 158.194L128.045 158.127L124.546 158.06C124.487 161.154 123.924 163.946 122.893 166.473L126.134 167.795ZM128.045 158.127L131.544 158.194C131.608 154.881 131.915 151.595 132.468 148.332L129.017 147.748L125.566 147.164C124.956 150.769 124.615 154.401 124.546 158.06L128.045 158.127ZM129.017 147.748L132.468 148.332C133.085 144.686 133.365 141.002 133.309 137.281L129.81 137.334L126.31 137.386C126.36 140.684 126.111 143.942 125.566 147.164L129.017 147.748ZM129.81 137.334L133.309 137.281C133.259 133.922 133.424 130.589 133.804 127.282L130.327 126.883L126.849 126.483C126.435 130.093 126.255 133.728 126.31 137.386L129.81 137.334ZM130.327 126.883L133.804 127.282C134.181 123.997 134.801 120.749 135.665 117.537L132.286 116.628L128.906 115.719C127.952 119.263 127.267 122.852 126.849 126.483L130.327 126.883ZM132.286 116.628L135.665 117.537C136.58 114.14 137.462 110.742 138.312 107.344L134.917 106.494L131.522 105.645C130.681 109.002 129.809 112.36 128.906 115.719L132.286 116.628ZM134.917 106.494L138.312 107.344C139.17 103.918 139.953 100.48 140.662 97.0298L137.233 96.3259L133.805 95.622C133.116 98.9742 132.355 102.315 131.522 105.645L134.917 106.494ZM137.233 96.3259L140.662 97.0298C141.401 93.4263 141.823 89.7612 141.928 86.0372L138.43 85.9385L134.931 85.8397C134.837 89.1631 134.461 92.423 133.805 95.622L137.233 96.3259ZM138.43 85.9385L141.928 86.0372C142.024 82.6561 142.325 79.3137 142.83 76.0091L139.37 75.4801L135.91 74.951C135.361 78.5435 135.035 82.1734 134.931 85.8397L138.43 85.9385ZM139.37 75.4801L142.83 76.0091C143.33 72.7398 144.08 69.5289 145.08 66.3746L141.743 65.3168L138.407 64.259C137.297 67.7586 136.465 71.3232 135.91 74.951L139.37 75.4801ZM141.743 65.3168L145.08 66.3746C146.103 63.1483 147.273 59.9628 148.591 56.8181L145.363 55.4653L142.135 54.1125C140.737 57.4492 139.494 60.8315 138.407 64.259L141.743 65.3168ZM145.363 55.4653L148.591 56.8181C150.04 53.3601 151.121 49.808 151.832 46.1649L148.396 45.4951L144.961 44.8252C144.343 47.9943 143.402 51.089 142.135 54.1125L145.363 55.4653ZM148.396 45.4951L151.832 46.1649C152.48 42.8402 153.248 39.5307 154.135 36.2362L150.756 35.3257L147.376 34.4153C146.446 37.8678 145.641 41.3378 144.961 44.8252L148.396 45.4951ZM150.756 35.3257L154.135 36.2362C154.978 33.1062 156.148 30.0999 157.645 27.2135L154.538 25.6018L151.431 23.9902C149.703 27.322 148.351 30.7984 147.376 34.4153L150.756 35.3257ZM154.538 25.6018L157.645 27.2135C159.108 24.3937 160.29 23.6812 160.826 23.5403L159.937 20.1552L159.048 16.7701C155.611 17.673 153.194 20.5917 151.431 23.9902L154.538 25.6018ZM159.937 20.1552L160.826 23.5403C160.835 23.538 160.724 23.565 160.551 23.5243C160.381 23.4844 160.31 23.4162 160.344 23.4449C160.392 23.4858 160.538 23.6306 160.747 23.9752C160.953 24.3168 161.187 24.7998 161.43 25.4593L164.714 24.2489L167.998 23.0386C167.312 21.1771 166.354 19.3763 164.899 18.1295C163.252 16.7185 161.18 16.21 159.048 16.7701L159.937 20.1552ZM164.714 24.2489L161.43 25.4593C162.647 28.7614 163.942 32.0373 165.314 35.2868L168.539 33.925L171.763 32.5632C170.433 29.4135 169.178 26.2386 167.998 23.0386L164.714 24.2489ZM168.539 33.925L165.314 35.2868C166.636 38.4146 167.853 41.5883 168.967 44.8083L172.274 43.6642L175.582 42.5202C174.418 39.1537 173.145 35.8347 171.763 32.5632L168.539 33.925ZM172.274 43.6642L168.967 44.8083C170.217 48.4229 171.973 51.8196 174.226 54.9923L177.08 52.9662L179.934 50.9402C178.057 48.2966 176.61 45.4919 175.582 42.5202L172.274 43.6642ZM177.08 52.9662L174.226 54.9923C176.175 57.7379 177.845 60.5853 179.241 63.5353L182.405 62.0385L185.569 60.5417C183.993 57.2116 182.114 54.0109 179.934 50.9402L177.08 52.9662ZM182.405 62.0385L179.241 63.5353C180.716 66.6528 182.157 69.7854 183.565 72.9331L186.76 71.5042L189.955 70.0752C188.527 66.8821 187.065 63.7043 185.569 60.5417L182.405 62.0385ZM186.76 71.5042L183.565 72.9331C184.889 75.8936 185.928 78.9938 186.68 82.2376L190.09 81.4469L193.499 80.6563C192.648 76.9839 191.467 73.4555 189.955 70.0752L186.76 71.5042ZM190.09 81.4469L186.68 82.2376C187.558 86.0215 188.947 89.5838 190.85 92.9124L193.889 91.1753L196.927 89.4383C195.368 86.7119 194.225 83.7886 193.499 80.6563L190.09 81.4469ZM193.889 91.1753L190.85 92.9124C192.532 95.8548 194.086 98.8599 195.513 101.928L198.686 100.452L201.86 98.9767C200.351 95.7304 198.706 92.5509 196.927 89.4383L193.889 91.1753ZM198.686 100.452L195.513 101.928C197.032 105.196 198.718 108.375 200.571 111.463L203.572 109.662L206.574 107.862C204.847 104.984 203.276 102.023 201.86 98.9767L198.686 100.452ZM203.572 109.662L200.571 111.463C202.426 114.555 204.272 117.226 206.115 119.447L208.808 117.212L211.502 114.977C209.942 113.098 208.298 110.735 206.574 107.862L203.572 109.662ZM208.808 117.212L206.115 119.447C206.556 119.979 207.113 120.607 207.711 121.054C207.92 121.21 208.68 121.78 209.778 121.882C210.451 121.944 211.333 121.833 212.16 121.271C212.955 120.73 213.35 120.01 213.538 119.5C213.861 118.621 213.776 117.817 213.745 117.544C213.701 117.149 213.614 116.766 213.528 116.44C213.352 115.778 213.081 114.992 212.751 114.13L209.482 115.38L206.213 116.631C206.509 117.405 206.679 117.923 206.761 118.231C206.803 118.389 206.799 118.409 206.79 118.333C206.785 118.292 206.773 118.172 206.781 117.998C206.787 117.843 206.814 117.502 206.968 117.084C207.127 116.651 207.482 115.986 208.227 115.48C209.003 114.953 209.822 114.856 210.42 114.911C210.964 114.961 211.353 115.134 211.53 115.222C211.726 115.319 211.854 115.411 211.903 115.448C212.02 115.536 211.911 115.471 211.502 114.977L208.808 117.212ZM209.482 115.38L212.751 114.13C211.472 110.787 210.087 107.494 208.597 104.25L205.416 105.711L202.236 107.172C203.662 110.277 204.988 113.43 206.213 116.631L209.482 115.38ZM205.416 105.711L208.597 104.25C207.267 101.356 206.332 98.3236 205.79 95.1447L202.34 95.7326L198.89 96.3205C199.533 100.097 200.648 103.717 202.236 107.172L205.416 105.711ZM202.34 95.7326L205.79 95.1447C205.141 91.3366 203.968 87.7099 202.27 84.2761L199.133 85.8272L195.995 87.3784C197.389 90.1966 198.353 93.1735 198.89 96.3205L202.34 95.7326ZM199.133 85.8272L202.27 84.2761C200.747 81.195 199.293 78.087 197.908 74.952L194.706 76.3665L191.505 77.781C192.931 81.0082 194.428 84.2074 195.995 87.3784L199.133 85.8272ZM194.706 76.3665L197.908 74.952C196.559 71.8981 195.393 68.7687 194.41 65.5632L191.064 66.5887L187.718 67.6141C188.781 71.0835 190.043 74.4727 191.505 77.781L194.706 76.3665ZM191.064 66.5887L194.41 65.5632C193.34 62.0701 192.035 58.6771 190.494 55.3856L187.324 56.869L184.154 58.3524C185.555 61.3455 186.743 64.4323 187.718 67.6141L191.064 66.5887ZM187.324 56.869L190.494 55.3856C189.086 52.3756 187.871 49.2909 186.851 46.1309L183.52 47.2068L180.19 48.2827C181.3 51.721 182.622 55.0779 184.154 58.3524L187.324 56.869ZM183.52 47.2068L186.851 46.1309C185.792 42.8535 184.766 39.5663 183.771 36.2694L180.42 37.2798L177.069 38.2902C178.077 41.6309 179.117 44.9618 180.19 48.2827L183.52 47.2068ZM180.42 37.2798L183.771 36.2694C182.738 32.8436 181.541 29.4645 180.179 26.1321L176.939 27.456L173.699 28.7798C174.978 31.9082 176.101 35.0782 177.069 38.2902L180.42 37.2798ZM176.939 27.456L180.179 26.1321C178.914 23.0363 177.849 19.8808 176.984 16.6647L173.604 17.5742L170.225 18.4837C171.166 21.9826 172.325 25.4149 173.699 28.7798L176.939 27.456ZM173.604 17.5742L176.984 16.6647C176.104 13.3942 175.359 10.1219 174.748 6.84759L171.307 7.4896L167.866 8.13162C168.511 11.5885 169.298 15.0393 170.225 18.4837L173.604 17.5742ZM171.307 7.4896L174.748 6.84759C174.577 5.93505 174.386 5.10001 174.16 4.39009C173.974 3.80095 173.631 2.84528 172.953 2.06966C172.584 1.6479 171.872 0.998314 170.762 0.770046C169.54 0.51857 168.491 0.90694 167.798 1.38637C166.715 2.13552 166.212 3.28496 166.011 3.76418L169.237 5.12186L172.463 6.47955C172.508 6.37154 172.511 6.38543 172.458 6.46842C172.423 6.52193 172.219 6.83968 171.781 7.14281C171.268 7.49751 170.397 7.84165 169.351 7.62647C168.418 7.43449 167.88 6.9017 167.684 6.67726C167.35 6.29626 167.346 6.05725 167.488 6.50683C167.592 6.83563 167.723 7.36135 167.866 8.13162L171.307 7.4896ZM169.237 5.12186L166.011 3.76418C164.586 7.1495 165.842 10.8751 167.73 14.143L170.76 12.3919L173.791 10.6409C172.143 7.78962 172.383 6.66847 172.463 6.47955L169.237 5.12186ZM170.76 12.3919L167.73 14.143C169.453 17.1249 171.042 20.1391 172.497 23.1855L175.655 21.6769L178.813 20.1683C177.278 16.9539 175.603 13.7782 173.791 10.6409L170.76 12.3919ZM175.655 21.6769L172.497 23.1855C173.999 26.3294 175.522 29.4658 177.066 32.5949L180.205 31.0459L183.343 29.4969C181.812 26.3947 180.302 23.2851 178.813 20.1683L175.655 21.6769ZM180.205 31.0459L177.066 32.5949C178.594 35.6901 180.092 38.8028 181.562 41.9331L184.73 40.4455L187.898 38.958C186.409 35.7867 184.891 32.633 183.343 29.4969L180.205 31.0459ZM184.73 40.4455L181.562 41.9331C183.013 45.0232 184.377 48.1592 185.655 51.3413L188.903 50.0372L192.151 48.7331C190.824 45.4278 189.406 42.1694 187.898 38.958L184.73 40.4455ZM188.903 50.0372L185.655 51.3413C187.04 54.7909 188.738 58.0778 190.749 61.199L193.691 59.3037L196.633 57.4084C194.864 54.6616 193.37 51.7708 192.151 48.7331L188.903 50.0372ZM193.691 59.3037L190.749 61.199C192.536 63.9746 194.094 66.8823 195.421 69.9238L198.629 68.5237L201.837 67.1236C200.36 63.7398 198.625 60.5008 196.633 57.4084L193.691 59.3037ZM198.629 68.5237L195.421 69.9238C196.973 73.4783 199.054 76.7228 201.654 79.6482L204.27 77.3232L206.886 74.9982C204.769 72.6162 203.09 69.9945 201.837 67.1236L198.629 68.5237ZM204.27 77.3232L201.654 79.6482C203.774 82.0345 205.461 84.6544 206.725 87.5163L209.927 86.1023L213.128 84.6883C211.566 81.1519 209.482 77.9191 206.886 74.9982L204.27 77.3232ZM209.927 86.1023L206.725 87.5163C208.215 90.8903 209.968 94.1142 211.983 97.1859L214.909 95.2664L217.836 93.3468C216.033 90.598 214.464 87.7125 213.128 84.6883L209.927 86.1023ZM214.909 95.2664L211.983 97.1859C213.814 99.9779 215.472 102.874 216.958 105.876L220.095 104.323L223.231 102.771C221.621 99.5169 219.822 96.3754 217.836 93.3468L214.909 95.2664ZM220.095 104.323L216.958 105.876C218.559 109.111 220.319 112.251 222.237 115.295L225.198 113.429L228.16 111.563C226.369 108.722 224.727 105.792 223.231 102.771L220.095 104.323ZM225.198 113.429L222.237 115.295C224.166 118.357 226.279 121.302 228.573 124.13L231.291 121.924L234.009 119.719C231.889 117.106 229.939 114.387 228.16 111.563L225.198 113.429ZM231.291 121.924L228.573 124.13C230.663 126.706 232.524 129.418 234.158 132.267L237.194 130.526L240.23 128.785C238.408 125.607 236.334 122.585 234.009 119.719L231.291 121.924ZM237.194 130.526L234.158 132.267C235.969 135.427 237.995 138.431 240.235 141.276L242.985 139.111L245.735 136.946C243.708 134.371 241.874 131.652 240.23 128.785L237.194 130.526ZM242.985 139.111L240.235 141.276C242.396 144.02 243.59 145.674 244.016 146.406L247.041 144.645L250.066 142.885C249.351 141.657 247.841 139.621 245.735 136.946L242.985 139.111ZM247.041 144.645L244.007 146.39L244.805 147.778L247.839 146.034L250.873 144.29L250.075 142.901L247.041 144.645ZM247.839 146.034L244.981 148.054L245.038 148.135L247.897 146.116L250.755 144.096L250.698 144.014L247.839 146.034Z" fill="black"/>
<path d="M133.281 175.362C135.168 174.939 136.353 173.067 135.93 171.181C135.507 169.295 133.635 168.109 131.749 168.532L132.515 171.947L133.281 175.362ZM132.417 171.969L132.893 175.437L133.039 175.417L133.184 175.384L132.417 171.969ZM86.6248 181.893L87.1184 185.358L86.6248 181.893ZM66.5413 187.554L67.6533 190.872L66.5413 187.554ZM26.6515 199.619L27.9222 202.88L26.6515 199.619ZM7.20563 207.18L6.28594 203.803L7.20563 207.18ZM11.3071 203.783L12.8898 206.904L11.3071 203.783ZM38.8257 188.941L40.8041 191.829L38.8257 188.941ZM58.8194 183.188L58.1644 179.75L58.8194 183.188ZM87.8649 171.428L86.3825 168.257L87.8649 171.428ZM120.46 166.907H123.96V165.6L123.104 164.613L120.46 166.907ZM120.361 166.792L119.955 163.316L113.379 164.084L117.717 169.086L120.361 166.792ZM120.866 170.257C122.786 170.033 124.161 168.294 123.937 166.375C123.712 164.455 121.974 163.08 120.054 163.304L120.46 166.781L120.866 170.257ZM132.515 171.947L131.749 168.532L131.651 168.554L132.417 171.969L133.184 175.384L133.281 175.362L132.515 171.947ZM132.417 171.969L131.942 168.501C125.061 169.444 119.763 170.42 116.164 171.451L117.129 174.816L118.094 178.18C121.194 177.291 126.087 176.369 132.893 175.437L132.417 171.969ZM117.129 174.816L116.164 171.451C112.727 172.437 109.325 173.559 105.958 174.817L107.184 178.096L108.409 181.374C111.605 180.18 114.833 179.115 118.094 178.18L117.129 174.816ZM107.184 178.096L105.958 174.817C102.942 175.945 99.8363 176.694 96.6357 177.067L97.0411 180.544L97.4465 184.02C101.207 183.582 104.864 182.699 108.409 181.374L107.184 178.096ZM97.0411 180.544L96.6357 177.067C93.1256 177.477 89.6241 177.93 86.1313 178.428L86.6248 181.893L87.1184 185.358C90.5524 184.869 93.9951 184.423 97.4465 184.02L97.0411 180.544ZM86.6248 181.893L86.1313 178.428C82.4656 178.95 78.878 179.787 75.371 180.938L76.4626 184.263L77.5542 187.589C80.6699 186.566 83.8572 185.822 87.1184 185.358L86.6248 181.893ZM76.4626 184.263L75.371 180.938C72.0528 182.027 68.7389 183.126 65.4293 184.235L66.5413 187.554L67.6533 190.872C70.9493 189.768 74.2496 188.673 77.5542 187.589L76.4626 184.263ZM66.5413 187.554L65.4293 184.235C62.3329 185.273 59.159 186.017 55.905 186.468L56.3858 189.935L56.8665 193.402C60.5475 192.891 64.1441 192.048 67.6533 190.872L66.5413 187.554ZM56.3858 189.935L55.905 186.468C52.0132 187.008 48.3086 188.234 44.8077 190.131L46.4754 193.208L48.1431 196.286C50.9209 194.78 53.8232 193.824 56.8665 193.402L56.3858 189.935ZM46.4754 193.208L44.8077 190.131C41.9762 191.666 39.034 192.721 35.9718 193.309L36.6314 196.746L37.2911 200.183C41.0755 199.457 44.696 198.154 48.1431 196.286L46.4754 193.208ZM36.6314 196.746L35.9718 193.309C32.341 194.005 28.8098 195.022 25.3808 196.358L26.6515 199.619L27.9222 202.88C30.9531 201.699 34.0752 200.8 37.2911 200.183L36.6314 196.746ZM26.6515 199.619L25.3808 196.358C22.0943 197.639 18.8377 199.006 15.611 200.46L17.049 203.651L18.4869 206.842C21.6038 205.437 24.7489 204.117 27.9222 202.88L26.6515 199.619ZM17.049 203.651L15.611 200.46C12.6085 201.813 9.5008 202.927 6.28594 203.803L7.20563 207.18L8.12531 210.557C11.6913 209.586 15.1458 208.348 18.4869 206.842L17.049 203.651ZM7.20563 207.18L6.28594 203.803C5.46247 204.027 4.82169 204.19 4.34934 204.297C3.81231 204.418 3.66969 204.426 3.74605 204.422C3.78164 204.42 3.91055 204.412 4.09375 204.427C4.21357 204.437 4.69772 204.477 5.26145 204.753C5.9172 205.074 7.06481 205.957 7.18118 207.61C7.27135 208.892 6.63598 209.738 6.49437 209.923C6.27644 210.208 6.07002 210.378 6.00849 210.429C5.92486 210.497 5.86771 210.534 5.86112 210.538C5.84906 210.546 5.89686 210.515 6.04017 210.438L4.39054 207.352L2.74092 204.265C2.50579 204.39 2.2518 204.534 2.01456 204.69C1.88535 204.775 1.36297 205.11 0.935664 205.669C0.758101 205.901 0.105929 206.787 0.19845 208.102C0.317172 209.789 1.48629 210.698 2.18272 211.039C2.78711 211.335 3.33109 211.388 3.52989 211.405C3.79206 211.426 4.01912 211.418 4.172 211.409C5.07775 211.354 6.54523 210.987 8.12531 210.557L7.20563 207.18ZM4.39054 207.352L6.04017 210.438C7.51921 209.648 9.79712 208.472 12.8898 206.904L11.3071 203.783L9.72445 200.661C6.62244 202.234 4.28931 203.437 2.74092 204.265L4.39054 207.352ZM11.3071 203.783L12.8898 206.904C16.1401 205.257 19.2628 203.374 22.2569 201.258L20.2371 198.4L18.2173 195.542C15.4995 197.462 12.6688 199.168 9.72445 200.661L11.3071 203.783ZM20.2371 198.4L22.2569 201.258C24.8433 199.431 27.6258 198.005 30.6132 196.974L29.4722 193.665L28.3311 190.357C24.7172 191.603 21.3431 193.333 18.2173 195.542L20.2371 198.4ZM29.4722 193.665L30.6132 196.974C34.2163 195.732 37.6151 194.014 40.8041 191.829L38.8257 188.941L36.8474 186.054C34.1663 187.891 31.3293 189.323 28.3311 190.357L29.4722 193.665ZM38.8257 188.941L40.8041 191.829C43.3235 190.102 46.0536 188.999 49.0255 188.499L48.4453 185.048L47.8651 181.596C43.881 182.266 40.1981 183.758 36.8474 186.054L38.8257 188.941ZM48.4453 185.048L49.0255 188.499C52.5283 187.91 56.0112 187.286 59.4744 186.626L58.8194 183.188L58.1644 179.75C54.7514 180.4 51.3183 181.016 47.8651 181.596L48.4453 185.048ZM58.8194 183.188L59.4744 186.626C63.2453 185.908 66.8502 184.662 70.2801 182.893L68.6761 179.783L67.0721 176.672C64.2358 178.134 61.2697 179.158 58.1644 179.75L58.8194 183.188ZM68.6761 179.783L70.2801 182.893C73.2986 181.337 76.37 179.964 79.4946 178.773L78.2483 175.503L77.002 172.232C73.6297 173.517 70.3196 174.997 67.0721 176.672L68.6761 179.783ZM78.2483 175.503L79.4946 178.773C82.8233 177.505 86.1076 176.113 89.3474 174.598L87.8649 171.428L86.3825 168.257C83.297 169.7 80.1702 171.025 77.002 172.232L78.2483 175.503ZM87.8649 171.428L89.3474 174.598C92.1159 173.304 95.0243 172.554 98.0946 172.347L97.8591 168.855L97.6235 165.363C93.6936 165.628 89.9392 166.594 86.3825 168.257L87.8649 171.428ZM97.8591 168.855L98.0946 172.347C101.747 172.101 105.351 171.618 108.903 170.899L108.209 167.468L107.514 164.038C104.268 164.695 100.971 165.137 97.6235 165.363L97.8591 168.855ZM108.209 167.468L108.903 170.899C112.111 170.249 114.65 170.06 116.593 170.222L116.884 166.734L117.175 163.246C114.35 163.011 111.106 163.311 107.514 164.038L108.209 167.468ZM116.884 166.734L116.593 170.222C117.794 170.322 118.738 170.391 119.397 170.423C119.714 170.438 120.038 170.449 120.315 170.443C120.427 170.44 120.682 170.433 120.969 170.386C121.078 170.368 121.446 170.307 121.87 170.118C122.08 170.025 122.516 169.808 122.944 169.377C123.418 168.898 123.96 168.056 123.96 166.907H120.46H116.96C116.96 165.763 117.5 164.926 117.97 164.451C118.392 164.025 118.822 163.813 119.022 163.724C119.428 163.543 119.768 163.489 119.84 163.478C119.966 163.457 120.059 163.45 120.092 163.448C120.134 163.445 120.158 163.444 120.159 163.444C120.159 163.444 120.125 163.445 120.044 163.443C119.967 163.441 119.865 163.437 119.735 163.431C119.203 163.405 118.358 163.345 117.175 163.246L116.884 166.734ZM120.46 166.907L123.104 164.613L123.005 164.499L120.361 166.792L117.717 169.086L117.816 169.2L120.46 166.907ZM120.361 166.792L120.767 170.269L120.866 170.257L120.46 166.781L120.054 163.304L119.955 163.316L120.361 166.792Z" fill="black"/>
<path d="M240.119 137.564C238.25 138.055 237.132 139.968 237.623 141.838C238.114 143.708 240.028 144.825 241.897 144.334L241.008 140.949L240.119 137.564ZM241.105 140.924L240.51 137.475L240.362 137.5L240.216 137.538L241.105 140.924ZM266.319 134.675L266.969 138.114L266.319 134.675ZM296.64 126.955L295.504 123.644L296.64 126.955ZM326.989 119.286L325.989 115.932L326.989 119.286ZM337.027 116.443L337.935 119.824L337.027 116.443ZM377.275 105.545L375.708 102.415L377.275 105.545ZM397.066 98.7817L396.268 95.3737L397.066 98.7817ZM370.412 108.648L369.402 105.297V105.297L370.412 108.648ZM360.764 112.666L359.099 109.587L360.764 112.666ZM340.52 117.897L341.602 121.226L340.52 117.897ZM330.607 121.134L331.698 124.459L330.607 121.134ZM301.217 131.89L299.946 128.629L301.217 131.89ZM291.486 135.741L290.182 132.493L291.486 135.741ZM285.34 137.6L284.971 141.08L285.026 141.086L285.082 141.09L285.34 137.6ZM284.156 137.474L284.525 133.994L283.788 133.915L283.082 134.143L284.156 137.474ZM282.987 134.174C281.147 134.767 280.137 136.74 280.73 138.579C281.324 140.419 283.296 141.429 285.136 140.836L284.061 137.505L282.987 134.174ZM241.008 140.949L241.897 144.334L241.994 144.309L241.105 140.924L240.216 137.538L240.119 137.564L241.008 140.949ZM241.105 140.924L241.7 144.373C248.557 143.19 253.849 141.977 257.429 140.7L256.253 137.403L255.077 134.107C252.084 135.174 247.277 136.308 240.51 137.475L241.105 140.924ZM256.253 137.403L257.429 140.7C260.544 139.589 263.723 138.727 266.969 138.114L266.319 134.675L265.669 131.235C262.066 131.916 258.535 132.873 255.077 134.107L256.253 137.403ZM266.319 134.675L266.969 138.114C270.607 137.427 274.158 136.407 277.62 135.055L276.347 131.795L275.074 128.535C272.014 129.729 268.88 130.629 265.669 131.235L266.319 134.675ZM276.347 131.795L277.62 135.055C280.603 133.891 283.686 133.121 286.875 132.745L286.465 129.269L286.056 125.793C282.276 126.239 278.613 127.153 275.074 128.535L276.347 131.795ZM286.465 129.269L286.875 132.745C290.605 132.305 294.24 131.479 297.776 130.265L296.64 126.955L295.504 123.644C292.442 124.695 289.294 125.411 286.056 125.793L286.465 129.269ZM296.64 126.955L297.776 130.265C300.914 129.188 304.113 128.344 307.372 127.732L306.726 124.292L306.08 120.852C302.488 121.526 298.962 122.457 295.504 123.644L296.64 126.955ZM306.726 124.292L307.372 127.732C310.868 127.075 314.338 126.314 317.781 125.446L316.926 122.052L316.072 118.658C312.767 119.491 309.436 120.222 306.08 120.852L306.726 124.292ZM316.926 122.052L317.781 125.446C321.204 124.584 324.607 123.649 327.989 122.641L326.989 119.286L325.989 115.932C322.703 116.912 319.397 117.821 316.072 118.658L316.926 122.052ZM326.989 119.286L327.989 122.641C331.293 121.656 334.608 120.717 337.935 119.824L337.027 116.443L336.12 113.063C332.731 113.973 329.354 114.929 325.989 115.932L326.989 119.286ZM337.027 116.443L337.935 119.824C341.295 118.922 344.654 118.017 348.013 117.11L347.101 113.731L346.188 110.352C342.832 111.258 339.476 112.162 336.12 113.063L337.027 116.443ZM347.101 113.731L348.013 117.11C351.276 116.229 354.575 115.485 357.911 114.878L357.284 111.435L356.657 107.991C353.13 108.633 349.64 109.42 346.188 110.352L347.101 113.731ZM357.284 111.435L357.911 114.878C361.423 114.239 364.905 113.478 368.356 112.596L367.489 109.205L366.622 105.814C363.33 106.656 360.009 107.381 356.657 107.991L357.284 111.435ZM367.489 109.205L368.356 112.596C371.973 111.671 375.469 110.363 378.842 108.675L377.275 105.545L375.708 102.415C372.777 103.883 369.749 105.015 366.622 105.814L367.489 109.205ZM377.275 105.545L378.842 108.675C381.837 107.175 384.899 105.923 388.027 104.915L386.955 101.584L385.882 98.2521C382.408 99.3706 379.017 100.759 375.708 102.415L377.275 105.545ZM386.955 101.584L388.027 104.915C391.236 103.882 394.515 102.973 397.863 102.19L397.066 98.7817L396.268 95.3737C392.738 96.2 389.275 97.1593 385.882 98.2521L386.955 101.584ZM397.066 98.7817L397.863 102.19C399.718 101.755 400.434 101.609 400.433 101.609C400.404 101.612 400.317 101.622 400.198 101.627C400.138 101.63 400.033 101.632 399.901 101.626C399.798 101.621 399.525 101.605 399.189 101.516C399.046 101.479 397.905 101.207 397.148 100.043C396.055 98.3641 396.792 96.7492 397.186 96.169C397.542 95.6447 397.953 95.3552 398.054 95.2839C398.216 95.1693 398.353 95.0936 398.421 95.0571C398.727 94.8942 398.99 94.8254 398.767 94.8971C398.594 94.9529 398.224 95.062 397.611 95.234L398.557 98.6038L399.503 101.974C400.113 101.802 400.598 101.661 400.912 101.561C400.932 101.554 401.347 101.43 401.712 101.235C401.788 101.195 401.931 101.116 402.098 100.998C402.203 100.923 402.617 100.631 402.975 100.104C403.371 99.5212 404.108 97.9042 403.014 96.2239C402.255 95.0579 401.112 94.7842 400.966 94.7458C400.406 94.599 399.931 94.6323 399.915 94.633C399.776 94.6386 399.663 94.651 399.604 94.6581C399.105 94.7176 397.853 95.0029 396.268 95.3737L397.066 98.7817ZM398.557 98.6038L397.611 95.234C394.922 95.9887 391.935 97.1583 388.668 98.7028L390.163 101.867L391.659 105.031C394.692 103.597 397.301 102.592 399.503 101.974L398.557 98.6038ZM390.163 101.867L388.668 98.7028C385.673 100.118 382.588 101.307 379.412 102.271L380.428 105.62L381.443 108.969C384.948 107.907 388.354 106.594 391.659 105.031L390.163 101.867ZM380.428 105.62L379.412 102.271C376.073 103.283 372.737 104.291 369.402 105.297L370.412 108.648L371.422 111.999C374.76 110.993 378.101 109.983 381.443 108.969L380.428 105.62ZM370.412 108.648L369.402 105.297C365.836 106.371 362.401 107.802 359.099 109.587L360.764 112.666L362.428 115.745C365.317 114.183 368.314 112.935 371.422 111.999L370.412 108.648ZM360.764 112.666L359.099 109.587C356.413 111.038 353.533 111.927 350.43 112.251L350.794 115.732L351.158 119.213C355.158 118.795 358.924 117.639 362.428 115.745L360.764 112.666ZM350.794 115.732L350.43 112.251C346.642 112.647 342.976 113.419 339.439 114.568L340.52 117.897L341.602 121.226C344.66 120.232 347.843 119.56 351.158 119.213L350.794 115.732ZM340.52 117.897L339.439 114.568C336.138 115.641 332.83 116.721 329.516 117.808L330.607 121.134L331.698 124.459C335.006 123.374 338.307 122.296 341.602 121.226L340.52 117.897ZM330.607 121.134L329.516 117.808C326.146 118.914 322.81 120.106 319.507 121.387L320.772 124.65L322.037 127.913C325.225 126.678 328.445 125.526 331.698 124.459L330.607 121.134ZM320.772 124.65L319.507 121.387C316.296 122.631 313.07 123.824 309.831 124.964L310.993 128.265L312.155 131.567C315.463 130.402 318.757 129.185 322.037 127.913L320.772 124.65ZM310.993 128.265L309.831 124.964C306.521 126.129 303.226 127.351 299.946 128.629L301.217 131.89L302.489 135.151C305.696 133.901 308.918 132.706 312.155 131.567L310.993 128.265ZM301.217 131.89L299.946 128.629C296.692 129.898 293.437 131.186 290.182 132.493L291.486 135.741L292.79 138.989C296.023 137.69 299.256 136.411 302.489 135.151L301.217 131.89ZM291.486 135.741L290.182 132.493C288.604 133.126 287.387 133.565 286.503 133.832C286.061 133.966 285.748 134.043 285.545 134.082C285.3 134.129 285.362 134.092 285.599 134.109L285.34 137.6L285.082 141.09C286.233 141.176 287.533 140.834 288.53 140.532C289.694 140.18 291.124 139.658 292.79 138.989L291.486 135.741ZM285.34 137.6L285.71 134.119L284.525 133.994L284.156 137.474L283.787 140.955L284.971 141.08L285.34 137.6ZM284.156 137.474L283.082 134.143L282.987 134.174L284.061 137.505L285.136 140.836L285.231 140.805L284.156 137.474Z" fill="black"/>
<path d="M8.28181 211.829C6.5305 211.011 4.44753 211.767 3.62938 213.519C2.81123 215.27 3.5677 217.353 5.31902 218.171L6.80042 215L8.28181 211.829ZM6.89102 215.042L5.40962 218.213L5.56452 218.286L5.72573 218.343L6.89102 215.042ZM49.4665 234.559L51.4965 231.708L49.4665 234.559ZM58.9281 238.958L58.0651 242.349L58.9281 238.958ZM88.2568 249.898L86.6859 253.026L88.2568 249.898ZM97.8218 254.125L96.5681 257.393L97.8218 254.125ZM117.686 260.56L116.985 263.989L117.686 260.56ZM127.817 263.319L128.953 260.008L127.817 263.319ZM130.106 265.362L129.659 261.891L130.106 265.362ZM113.635 258.285L111.714 261.211L113.635 258.285ZM104.682 252.899L106.366 249.831L104.682 252.899ZM85.7535 244.003L87.2974 240.862L85.7535 244.003ZM76.8774 238.483L74.7459 241.259L76.8774 238.483ZM67.7856 233.399L69.0309 230.128L67.7856 233.399ZM58.6591 228.323L56.5418 231.11L58.6591 228.323ZM30.0127 217.141L29.0662 220.51L30.0127 217.141ZM25.5749 215.423L22.6764 213.461L22.4642 213.775L22.3239 214.127L25.5749 215.423ZM25.837 215.036L28.7354 216.998L31.1985 213.359L27.1008 211.772L25.837 215.036ZM27.0075 211.736C25.2049 211.038 23.1778 211.934 22.4798 213.736C21.7819 215.539 22.6773 217.566 24.4799 218.264L25.7437 215L27.0075 211.736ZM6.80042 215L5.31902 218.171L5.40962 218.213L6.89102 215.042L8.37241 211.871L8.28181 211.829L6.80042 215ZM6.89102 215.042L5.72573 218.343C12.2128 220.633 16.7905 222.542 19.5953 224.066L21.2661 220.99L22.937 217.915C19.6275 216.117 14.6218 214.06 8.0563 211.742L6.89102 215.042ZM21.2661 220.99L19.5953 224.066C22.5804 225.687 25.5219 227.421 28.4199 229.268L30.3005 226.316L32.181 223.364C29.1476 221.431 26.0662 219.615 22.937 217.915L21.2661 220.99ZM30.3005 226.316L28.4199 229.268C31.7311 231.377 35.3207 232.863 39.1705 233.722L39.9324 230.306L40.6943 226.89C37.633 226.207 34.8013 225.033 32.181 223.364L30.3005 226.316ZM39.9324 230.306L39.1705 233.722C42.1673 234.39 44.9146 235.615 47.4366 237.411L49.4665 234.559L51.4965 231.708C48.2175 229.374 44.6087 227.763 40.6943 226.89L39.9324 230.306ZM49.4665 234.559L47.4366 237.411C50.6847 239.723 54.2334 241.374 58.0651 242.349L58.9281 238.958L59.7912 235.566C56.8084 234.807 54.0494 233.526 51.4965 231.708L49.4665 234.559ZM58.9281 238.958L58.0651 242.349C61.2358 243.156 64.2686 244.278 67.1679 245.715L68.722 242.579L70.2761 239.443C66.9314 237.785 63.435 236.493 59.7912 235.566L58.9281 238.958ZM68.722 242.579L67.1679 245.715C70.506 247.369 73.9856 248.667 77.6028 249.607L78.4836 246.22L79.3644 242.832C76.2102 242.012 73.182 240.883 70.2761 239.443L68.722 242.579ZM78.4836 246.22L77.6028 249.607C80.7497 250.425 83.7762 251.564 86.6859 253.026L88.2568 249.898L89.8278 246.771C86.478 245.088 82.989 243.775 79.3644 242.832L78.4836 246.22ZM88.2568 249.898L86.6859 253.026C89.9183 254.649 93.2124 256.105 96.5681 257.393L97.8218 254.125L99.0755 250.857C95.9373 249.653 92.8549 248.291 89.8278 246.771L88.2568 249.898ZM97.8218 254.125L96.5681 257.393C99.8401 258.648 103.125 259.865 106.424 261.044L107.601 257.748L108.779 254.452C105.532 253.291 102.297 252.093 99.0755 250.857L97.8218 254.125ZM107.601 257.748L106.424 261.044C109.854 262.269 113.375 263.251 116.985 263.989L117.686 260.56L118.388 257.131C115.097 256.458 111.894 255.565 108.779 254.452L107.601 257.748ZM117.686 260.56L116.985 263.989C120.29 264.665 123.521 265.545 126.681 266.629L127.817 263.319L128.953 260.008C125.507 258.826 121.984 257.867 118.388 257.131L117.686 260.56ZM127.817 263.319L126.681 266.629C127.456 266.895 128.016 267.112 128.391 267.28C128.864 267.491 128.78 267.509 128.536 267.291C128.451 267.215 127.845 266.686 127.619 265.685C127.489 265.107 127.506 264.448 127.745 263.801C127.973 263.184 128.336 262.76 128.624 262.502C129.132 262.045 129.615 261.913 129.649 261.902C129.755 261.871 129.776 261.876 129.659 261.891L130.106 265.362L130.554 268.834C130.88 268.791 131.267 268.725 131.658 268.608C131.978 268.512 132.666 268.28 133.301 267.71C134.116 266.978 134.795 265.683 134.448 264.143C134.189 263 133.472 262.314 133.197 262.069C132.571 261.51 131.788 261.131 131.244 260.888C130.603 260.602 129.829 260.309 128.953 260.008L127.817 263.319ZM130.106 265.362L129.659 261.891C128.941 261.983 127.263 261.733 124.244 260.278L122.723 263.43L121.203 266.583C124.475 268.161 127.718 269.199 130.554 268.834L130.106 265.362ZM122.723 263.43L124.244 260.278C121.236 258.827 118.341 257.188 115.556 255.359L113.635 258.285L111.714 261.211C114.756 263.208 117.919 264.999 121.203 266.583L122.723 263.43ZM113.635 258.285L115.556 255.359C112.565 253.396 109.502 251.553 106.366 249.831L104.682 252.899L102.997 255.967C105.972 257.6 108.877 259.348 111.714 261.211L113.635 258.285ZM104.682 252.899L106.366 249.831C103.206 248.096 99.96 246.526 96.6297 245.12L95.2688 248.345L93.9079 251.57C97.018 252.882 100.048 254.348 102.997 255.967L104.682 252.899ZM95.2688 248.345L96.6297 245.12C93.4709 243.787 90.3602 242.368 87.2974 240.862L85.7535 244.003L84.2095 247.145C87.3932 248.709 90.6261 250.184 93.9079 251.57L95.2688 248.345ZM85.7535 244.003L87.2974 240.862C84.3841 239.43 81.622 237.713 79.009 235.707L76.8774 238.483L74.7459 241.259C77.721 243.543 80.8763 245.506 84.2095 247.145L85.7535 244.003ZM76.8774 238.483L79.009 235.707C75.9472 233.356 72.6184 231.494 69.0309 230.128L67.7856 233.399L66.5403 236.67C69.4871 237.792 72.2195 239.319 74.7459 241.259L76.8774 238.483ZM67.7856 233.399L69.0309 230.128C66.0798 229.004 63.3307 227.476 60.7763 225.536L58.6591 228.323L56.5418 231.11C59.6218 233.449 62.957 235.306 66.5403 236.67L67.7856 233.399ZM58.6591 228.323L60.7763 225.536C57.7831 223.262 54.6158 221.3 51.2764 219.654L49.7288 222.793L48.1812 225.932C51.1145 227.378 53.9007 229.103 56.5418 231.11L58.6591 228.323ZM49.7288 222.793L51.2764 219.654C47.8599 217.97 44.2632 216.758 40.4949 216.02L39.8218 219.454L39.1487 222.889C42.3171 223.51 45.3251 224.524 48.1812 225.932L49.7288 222.793ZM39.8218 219.454L40.4949 216.02C37.1089 215.356 33.9311 214.606 30.9592 213.771L30.0127 217.141L29.0662 220.51C32.2365 221.401 35.5981 222.193 39.1487 222.889L39.8218 219.454ZM30.0127 217.141L30.9592 213.771C29.4467 213.346 28.4408 213.024 27.8631 212.8C27.5421 212.676 27.5247 212.647 27.6446 212.722C27.6766 212.742 28.0051 212.94 28.3343 213.349C28.6591 213.752 29.4882 215.059 28.8259 216.72L25.5749 215.423L22.3239 214.127C21.6334 215.858 22.4842 217.244 22.8803 217.737C23.2809 218.235 23.7305 218.53 23.9332 218.657C24.3949 218.946 24.9181 219.166 25.3368 219.328C26.2383 219.677 27.5076 220.072 29.0662 220.51L30.0127 217.141ZM25.5749 215.423L28.4734 217.385L28.7354 216.998L25.837 215.036L22.9385 213.074L22.6764 213.461L25.5749 215.423ZM25.837 215.036L27.1008 211.772L27.0075 211.736L25.7437 215L24.4799 218.264L24.5731 218.3L25.837 215.036Z" fill="black"/>
<path d="M393.838 110.023C394.829 108.364 394.286 106.215 392.627 105.224C390.967 104.233 388.818 104.775 387.827 106.435L390.833 108.229L393.838 110.023ZM390.781 108.315L387.776 106.521L387.756 106.555L387.736 106.59L390.781 108.315ZM377.741 130.81L380.831 132.453L377.741 130.81ZM371.872 139.446L369.208 137.176L371.872 139.446ZM364.989 147.33L367.598 149.663L364.989 147.33ZM357.275 154.426L359.387 157.217L357.275 154.426ZM343.769 170.312L346.889 171.898L343.769 170.312ZM337.316 178.533L339.589 181.193L337.316 178.533ZM330.422 186.338L327.497 184.416L330.422 186.338ZM324.362 194.872L327.141 196.999L324.362 194.872ZM313.385 212.985L310.203 211.527L313.385 212.985ZM309.634 213.659L306.298 214.716L309.634 213.659ZM311.432 205.021L308.65 202.897L311.432 205.021ZM317.968 196.793L315.27 194.563L317.968 196.793ZM324.865 188.952L322.309 186.561L324.865 188.952ZM331.678 181.071L328.942 178.888L331.678 181.071ZM338.679 173.337L336.234 170.832L338.679 173.337ZM357.76 148.542L354.766 146.729L357.76 148.542ZM363.363 139.801L366.26 141.765L363.363 139.801ZM369.769 131.782L367.216 129.388L369.769 131.782ZM373.441 127.61L376.701 128.883L376.751 128.754L376.791 128.622L373.441 127.61ZM373.549 127.251L370.81 125.071L370.393 125.596L370.199 126.239L373.549 127.251ZM376.35 129.352C377.554 127.839 377.303 125.637 375.791 124.434C374.278 123.23 372.076 123.48 370.873 124.993L373.611 127.172L376.35 129.352ZM390.833 108.229L387.827 106.435L387.776 106.521L390.781 108.315L393.786 110.109L393.838 110.023L390.833 108.229ZM390.781 108.315L387.736 106.59C384.344 112.58 381.76 117.006 379.971 119.898L382.948 121.74L385.924 123.581C387.787 120.57 390.425 116.047 393.827 110.039L390.781 108.315ZM382.948 121.74L379.971 119.898C378.105 122.915 376.331 126.005 374.65 129.168L377.741 130.81L380.831 132.453C382.441 129.424 384.139 126.467 385.924 123.581L382.948 121.74ZM377.741 130.81L374.65 129.168C373.124 132.04 371.31 134.708 369.208 137.176L371.872 139.446L374.536 141.715C376.968 138.861 379.067 135.772 380.831 132.453L377.741 130.81ZM371.872 139.446L369.208 137.176C366.959 139.815 364.683 142.422 362.38 144.997L364.989 147.33L367.598 149.663C369.938 147.047 372.251 144.398 374.536 141.715L371.872 139.446ZM364.989 147.33L362.38 144.997C360.212 147.421 357.807 149.634 355.163 151.635L357.275 154.426L359.387 157.217C362.385 154.948 365.124 152.43 367.598 149.663L364.989 147.33ZM357.275 154.426L355.163 151.635C352.15 153.915 349.419 156.467 346.976 159.288L349.622 161.579L352.268 163.87C354.386 161.424 356.758 159.207 359.387 157.217L357.275 154.426ZM349.622 161.579L346.976 159.288C344.504 162.142 342.396 165.291 340.649 168.726L343.769 170.312L346.889 171.898C348.385 168.957 350.178 166.283 352.268 163.87L349.622 161.579ZM343.769 170.312L340.649 168.726C339.234 171.51 337.368 173.884 335.042 175.872L337.316 178.533L339.589 181.193C342.626 178.598 345.063 175.491 346.889 171.898L343.769 170.312ZM337.316 178.533L335.042 175.872C332.113 178.375 329.595 181.225 327.497 184.416L330.422 186.338L333.347 188.261C335.078 185.628 337.155 183.274 339.589 181.193L337.316 178.533ZM330.422 186.338L327.497 184.416C325.629 187.258 323.658 190.034 321.583 192.744L324.362 194.872L327.141 196.999C329.318 194.156 331.386 191.243 333.347 188.261L330.422 186.338ZM324.362 194.872L321.583 192.744C319.386 195.613 317.349 198.571 315.471 201.617L318.451 203.454L321.43 205.29C323.183 202.447 325.086 199.683 327.141 196.999L324.362 194.872ZM318.451 203.454L315.471 201.617C313.575 204.693 311.82 207.998 310.203 211.527L313.385 212.985L316.567 214.443C318.074 211.153 319.697 208.103 321.43 205.29L318.451 203.454ZM313.385 212.985L310.203 211.527C309.863 212.268 309.622 212.65 309.504 212.803C309.449 212.874 309.484 212.81 309.626 212.702C309.768 212.593 310.114 212.363 310.656 212.266C311.252 212.158 311.853 212.255 312.355 212.499C312.806 212.719 313.048 212.994 313.13 213.096C313.257 213.255 313.16 213.198 312.971 212.602L309.634 213.659L306.298 214.716C306.578 215.599 306.989 216.625 307.663 217.468C308.393 218.38 309.854 219.522 311.894 219.155C313.524 218.862 314.543 217.729 315.039 217.087C315.624 216.331 316.125 215.406 316.567 214.443L313.385 212.985ZM309.634 213.659L312.971 212.602C312.428 210.887 312.663 209.177 314.214 207.145L311.432 205.021L308.65 202.897C305.929 206.462 304.965 210.51 306.298 214.716L309.634 213.659ZM311.432 205.021L314.214 207.145C316.323 204.382 318.473 201.675 320.665 199.023L317.968 196.793L315.27 194.563C313.02 197.285 310.813 200.064 308.65 202.897L311.432 205.021ZM317.968 196.793L320.665 199.023C322.841 196.392 325.093 193.831 327.421 191.343L324.865 188.952L322.309 186.561C319.883 189.154 317.537 191.821 315.27 194.563L317.968 196.793ZM324.865 188.952L327.421 191.343C329.86 188.736 332.191 186.039 334.413 183.253L331.678 181.071L328.942 178.888C326.834 181.53 324.623 184.087 322.309 186.561L324.865 188.952ZM331.678 181.071L334.413 183.253C336.488 180.654 338.724 178.183 341.123 175.842L338.679 173.337L336.234 170.832C333.629 173.375 331.198 176.06 328.942 178.888L331.678 181.071ZM338.679 173.337L341.123 175.842C343.698 173.33 346.158 170.711 348.505 167.985L345.852 165.702L343.2 163.418C340.986 165.99 338.664 168.461 336.234 170.832L338.679 173.337ZM345.852 165.702L348.505 167.985C350.88 165.226 353.073 162.33 355.084 159.297L352.167 157.363L349.25 155.429C347.401 158.218 345.384 160.881 343.2 163.418L345.852 165.702ZM352.167 157.363L355.084 159.297C357.04 156.347 358.93 153.366 360.753 150.354L357.76 148.542L354.766 146.729C352.992 149.658 351.153 152.558 349.25 155.429L352.167 157.363ZM357.76 148.542L360.753 150.354C362.521 147.435 364.357 144.572 366.26 141.765L363.363 139.801L360.466 137.837C358.495 140.744 356.595 143.708 354.766 146.729L357.76 148.542ZM363.363 139.801L366.26 141.765C368.095 139.058 370.115 136.529 372.322 134.176L369.769 131.782L367.216 129.388C364.755 132.012 362.505 134.829 360.466 137.837L363.363 139.801ZM369.769 131.782L372.322 134.176C373.497 132.923 374.416 131.921 375.064 131.184C375.386 130.819 375.666 130.49 375.886 130.213C375.995 130.077 376.114 129.921 376.225 129.761C376.29 129.667 376.527 129.327 376.701 128.883L373.441 127.61L370.18 126.338C370.268 126.112 370.359 125.954 370.39 125.902C370.43 125.835 370.459 125.792 370.466 125.782C370.479 125.763 370.466 125.783 370.407 125.857C370.293 126 370.101 126.229 369.81 126.56C369.234 127.213 368.375 128.152 367.216 129.388L369.769 131.782ZM373.441 127.61L376.791 128.622L376.9 128.262L373.549 127.251L370.199 126.239L370.09 126.598L373.441 127.61ZM373.549 127.251L376.288 129.43L376.35 129.352L373.611 127.172L370.873 124.993L370.81 125.071L373.549 127.251Z" fill="black"/>
<path d="M139.405 391.288C139.754 393.189 141.578 394.447 143.48 394.098C145.381 393.749 146.639 391.925 146.29 390.024L142.848 390.656L139.405 391.288ZM142.83 390.558L139.381 391.155L139.384 391.172L139.387 391.189L142.83 390.558ZM139.81 375.327L136.413 376.171L139.81 375.327ZM131.169 292.499L127.785 293.394L131.169 292.499ZM132.457 382.502L130.454 385.373L132.457 382.502ZM141.461 384.025L140.595 380.634L141.461 384.025ZM149.669 378.582L146.898 376.445L149.669 378.582ZM156.216 370.431L158.9 372.677L156.216 370.431ZM174.779 345.281L172.27 342.84L174.779 345.281ZM181.799 337.511L184.482 339.759L181.799 337.511ZM187.756 328.898L184.708 327.177L187.756 328.898ZM194.588 321.067L192.469 318.282L194.588 321.067ZM201.73 313.419L204.654 315.342L201.73 313.419ZM206.862 304.293L203.697 302.798L206.862 304.293ZM212.312 306.387L209.508 304.293L212.312 306.387ZM193.336 331.359L196.294 333.23L193.336 331.359ZM186.823 339.518L189.306 341.985L186.823 339.518ZM179.904 347.394L177.137 345.251L179.904 347.394ZM174.804 356.528L171.532 355.287L174.804 356.528ZM175.012 347.701L172.233 345.574L175.012 347.701ZM185.85 329.822L182.826 328.06L185.85 329.822ZM218.017 289.807L219.443 293.003L218.017 289.807ZM236.341 293.928L238.266 291.005L236.341 293.928ZM244.92 299.755L246.927 296.888L244.92 299.755ZM262.803 310.18L261.026 313.195L262.803 310.18ZM291.728 321.735L292.785 318.399L291.728 321.735ZM322.093 328.943L322.798 325.515L322.093 328.943ZM351.155 332.382L349.425 329.339L351.155 332.382ZM350.689 304.612L347.461 305.965L350.689 304.612ZM344.696 284.606L341.302 285.464L344.696 284.606ZM339.077 264.478L335.756 265.58L339.077 264.478ZM336.935 254.266L340.42 253.94L336.935 254.266ZM332.025 224.733L334.85 222.667L332.025 224.733ZM333.223 277.366L336.691 276.893L333.223 277.366ZM335.126 287.609L331.72 288.413V288.413L335.126 287.609ZM341.312 307.467L338.131 308.926L341.312 307.467ZM344.548 317.375L347.977 316.673L344.548 317.375ZM346.793 327.604L343.385 328.402L346.793 327.604ZM351.395 347.946L354.895 347.991L351.395 347.946ZM353.005 358.363L349.684 359.467L353.005 358.363ZM342.534 354.962L339.898 357.265L342.534 354.962ZM335.332 347.407L337.758 344.884L335.332 347.407ZM327.575 340.374L325.301 343.035L327.575 340.374ZM313.037 325.476L310.86 328.217L313.037 325.476ZM297.073 312.244L298.506 309.05L297.073 312.244ZM287.924 307.187L289.868 304.276L287.924 307.187ZM278.594 302.613L277.482 305.932L278.594 302.613ZM268.956 298.646L270.505 295.507L268.956 298.646ZM259.597 293.997L258.032 297.127L259.597 293.997ZM239.606 288.172L239.687 284.673L239.606 288.172ZM231.377 287.524L230.754 290.968L231.377 287.524ZM232.011 290.975L229.395 293.301L232.011 290.975ZM240.369 297.074L238.959 300.277L240.369 297.074ZM249.78 301.689L251.45 298.613L249.78 301.689ZM268.852 310.107L267.958 313.491L268.852 310.107ZM278.745 313.473L277.387 316.699L278.745 313.473ZM288.106 318.16L289.871 315.138L288.106 318.16ZM307.854 324.793L308.146 321.305L307.854 324.793ZM318.123 326.851L319.207 323.523L318.123 326.851ZM342.786 333.307L345.859 334.983L346.008 334.709L346.107 334.414L342.786 333.307ZM342.516 333.802L339.443 332.127L337.262 336.127L341.689 337.203L342.516 333.802ZM341.787 337.227C343.665 337.684 345.558 336.531 346.014 334.653C346.471 332.774 345.318 330.882 343.44 330.425L342.613 333.826L341.787 337.227ZM142.848 390.656L146.29 390.024L146.272 389.926L142.83 390.558L139.387 391.189L139.405 391.288L142.848 390.656ZM142.83 390.558L146.278 389.96C145.103 383.173 144.079 377.996 143.207 374.484L139.81 375.327L136.413 376.171C137.223 379.431 138.212 384.408 139.381 391.155L142.83 390.558ZM139.81 375.327L143.207 374.484C142.412 371.283 141.884 368.042 141.622 364.758L138.133 365.036L134.644 365.314C134.936 368.979 135.526 372.599 136.413 376.171L139.81 375.327ZM138.133 365.036L141.622 364.758C141.345 361.267 141.042 357.789 140.714 354.326L137.23 354.655L133.745 354.985C134.07 358.414 134.369 361.856 134.644 365.314L138.133 365.036ZM137.23 354.655L140.714 354.326C140.396 350.959 140.192 347.58 140.102 344.189L136.604 344.281L133.105 344.373C133.198 347.922 133.412 351.46 133.745 354.985L137.23 354.655ZM136.604 344.281L140.102 344.189C140.006 340.511 139.583 336.844 138.836 333.19L135.407 333.891L131.978 334.591C132.644 337.851 133.019 341.111 133.105 344.373L136.604 344.281ZM135.407 333.891L138.836 333.19C138.167 329.917 137.772 326.646 137.649 323.374L134.151 323.506L130.654 323.638C130.792 327.299 131.234 330.951 131.978 334.591L135.407 333.891ZM134.151 323.506L137.649 323.374C137.525 320.091 137.657 316.773 138.048 313.419L134.572 313.014L131.095 312.608C130.664 316.311 130.516 319.988 130.654 323.638L134.151 323.506ZM134.572 313.014L138.048 313.419C138.51 309.461 138.238 305.56 137.23 301.738L133.846 302.631L130.462 303.524C131.244 306.489 131.457 309.509 131.095 312.608L134.572 313.014ZM133.846 302.631L137.23 301.738C136.334 298.345 135.442 294.967 134.553 291.604L131.169 292.499L127.785 293.394C128.674 296.755 129.566 300.132 130.462 303.524L133.846 302.631ZM131.169 292.499L134.553 291.604C133.712 288.427 133.136 285.2 132.824 281.923L129.34 282.255L125.856 282.586C126.204 286.244 126.847 289.847 127.785 293.394L131.169 292.499ZM129.34 282.255L132.824 281.923C132.74 281.038 132.658 280.303 132.578 279.749C132.538 279.479 132.491 279.192 132.431 278.928C132.402 278.799 132.357 278.615 132.289 278.415C132.252 278.305 132.09 277.809 131.703 277.308C131.511 277.06 131.02 276.484 130.147 276.155C129.068 275.748 127.939 275.915 127.073 276.442C126.375 276.867 126.013 277.419 125.872 277.653C125.706 277.931 125.61 278.177 125.559 278.319C125.391 278.793 125.337 279.261 125.317 279.425C125.26 279.911 125.225 280.566 125.2 281.305L128.698 281.423L132.196 281.54C132.22 280.823 132.249 280.42 132.269 280.247C132.289 280.082 132.277 280.32 132.155 280.664C132.116 280.773 132.032 280.993 131.877 281.251C131.749 281.466 131.399 282.004 130.713 282.421C129.86 282.941 128.743 283.106 127.677 282.704C126.818 282.38 126.339 281.815 126.161 281.584C125.801 281.117 125.666 280.682 125.658 280.656C125.636 280.592 125.622 280.544 125.615 280.518C125.608 280.491 125.604 280.475 125.604 280.471C125.603 280.467 125.607 280.487 125.617 280.541C125.626 280.593 125.637 280.663 125.65 280.755C125.706 281.138 125.775 281.738 125.856 282.586L129.34 282.255ZM128.698 281.423L125.2 281.305C125.101 284.263 125.05 287.497 125.048 291.005L128.548 291.007L132.048 291.009C132.05 287.564 132.1 284.408 132.196 281.54L128.698 281.423ZM128.548 291.007L125.048 291.005C125.047 294.293 124.779 297.582 124.245 300.874L127.699 301.435L131.154 301.996C131.748 298.339 132.046 294.676 132.048 291.009L128.548 291.007ZM127.699 301.435L124.245 300.874C123.638 304.613 123.466 308.36 123.731 312.109L127.222 311.862L130.713 311.615C130.487 308.411 130.633 305.207 131.154 301.996L127.699 301.435ZM127.222 311.862L123.731 312.109C123.968 315.463 124.028 318.816 123.91 322.169L127.408 322.292L130.906 322.415C131.032 318.815 130.968 315.214 130.713 311.615L127.222 311.862ZM127.408 322.292L123.91 322.169C123.787 325.668 123.697 329.169 123.641 332.673L127.141 332.729L130.64 332.786C130.696 329.326 130.784 325.869 130.906 322.415L127.408 322.292ZM127.141 332.729L123.641 332.673C123.584 336.233 123.646 339.788 123.828 343.338L127.323 343.159L130.819 342.98C130.645 339.587 130.585 336.189 130.64 332.786L127.141 332.729ZM127.323 343.159L123.828 343.338C124.003 346.757 124.099 350.18 124.117 353.609L127.617 353.591L131.117 353.573C131.099 350.037 130.999 346.506 130.819 342.98L127.323 343.159ZM127.617 353.591L124.117 353.609C124.135 357.026 124.055 360.454 123.877 363.896L127.373 364.076L130.868 364.256C131.052 360.684 131.136 357.123 131.117 353.573L127.617 353.591ZM127.373 364.076L123.877 363.896C123.686 367.612 123.827 371.304 124.303 374.97L127.774 374.52L131.245 374.07C130.824 370.825 130.698 367.555 130.868 364.256L127.373 364.076ZM127.774 374.52L124.303 374.97C124.868 379.328 126.911 382.901 130.454 385.373L132.457 382.502L134.459 379.632C132.654 378.373 131.576 376.624 131.245 374.07L127.774 374.52ZM132.457 382.502L130.454 385.373C134.013 387.855 138.072 388.503 142.327 387.417L141.461 384.025L140.595 380.634C138.192 381.248 136.248 380.88 134.459 379.632L132.457 382.502ZM141.461 384.025L142.327 387.417C146.431 386.369 149.832 384.103 152.441 380.72L149.669 378.582L146.898 376.445C145.221 378.619 143.15 379.982 140.595 380.634L141.461 384.025ZM149.669 378.582L152.441 380.72C154.556 377.977 156.709 375.296 158.9 372.677L156.216 370.431L153.531 368.185C151.28 370.877 149.069 373.63 146.898 376.445L149.669 378.582ZM156.216 370.431L158.9 372.677C161.194 369.936 163.354 367.086 165.381 364.128L162.494 362.149L159.607 360.17C157.706 362.945 155.681 365.616 153.531 368.185L156.216 370.431ZM162.494 362.149L165.381 364.128C167.365 361.234 169.31 358.307 171.217 355.347L168.275 353.451L165.333 351.555C163.462 354.46 161.553 357.332 159.607 360.17L162.494 362.149ZM168.275 353.451L171.217 355.347C172.98 352.611 175.003 350.07 177.288 347.721L174.779 345.281L172.27 342.84C169.663 345.52 167.349 348.426 165.333 351.555L168.275 353.451ZM174.779 345.281L177.288 347.721C179.794 345.145 182.192 342.491 184.482 339.759L181.799 337.511L179.117 335.262C176.939 337.861 174.657 340.387 172.27 342.84L174.779 345.281ZM181.799 337.511L184.482 339.759C186.856 336.927 188.963 333.879 190.804 330.619L187.756 328.898L184.708 327.177C183.075 330.07 181.211 332.764 179.117 335.262L181.799 337.511ZM187.756 328.898L190.804 330.619C192.306 327.958 194.268 325.71 196.708 323.853L194.588 321.067L192.469 318.282C189.273 320.714 186.68 323.686 184.708 327.177L187.756 328.898ZM194.588 321.067L196.708 323.853C199.84 321.469 202.493 318.628 204.654 315.342L201.73 313.419L198.806 311.495C197.08 314.119 194.972 316.377 192.469 318.282L194.588 321.067ZM201.73 313.419L204.654 315.342C206.686 312.253 208.477 309.068 210.027 305.787L206.862 304.293L203.697 302.798C202.291 305.776 200.661 308.675 198.806 311.495L201.73 313.419ZM206.862 304.293L210.027 305.787C211.412 302.854 212.91 300.404 214.503 298.401L211.763 296.223L209.024 294.044C207.036 296.543 205.267 299.473 203.697 302.798L206.862 304.293ZM211.763 296.223L214.503 298.401C214.853 297.96 214.972 297.91 214.854 297.986C214.737 298.061 213.819 298.589 212.605 298.104C212.069 297.889 211.729 297.563 211.547 297.338C211.458 297.227 211.401 297.134 211.368 297.075C211.335 297.016 211.32 296.978 211.317 296.972C211.314 296.965 211.34 297.03 211.376 297.198C211.411 297.361 211.449 297.586 211.481 297.884L214.96 297.501L218.439 297.119C218.339 296.203 218.163 295.24 217.819 294.379C217.511 293.605 216.797 292.241 215.205 291.604C213.457 290.905 211.917 291.556 211.085 292.087C210.253 292.619 209.568 293.359 209.024 294.044L211.763 296.223ZM214.96 297.501L211.481 297.884C211.713 299.992 211.157 302.085 209.508 304.293L212.312 306.387L215.115 308.482C217.681 305.049 218.891 301.218 218.439 297.119L214.96 297.501ZM212.312 306.387L209.508 304.293C207.339 307.195 205.306 310.182 203.409 313.252L206.386 315.092L209.364 316.932C211.152 314.037 213.069 311.221 215.115 308.482L212.312 306.387ZM206.386 315.092L203.409 313.252C201.713 315.997 199.718 318.497 197.422 320.758L199.877 323.252L202.333 325.746C205.029 323.092 207.373 320.153 209.364 316.932L206.386 315.092ZM199.877 323.252L197.422 320.758C194.736 323.402 192.387 326.313 190.378 329.487L193.336 331.359L196.294 333.23C198.015 330.51 200.026 328.016 202.333 325.746L199.877 323.252ZM193.336 331.359L190.378 329.487C188.651 332.218 186.639 334.738 184.341 337.051L186.823 339.518L189.306 341.985C191.961 339.314 194.292 336.394 196.294 333.23L193.336 331.359ZM186.823 339.518L184.341 337.051C181.763 339.645 179.362 342.378 177.137 345.251L179.904 347.394L182.671 349.537C184.718 346.894 186.93 344.377 189.306 341.985L186.823 339.518ZM179.904 347.394L177.137 345.251C174.785 348.288 172.916 351.638 171.532 355.287L174.804 356.528L178.076 357.77C179.22 354.755 180.752 352.015 182.671 349.537L179.904 347.394ZM174.804 356.528L171.532 355.287C170.364 358.364 168.873 361.222 167.061 363.867L169.948 365.846L172.835 367.824C174.969 364.71 176.716 361.356 178.076 357.77L174.804 356.528ZM169.948 365.846L167.061 363.867C166.622 364.507 166.347 364.821 166.229 364.934C166.171 364.99 166.241 364.909 166.435 364.8C166.614 364.7 167.13 364.445 167.882 364.477C168.75 364.514 169.479 364.913 169.955 365.416C170.356 365.839 170.49 366.237 170.518 366.326C170.57 366.487 170.507 366.375 170.511 365.739L167.011 365.721L163.511 365.703C163.506 366.548 163.56 367.552 163.853 368.464C164.109 369.264 165.067 371.364 167.585 371.471C168.581 371.513 169.374 371.178 169.86 370.905C170.361 370.624 170.769 370.28 171.08 369.981C171.699 369.385 172.287 368.624 172.835 367.824L169.948 365.846ZM167.011 365.721L170.511 365.739C170.523 363.414 171.151 360.901 172.543 358.166L169.423 356.58L166.303 354.993C164.509 358.521 163.529 362.102 163.511 365.703L167.011 365.721ZM169.423 356.58L172.543 358.166C174.039 355.225 175.788 352.446 177.791 349.828L175.012 347.701L172.233 345.574C169.969 348.531 167.992 351.672 166.303 354.993L169.423 356.58ZM175.012 347.701L177.791 349.828C180.034 346.899 182.034 343.823 183.791 340.601L180.718 338.925L177.645 337.249C176.061 340.154 174.258 342.928 172.233 345.574L175.012 347.701ZM180.718 338.925L183.791 340.601C185.446 337.566 187.14 334.561 188.874 331.584L185.85 329.822L182.826 328.06C181.058 331.094 179.331 334.157 177.645 337.249L180.718 338.925ZM185.85 329.822L188.874 331.584C190.526 328.748 192.41 326.06 194.528 323.519L191.839 321.278L189.151 319.037C186.784 321.877 184.675 324.885 182.826 328.06L185.85 329.822ZM191.839 321.278L194.528 323.519C196.857 320.725 199.009 317.814 200.984 314.787L198.053 312.875L195.121 310.962C193.296 313.759 191.306 316.451 189.151 319.037L191.839 321.278ZM198.053 312.875L200.984 314.787C202.777 312.039 204.796 309.446 207.043 307.008L204.469 304.636L201.895 302.264C199.387 304.986 197.128 307.886 195.121 310.962L198.053 312.875ZM204.469 304.636L207.043 307.008C209.577 304.257 211.805 301.295 213.725 298.122L210.73 296.31L207.736 294.498C206.061 297.266 204.115 299.854 201.895 302.264L204.469 304.636ZM210.73 296.31L213.725 298.122C215.167 295.739 217.058 294.067 219.443 293.003L218.017 289.807L216.591 286.611C212.854 288.277 209.888 290.941 207.736 294.498L210.73 296.31ZM218.017 289.807L219.443 293.003C221.687 292.002 223.863 291.916 226.16 292.729L227.328 289.43L228.496 286.131C224.5 284.716 220.467 284.881 216.591 286.611L218.017 289.807ZM227.328 289.43L226.16 292.729C229.033 293.747 231.784 295.118 234.416 296.851L236.341 293.928L238.266 291.005C235.174 288.969 231.917 287.342 228.496 286.131L227.328 289.43ZM236.341 293.928L234.416 296.851C237.25 298.717 240.082 300.641 242.913 302.623L244.92 299.755L246.927 296.888C244.043 294.869 241.156 292.908 238.266 291.005L236.341 293.928ZM244.92 299.755L242.913 302.623C245.89 304.707 248.962 306.58 252.129 308.242L253.755 305.142L255.381 302.043C252.483 300.522 249.665 298.805 246.927 296.888L244.92 299.755ZM253.755 305.142L252.129 308.242C255.111 309.806 258.076 311.457 261.026 313.195L262.803 310.18L264.58 307.164C261.532 305.368 258.466 303.661 255.381 302.043L253.755 305.142ZM262.803 310.18L261.026 313.195C264.129 315.023 267.317 316.685 270.589 318.18L272.044 314.997L273.498 311.813C270.447 310.419 267.474 308.87 264.58 307.164L262.803 310.18ZM272.044 314.997L270.589 318.18C273.896 319.691 277.29 320.97 280.772 322.016L281.779 318.665L282.787 315.313C279.611 314.358 276.515 313.192 273.498 311.813L272.044 314.997ZM281.779 318.665L280.772 322.016C284.084 323.012 287.384 324.031 290.672 325.072L291.728 321.735L292.785 318.399C289.464 317.347 286.132 316.318 282.787 315.313L281.779 318.665ZM291.728 321.735L290.672 325.072C294.155 326.175 297.717 326.997 301.356 327.537L301.871 324.075L302.385 320.613C299.11 320.127 295.911 319.388 292.785 318.399L291.728 321.735ZM301.871 324.075L301.356 327.537C304.641 328.025 307.854 328.752 310.995 329.715L312.022 326.369L313.048 323.023C309.569 321.956 306.014 321.152 302.385 320.613L301.871 324.075ZM312.022 326.369L310.995 329.715C314.412 330.764 317.876 331.649 321.388 332.372L322.093 328.943L322.798 325.515C319.503 324.837 316.253 324.006 313.048 323.023L312.022 326.369ZM322.093 328.943L321.388 332.372C324.749 333.063 328.101 333.818 331.443 334.636L332.275 331.236L333.107 327.837C329.681 326.998 326.245 326.224 322.798 325.515L322.093 328.943ZM332.275 331.236L331.443 334.636C334.884 335.478 338.332 336.231 341.789 336.894L342.448 333.457L343.108 330.019C339.768 329.378 336.434 328.651 333.107 327.837L332.275 331.236ZM342.448 333.457L341.789 336.894C345.794 337.662 349.588 337.3 352.886 335.424L351.155 332.382L349.425 329.339C347.91 330.201 345.899 330.555 343.108 330.019L342.448 333.457ZM351.155 332.382L352.886 335.424C354.708 334.387 356.11 332.885 356.966 330.959C357.8 329.082 358.032 326.996 357.877 324.858L354.386 325.111L350.895 325.364C350.993 326.704 350.812 327.57 350.569 328.116C350.348 328.613 350.008 329.007 349.425 329.339L351.155 332.382ZM354.386 325.111L357.877 324.858C357.62 321.321 357.276 317.789 356.842 314.261L353.369 314.687L349.895 315.114C350.314 318.527 350.647 321.944 350.895 325.364L354.386 325.111ZM353.369 314.687L356.842 314.261C356.377 310.47 355.401 306.8 353.917 303.26L350.689 304.612L347.461 305.965C348.698 308.917 349.508 311.964 349.895 315.114L353.369 314.687ZM350.689 304.612L353.917 303.26C352.618 300.16 351.544 297.009 350.695 293.807L347.312 294.705L343.929 295.602C344.862 299.118 346.04 302.573 347.461 305.965L350.689 304.612ZM347.312 294.705L350.695 293.807C349.807 290.461 348.938 287.108 348.089 283.748L344.696 284.606L341.302 285.464C342.159 288.851 343.034 292.23 343.929 295.602L347.312 294.705ZM344.696 284.606L348.089 283.748C347.232 280.36 346.354 276.978 345.455 273.6L342.073 274.501L338.691 275.401C339.583 278.75 340.453 282.105 341.302 285.464L344.696 284.606ZM342.073 274.501L345.455 273.6C344.542 270.169 343.523 266.76 342.399 263.375L339.077 264.478L335.756 265.58C336.835 268.833 337.814 272.106 338.691 275.401L342.073 274.501ZM339.077 264.478L342.399 263.375C341.381 260.309 340.722 257.166 340.42 253.94L336.935 254.266L333.451 254.591C333.801 258.345 334.57 262.009 335.756 265.58L339.077 264.478ZM336.935 254.266L340.42 253.94C340.085 250.349 339.593 246.79 338.946 243.264L335.503 243.896L332.061 244.529C332.671 247.85 333.134 251.204 333.451 254.591L336.935 254.266ZM335.503 243.896L338.946 243.264C338.356 240.055 338.068 236.808 338.081 233.522L334.581 233.508L331.081 233.495C331.066 237.212 331.393 240.891 332.061 244.529L335.503 243.896ZM334.581 233.508L338.081 233.522C338.096 229.429 337.093 225.734 334.85 222.667L332.025 224.733L329.2 226.799C330.392 228.429 331.092 230.584 331.081 233.495L334.581 233.508ZM332.025 224.733L334.85 222.667C334.29 221.901 333.558 221.08 332.609 220.503C331.576 219.876 330.163 219.485 328.631 219.962C327.237 220.396 326.333 221.373 325.784 222.167C325.217 222.985 324.793 223.944 324.457 224.911L327.762 226.061L331.068 227.21C331.294 226.56 331.47 226.251 331.539 226.151C331.626 226.026 331.395 226.433 330.712 226.645C330.353 226.757 329.976 226.778 329.629 226.719C329.301 226.662 329.079 226.549 328.976 226.487C328.812 226.387 328.902 226.391 329.2 226.799L332.025 224.733ZM327.762 226.061L324.457 224.911C323.194 228.544 322.6 232.325 322.667 236.236L326.167 236.175L329.666 236.115C329.613 233.006 330.083 230.045 331.068 227.21L327.762 226.061ZM326.167 236.175L322.667 236.236C322.734 240.092 323.365 243.883 324.554 247.597L327.887 246.53L331.221 245.464C330.237 242.39 329.721 239.277 329.666 236.115L326.167 236.175ZM327.887 246.53L324.554 247.597C325.586 250.822 326.349 254.051 326.847 257.286L330.307 256.754L333.766 256.222C333.211 252.613 332.361 249.027 331.221 245.464L327.887 246.53ZM330.307 256.754L326.847 257.286C327.371 260.69 327.869 264.1 328.34 267.518L331.807 267.04L335.274 266.562C334.798 263.108 334.295 259.661 333.766 256.222L330.307 256.754ZM331.807 267.04L328.34 267.518C328.813 270.952 329.285 274.392 329.755 277.839L333.223 277.366L336.691 276.893C336.221 273.443 335.748 269.999 335.274 266.562L331.807 267.04ZM333.223 277.366L329.755 277.839C330.241 281.398 330.896 284.923 331.72 288.413L335.126 287.609L338.533 286.805C337.76 283.533 337.146 280.229 336.691 276.893L333.223 277.366ZM335.126 287.609L331.72 288.413C332.529 291.841 333.408 295.25 334.357 298.64L337.728 297.696L341.098 296.753C340.175 293.455 339.32 290.139 338.533 286.805L335.126 287.609ZM337.728 297.696L334.357 298.64C335.343 302.161 336.601 305.59 338.131 308.926L341.312 307.467L344.493 306.008C343.116 303.004 341.984 299.92 341.098 296.753L337.728 297.696ZM341.312 307.467L338.131 308.926C339.473 311.853 340.469 314.901 341.119 318.077L344.548 317.375L347.977 316.673C347.22 312.978 346.059 309.421 344.493 306.008L341.312 307.467ZM344.548 317.375L341.119 318.077C341.83 321.545 342.585 324.987 343.385 328.402L346.793 327.604L350.201 326.806C349.415 323.454 348.674 320.077 347.977 316.673L344.548 317.375ZM346.793 327.604L343.385 328.402C344.207 331.91 345.219 335.373 346.422 338.791L349.723 337.63L353.025 336.468C351.906 333.286 350.964 330.066 350.201 326.806L346.793 327.604ZM349.723 337.63L346.422 338.791C347.443 341.695 347.937 344.725 347.895 347.9L351.395 347.946L354.895 347.991C354.946 344.013 354.325 340.165 353.025 336.468L349.723 337.63ZM351.395 347.946L347.895 347.9C347.844 351.865 348.44 355.726 349.684 359.467L353.005 358.363L356.326 357.259C355.331 354.264 354.853 351.181 354.895 347.991L351.395 347.946ZM353.005 358.363L349.684 359.467C349.92 360.177 349.968 360.528 349.972 360.616C349.982 360.804 349.871 359.975 350.65 359.163C351.547 358.228 352.582 358.356 352.653 358.367C352.733 358.379 352.528 358.353 351.938 358.047L350.327 361.154L348.715 364.261C349.578 364.709 350.574 365.132 351.603 365.288C352.624 365.443 354.357 365.41 355.701 364.01C356.926 362.733 357.009 361.134 356.963 360.247C356.91 359.26 356.65 358.232 356.326 357.259L353.005 358.363ZM350.327 361.154L351.938 358.047C349.446 356.755 347.19 354.972 345.17 352.66L342.534 354.962L339.898 357.265C342.457 360.195 345.397 362.54 348.715 364.261L350.327 361.154ZM342.534 354.962L345.17 352.66C342.814 349.962 340.343 347.37 337.758 344.884L335.332 347.407L332.906 349.929C335.345 352.275 337.675 354.72 339.898 357.265L342.534 354.962ZM335.332 347.407L337.758 344.884C335.197 342.421 332.56 340.03 329.849 337.713L327.575 340.374L325.301 343.035C327.909 345.263 330.444 347.561 332.906 349.929L335.332 347.407ZM327.575 340.374L329.849 337.713C327.365 335.591 325.12 333.249 323.11 330.685L320.356 332.844L317.601 335.003C319.898 337.933 322.465 340.612 325.301 343.035L327.575 340.374ZM320.356 332.844L323.11 330.685C320.789 327.722 318.155 325.071 315.213 322.735L313.037 325.476L310.86 328.217C313.371 330.21 315.617 332.471 317.601 335.003L320.356 332.844ZM313.037 325.476L315.213 322.735C312.64 320.691 310.239 318.436 308.009 315.968L305.412 318.313L302.814 320.659C305.299 323.411 307.982 325.931 310.86 328.217L313.037 325.476ZM305.412 318.313L308.009 315.968C305.327 312.998 302.151 310.686 298.506 309.05L297.073 312.244L295.64 315.437C298.398 316.674 300.782 318.409 302.814 320.659L305.412 318.313ZM297.073 312.244L298.506 309.05C295.48 307.693 292.602 306.102 289.868 304.276L287.924 307.187L285.98 310.097C289.041 312.141 292.262 313.921 295.64 315.437L297.073 312.244ZM287.924 307.187L289.868 304.276C286.711 302.168 283.321 300.507 279.707 299.295L278.594 302.613L277.482 305.932C280.512 306.948 283.342 308.336 285.98 310.097L287.924 307.187ZM278.594 302.613L279.707 299.295C276.532 298.231 273.465 296.968 270.505 295.507L268.956 298.646L267.407 301.784C270.653 303.386 274.012 304.769 277.482 305.932L278.594 302.613ZM268.956 298.646L270.505 295.507C267.408 293.978 264.293 292.431 261.162 290.866L259.597 293.997L258.032 297.127C261.174 298.698 264.299 300.25 267.407 301.784L268.956 298.646ZM259.597 293.997L261.162 290.866C257.881 289.226 254.503 287.821 251.029 286.652L249.913 289.97L248.797 293.287C251.963 294.352 255.041 295.632 258.032 297.127L259.597 293.997ZM249.913 289.97L251.029 286.652C247.371 285.421 243.586 284.762 239.687 284.673L239.606 288.172L239.526 291.671C242.73 291.744 245.816 292.284 248.797 293.287L249.913 289.97ZM239.606 288.172L239.687 284.673C236.197 284.592 233.666 284.382 232 284.08L231.377 287.524L230.754 290.968C232.956 291.367 235.912 291.588 239.526 291.671L239.606 288.172ZM231.377 287.524L232 284.08C231.426 283.976 230.126 283.778 228.854 284.369C228.066 284.735 227.3 285.403 226.878 286.41C226.49 287.334 226.539 288.196 226.642 288.757C226.831 289.786 227.364 290.664 227.745 291.228C228.186 291.881 228.752 292.578 229.395 293.301L232.011 290.975L234.626 288.649C234.09 288.047 233.746 287.607 233.545 287.309C233.284 286.923 233.443 287.039 233.527 287.492C233.577 287.765 233.64 288.387 233.333 289.117C232.992 289.93 232.375 290.452 231.803 290.717C231.31 290.946 230.917 290.961 230.815 290.963C230.688 290.965 230.655 290.951 230.754 290.968L231.377 287.524ZM232.011 290.975L229.395 293.301C232.083 296.324 235.279 298.658 238.959 300.277L240.369 297.074L241.779 293.871C239.029 292.66 236.652 290.928 234.626 288.649L232.011 290.975ZM240.369 297.074L238.959 300.277C242.086 301.654 245.136 303.15 248.109 304.764L249.78 301.689L251.45 298.613C248.305 296.905 245.082 295.324 241.779 293.871L240.369 297.074ZM249.78 301.689L248.109 304.764C251.213 306.45 254.353 308.067 257.527 309.616L259.062 306.47L260.596 303.324C257.513 301.82 254.464 300.25 251.45 298.613L249.78 301.689ZM259.062 306.47L257.527 309.616C260.863 311.243 264.342 312.535 267.958 313.491L268.852 310.107L269.747 306.723C266.567 305.883 263.518 304.75 260.596 303.324L259.062 306.47ZM268.852 310.107L267.958 313.491C271.2 314.348 274.343 315.417 277.387 316.699L278.745 313.473L280.104 310.248C276.754 308.837 273.301 307.662 269.747 306.723L268.852 310.107ZM278.745 313.473L277.387 316.699C280.442 317.985 283.426 319.479 286.34 321.182L288.106 318.16L289.871 315.138C286.699 313.284 283.443 311.654 280.104 310.248L278.745 313.473ZM288.106 318.16L286.34 321.182C289.569 323.068 292.932 324.636 296.427 325.883L297.603 322.587L298.779 319.29C295.697 318.191 292.729 316.807 289.871 315.138L288.106 318.16ZM297.603 322.587L296.427 325.883C300.006 327.16 303.72 327.958 307.562 328.28L307.854 324.793L308.146 321.305C304.897 321.032 301.777 320.36 298.779 319.29L297.603 322.587ZM307.854 324.793L307.562 328.28C310.845 328.556 314.002 329.19 317.039 330.179L318.123 326.851L319.207 323.523C315.644 322.362 311.955 321.624 308.146 321.305L307.854 324.793ZM318.123 326.851L317.039 330.179C320.465 331.296 323.934 332.21 327.445 332.921L328.14 329.491L328.835 326.061C325.59 325.403 322.38 324.557 319.207 323.523L318.123 326.851ZM328.14 329.491L327.445 332.921C330.791 333.599 334.073 334.313 337.29 335.062L338.083 331.653L338.877 328.244C335.592 327.479 332.245 326.752 328.835 326.061L328.14 329.491ZM338.083 331.653L337.29 335.062C338.888 335.434 339.94 335.726 340.536 335.936C340.869 336.053 340.866 336.078 340.717 335.986C340.665 335.954 340.315 335.742 339.975 335.3C339.595 334.805 338.984 333.646 339.466 332.2L342.786 333.307L346.107 334.414C346.617 332.882 345.983 331.63 345.526 331.035C345.11 330.494 344.631 330.176 344.397 330.032C343.885 329.715 343.309 329.491 342.858 329.332C341.887 328.99 340.529 328.629 338.877 328.244L338.083 331.653ZM342.786 333.307L339.713 331.631L339.443 332.127L342.516 333.802L345.589 335.478L345.859 334.983L342.786 333.307ZM342.516 333.802L341.689 337.203L341.787 337.227L342.613 333.826L343.44 330.425L343.343 330.402L342.516 333.802Z" fill="black"/>
<path d="M184.186 112.253C184.506 110.347 183.221 108.542 181.315 108.221C179.408 107.901 177.603 109.186 177.283 111.093L180.734 111.673L184.186 112.253ZM180.718 111.771L177.266 111.191L177.225 111.436L177.219 111.685L180.718 111.771ZM176.727 137.411L173.309 136.659L176.727 137.411ZM175.057 147.686L171.577 147.316V147.316L175.057 147.686ZM173.191 168.454L169.772 167.706L173.191 168.454ZM171.046 178.708L174.478 179.394L171.046 178.708ZM166.211 187.652L168.687 190.126L166.211 187.652ZM157.043 191.987L156.706 188.503L157.043 191.987ZM146.481 191.128L147.375 187.745V187.745L146.481 191.128ZM125.965 193.079L124.964 189.725L125.965 193.079ZM133.91 203.178L135.636 200.132L133.91 203.178ZM154.105 207.965L153.522 211.416L154.105 207.965ZM174.041 225.37L170.546 225.17L174.041 225.37ZM172.914 235.461L169.461 234.893L172.914 235.461ZM166.126 265.965L169.625 266.046L166.126 265.965ZM165.36 276.38L168.833 276.813L165.36 276.38ZM164.175 286.758L167.656 287.119V287.119L164.175 286.758ZM160.561 307.195L157.063 307.295L160.561 307.195ZM165.018 309.345L162.985 306.496L165.018 309.345ZM171.968 301.805L174.981 303.587L171.968 301.805ZM176.64 292.548L173.418 291.183V291.183L176.64 292.548ZM180.275 282.802L176.945 281.723L180.275 282.802ZM184.148 273.107L187.305 274.618L184.148 273.107ZM190.6 253.23L187.426 251.754L190.6 253.23ZM195.798 244.166L198.674 246.161L195.798 244.166ZM239.598 242.226L241.319 239.178L239.598 242.226ZM247.953 248.589L250.425 246.111L247.953 248.589ZM285.503 266.675L284.549 270.042L285.503 266.675ZM299.784 256.568L302.616 254.513L299.784 256.568ZM285.391 241.795L287.897 239.35L285.391 241.795ZM256.719 211.465L254.353 214.045L256.719 211.465ZM259.087 171.305L260.07 174.664L259.087 171.305ZM265.571 166.208L262.324 164.901L265.571 166.208ZM261.993 162.123L262.311 158.638L261.993 162.123ZM251.741 161.099L252.117 157.619L251.741 161.099ZM241.319 160.843L241.111 157.349L241.319 160.843ZM230.895 161.08L230.847 164.579L230.895 161.08ZM220.518 160.045L219.876 163.485L220.518 160.045ZM210.472 157.194L209.21 160.459L210.472 157.194ZM200.867 152.996L199.328 156.14L200.867 152.996ZM193.381 146.131L190.39 147.947L193.381 146.131ZM189.494 136.408L186.074 137.15L189.494 136.408ZM185.974 126.624L189.08 125.01L185.974 126.624ZM183.016 120.285L179.682 121.351L179.685 121.358L179.687 121.366L183.016 120.285ZM182.495 118.654L185.828 117.588L185.784 117.45L185.729 117.316L182.495 118.654ZM185.691 117.224C184.952 115.438 182.905 114.588 181.119 115.327C179.333 116.066 178.483 118.112 179.222 119.899L182.456 118.561L185.691 117.224ZM180.734 111.673L177.283 111.093L177.266 111.191L180.718 111.771L184.169 112.352L184.186 112.253L180.734 111.673ZM180.718 111.771L177.219 111.685C177.048 118.572 176.531 123.406 175.763 126.383L179.153 127.256L182.542 128.13C183.516 124.352 184.043 118.863 184.217 111.858L180.718 111.771ZM179.153 127.256L175.763 126.383C174.882 129.801 174.064 133.226 173.309 136.659L176.727 137.411L180.146 138.163C180.883 134.812 181.681 131.468 182.542 128.13L179.153 127.256ZM176.727 137.411L173.309 136.659C172.535 140.178 171.958 143.73 171.577 147.316L175.057 147.686L178.538 148.055C178.892 144.726 179.427 141.429 180.146 138.163L176.727 137.411ZM175.057 147.686L171.577 147.316C171.199 150.875 170.977 154.448 170.91 158.034L174.41 158.099L177.909 158.164C177.972 154.781 178.181 151.411 178.538 148.055L175.057 147.686ZM174.41 158.099L170.91 158.034C170.85 161.289 170.471 164.512 169.772 167.706L173.191 168.454L176.611 169.202C177.407 165.56 177.84 161.88 177.909 158.164L174.41 158.099ZM173.191 168.454L169.772 167.706C169.02 171.145 168.301 174.584 167.614 178.023L171.046 178.708L174.478 179.394C175.157 175.996 175.868 172.599 176.611 169.202L173.191 168.454ZM171.046 178.708L167.614 178.023C167.071 180.741 165.803 183.107 163.734 185.179L166.211 187.652L168.687 190.126C171.7 187.109 173.656 183.511 174.478 179.394L171.046 178.708ZM166.211 187.652L163.734 185.179C161.766 187.15 159.466 188.237 156.706 188.503L157.043 191.987L157.38 195.471C161.762 195.047 165.573 193.244 168.687 190.126L166.211 187.652ZM157.043 191.987L156.706 188.503C153.549 188.809 150.445 188.556 147.375 187.745L146.481 191.128L145.586 194.512C149.458 195.536 153.395 195.856 157.38 195.471L157.043 191.987ZM146.481 191.128L147.375 187.745C143.42 186.699 139.434 186.526 135.452 187.239L136.069 190.685L136.686 194.13C139.645 193.6 142.599 193.723 145.586 194.512L146.481 191.128ZM136.069 190.685L135.452 187.239C131.856 187.883 128.36 188.712 124.964 189.725L125.965 193.079L126.966 196.432C130.101 195.497 133.34 194.729 136.686 194.13L136.069 190.685ZM125.965 193.079L124.964 189.725C123.973 190.021 122.945 190.428 122.072 191.04C121.191 191.657 120.153 192.715 119.874 194.336C119.595 195.956 120.219 197.3 120.842 198.176C121.461 199.045 122.292 199.773 123.127 200.384L125.194 197.559L127.26 194.734C127.006 194.548 126.826 194.397 126.703 194.281C126.577 194.162 126.538 194.106 126.546 194.118C126.553 194.128 126.642 194.254 126.715 194.493C126.794 194.749 126.844 195.109 126.772 195.523C126.622 196.397 126.088 196.773 126.088 196.773C126.076 196.781 126.131 196.742 126.289 196.673C126.444 196.605 126.664 196.522 126.966 196.432L125.965 193.079ZM125.194 197.559L123.127 200.384C125.991 202.479 129.011 204.425 132.185 206.223L133.91 203.178L135.636 200.132C132.69 198.464 129.899 196.664 127.26 194.734L125.194 197.559ZM133.91 203.178L132.185 206.223C135.642 208.181 139.35 209.412 143.287 209.908L143.725 206.436L144.162 202.963C141.133 202.582 138.299 201.641 135.636 200.132L133.91 203.178ZM143.725 206.436L143.287 209.908C146.722 210.341 150.133 210.844 153.522 211.416L154.105 207.965L154.688 204.514C151.202 203.925 147.693 203.408 144.162 202.963L143.725 206.436ZM154.105 207.965L153.522 211.416C156.776 211.966 159.97 212.77 163.104 213.829L164.224 210.513L165.345 207.197C161.861 206.02 158.308 205.125 154.688 204.514L154.105 207.965ZM164.224 210.513L163.104 213.829C165.715 214.711 167.542 216.158 168.789 218.151L171.757 216.295L174.724 214.438C172.547 210.959 169.352 208.551 165.345 207.197L164.224 210.513ZM171.757 216.295L168.789 218.151C170.106 220.255 170.696 222.558 170.546 225.17L174.041 225.37L177.535 225.569C177.764 221.554 176.831 217.807 174.724 214.438L171.757 216.295ZM174.041 225.37L170.546 225.17C170.365 228.355 170.003 231.595 169.461 234.893L172.914 235.461L176.368 236.029C176.949 232.498 177.338 229.011 177.535 225.569L174.041 225.37ZM172.914 235.461L169.461 234.893C168.904 238.273 168.297 241.658 167.637 245.047L171.072 245.716L174.508 246.385C175.18 242.929 175.8 239.478 176.368 236.029L172.914 235.461ZM171.072 245.716L167.637 245.047C167.011 248.264 166.098 251.422 164.896 254.524L168.16 255.788L171.424 257.052C172.773 253.569 173.801 250.013 174.508 246.385L171.072 245.716ZM168.16 255.788L164.896 254.524C163.476 258.19 162.717 261.982 162.627 265.884L166.126 265.965L169.625 266.046C169.696 262.963 170.293 259.971 171.424 257.052L168.16 255.788ZM166.126 265.965L162.627 265.884C162.549 269.259 162.302 272.614 161.887 275.947L165.36 276.38L168.833 276.813C169.277 273.245 169.542 269.655 169.625 266.046L166.126 265.965ZM165.36 276.38L161.887 275.947C161.454 279.422 161.056 282.905 160.694 286.397L164.175 286.758L167.656 287.119C168.014 283.675 168.406 280.24 168.833 276.813L165.36 276.38ZM164.175 286.758L160.694 286.397C160.359 289.621 159.692 292.786 158.692 295.893L162.024 296.966L165.356 298.038C166.504 294.47 167.271 290.83 167.656 287.119L164.175 286.758ZM162.024 296.966L158.692 295.893C157.497 299.607 156.952 303.413 157.063 307.295L160.561 307.195L164.06 307.095C163.972 304.013 164.402 300.999 165.356 298.038L162.024 296.966ZM160.561 307.195L157.063 307.295C157.093 308.364 157.232 309.492 157.621 310.524C158.02 311.581 158.794 312.804 160.229 313.497C161.653 314.184 163.084 314.035 164.147 313.71C165.194 313.39 166.175 312.82 167.051 312.195L165.018 309.345L162.985 306.496C162.72 306.685 162.509 306.815 162.349 306.901C162.27 306.943 162.209 306.972 162.166 306.991C162.144 307 162.128 307.006 162.117 307.011C162.106 307.015 162.101 307.016 162.101 307.016C162.101 307.016 162.108 307.014 162.121 307.011C162.134 307.008 162.153 307.004 162.18 307C162.232 306.991 162.314 306.982 162.421 306.984C162.645 306.987 162.948 307.036 163.271 307.192C163.963 307.526 164.168 308.045 164.17 308.052C164.173 308.059 164.147 307.992 164.12 307.819C164.093 307.65 164.069 307.412 164.06 307.095L160.561 307.195ZM165.018 309.345L167.051 312.195C170.312 309.868 172.965 306.994 174.981 303.587L171.968 301.805L168.956 300.023C167.448 302.573 165.468 304.725 162.985 306.496L165.018 309.345ZM171.968 301.805L174.981 303.587C176.822 300.475 178.45 297.25 179.863 293.913L176.64 292.548L173.418 291.183C172.125 294.233 170.638 297.18 168.956 300.023L171.968 301.805ZM176.64 292.548L179.863 293.913C181.256 290.625 182.503 287.281 183.604 283.88L180.275 282.802L176.945 281.723C175.906 284.93 174.73 288.083 173.418 291.183L176.64 292.548ZM180.275 282.802L183.604 283.88C184.626 280.725 185.859 277.638 187.305 274.618L184.148 273.107L180.991 271.596C179.412 274.894 178.063 278.27 176.945 281.723L180.275 282.802ZM184.148 273.107L187.305 274.618C188.948 271.184 190.127 267.587 190.839 263.832L187.401 263.18L183.962 262.527C183.362 265.69 182.372 268.711 180.991 271.596L184.148 273.107ZM187.401 263.18L190.839 263.832C191.442 260.657 192.419 257.617 193.773 254.706L190.6 253.23L187.426 251.754C185.827 255.193 184.672 258.786 183.962 262.527L187.401 263.18ZM190.6 253.23L193.773 254.706C195.166 251.712 196.799 248.864 198.674 246.161L195.798 244.166L192.922 242.172C190.819 245.204 188.987 248.399 187.426 251.754L190.6 253.23ZM195.798 244.166L198.674 246.161C200.607 243.375 202.633 240.706 204.753 238.153L202.06 235.917L199.368 233.681C197.116 236.392 194.968 239.223 192.922 242.172L195.798 244.166ZM202.06 235.917L204.753 238.153C206.341 236.241 208.374 235.13 211.064 234.807L210.647 231.332L210.23 227.857C205.843 228.383 202.152 230.329 199.368 233.681L202.06 235.917ZM210.647 231.332L211.064 234.807C213.822 234.476 216.316 235.021 218.677 236.468L220.506 233.484L222.335 230.501C218.628 228.228 214.55 227.338 210.23 227.857L210.647 231.332ZM220.506 233.484L218.677 236.468C221.93 238.463 225.348 240.068 228.927 241.279L230.049 237.963L231.171 234.648C228.093 233.607 225.149 232.226 222.335 230.501L220.506 233.484ZM230.049 237.963L228.927 241.279C232.05 242.335 235.032 243.667 237.877 245.273L239.598 242.226L241.319 239.178C238.089 237.354 234.706 235.844 231.171 234.648L230.049 237.963ZM239.598 242.226L237.877 245.273C240.632 246.829 243.166 248.757 245.482 251.067L247.953 248.589L250.425 246.111C247.674 243.367 244.638 241.053 241.319 239.178L239.598 242.226ZM247.953 248.589L245.482 251.067C248.312 253.889 251.538 256.114 255.146 257.723L256.571 254.526L257.996 251.329C255.181 250.074 252.661 248.341 250.425 246.111L247.953 248.589ZM256.571 254.526L255.146 257.723C258.548 259.239 262.068 260.446 265.701 261.344L266.541 257.946L267.38 254.548C264.145 253.749 261.018 252.676 257.996 251.329L256.571 254.526ZM266.541 257.946L265.701 261.344C268.725 262.09 271.515 263.344 274.09 265.115L276.073 262.232L278.057 259.348C274.789 257.1 271.224 255.497 267.38 254.548L266.541 257.946ZM276.073 262.232L274.09 265.115C277.321 267.338 280.811 268.984 284.549 270.042L285.503 266.675L286.456 263.307C283.463 262.46 280.668 261.144 278.057 259.348L276.073 262.232ZM285.503 266.675L284.549 270.042C288.049 271.033 291.557 271.799 295.073 272.34L295.604 268.88L296.136 265.421C292.913 264.925 289.686 264.221 286.456 263.307L285.503 266.675ZM295.604 268.88L295.073 272.34C297.227 272.671 299.505 272.529 301.476 271.332C303.511 270.096 304.619 268.102 305.12 265.97L301.713 265.169L298.306 264.368C298.104 265.228 297.842 265.349 297.841 265.35C297.776 265.389 297.351 265.608 296.136 265.421L295.604 268.88ZM301.713 265.169L305.12 265.97C306.082 261.879 305.135 257.983 302.616 254.513L299.784 256.568L296.951 258.624C298.411 260.637 298.751 262.475 298.306 264.368L301.713 265.169ZM299.784 256.568L302.616 254.513C300.477 251.564 298.02 248.854 295.251 246.385L292.921 248.997L290.592 251.608C292.994 253.752 295.112 256.09 296.951 258.624L299.784 256.568ZM292.921 248.997L295.251 246.385C292.726 244.133 290.275 241.788 287.897 239.35L285.391 241.795L282.886 244.239C285.377 246.792 287.945 249.248 290.592 251.608L292.921 248.997ZM285.391 241.795L287.897 239.35C285.5 236.894 283.16 234.382 280.876 231.816L278.262 234.143L275.647 236.469C278.001 239.115 280.414 241.705 282.886 244.239L285.391 241.795ZM278.262 234.143L280.876 231.816C278.671 229.338 276.642 226.692 274.788 223.878L271.866 225.803L268.943 227.729C270.979 230.821 273.214 233.735 275.647 236.469L278.262 234.143ZM271.866 225.803L274.788 223.878C272.627 220.597 269.986 217.766 266.874 215.397L264.754 218.181L262.634 220.966C265.114 222.854 267.213 225.103 268.943 227.729L271.866 225.803ZM264.754 218.181L266.874 215.397C264.163 213.332 261.566 211.162 259.084 208.886L256.719 211.465L254.353 214.045C256.994 216.467 259.755 218.774 262.634 220.966L264.754 218.181ZM256.719 211.465L259.084 208.886C256.541 206.553 254.022 204.194 251.528 201.807L249.109 204.336L246.689 206.865C249.218 209.285 251.773 211.679 254.353 214.045L256.719 211.465ZM249.109 204.336L251.528 201.807C248.941 199.333 246.247 196.975 243.446 194.736L241.261 197.47L239.075 200.203C241.715 202.313 244.252 204.534 246.689 206.865L249.109 204.336ZM241.261 197.47L243.446 194.736C241.479 193.163 240.85 191.588 240.959 189.824L237.466 189.607L233.972 189.391C233.702 193.76 235.602 197.427 239.075 200.203L241.261 197.47ZM237.466 189.607L240.959 189.824C241.097 187.587 241.961 185.4 243.762 183.213L241.061 180.988L238.359 178.763C235.747 181.935 234.214 185.494 233.972 189.391L237.466 189.607ZM241.061 180.988L243.762 183.213C245.611 180.968 247.877 179.265 250.606 178.085L249.216 174.873L247.827 171.66C244.094 173.275 240.923 175.649 238.359 178.763L241.061 180.988ZM249.216 174.873L250.606 178.085C253.705 176.745 256.86 175.605 260.07 174.664L259.087 171.305L258.103 167.947C254.614 168.968 251.188 170.207 247.827 171.66L249.216 174.873ZM259.087 171.305L260.07 174.664C264.074 173.492 267.318 171.24 268.817 167.515L265.571 166.208L262.324 164.901C261.877 166.01 260.799 167.157 258.103 167.947L259.087 171.305ZM265.571 166.208L268.817 167.515C269.551 165.692 269.866 163.154 268.039 161.068C266.515 159.327 264.196 158.81 262.311 158.638L261.993 162.123L261.675 165.609C262.32 165.668 262.705 165.765 262.901 165.837C263.099 165.909 262.97 165.905 262.773 165.68C262.67 165.563 262.573 165.412 262.503 165.236C262.433 165.061 262.407 164.907 262.4 164.796C262.389 164.597 262.443 164.606 262.324 164.901L265.571 166.208ZM261.993 162.123L262.311 158.638C258.973 158.333 255.575 157.994 252.117 157.619L251.741 161.099L251.364 164.579C254.86 164.957 258.297 165.301 261.675 165.609L261.993 162.123ZM251.741 161.099L252.117 157.619C248.448 157.222 244.778 157.132 241.111 157.349L241.319 160.843L241.526 164.337C244.801 164.143 248.08 164.223 251.364 164.579L251.741 161.099ZM241.319 160.843L241.111 157.349C237.725 157.55 234.336 157.627 230.943 157.58L230.895 161.08L230.847 164.579C234.41 164.629 237.97 164.548 241.526 164.337L241.319 160.843ZM230.895 161.08L230.943 157.58C227.666 157.535 224.405 157.21 221.16 156.604L220.518 160.045L219.876 163.485C223.511 164.164 227.168 164.529 230.847 164.579L230.895 161.08ZM220.518 160.045L221.16 156.604C217.93 156.001 214.789 155.11 211.733 153.93L210.472 157.194L209.21 160.459C212.669 161.795 216.225 162.804 219.876 163.485L220.518 160.045ZM210.472 157.194L211.733 153.93C208.571 152.708 205.462 151.349 202.406 149.853L200.867 152.996L199.328 156.14C202.564 157.725 205.859 159.164 209.21 160.459L210.472 157.194ZM200.867 152.996L202.406 149.853C199.87 148.611 197.875 146.787 196.373 144.314L193.381 146.131L190.39 147.947C192.576 151.548 195.571 154.301 199.328 156.14L200.867 152.996ZM193.381 146.131L196.373 144.314C194.729 141.607 193.579 138.729 192.915 135.666L189.494 136.408L186.074 137.15C186.904 140.978 188.346 144.582 190.39 147.947L193.381 146.131ZM189.494 136.408L192.915 135.666C192.103 131.922 190.825 128.367 189.08 125.01L185.974 126.624L182.869 128.238C184.322 131.035 185.391 134.003 186.074 137.15L189.494 136.408ZM185.974 126.624L189.08 125.01C187.463 121.898 186.615 120.034 186.345 119.203L183.016 120.285L179.687 121.366C180.164 122.833 181.288 125.196 182.869 128.238L185.974 126.624ZM183.016 120.285L186.35 119.219L185.828 117.588L182.495 118.654L179.161 119.72L179.682 121.351L183.016 120.285ZM182.495 118.654L185.729 117.316L185.691 117.224L182.456 118.561L179.222 119.899L179.26 119.991L182.495 118.654Z" fill="black"/>
</svg>
