<svg width="483" height="450" viewBox="0 0 483 450" fill="none" xmlns="http://www.w3.org/2000/svg">
<path d="M89.3539 444.257C88.5102 445.996 89.2362 448.089 90.9754 448.933C92.7146 449.777 94.8084 449.051 95.652 447.312L92.5029 445.784L89.3539 444.257ZM92.5466 445.694L95.6956 447.222L95.7102 447.192L95.7242 447.161L92.5466 445.694ZM99.6452 431.86L102.618 433.707L99.6452 431.86ZM112.689 403.409L115.949 404.683L112.689 403.409ZM122.786 385.122L125.895 386.731L122.786 385.122ZM126.591 375.375L129.965 376.303L126.591 375.375ZM135.949 356.73L132.897 355.018L135.949 356.73ZM140.54 347.363L137.317 345.999L140.54 347.363ZM145.309 338.085L148.294 339.911L145.309 338.085ZM153.691 318.965L150.338 317.963L153.691 318.965ZM158.094 309.51L161.018 311.433L158.094 309.51ZM163.23 300.408L160.071 298.901L163.23 300.408ZM167.611 290.939L164.417 289.508L167.611 290.939ZM172.477 281.708L175.463 283.534L172.477 281.708ZM181.71 263.003L184.87 264.507L181.71 263.003ZM186.604 253.784L189.621 255.559L186.604 253.784ZM190.808 244.23L187.463 243.202L190.808 244.23ZM217.821 187.776L214.513 186.633L217.821 187.776ZM221.568 178.003L224.792 179.365L221.568 178.003ZM231.192 159.483L233.933 161.661L231.192 159.483ZM249.28 121.884L246.058 120.517L249.28 121.884ZM254.019 112.586L257.019 114.389L254.019 112.586ZM262.619 93.5884L259.279 92.5429L262.619 93.5884ZM266.519 83.8971L269.651 85.4582L266.519 83.8971ZM271.775 74.8242L274.689 76.7628L271.775 74.8242ZM276.089 65.3265L272.712 64.407L276.089 65.3265ZM279.41 55.3959L276.16 54.0963L279.41 55.3959ZM283.299 45.7271L280.055 44.4145L283.299 45.7271ZM286.77 35.9028L283.421 34.8861L286.77 35.9028ZM290.401 26.1331L293.601 27.5498L290.401 26.1331ZM294.392 16.4516L291.123 15.2011L294.392 16.4516ZM297.105 6.31852L300.561 6.87284L297.105 6.31852ZM296.405 5.57187L299.716 6.70772L296.405 5.57187ZM294.344 25.7514L290.941 24.935L294.344 25.7514ZM291.882 46.4418L295.364 46.0891V46.0891L291.882 46.4418ZM291.275 108.984L287.808 108.506L291.275 108.984ZM292.363 129.816L288.892 129.365L292.363 129.816ZM292.019 140.282L288.527 140.509L292.019 140.282ZM294.391 161.039L290.893 160.933L294.391 161.039ZM297.896 213.076L294.396 213.009L297.896 213.076ZM298.624 233.952L302.119 233.777L298.624 233.952ZM301.91 265.084L298.464 265.697L301.91 265.084ZM302.656 275.489L299.157 275.375L302.656 275.489ZM306.183 317.075L309.637 316.505L306.183 317.075ZM311.201 358.503L314.654 357.928L311.201 358.503ZM312.602 379.323L315.938 378.261L312.602 379.323ZM313.962 407.844L316.77 409.934L313.962 407.844ZM298.151 403.288L300.288 400.517L298.151 403.288ZM289.754 397.039L291.795 394.196L289.754 397.039ZM271.554 386.8L273.504 383.893L271.554 386.8ZM253.983 375.566L255.584 372.454L253.983 375.566ZM236.198 364.667L234.308 367.613L236.198 364.667ZM209.45 348.385L210.967 345.231L209.45 348.385ZM199.729 344.411L200.859 341.098L199.729 344.411ZM190.432 339.652L192.461 336.8L190.432 339.652ZM181.401 334.427L179.942 337.609L181.401 334.427ZM172.348 329.237L174.355 326.37L172.348 329.237ZM153.889 319.511L152.812 322.841L153.889 319.511ZM135.158 310.307L136.747 307.189L135.158 310.307ZM116.387 301.193L117.858 298.016L116.387 301.193ZM107.216 296.214L109.078 293.25L107.216 296.214ZM97.9204 291.485L96.6217 294.736L97.9204 291.485ZM79.4991 281.677L81.2133 278.626L79.4991 281.677ZM70.1874 276.991L68.7581 280.186L70.1874 276.991ZM60.6759 272.684L62.1343 269.502L60.6759 272.684ZM33.4972 257.081L34.9766 253.909L33.4972 257.081ZM24.0896 252.577L22.5461 255.718L24.0896 252.577ZM6.11189 242.383L8.25595 239.616L6.11189 242.383ZM32.4412 229.302L31.4043 225.959L32.4412 229.302ZM63.5911 226.285L63.2629 222.801L63.5911 226.285ZM105.062 221.744L104.685 218.265V218.265L105.062 221.744ZM135.997 216.809L136.482 220.275L135.997 216.809ZM156.786 215.002L157.893 218.322L156.786 215.002ZM229.25 206.025L229.835 209.476L229.25 206.025ZM249.707 201.803L248.939 198.388L249.707 201.803ZM260.114 200.83L260.228 197.332L260.114 200.83ZM301.312 194.258L300.127 190.965L301.312 194.258ZM331.883 187.528L332.452 190.981L331.883 187.528ZM362.917 183.119L362.172 179.7L362.917 183.119ZM373.153 181.065L372.521 177.623L373.153 181.065ZM383.193 178.119L381.868 174.879L383.193 178.119ZM393.285 175.423L393.747 178.893L393.285 175.423ZM403.602 173.753L404.259 177.19L403.602 173.753ZM423.689 168.046L423.555 164.548L423.689 168.046ZM434.098 166.652L433.3 163.244L434.098 166.652ZM453.787 159.587L454.539 163.005L453.787 159.587ZM479.384 148.622L475.896 148.335L479.384 148.622ZM474.645 144.2L474.304 147.683L474.645 144.2ZM464.359 144.2L464.689 147.685L464.359 144.2ZM454.215 146.505L453.007 143.221L454.215 146.505ZM444.477 150.336L445.83 153.564L444.477 150.336ZM424.583 156.66L426.3 159.709L424.583 156.66ZM415.066 161.046L416.269 164.333L415.066 161.046ZM405.618 165.484L407.38 168.508L405.618 165.484ZM396.68 170.911L398.55 173.869L396.68 170.911ZM369.726 186.815L367.842 183.865L369.726 186.815ZM342.371 202.077L344.179 205.074L342.371 202.077ZM333.975 208.333L331.625 205.739L333.975 208.333ZM325.127 213.878L323.818 210.632L325.127 213.878ZM299.388 231.659L301.224 234.638L299.388 231.659ZM281.867 243.088L283.937 245.91L281.867 243.088ZM273.985 249.954L276.496 252.392L273.985 249.954ZM266.744 257.567L269.305 259.952L266.744 257.567ZM258.874 264.404L256.87 261.534L258.874 264.404ZM250.806 271.006L253.223 273.537L250.806 271.006ZM242.984 277.909L240.773 275.196L242.984 277.909ZM204.187 312.78L206.797 315.112L204.187 312.78ZM196.929 320.286L194.51 317.756L196.929 320.286ZM189.86 327.984L192.586 330.18L189.86 327.984ZM167.775 350.151L169.951 352.892L167.775 350.151ZM152.499 364.375L155.375 366.37L152.499 364.375ZM130.01 386.139L132.016 389.008L130.01 386.139ZM122.522 393.394L125.326 395.489L122.522 393.394ZM115.314 400.955L117.538 403.657L115.314 400.955ZM108.861 408.918L111.967 410.53L108.861 408.918ZM105.508 415.027L102.563 413.136L102.557 413.145L102.552 413.154L105.508 415.027ZM104.62 416.43L107.364 418.602L107.478 418.458L107.577 418.302L104.62 416.43ZM101.814 414.335C100.614 415.851 100.87 418.052 102.385 419.252C103.901 420.452 106.102 420.196 107.302 418.681L104.558 416.508L101.814 414.335ZM92.5029 445.784L95.652 447.312L95.6956 447.222L92.5466 445.694L89.3975 444.167L89.3539 444.257L92.5029 445.784ZM92.5466 445.694L95.7242 447.161C98.5972 440.939 100.891 436.487 102.618 433.707L99.6452 431.86L96.6724 430.012C94.7096 433.171 92.2706 437.942 89.3689 444.227L92.5466 445.694ZM99.6452 431.86L102.618 433.707C104.576 430.557 106.229 427.257 107.578 423.81L104.319 422.534L101.059 421.259C99.8667 424.307 98.4049 427.224 96.6724 430.012L99.6452 431.86ZM104.319 422.534L107.578 423.81C108.815 420.648 110.173 417.546 111.652 414.502L108.505 412.972L105.357 411.442C103.796 414.653 102.364 417.925 101.059 421.259L104.319 422.534ZM108.505 412.972L111.652 414.502C113.213 411.291 114.645 408.018 115.949 404.683L112.689 403.409L109.429 402.135C108.193 405.297 106.836 408.399 105.357 411.442L108.505 412.972ZM112.689 403.409L115.949 404.683C117.129 401.665 118.616 398.797 120.412 396.074L117.491 394.146L114.57 392.219C112.504 395.35 110.789 398.656 109.429 402.135L112.689 403.409ZM117.491 394.146L120.412 396.074C122.412 393.045 124.239 389.93 125.895 386.731L122.786 385.122L119.677 383.514C118.136 386.493 116.434 389.394 114.57 392.219L117.491 394.146ZM122.786 385.122L125.895 386.731C127.607 383.421 128.963 379.944 129.965 376.303L126.591 375.375L123.216 374.446C122.341 377.624 121.162 380.645 119.677 383.514L122.786 385.122ZM126.591 375.375L129.965 376.303C130.82 373.197 132.063 370.292 133.695 367.578L130.696 365.774L127.697 363.97C125.731 367.238 124.238 370.733 123.216 374.446L126.591 375.375ZM130.696 365.774L133.695 367.578C135.512 364.556 137.281 361.511 139.002 358.442L135.949 356.73L132.897 355.018C131.21 358.026 129.477 361.009 127.697 363.97L130.696 365.774ZM135.949 356.73L139.002 358.442C140.769 355.291 142.356 352.053 143.763 348.727L140.54 347.363L137.317 345.999C136.01 349.087 134.537 352.093 132.897 355.018L135.949 356.73ZM140.54 347.363L143.763 348.727C145.052 345.681 146.562 342.743 148.294 339.911L145.309 338.085L142.323 336.259C140.41 339.385 138.741 342.633 137.317 345.999L140.54 347.363ZM145.309 338.085L148.294 339.911C150.203 336.791 151.88 333.557 153.324 330.208L150.11 328.822L146.897 327.436C145.584 330.479 144.06 333.42 142.323 336.259L145.309 338.085ZM150.11 328.822L153.324 330.208C154.757 326.885 155.997 323.471 157.045 319.967L153.691 318.965L150.338 317.963C149.368 321.209 148.22 324.366 146.897 327.436L150.11 328.822ZM153.691 318.965L157.045 319.967C157.957 316.917 159.28 314.076 161.018 311.433L158.094 309.51L155.169 307.586C153.055 310.801 151.444 314.263 150.338 317.963L153.691 318.965ZM158.094 309.51L161.018 311.433C163.031 308.372 164.821 305.2 166.389 301.916L163.23 300.408L160.071 298.901C158.642 301.895 157.009 304.79 155.169 307.586L158.094 309.51ZM163.23 300.408L166.389 301.916C167.899 298.752 169.371 295.57 170.805 292.371L167.611 290.939L164.417 289.508C163.006 292.656 161.558 295.787 160.071 298.901L163.23 300.408ZM167.611 290.939L170.805 292.371C172.166 289.333 173.719 286.388 175.463 283.534L172.477 281.708L169.491 279.883C167.592 282.989 165.9 286.198 164.417 289.508L167.611 290.939ZM172.477 281.708L175.463 283.534C177.363 280.426 179.054 277.215 180.535 273.902L177.34 272.474L174.145 271.045C172.786 274.084 171.235 277.03 169.491 279.883L172.477 281.708ZM177.34 272.474L180.535 273.902C181.944 270.751 183.389 267.62 184.87 264.507L181.71 263.003L178.55 261.499C177.044 264.662 175.576 267.844 174.145 271.045L177.34 272.474ZM181.71 263.003L184.87 264.507C186.32 261.461 187.903 258.479 189.621 255.559L186.604 253.784L183.588 252.009C181.767 255.105 180.087 258.268 178.55 261.499L181.71 263.003ZM186.604 253.784L189.621 255.559C191.53 252.314 193.041 248.879 194.154 245.258L190.808 244.23L187.463 243.202C186.509 246.304 185.218 249.238 183.588 252.009L186.604 253.784ZM190.808 244.23L194.154 245.258C195.156 242 196.3 238.811 197.586 235.69L194.35 234.356L191.115 233.022C189.745 236.345 188.528 239.738 187.463 243.202L190.808 244.23ZM194.35 234.356L197.586 235.69C198.815 232.71 200.366 229.887 202.244 227.216L199.381 225.203L196.518 223.189C194.345 226.28 192.543 229.558 191.115 233.022L194.35 234.356ZM199.381 225.203L202.244 227.216C204.374 224.187 206.246 221.027 207.858 217.737L204.715 216.196L201.573 214.656C200.123 217.613 198.439 220.457 196.518 223.189L199.381 225.203ZM204.715 216.196L207.858 217.737C209.465 214.459 210.829 211.067 211.949 207.563L208.615 206.497L205.282 205.431C204.264 208.612 203.028 211.687 201.573 214.656L204.715 216.196ZM208.615 206.497L211.949 207.563C212.917 204.536 214.288 201.705 216.066 199.064L213.163 197.109L210.259 195.155C208.112 198.344 206.452 201.773 205.282 205.431L208.615 206.497ZM213.163 197.109L216.066 199.064C218.197 195.898 219.886 192.514 221.129 188.919L217.821 187.776L214.513 186.633C213.47 189.651 212.053 192.49 210.259 195.155L213.163 197.109ZM217.821 187.776L221.129 188.919C222.247 185.686 223.468 182.501 224.792 179.365L221.568 178.003L218.344 176.642C216.958 179.922 215.681 183.252 214.513 186.633L217.821 187.776ZM221.568 178.003L224.792 179.365C226.137 176.18 227.516 173.012 228.928 169.861L225.734 168.429L222.54 166.998C221.107 170.196 219.708 173.41 218.344 176.642L221.568 178.003ZM225.734 168.429L228.928 169.861C230.229 166.959 231.894 164.227 233.933 161.661L231.192 159.483L228.452 157.306C226.058 160.319 224.085 163.55 222.54 166.998L225.734 168.429ZM231.192 159.483L233.933 161.661C236.348 158.62 238.287 155.331 239.739 151.798L236.502 150.468L233.265 149.137C232.069 152.047 230.468 154.769 228.452 157.306L231.192 159.483ZM236.502 150.468L239.739 151.798C241.077 148.543 242.365 145.262 243.602 141.957L240.324 140.73L237.046 139.503C235.835 142.739 234.574 145.951 233.265 149.137L236.502 150.468ZM240.324 140.73L243.602 141.957C244.765 138.849 246.151 135.85 247.76 132.958L244.701 131.257L241.642 129.556C239.864 132.753 238.331 136.069 237.046 139.503L240.324 140.73ZM244.701 131.257L247.76 132.958C249.514 129.805 251.095 126.569 252.502 123.251L249.28 121.884L246.058 120.517C244.748 123.607 243.276 126.619 241.642 129.556L244.701 131.257ZM249.28 121.884L252.502 123.251C253.797 120.198 255.303 117.245 257.019 114.389L254.019 112.586L251.019 110.783C249.135 113.918 247.481 117.163 246.058 120.517L249.28 121.884ZM254.019 112.586L257.019 114.389C258.886 111.282 260.569 108.086 262.068 104.802L258.884 103.349L255.699 101.896C254.311 104.939 252.751 107.901 251.019 110.783L254.019 112.586ZM258.884 103.349L262.068 104.802C263.572 101.506 264.869 98.1163 265.959 94.6339L262.619 93.5884L259.279 92.5429C258.275 95.7496 257.082 98.8671 255.699 101.896L258.884 103.349ZM262.619 93.5884L265.959 94.6339C266.951 91.4653 268.182 88.4074 269.651 85.4582L266.519 83.8971L263.386 82.3359C261.75 85.6194 260.381 89.0224 259.279 92.5429L262.619 93.5884ZM266.519 83.8971L269.651 85.4582C271.139 82.4736 272.818 79.5753 274.689 76.7628L271.775 74.8242L268.861 72.8855C266.83 75.9375 265.005 79.0878 263.386 82.3359L266.519 83.8971ZM271.775 74.8242L274.689 76.7628C276.848 73.5178 278.442 70.0077 279.466 66.246L276.089 65.3265L272.712 64.407C271.885 67.4443 270.603 70.266 268.861 72.8855L271.775 74.8242ZM276.089 65.3265L279.466 66.246C280.357 62.9735 281.422 59.7903 282.66 56.6956L279.41 55.3959L276.16 54.0963C274.822 57.4432 273.672 60.8804 272.712 64.407L276.089 65.3265ZM279.41 55.3959L282.66 56.6956C283.946 53.4791 285.241 50.2604 286.544 47.0396L283.299 45.7271L280.055 44.4145C278.748 47.6438 277.45 50.8711 276.16 54.0963L279.41 55.3959ZM283.299 45.7271L286.544 47.0396C287.888 43.7177 289.079 40.3442 290.119 36.9195L286.77 35.9028L283.421 34.8861C282.442 38.1102 281.32 41.2863 280.055 44.4145L283.299 45.7271ZM286.77 35.9028L290.119 36.9195C291.087 33.7318 292.247 30.6088 293.601 27.5498L290.401 26.1331L287.201 24.7165C285.732 28.0349 284.472 31.425 283.421 34.8861L286.77 35.9028ZM290.401 26.1331L293.601 27.5498C295.037 24.3062 296.39 21.0236 297.661 17.7021L294.392 16.4516L291.123 15.2011C289.895 18.4109 288.588 21.5827 287.201 24.7165L290.401 26.1331ZM294.392 16.4516L297.661 17.7021C298.997 14.209 299.964 10.5979 300.561 6.87284L297.105 6.31852L293.65 5.7642C293.128 9.01867 292.285 12.1629 291.123 15.2011L294.392 16.4516ZM297.105 6.31852L300.561 6.87284C300.705 5.97614 300.811 5.20769 300.863 4.61325C300.888 4.32862 300.91 3.98377 300.899 3.64384C300.893 3.48047 300.877 3.20823 300.813 2.8954C300.778 2.72342 300.614 1.8778 299.903 1.12039C299.472 0.6605 298.799 0.195222 297.892 0.0467C297.012 -0.0973046 296.28 0.116802 295.809 0.338032C295.003 0.716792 294.558 1.29992 294.451 1.4395C294.141 1.84238 293.94 2.26994 293.846 2.47468C293.611 2.9856 293.358 3.66976 293.095 4.43602L296.405 5.57187L299.716 6.70772C299.966 5.97799 300.127 5.57128 300.207 5.39642C300.27 5.25827 300.202 5.44422 300 5.70677C299.947 5.77618 299.55 6.31446 298.785 6.6737C298.335 6.88516 297.622 7.09583 296.761 6.95472C295.871 6.8091 295.214 6.35304 294.797 5.90871C294.116 5.18241 293.975 4.39322 293.956 4.30299C293.909 4.0719 293.904 3.90674 293.902 3.87575C293.9 3.8006 293.906 3.8218 293.89 4.0045C293.86 4.34472 293.786 4.91603 293.65 5.7642L297.105 6.31852ZM296.405 5.57187L293.095 4.43602C291.901 7.91645 291.463 11.648 291.724 15.5865L295.217 15.3547L298.709 15.123C298.502 12.0016 298.857 9.21125 299.716 6.70772L296.405 5.57187ZM295.217 15.3547L291.724 15.5865C291.936 18.7686 291.673 21.8807 290.941 24.935L294.344 25.7514L297.748 26.5678C298.647 22.8198 298.966 19.0007 298.709 15.123L295.217 15.3547ZM294.344 25.7514L290.941 24.935C290.107 28.4103 289.389 31.9065 288.785 35.4235L292.235 36.0155L295.684 36.6075C296.262 33.2413 296.95 29.8948 297.748 26.5678L294.344 25.7514ZM292.235 36.0155L288.785 35.4235C288.14 39.1802 288.013 42.9735 288.4 46.7945L291.882 46.4418L295.364 46.0891C295.04 42.8915 295.148 39.7339 295.684 36.6075L292.235 36.0155ZM291.882 46.4418L288.4 46.7945C288.736 50.1181 288.803 53.4124 288.6 56.6794L292.094 56.8956L295.587 57.1119C295.813 53.4591 295.738 49.7842 295.364 46.0891L291.882 46.4418ZM292.094 56.8956L288.6 56.6794C288.384 60.1745 288.22 63.6745 288.11 67.1795L291.608 67.29L295.106 67.4006C295.215 63.966 295.375 60.5365 295.587 57.1119L292.094 56.8956ZM291.608 67.29L288.11 67.1795C288 70.6596 287.905 74.1429 287.826 77.6293L291.325 77.7088L294.824 77.7883C294.903 74.3226 294.997 70.86 295.106 67.4006L291.608 67.29ZM291.325 77.7088L287.826 77.6293C287.746 81.1429 287.723 84.6536 287.756 88.1615L291.256 88.1285L294.756 88.0954C294.723 84.6627 294.746 81.227 294.824 77.7883L291.325 77.7088ZM291.256 88.1285L287.756 88.1615C287.789 91.6984 287.924 95.2351 288.159 98.7715L291.651 98.5393L295.143 98.3071C294.917 94.903 294.788 91.4992 294.756 88.0954L291.256 88.1285ZM291.651 98.5393L288.159 98.7715C288.373 102.002 288.257 105.245 287.808 108.506L291.275 108.984L294.743 109.461C295.256 105.737 295.39 102.017 295.143 98.3071L291.651 98.5393ZM291.275 108.984L287.808 108.506C287.267 112.434 287.465 116.343 288.397 120.209L291.799 119.389L295.202 118.569C294.473 115.547 294.322 112.519 294.743 109.461L291.275 108.984ZM291.799 119.389L288.397 120.209C289.127 123.238 289.292 126.283 288.892 129.365L292.363 129.816L295.833 130.266C296.344 126.334 296.132 122.428 295.202 118.569L291.799 119.389ZM292.363 129.816L288.892 129.365C288.408 133.094 288.286 136.809 288.527 140.509L292.019 140.282L295.512 140.054C295.301 136.814 295.407 133.552 295.833 130.266L292.363 129.816ZM292.019 140.282L288.527 140.509C288.764 144.149 289.266 147.77 290.031 151.371L293.454 150.643L296.878 149.916C296.182 146.641 295.727 143.354 295.512 140.054L292.019 140.282ZM293.454 150.643L290.031 151.371C290.703 154.536 290.99 157.721 290.893 160.933L294.391 161.039L297.889 161.145C298.004 157.371 297.666 153.626 296.878 149.916L293.454 150.643ZM294.391 161.039L290.893 160.933C290.787 164.409 290.657 167.888 290.503 171.368L294 171.523L297.496 171.677C297.652 168.165 297.783 164.654 297.889 161.145L294.391 161.039ZM294 171.523L290.503 171.368C290.341 175.046 290.465 178.706 290.876 182.348L294.354 181.955L297.832 181.562C297.462 178.286 297.35 174.992 297.496 171.677L294 171.523ZM294.354 181.955L290.876 182.348C291.278 185.913 291.844 189.464 292.573 193.003L296.001 192.297L299.429 191.591C298.743 188.258 298.21 184.915 297.832 181.562L294.354 181.955ZM296.001 192.297L292.573 193.003C293.254 196.31 293.744 199.627 294.043 202.956L297.529 202.642L301.015 202.329C300.692 198.734 300.163 195.155 299.429 191.591L296.001 192.297ZM297.529 202.642L294.043 202.956C294.343 206.29 294.461 209.641 294.396 213.009L297.896 213.076L301.395 213.143C301.465 209.523 301.338 205.918 301.015 202.329L297.529 202.642ZM297.896 213.076L294.396 213.009C294.327 216.589 294.39 220.159 294.584 223.719L298.079 223.528L301.574 223.338C301.389 219.95 301.329 216.552 301.395 213.143L297.896 213.076ZM298.079 223.528L294.584 223.719C294.773 227.187 294.955 230.657 295.128 234.127L298.624 233.952L302.119 233.777C301.945 230.297 301.764 226.817 301.574 223.338L298.079 223.528ZM298.624 233.952L295.128 234.127C295.31 237.769 295.751 241.388 296.45 244.982L299.885 244.314L303.321 243.646C302.685 240.376 302.285 237.087 302.119 233.777L298.624 233.952ZM299.885 244.314L296.45 244.982C297.077 248.206 297.406 251.454 297.439 254.73L300.939 254.695L304.439 254.66C304.402 250.958 304.029 247.286 303.321 243.646L299.885 244.314ZM300.939 254.695L297.439 254.73C297.476 258.413 297.818 262.069 298.464 265.697L301.91 265.084L305.355 264.47C304.778 261.224 304.472 257.955 304.439 254.66L300.939 254.695ZM301.91 265.084L298.464 265.697C299.033 268.893 299.264 272.117 299.157 275.375L302.656 275.489L306.154 275.604C306.276 271.86 306.01 268.148 305.355 264.47L301.91 265.084ZM302.656 275.489L299.157 275.375C299.035 279.128 299.317 282.849 300.003 286.535L303.444 285.894L306.885 285.253C306.291 282.066 306.047 278.851 306.154 275.604L302.656 275.489ZM303.444 285.894L300.003 286.535C300.611 289.798 300.968 293.079 301.076 296.378L304.574 296.265L308.072 296.151C307.953 292.496 307.557 288.862 306.885 285.253L303.444 285.894ZM304.574 296.265L301.076 296.378C301.19 299.884 301.345 303.39 301.543 306.897L305.038 306.699L308.532 306.502C308.337 303.051 308.184 299.601 308.072 296.151L304.574 296.265ZM305.038 306.699L301.543 306.897C301.747 310.5 302.142 314.084 302.73 317.645L306.183 317.075L309.637 316.505C309.09 313.19 308.721 309.856 308.532 306.502L305.038 306.699ZM306.183 317.075L302.73 317.645C303.272 320.928 303.59 324.229 303.685 327.55L307.184 327.451L310.682 327.351C310.579 323.714 310.23 320.098 309.637 316.505L306.183 317.075ZM307.184 327.451L303.685 327.55C303.791 331.279 304.294 334.973 305.19 338.629L308.589 337.796L311.988 336.962C311.209 333.782 310.774 330.58 310.682 327.351L307.184 327.451ZM308.589 337.796L305.19 338.629C305.974 341.831 306.444 345.055 306.599 348.306L310.095 348.139L313.591 347.972C313.414 344.267 312.879 340.596 311.988 336.962L308.589 337.796ZM310.095 348.139L306.599 348.306C306.771 351.92 307.155 355.511 307.749 359.078L311.201 358.503L314.654 357.928C314.105 354.631 313.75 351.312 313.591 347.972L310.095 348.139ZM311.201 358.503L307.749 359.078C308.269 362.197 308.368 365.368 308.041 368.599L311.523 368.951L315.005 369.303C315.393 365.467 315.278 361.672 314.654 357.928L311.201 358.503ZM311.523 368.951L308.041 368.599C307.636 372.608 308.045 376.547 309.267 380.385L312.602 379.323L315.938 378.261C315.006 375.336 314.696 372.36 315.005 369.303L311.523 368.951ZM312.602 379.323L309.267 380.385C310.249 383.467 310.79 386.584 310.898 389.745L314.396 389.625L317.894 389.505C317.764 385.694 317.11 381.943 315.938 378.261L312.602 379.323ZM314.396 389.625L310.898 389.745C311.022 393.345 311.32 396.922 311.793 400.476L315.262 400.014L318.732 399.552C318.289 396.227 318.01 392.878 317.894 389.505L314.396 389.625ZM315.262 400.014L311.793 400.476C312.196 403.504 311.696 405.026 311.154 405.755L313.962 407.844L316.77 409.934C318.877 407.101 319.244 403.403 318.732 399.552L315.262 400.014ZM313.962 407.844L311.154 405.755C311.095 405.833 311.073 405.837 311.09 405.827C311.105 405.819 311.069 405.846 310.926 405.86C310.585 405.893 309.82 405.827 308.483 405.271L307.138 408.502L305.793 411.733C307.68 412.519 309.664 413.014 311.598 412.828C313.686 412.627 315.497 411.643 316.77 409.934L313.962 407.844ZM307.138 408.502L308.483 405.271C305.541 404.046 302.812 402.463 300.288 400.517L298.151 403.288L296.013 406.06C299.023 408.381 302.285 410.273 305.793 411.733L307.138 408.502ZM298.151 403.288L300.288 400.517C297.49 398.359 294.659 396.252 291.795 394.196L289.754 397.039L287.713 399.882C290.512 401.891 293.278 403.95 296.013 406.06L298.151 403.288ZM289.754 397.039L291.795 394.196C288.77 392.023 285.543 390.174 282.121 388.651L280.697 391.848L279.273 395.045C282.265 396.377 285.076 397.989 287.713 399.882L289.754 397.039ZM280.697 391.848L282.121 388.651C279.095 387.304 276.224 385.718 273.504 383.893L271.554 386.8L269.604 389.707C272.661 391.757 275.885 393.537 279.273 395.045L280.697 391.848ZM271.554 386.8L273.504 383.893C270.629 381.965 267.767 380.017 264.918 378.047L262.928 380.926L260.938 383.805C263.814 385.793 266.703 387.761 269.604 389.707L271.554 386.8ZM262.928 380.926L264.918 378.047C261.93 375.982 258.819 374.118 255.584 372.454L253.983 375.566L252.382 378.679C255.348 380.204 258.2 381.913 260.938 383.805L262.928 380.926ZM253.983 375.566L255.584 372.454C252.589 370.914 249.685 369.228 246.872 367.397L244.963 370.33L243.053 373.264C246.067 375.225 249.176 377.03 252.382 378.679L253.983 375.566ZM244.963 370.33L246.872 367.397C243.952 365.497 241.024 363.605 238.088 361.721L236.198 364.667L234.308 367.613C237.232 369.488 240.147 371.372 243.053 373.264L244.963 370.33ZM236.198 364.667L238.088 361.721C235.121 359.818 232.121 357.971 229.087 356.182L227.309 359.197L225.53 362.211C228.489 363.956 231.415 365.757 234.308 367.613L236.198 364.667ZM227.309 359.197L229.087 356.182C226.156 354.453 223.28 352.628 220.457 350.706L218.487 353.598L216.517 356.491C219.464 358.499 222.469 360.405 225.53 362.211L227.309 359.197ZM218.487 353.598L220.457 350.706C217.428 348.643 214.264 346.818 210.967 345.231L209.45 348.385L207.932 351.539C210.914 352.974 213.775 354.624 216.517 356.491L218.487 353.598ZM209.45 348.385L210.967 345.231C207.7 343.659 204.33 342.282 200.859 341.098L199.729 344.411L198.6 347.724C201.81 348.818 204.921 350.09 207.932 351.539L209.45 348.385ZM199.729 344.411L200.859 341.098C197.837 340.068 195.041 338.636 192.461 336.8L190.432 339.652L188.402 342.504C191.538 344.735 194.94 346.476 198.6 347.724L199.729 344.411ZM190.432 339.652L192.461 336.8C189.426 334.64 186.224 332.788 182.859 331.245L181.401 334.427L179.942 337.609C182.904 338.966 185.723 340.597 188.402 342.504L190.432 339.652ZM181.401 334.427L182.859 331.245C179.889 329.884 177.055 328.259 174.355 326.37L172.348 329.237L170.341 332.105C173.385 334.235 176.586 336.07 179.942 337.609L181.401 334.427ZM172.348 329.237L174.355 326.37C171.386 324.292 168.33 322.377 165.186 320.625L163.482 323.682L161.777 326.739C164.712 328.375 167.566 330.163 170.341 332.105L172.348 329.237ZM163.482 323.682L165.186 320.625C161.944 318.818 158.537 317.337 154.967 316.181L153.889 319.511L152.812 322.841C155.953 323.858 158.94 325.157 161.777 326.739L163.482 323.682ZM153.889 319.511L154.967 316.181C151.841 315.17 148.879 313.858 146.076 312.245L144.331 315.279L142.585 318.312C145.817 320.172 149.227 321.681 152.812 322.841L153.889 319.511ZM144.331 315.279L146.076 312.245C143.008 310.48 139.898 308.794 136.747 307.189L135.158 310.307L133.569 313.426C136.615 314.977 139.62 316.606 142.585 318.312L144.331 315.279ZM135.158 310.307L136.747 307.189C133.629 305.6 130.495 304.041 127.346 302.514L125.818 305.663L124.29 308.812C127.399 310.32 130.492 311.858 133.569 313.426L135.158 310.307ZM125.818 305.663L127.346 302.514C124.198 300.987 121.035 299.488 117.858 298.016L116.387 301.193L114.917 304.369C118.056 305.822 121.181 307.303 124.29 308.812L125.818 305.663ZM116.387 301.193L117.858 298.016C114.834 296.617 111.908 295.028 109.078 293.25L107.216 296.214L105.354 299.177C108.435 301.113 111.623 302.844 114.917 304.369L116.387 301.193ZM107.216 296.214L109.078 293.25C105.944 291.281 102.657 289.609 99.219 288.235L97.9204 291.485L96.6217 294.736C99.6674 295.953 102.577 297.433 105.354 299.177L107.216 296.214ZM97.9204 291.485L99.219 288.235C96.1423 287.006 93.1798 285.552 90.3301 283.872L88.5531 286.888L86.7761 289.903C89.9327 291.763 93.2151 293.374 96.6217 294.736L97.9204 291.485ZM88.5531 286.888L90.3301 283.872C87.3062 282.09 84.2673 280.342 81.2133 278.626L79.4991 281.677L77.7849 284.729C80.7966 286.421 83.7937 288.146 86.7761 289.903L88.5531 286.888ZM79.4991 281.677L81.2133 278.626C78.0877 276.87 74.8888 275.26 71.6168 273.796L70.1874 276.991L68.7581 280.186C71.8359 281.563 74.8447 283.077 77.7849 284.729L79.4991 281.677ZM70.1874 276.991L71.6168 273.796C68.4515 272.38 65.2907 270.949 62.1343 269.502L60.6759 272.684L59.2176 275.865C62.3933 277.321 65.5734 278.761 68.7581 280.186L70.1874 276.991ZM60.6759 272.684L62.1343 269.502C59.065 268.095 56.0665 266.552 53.1384 264.871L51.3962 267.907L49.6541 270.942C52.7668 272.729 55.9548 274.37 59.2176 275.865L60.6759 272.684ZM51.3962 267.907L53.1384 264.871C50.2073 263.189 47.3449 261.374 44.551 259.427L42.5497 262.299L40.5484 265.17C43.509 267.233 46.5443 269.158 49.6541 270.942L51.3962 267.907ZM42.5497 262.299L44.551 259.427C41.5098 257.308 38.3178 255.468 34.9766 253.909L33.4972 257.081L32.0178 260.253C34.9921 261.64 37.8351 263.279 40.5484 265.17L42.5497 262.299ZM33.4972 257.081L34.9766 253.909C31.8402 252.447 28.7258 250.955 25.6332 249.436L24.0896 252.577L22.5461 255.718C25.6814 257.259 28.8386 258.77 32.0178 260.253L33.4972 257.081ZM24.0896 252.577L25.6332 249.436C22.5387 247.915 19.4561 246.365 16.3854 244.785L14.7838 247.897L13.1823 251.009C16.2914 252.609 19.4127 254.179 22.5461 255.718L24.0896 252.577ZM14.7838 247.897L16.3854 244.785C13.4826 243.291 10.774 241.568 8.25595 239.616L6.11189 242.383L3.96782 245.149C6.83252 247.369 9.90525 249.322 13.1823 251.009L14.7838 247.897ZM6.11189 242.383L8.25595 239.616C7.21026 238.806 7.02257 238.319 7.00275 238.249C6.99992 238.239 7.00146 238.255 7.00204 238.252C7.00582 238.233 7.03511 238.104 7.19831 237.857L4.28054 235.924L1.36277 233.991C0.181534 235.774 -0.368801 237.912 0.268274 240.158C0.858901 242.241 2.32212 243.873 3.96782 245.149L6.11189 242.383ZM4.28054 235.924L7.19831 237.857C7.87039 236.843 9.15313 235.954 11.9599 235.799L11.7678 232.305L11.5757 228.81C7.34043 229.043 3.63167 230.567 1.36277 233.991L4.28054 235.924ZM11.7678 232.305L11.9599 235.799C15.5443 235.602 19.0921 235.31 22.6031 234.921L22.218 231.442L21.8328 227.963C18.4523 228.338 15.0333 228.62 11.5757 228.81L11.7678 232.305ZM22.218 231.442L22.6031 234.921C26.2739 234.514 29.8998 233.755 33.4782 232.645L32.4412 229.302L31.4043 225.959C28.2432 226.94 25.0536 227.607 21.8328 227.963L22.218 231.442ZM32.4412 229.302L33.4782 232.645C36.4604 231.72 39.5018 231.33 42.6206 231.474L42.782 227.978L42.9435 224.482C39.014 224.3 35.1615 224.794 31.4043 225.959L32.4412 229.302ZM42.782 227.978L42.6206 231.474C46.3578 231.647 50.059 231.477 53.7213 230.964L53.2356 227.498L52.7499 224.032C49.5223 224.484 46.2545 224.635 42.9435 224.482L42.782 227.978ZM53.2356 227.498L53.7213 230.964C57.114 230.489 60.5133 230.091 63.9193 229.77L63.5911 226.285L63.2629 222.801C59.7515 223.132 56.2472 223.542 52.7499 224.032L53.2356 227.498ZM63.5911 226.285L63.9193 229.77C67.4458 229.438 70.9615 229.003 74.4664 228.465L73.9358 225.006L73.4051 221.546C70.0346 222.063 66.6539 222.481 63.2629 222.801L63.5911 226.285ZM73.9358 225.006L74.4664 228.465C77.8634 227.944 81.2691 227.483 84.6834 227.082L84.2751 223.606L83.8667 220.13C80.3707 220.541 76.8835 221.013 73.4051 221.546L73.9358 225.006ZM84.2751 223.606L84.6834 227.082C88.0797 226.683 91.4854 226.371 94.9008 226.145L94.6696 222.652L94.4384 219.16C90.9047 219.394 87.3808 219.717 83.8667 220.13L84.2751 223.606ZM94.6696 222.652L94.9008 226.145C98.4242 225.911 101.937 225.604 105.44 225.224L105.062 221.744L104.685 218.265C101.279 218.635 97.864 218.933 94.4384 219.16L94.6696 222.652ZM105.062 221.744L105.44 225.224C108.931 224.845 112.418 224.411 115.903 223.922L115.417 220.456L114.93 216.99C111.518 217.469 108.102 217.894 104.685 218.265L105.062 221.744ZM115.417 220.456L115.903 223.922C119.435 223.427 122.949 222.804 126.444 222.053L125.709 218.631L124.974 215.209C121.644 215.924 118.296 216.518 114.93 216.99L115.417 220.456ZM125.709 218.631L126.444 222.053C129.774 221.338 133.12 220.745 136.482 220.275L135.997 216.809L135.512 213.342C131.982 213.836 128.47 214.459 124.974 215.209L125.709 218.631ZM135.997 216.809L136.482 220.275C139.699 219.825 142.954 219.693 146.251 219.881L146.45 216.386L146.649 212.892C142.901 212.679 139.188 212.828 135.512 213.342L135.997 216.809ZM146.45 216.386L146.251 219.881C150.22 220.106 154.108 219.585 157.893 218.322L156.786 215.002L155.678 211.682C152.728 212.666 149.727 213.067 146.649 212.892L146.45 216.386ZM156.786 215.002L157.893 218.322C160.836 217.34 163.836 216.947 166.916 217.138L167.132 213.644L167.348 210.151C163.368 209.904 159.47 210.416 155.678 211.682L156.786 215.002ZM167.132 213.644L166.916 217.138C170.801 217.378 174.624 217.031 178.372 216.093L177.522 212.698L176.673 209.302C173.628 210.064 170.524 210.348 167.348 210.151L167.132 213.644ZM177.522 212.698L178.372 216.093C181.483 215.315 184.643 214.935 187.859 214.955L187.88 211.455L187.902 207.955C184.1 207.932 180.355 208.381 176.673 209.302L177.522 212.698ZM187.88 211.455L187.859 214.955C191.482 214.977 195.084 214.822 198.666 214.489L198.342 211.004L198.019 207.519C194.668 207.83 191.296 207.975 187.902 207.955L187.88 211.455ZM198.342 211.004L198.666 214.489C202.314 214.15 205.923 213.528 209.491 212.622L208.63 209.23L207.769 205.837C204.552 206.654 201.302 207.214 198.019 207.519L198.342 211.004ZM208.63 209.23L209.491 212.622C212.716 211.804 215.973 211.23 219.261 210.9L218.912 207.418L218.563 203.935C214.927 204.3 211.329 204.934 207.769 205.837L208.63 209.23ZM218.912 207.418L219.261 210.9C222.802 210.546 226.327 210.071 229.835 209.476L229.25 206.025L228.665 202.574C225.314 203.143 221.946 203.596 218.563 203.935L218.912 207.418ZM229.25 206.025L229.835 209.476C233.316 208.885 236.785 208.217 240.242 207.472L239.504 204.05L238.766 200.629C235.41 201.353 232.043 202.001 228.665 202.574L229.25 206.025ZM239.504 204.05L240.242 207.472C243.658 206.735 247.069 205.983 250.475 205.217L249.707 201.803L248.939 198.388C245.553 199.149 242.162 199.896 238.766 200.629L239.504 204.05ZM249.707 201.803L250.475 205.217C253.576 204.52 256.749 204.222 260 204.328L260.114 200.83L260.228 197.332C256.395 197.207 252.629 197.558 248.939 198.388L249.707 201.803ZM260.114 200.83L260 204.328C263.959 204.457 267.816 203.889 271.552 202.624L270.43 199.309L269.307 195.994C266.372 196.988 263.353 197.434 260.228 197.332L260.114 200.83ZM270.43 199.309L271.552 202.624C274.619 201.586 277.745 200.938 280.936 200.676L280.651 197.188L280.365 193.7C276.599 194.008 272.911 194.774 269.307 195.994L270.43 199.309ZM280.651 197.188L280.936 200.676C284.399 200.393 287.867 200.133 291.34 199.897L291.103 196.405L290.866 192.913C287.36 193.151 283.86 193.413 280.365 193.7L280.651 197.188ZM291.103 196.405L291.34 199.897C295.156 199.638 298.878 198.855 302.498 197.551L301.312 194.258L300.127 190.965C297.113 192.05 294.029 192.698 290.866 192.913L291.103 196.405ZM301.312 194.258L302.498 197.551C305.502 196.47 308.58 195.837 311.743 195.649L311.535 192.155L311.328 188.661C307.493 188.889 303.756 189.658 300.127 190.965L301.312 194.258ZM311.535 192.155L311.743 195.649C315.564 195.422 319.29 194.676 322.912 193.415L321.761 190.109L320.61 186.804C317.595 187.854 314.504 188.473 311.328 188.661L311.535 192.155ZM321.761 190.109L322.912 193.415C326.043 192.324 329.223 191.514 332.452 190.981L331.883 187.528L331.314 184.075C327.684 184.673 324.116 185.583 320.61 186.804L321.761 190.109ZM331.883 187.528L332.452 190.981C335.928 190.409 339.392 189.767 342.844 189.056L342.138 185.628L341.432 182.2C338.071 182.892 334.698 183.517 331.314 184.075L331.883 187.528ZM342.138 185.628L342.844 189.056C346.053 188.395 349.321 188.01 352.648 187.901L352.534 184.403L352.42 180.905C348.7 181.026 345.037 181.457 341.432 182.2L342.138 185.628ZM352.534 184.403L352.648 187.901C356.382 187.779 360.054 187.326 363.663 186.539L362.917 183.119L362.172 179.7C358.984 180.395 355.735 180.797 352.42 180.905L352.534 184.403ZM362.917 183.119L363.663 186.539C367.023 185.806 370.397 185.129 373.784 184.508L373.153 181.065L372.521 177.623C369.057 178.258 365.607 178.951 362.172 179.7L362.917 183.119ZM373.153 181.065L373.784 184.508C377.451 183.835 381.03 182.785 384.517 181.359L383.193 178.119L381.868 174.879C378.821 176.125 375.707 177.039 372.521 177.623L373.153 181.065ZM383.193 178.119L384.517 181.359C387.512 180.134 390.586 179.314 393.747 178.893L393.285 175.423L392.823 171.954C389.063 172.455 385.409 173.432 381.868 174.879L383.193 178.119ZM393.285 175.423L393.747 178.893C397.272 178.423 400.776 177.855 404.259 177.19L403.602 173.753L402.945 170.315C399.592 170.955 396.218 171.502 392.823 171.954L393.285 175.423ZM403.602 173.753L404.259 177.19C407.969 176.482 411.563 175.31 415.034 173.68L413.546 170.512L412.059 167.344C409.106 168.73 406.07 169.718 402.945 170.315L403.602 173.753ZM413.546 170.512L415.034 173.68C417.82 172.372 420.741 171.661 423.823 171.543L423.689 168.046L423.555 164.548C419.537 164.702 415.696 165.636 412.059 167.344L413.546 170.512ZM423.689 168.046L423.823 171.543C427.592 171.399 431.284 170.905 434.895 170.06L434.098 166.652L433.3 163.244C430.134 163.985 426.886 164.42 423.555 164.548L423.689 168.046ZM434.098 166.652L434.895 170.06C438.555 169.203 442.093 167.92 445.505 166.215L443.941 163.084L442.377 159.953C439.443 161.419 436.419 162.514 433.3 163.244L434.098 166.652ZM443.941 163.084L445.505 166.215C448.426 164.756 451.436 163.688 454.539 163.005L453.787 159.587L453.035 156.169C449.356 156.978 445.802 158.242 442.377 159.953L443.941 163.084ZM453.787 159.587L454.539 163.005C457.892 162.267 461.278 161.582 464.699 160.948L464.062 157.507L463.425 154.065C459.928 154.713 456.465 155.414 453.035 156.169L453.787 159.587ZM464.062 157.507L464.699 160.948C468.393 160.265 471.986 159.211 475.476 157.789L474.156 154.548L472.835 151.307C469.784 152.55 466.649 153.469 463.425 154.065L464.062 157.507ZM474.156 154.548L475.476 157.789C479.479 156.158 482.512 153.296 482.873 148.909L479.384 148.622L475.896 148.335C475.826 149.184 475.373 150.272 472.835 151.307L474.156 154.548ZM479.384 148.622L482.873 148.909C483.047 146.788 482.491 144.62 480.749 142.994C479.157 141.508 477.031 140.917 474.986 140.717L474.645 144.2L474.304 147.683C475.634 147.813 475.986 148.124 475.973 148.112C475.942 148.083 475.904 148.024 475.889 147.98C475.881 147.957 475.919 148.051 475.896 148.335L479.384 148.622ZM474.645 144.2L474.986 140.717C471.381 140.364 467.727 140.365 464.028 140.716L464.359 144.2L464.689 147.685C467.955 147.375 471.159 147.376 474.304 147.683L474.645 144.2ZM464.359 144.2L464.028 140.716C460.246 141.074 456.57 141.91 453.007 143.221L454.215 146.505L455.424 149.79C458.42 148.688 461.506 147.986 464.689 147.685L464.359 144.2ZM454.215 146.505L453.007 143.221C449.679 144.445 446.384 145.741 443.123 147.108L444.477 150.336L445.83 153.564C448.995 152.237 452.193 150.979 455.424 149.79L454.215 146.505ZM444.477 150.336L443.123 147.108C440.168 148.348 437.078 149.233 433.847 149.763L434.413 153.217L434.98 156.671C438.742 156.054 442.361 155.019 445.83 153.564L444.477 150.336ZM434.413 153.217L433.847 149.763C429.95 150.402 426.283 151.685 422.865 153.61L424.583 156.66L426.3 159.709C428.997 158.191 431.884 157.179 434.98 156.671L434.413 153.217ZM424.583 156.66L422.865 153.61C419.972 155.239 416.972 156.622 413.863 157.76L415.066 161.046L416.269 164.333C419.734 163.065 423.078 161.524 426.3 159.709L424.583 156.66ZM415.066 161.046L413.863 157.76C410.383 159.033 407.047 160.6 403.855 162.46L405.618 165.484L407.38 168.508C410.213 166.857 413.175 165.465 416.269 164.333L415.066 161.046ZM405.618 165.484L403.855 162.46C400.807 164.237 397.792 166.068 394.81 167.952L396.68 170.911L398.55 173.869C401.461 172.03 404.404 170.243 407.38 168.508L405.618 165.484ZM396.68 170.911L394.81 167.952C391.91 169.785 388.972 171.549 385.998 173.243L387.73 176.284L389.462 179.325C392.53 177.578 395.559 175.76 398.55 173.869L396.68 170.911ZM387.73 176.284L385.998 173.243C382.979 174.962 379.958 176.678 376.935 178.39L378.66 181.436L380.386 184.481C383.413 182.766 386.438 181.047 389.462 179.325L387.73 176.284ZM378.66 181.436L376.935 178.39C373.856 180.135 370.825 181.96 367.842 183.865L369.726 186.815L371.61 189.765C374.489 187.925 377.414 186.164 380.386 184.481L378.66 181.436ZM369.726 186.815L367.842 183.865C365.043 185.653 362.128 187.249 359.094 188.655L360.565 191.831L362.036 195.007C365.354 193.47 368.545 191.722 371.61 189.765L369.726 186.815ZM360.565 191.831L359.094 188.655C355.809 190.177 352.62 191.86 349.527 193.704L351.32 196.71L353.113 199.717C355.996 197.997 358.97 196.427 362.036 195.007L360.565 191.831ZM351.32 196.71L349.527 193.704C346.535 195.489 343.547 197.281 340.563 199.08L342.371 202.077L344.179 205.074C347.152 203.281 350.13 201.495 353.113 199.717L351.32 196.71ZM342.371 202.077L340.563 199.08C337.388 200.995 334.408 203.216 331.625 205.739L333.975 208.333L336.326 210.926C338.78 208.702 341.397 206.752 344.179 205.074L342.371 202.077ZM333.975 208.333L331.625 205.739C329.312 207.836 326.715 209.463 323.818 210.632L325.127 213.878L326.437 217.124C330.099 215.646 333.401 213.577 336.326 210.926L333.975 208.333ZM325.127 213.878L323.818 210.632C320.112 212.127 316.819 214.283 313.962 217.086L316.413 219.584L318.864 222.083C321.066 219.923 323.584 218.275 326.437 217.124L325.127 213.878ZM316.413 219.584L313.962 217.086C311.602 219.401 309.063 221.425 306.343 223.162L308.228 226.111L310.112 229.061C313.247 227.058 316.165 224.73 318.864 222.083L316.413 219.584ZM308.228 226.111L306.343 223.162C303.432 225.022 300.501 226.861 297.551 228.679L299.388 231.659L301.224 234.638C304.206 232.8 307.168 230.941 310.112 229.061L308.228 226.111ZM299.388 231.659L297.551 228.679C294.574 230.514 291.605 232.368 288.642 234.239L290.511 237.198L292.38 240.157C295.321 238.3 298.269 236.46 301.224 234.638L299.388 231.659ZM290.511 237.198L288.642 234.239C285.621 236.147 282.673 238.156 279.797 240.266L281.867 243.088L283.937 245.91C286.682 243.896 289.497 241.979 292.38 240.157L290.511 237.198ZM281.867 243.088L279.797 240.266C276.828 242.443 274.053 244.86 271.475 247.515L273.985 249.954L276.496 252.392C278.804 250.016 281.284 247.856 283.937 245.91L281.867 243.088ZM273.985 249.954L271.475 247.515C269.014 250.048 266.584 252.604 264.183 255.182L266.744 257.567L269.305 259.952C271.673 257.41 274.07 254.89 276.496 252.392L273.985 249.954ZM266.744 257.567L264.183 255.182C261.967 257.561 259.53 259.678 256.87 261.534L258.874 264.404L260.877 267.274C263.943 265.134 266.753 262.693 269.305 259.952L266.744 257.567ZM258.874 264.404L256.87 261.534C253.861 263.634 251.034 265.948 248.388 268.475L250.806 271.006L253.223 273.537C255.609 271.257 258.16 269.17 260.877 267.274L258.874 264.404ZM250.806 271.006L248.388 268.475C245.939 270.815 243.4 273.055 240.773 275.196L242.984 277.909L245.195 280.622C247.965 278.365 250.641 276.004 253.223 273.537L250.806 271.006ZM242.984 277.909L240.773 275.196C238.112 277.364 235.402 279.48 232.643 281.544L234.739 284.347L236.835 287.15C239.672 285.028 242.459 282.852 245.195 280.622L242.984 277.909ZM234.739 284.347L232.643 281.544C229.585 283.831 226.884 286.504 224.545 289.557L227.323 291.686L230.101 293.815C232.053 291.267 234.296 289.048 236.835 287.15L234.739 284.347ZM227.323 291.686L224.545 289.557C222.597 292.098 220.351 294.305 217.799 296.186L219.877 299.003L221.954 301.82C225.039 299.545 227.756 296.874 230.101 293.815L227.323 291.686ZM219.877 299.003L217.799 296.186C214.918 298.311 212.118 300.525 209.4 302.829L211.662 305.499L213.925 308.169C216.523 305.968 219.199 303.852 221.954 301.82L219.877 299.003ZM211.662 305.499L209.4 302.829C206.618 305.186 204.011 307.725 201.578 310.447L204.187 312.78L206.797 315.112C209.015 312.631 211.39 310.317 213.925 308.169L211.662 305.499ZM204.187 312.78L201.578 310.447C199.313 312.981 196.958 315.417 194.51 317.756L196.929 320.286L199.347 322.816C201.928 320.35 204.411 317.782 206.797 315.112L204.187 312.78ZM196.929 320.286L194.51 317.756C191.886 320.265 189.428 322.942 187.135 325.788L189.86 327.984L192.586 330.18C194.69 327.568 196.944 325.114 199.347 322.816L196.929 320.286ZM189.86 327.984L187.135 325.788C185.067 328.354 182.797 330.707 180.323 332.849L182.614 335.495L184.905 338.141C187.697 335.724 190.257 333.07 192.586 330.18L189.86 327.984ZM182.614 335.495L180.323 332.849C177.556 335.245 174.984 337.84 172.608 340.634L175.274 342.902L177.94 345.17C180.086 342.646 182.408 340.304 184.905 338.141L182.614 335.495ZM175.274 342.902L172.608 340.634C170.494 343.119 168.158 345.377 165.598 347.41L167.775 350.151L169.951 352.892C172.867 350.577 175.531 348.002 177.94 345.17L175.274 342.902ZM167.775 350.151L165.598 347.41C162.851 349.592 160.115 351.787 157.39 353.997L159.594 356.715L161.799 359.434C164.505 357.24 167.223 355.059 169.951 352.892L167.775 350.151ZM159.594 356.715L157.39 353.997C154.415 356.41 151.824 359.207 149.623 362.38L152.499 364.375L155.375 366.37C157.203 363.734 159.343 361.425 161.799 359.434L159.594 356.715ZM152.499 364.375L149.623 362.38C147.84 364.952 145.681 367.134 143.136 368.941L145.163 371.795L147.189 374.649C150.397 372.371 153.13 369.607 155.375 366.37L152.499 364.375ZM145.163 371.795L143.136 368.941C139.99 371.176 137.223 373.803 134.846 376.817L137.595 378.984L140.343 381.151C142.304 378.665 144.583 376.5 147.189 374.649L145.163 371.795ZM137.595 378.984L134.846 376.817C132.891 379.297 130.613 381.446 128.004 383.271L130.01 386.139L132.016 389.008C135.182 386.793 137.961 384.172 140.343 381.151L137.595 378.984ZM130.01 386.139L128.004 383.271C124.811 385.504 122.046 388.184 119.718 391.3L122.522 393.394L125.326 395.489C127.206 392.972 129.433 390.814 132.016 389.008L130.01 386.139ZM122.522 393.394L119.718 391.3C117.781 393.893 115.573 396.209 113.089 398.253L115.314 400.955L117.538 403.657C120.458 401.254 123.055 398.53 125.326 395.489L122.522 393.394ZM115.314 400.955L113.089 398.253C110.026 400.775 107.574 403.799 105.754 407.306L108.861 408.918L111.967 410.53C113.349 407.868 115.199 405.583 117.538 403.657L115.314 400.955ZM108.861 408.918L105.754 407.306C104.141 410.413 103.096 412.306 102.563 413.136L105.508 415.027L108.454 416.917C109.189 415.772 110.378 413.593 111.967 410.53L108.861 408.918ZM105.508 415.027L102.552 413.154L101.663 414.557L104.62 416.43L107.577 418.302L108.465 416.9L105.508 415.027ZM104.62 416.43L101.876 414.257L101.814 414.335L104.558 416.508L107.302 418.681L107.364 418.602L104.62 416.43Z" fill="black"/>
</svg>
